<?xml version="1.0" encoding="UTF-8"?>
<svg width="70px" height="37px" viewBox="0 0 70 37" version="1.1" xmlns="http://www.w3.org/2000/svg" xmlns:xlink="http://www.w3.org/1999/xlink">
    <!-- Generator: Sketch 52.3 (67297) - http://www.bohemiancoding.com/sketch -->
    <title>icon</title>
    <desc>Created with Sketch.</desc>
    <defs>
        <linearGradient x1="22.6238825%" y1="18.3250612%" x2="67.8781439%" y2="120.968679%" id="linearGradient-1">
            <stop stop-color="#05568A" offset="0%"></stop>
            <stop stop-color="#8E2AFF" offset="100%"></stop>
        </linearGradient>
        <linearGradient x1="39.4490138%" y1="23.3848926%" x2="68.7629822%" y2="98.6030961%" id="linearGradient-2">
            <stop stop-color="#2BB1E4" offset="0%"></stop>
            <stop stop-color="#5B75F0" offset="100%"></stop>
        </linearGradient>
    </defs>
    <g id="Page-1" stroke="none" stroke-width="1" fill="none" fill-rule="evenodd">
        <g id="StaffCloud.io-Website-Design---V2" transform="translate(-388.000000, -40.000000)">
            <g id="Group-8" transform="translate(388.000000, 40.000000)">
                <g id="StaffCloud-Logo">
                    <g id="icon" transform="translate(0.000030, 0.118482)">
                        <path d="M38.7647747,5.68434189e-14 C38.778874,0.157343544 38.7395381,0.417055176 38.8152479,0.456864988 C40.2989928,1.23434114 41.5836886,2.28065201 42.7328415,3.4735246 C44.5890924,5.40015364 45.8794754,7.67713272 46.7214055,10.2205769 C47.5290945,12.6598757 47.7104898,15.1759507 47.5050427,17.6949876 C47.2947379,20.272673 46.5513844,22.7356681 45.4286529,25.0887124 C44.5280744,26.976361 43.4507214,28.7566653 42.0606954,30.2905279 C40.7560947,31.7300791 39.2462839,32.9868133 37.7906191,34.2835942 C37.4940597,34.5476897 37.0364839,34.6308637 36.6445468,34.8012403 C36.6886219,34.9518303 36.7278393,35.0861885 36.7670567,35.2204281 C36.6513002,35.1773008 36.5363731,35.131093 36.4190763,35.0929419 C36.3836503,35.0814492 36.3259498,35.0757621 36.3039122,35.095667 C35.9488229,35.4150933 35.5978805,35.7391405 35.2459902,36.0620028 C35.2827194,36.1257459 35.3195672,36.189489 35.356415,36.2532321 L36.0427788,36.2532321 C38.1144293,36.2532321 40.1861983,36.2545354 42.2577303,36.2559571 C47.4899955,36.2590377 52.7222608,36.2624736 57.9546445,36.2442275 C60.5370691,36.2351044 62.8321759,35.378601 64.8762202,33.7642894 C66.6119754,32.393576 67.8124308,30.6651666 68.5933429,28.6366434 C68.8614667,27.9394978 68.9316078,27.1666424 69.0980744,26.429687 C69.1176239,26.3436693 69.1748505,26.2660639 69.2145418,26.1843116 L69.2145418,23.222272 C69.017507,22.4592506 68.8471304,21.688054 68.618224,20.9346296 C67.9657459,18.7869139 66.6700313,17.0731963 64.9647259,15.6511803 C63.3854849,14.334139 61.541082,13.53972 59.5389802,13.224085 C58.3829554,13.0418604 57.1774053,13.1627116 55.9947221,13.1820241 C55.8974487,13.1835643 55.7373801,13.446475 55.7206742,13.6003826 C55.6235193,14.4988284 55.6097755,15.40853 55.4749434,16.3005779 C55.2228146,17.9676137 54.8857345,19.6225645 54.1770961,21.1675644 C53.7350414,22.1315305 53.2342197,23.0684829 52.759701,24.0176389 C52.6996308,23.9948904 52.6393237,23.9720235 52.579135,23.9493935 C52.7245119,23.3804449 52.8579222,22.8082973 53.0173984,22.2432587 C53.5754467,20.2648532 53.5979582,18.2251927 53.4228424,16.2233279 C52.9937021,11.3221002 50.8737111,7.21540999 47.1532709,3.97955945 C45.6745022,2.69332337 44.0116132,1.6676283 42.1740823,0.957805126 C41.2842856,0.613971569 40.3760058,0.31788609 39.4760197,5.68434189e-14 L38.7647747,5.68434189e-14 Z" id="Fill-1" fill="url(#linearGradient-1)"></path>
                        <path d="M26.3365305,1.44227632 C24.7268397,2.19593768 23.2473601,3.18040116 22.0588714,4.51675495 C21.0406406,5.66176098 20.1030959,6.87927774 19.1484897,8.07973315 C18.9403176,8.34134048 18.9240856,8.56325649 19.291734,8.83611958 C20.0238317,9.37935764 20.7483466,9.97069923 21.3389773,10.6596696 C23.1736646,12.7993286 24.4205648,15.231637 24.6689022,18.1141755 C24.4704455,17.747001 24.280875,17.3747319 24.071992,17.0136 C23.1396604,15.4014211 21.9426409,14.0420819 20.4171905,12.9450609 C19.2617581,12.1141496 18.0270615,11.4430699 16.6832434,11.0574123 C14.8729633,10.5381075 13.0109067,10.4081332 11.1153198,10.64794 C9.42683879,10.8613253 7.87093863,11.3848954 6.41823593,12.2441239 C4.73710073,13.2383028 3.35311735,14.5197997 2.2281347,16.1493954 C1.28051899,17.52236 0.671049726,19.0107256 0.296292476,20.5841611 C-0.0580859424,22.0721713 -0.0689862482,23.6099437 0.128759516,25.149138 C0.352097302,26.8870259 0.893202696,28.5099866 1.79555844,29.9905325 C3.03546822,32.0253352 4.68745695,33.6311161 6.83102577,34.7570466 C8.57448228,35.6727908 10.3961366,36.1868824 12.3425521,36.2413839 C14.0985677,36.2905538 15.8579007,36.2833264 17.6145087,36.2458862 C18.5333333,36.2263367 19.4540537,36.2464786 20.3747741,36.266502 C22.3707149,36.3101032 24.3663002,36.353586 26.3420991,35.9935204 C27.7834276,35.7309652 29.2137373,35.3256397 30.5944032,34.8315715 C32.5038524,34.1482882 34.220532,33.0808877 35.8501278,31.8666884 C37.7109995,30.479743 39.2889372,28.8278727 40.6634421,26.9692521 C41.7781168,25.4624033 42.7161356,23.8411013 43.3254863,22.0789247 C43.855099,20.5474318 44.3226273,18.9590676 44.5226243,17.3588554 C44.7258202,15.7338804 44.6163432,14.0621053 44.5550882,12.413908 C44.4947811,10.7868004 43.9810449,9.24606586 43.3399411,7.76634936 C42.6451651,6.16222719 41.7128335,4.70502219 40.4091806,3.50136777 C39.271165,2.45079157 38.0062556,1.62296074 36.5575813,1.07107352 C35.1225323,0.524517973 33.6466073,0.240636097 32.1056358,0.206039475 C32.0080069,0.203788325 31.9107336,0.20272199 31.8136971,0.20272199 C29.8918074,0.20272199 28.0674279,0.631743806 26.3365305,1.44227632" id="Fill-4" fill="url(#linearGradient-2)"></path>
                    </g>
                </g>
            </g>
        </g>
    </g>
</svg>