<?xml version="1.0" encoding="UTF-8"?>
<svg width="180px" height="35px" viewBox="0 0 180 35" version="1.1" xmlns="http://www.w3.org/2000/svg" xmlns:xlink="http://www.w3.org/1999/xlink">
    <!-- Generator: Sketch 52.3 (67297) - http://www.bohemiancoding.com/sketch -->
    <title>Group 3</title>
    <desc>Created with Sketch.</desc>
    <g id="Page-1" stroke="none" stroke-width="1" fill="none" fill-rule="evenodd">
        <g id="StaffCloud.io-Website-Design---V2" transform="translate(-891.000000, -8578.000000)" fill-rule="nonzero">
            <g id="Group-6" transform="translate(584.000000, 7958.000000)">
                <g id="Group-3" transform="translate(307.000000, 620.000000)">
                    <path d="M30,12.6413 L30,29.391275 L25.4993625,29.391275 L25.4993625,34 L2.30926389e-14,34 L2.30926389e-14,1 L17.9385283,1 L25.4993625,8.13478333 L25.4993625,12.6413 L30,12.6413 Z M27.2679254,26.641275 L27.2679254,15.3913 L8.14340356,15.3913 L8.14340356,26.641275 L27.2679254,26.641275 Z M11.0995993,21.6074917 L11.0995993,23.483725 L10.0187906,23.483725 L10.0187906,17.8865583 L12.3762067,17.8865583 C12.6319288,17.8865583 12.8682533,17.9404583 13.0849979,18.0481667 C13.3016514,18.1559667 13.4883431,18.2978667 13.6449821,18.4738667 C13.801621,18.65005 13.9242001,18.8497 14.0130836,19.073 C14.101785,19.2964833 14.1462267,19.5211583 14.1462267,19.747025 C14.1462267,19.983525 14.1043349,20.213425 14.0209155,20.4368167 C13.9373141,20.6603 13.8198349,20.858575 13.6684779,21.0320083 C13.5169389,21.2054417 13.3342541,21.344775 13.1202416,21.449825 C12.906047,21.5549667 12.6710886,21.6074917 12.4153664,21.6074917 L11.0995993,21.6074917 Z M11.0995993,18.8404417 L11.0995993,20.6536083 L12.3527108,20.6536083 C12.5510594,20.6536083 12.7168964,20.5722083 12.8500395,20.409225 C12.9831826,20.246425 13.0497541,20.0256917 13.0497541,19.747025 C13.0497541,19.605125 13.0288082,19.4777083 12.9870985,19.3646833 C12.9452978,19.25175 12.8904742,19.155775 12.8226276,19.0769417 C12.7546901,18.9981083 12.6750046,18.9389833 12.5837533,18.8995667 C12.4923198,18.86015 12.3997025,18.8404417 12.3057191,18.8404417 L11.0995993,18.8404417 Z M15.9788112,19.8968083 L15.9788112,23.483725 L14.8979115,23.483725 L14.8979115,17.8865583 L15.7359298,17.8865583 L18.6338413,21.5601917 L18.6338413,17.8944417 L19.7145589,17.8944417 L19.7145589,23.483725 L18.8374719,23.483725 L15.9788112,19.8968083 Z M21.316101,22.6953917 C21.0785016,22.4379917 20.8905349,22.1344833 20.7522008,21.7848667 C20.6137757,21.4354333 20.5446542,21.0584083 20.5446542,20.6536083 C20.5446542,20.270075 20.6137757,19.9086333 20.7522008,19.56965 C20.8904438,19.2306667 21.0811426,18.93385 21.323933,18.6788333 C21.5667233,18.424 21.8525894,18.2216 22.1815312,18.0718167 C22.510473,17.9220333 22.8681015,17.8471417 23.2545079,17.8471417 C23.7765163,17.8471417 24.2243033,17.9575083 24.5976868,18.1782417 C24.9708882,18.398975 25.2516544,18.695975 25.4396212,19.0690583 L24.6329306,19.6681917 C24.4919556,19.3897083 24.2947908,19.1767667 24.0416186,19.0296417 C23.7883553,18.8826083 23.5129622,18.8089083 23.2153482,18.8089083 C22.9803898,18.8089083 22.7650112,18.8588667 22.5692126,18.9586917 C22.3734139,19.0586083 22.206302,19.1951917 22.0679679,19.368625 C21.9295428,19.5420583 21.8224455,19.7418917 21.7468581,19.9677583 C21.6710886,20.1938083 21.6332949,20.4327833 21.6332949,20.6851417 C21.6332949,20.94795 21.6750046,21.1936167 21.758606,21.4222333 C21.8420254,21.65085 21.9569546,21.8493083 22.1032117,22.017425 C22.2492866,22.1856333 22.4229555,22.3183667 22.6240362,22.4155333 C22.8249347,22.5128833 23.0430454,22.561375 23.2780038,22.561375 C23.815676,22.561375 24.3012568,22.3065417 24.7347459,21.7966917 L24.7347459,21.402525 L23.6147775,21.402525 L23.6147775,20.6063083 L25.6275879,20.6063083 L25.6275879,23.483725 L24.7347459,23.483725 L24.7347459,22.8530583 C24.2908749,23.29975 23.7739664,23.5231417 23.1840204,23.5231417 C22.8184688,23.5231417 22.4752292,23.449625 22.1541194,23.3024083 C21.8330095,23.155375 21.5536094,22.952975 21.316101,22.6953917 Z" id="Combined-Shape" fill="#F5E8F7"></path>
                    <path d="M63.5995523,15.4653423 C64.7182622,15.4653423 65.3515418,16.0120697 65.3515418,16.9280557 C65.3515418,17.9466341 64.6154934,18.5527441 63.4231048,18.5527441 C63.0997306,18.5527441 62.8643034,18.5378059 62.6726036,18.4934849 L62.6726036,15.5543545 C62.8345982,15.5097867 63.1438886,15.4653423 63.5995523,15.4653423 Z M78.1013297,12.1616446 C79.149559,12.1616446 79.9999385,13.0146677 80,14.0673819 L80,23.9772404 C80,25.0292755 79.1496205,25.8827925 78.1013912,25.8827925 L77.287974,25.8827925 L77.287974,32.6666074 C77.287974,33.4016678 76.6918412,34 75.9595444,34 L54.0404556,34 C53.3074823,34 52.712026,33.401606 52.712026,32.6666074 L52.712026,25.8827925 L51.8987318,25.8827925 C50.850195,25.8827925 50,25.0292755 50,23.9772404 L50,14.0670732 C50,13.0142974 50.850195,12.1613359 51.8987318,12.1613359 L52.7119645,12.1613359 L52.7119645,1.33339264 C52.7119645,0.598332247 53.3074208,7.2475359e-13 54.0403941,7.2475359e-13 L70.0918215,7.2475359e-13 C70.1437287,7.2475359e-13 70.1949593,0.00734566568 70.2442834,0.0190740394 C70.2565837,0.0222839102 70.267654,0.0273456294 70.2799542,0.0308024132 C70.3253423,0.0444443638 70.3694387,0.0633332184 70.4110137,0.0861109548 C70.425897,0.0943825447 70.4402268,0.102407221 70.4544336,0.111975105 C70.5024047,0.143394801 70.5477927,0.179691032 70.5867231,0.223332928 C70.5880761,0.225431689 70.5899827,0.226110701 70.5919507,0.228024277 L77.1232118,7.71640574 C77.2299167,7.83813392 77.2794868,7.99177561 77.2807784,8.14819508 C77.2840379,8.17307158 77.2879125,8.19782462 77.2879125,8.22239248 L77.2879125,12.1616446 L78.1013297,12.1616446 Z M54.0403941,1.33363955 L54.0403941,12.1620767 L75.9594829,12.1620767 L75.9594829,8.82208275 L70.0918215,8.82208275 C69.7253349,8.82208275 69.4276067,8.52374996 69.4276067,8.15541729 L69.4276067,1.33363955 L54.0403941,1.33363955 Z M67.5731559,16.8686113 C67.5731559,15.8940452 67.1467054,15.066701 66.5145328,14.5647266 C65.851548,14.0326906 64.8654965,13.7670738 63.4822692,13.7670738 C62.1136176,13.7670738 61.1425725,13.8552835 60.4504975,13.9741104 L60.4504975,23.7961296 L62.6726036,23.7961296 L62.6726036,20.2365682 C62.8785717,20.2662595 63.1438886,20.2805187 63.4383572,20.2805187 C64.7622357,20.2805187 65.8953985,19.9560132 66.661152,19.2323725 C67.2494127,18.6705217 67.5731559,17.8433627 67.5731559,16.8686113 Z M53.4151097,23.7223026 C53.856874,23.8707591 54.5340656,23.9586602 55.0487091,23.9583516 C57.2263496,23.9583516 58.5806098,22.9690941 58.5806098,20.1328647 L58.5806098,13.8406539 L56.343928,13.8406539 L56.343928,20.1035437 C56.343928,21.6542817 55.7557904,22.0832932 54.8132818,22.0832932 C54.371825,22.0832932 53.9750181,22.0090958 53.6657892,21.9055775 L53.4151097,23.7223026 Z M75.9595444,32.3056821 L75.9595444,25.8827925 L54.0403941,25.8827925 L54.0403941,32.3056821 L75.9595444,32.3056821 Z M77.287236,23.3385379 L77.2871745,23.3385379 L77.2871745,18.0947202 L73.5931561,18.0947202 L73.5931561,19.8522479 L75.1239868,19.8522479 L75.1239868,21.9348984 C74.9476008,22.0237254 74.5353571,22.0829846 74.0203447,22.0829846 C72.1804696,22.0829846 70.9006876,20.8717522 70.9006876,18.8186695 C70.9006876,16.6621302 72.3127591,15.598305 74.1815397,15.598305 C75.270606,15.598305 75.9477976,15.7903417 76.4926383,16.0266993 L76.9635543,14.224789 C76.47837,13.9881845 75.491765,13.7375059 74.2113679,13.7375059 C70.9583759,13.7375059 68.5596379,15.6281198 68.5454311,18.9368792 C68.5301787,20.3994074 69.0312304,21.6992199 69.9439107,22.5556998 C70.8558531,23.4417476 72.1661398,23.8997097 73.9752641,23.8997097 C75.2861659,23.8997097 76.5958376,23.5748337 77.287236,23.3385379 Z" id="Combined-Shape" fill="#FDE8EF"></path>
                    <path d="M111.836447,14.5236894 C113.519262,14.5236894 114.57366,15.4577801 114.560763,17.2246467 C114.560763,19.2559292 113.404365,20.2149647 111.630883,20.2026842 C111.386628,20.2026842 111.116581,20.2026842 110.949706,20.1646912 L110.949706,14.5992917 C111.116581,14.5616824 111.399525,14.5236894 111.836447,14.5236894 Z M104.268469,14.4987445 C105.245487,14.4987445 105.797697,14.9654061 105.797697,15.7479085 C105.797697,16.6186774 105.155211,17.1359963 104.114101,17.1359963 C103.831156,17.1359963 103.625983,17.123332 103.458717,17.085339 L103.458717,14.5743468 C103.600189,14.5367375 103.869455,14.4987445 104.268469,14.4987445 Z M117.230366,-5.68434189e-14 L115.763276,4.11782766 L125,10.3809169 L125,35 L99,35 L99,-5.68434189e-14 L117.230366,-5.68434189e-14 Z M106.941199,17.7166369 C107.45511,17.2369272 107.738054,16.5304109 107.738054,15.6972511 C107.738054,14.8644752 107.365615,14.1579588 106.813014,13.7289065 C106.234229,13.2745255 105.373281,13.047335 104.165296,13.047335 C102.970208,13.047335 102.122157,13.1229372 101.51836,13.2242519 L101.51836,21.6153332 L103.458717,21.6153332 L103.458717,18.5743577 C103.638879,18.6000702 103.869846,18.6127345 104.127388,18.6127345 C105.283786,18.6127345 106.272919,18.3345029 106.941199,17.7166369 Z M117.926002,13.1106567 L117.926002,21.6153332 L119.892543,21.6153332 L119.892543,18.1951952 L123.002585,18.1951952 L123.002585,16.630958 L119.892543,16.630958 L119.892543,14.687942 L123.221046,14.687942 L123.221046,13.1106567 L117.926002,13.1106567 Z M116.642201,17.1609412 C116.642201,15.6596419 116.077094,14.6123398 115.178238,13.9564807 C114.342693,13.3374634 113.27579,13.047335 111.631274,13.047335 C110.641359,13.047335 109.703423,13.1106567 108.983556,13.2242519 L108.983556,21.5781077 C109.471674,21.6406618 110.191541,21.7043673 111.206857,21.7043673 C112.902569,21.7043673 114.290715,21.3505334 115.20325,20.6060241 C116.039186,19.9117882 116.642201,18.7888839 116.642201,17.1609412 Z M119.054653,2.22044605e-14 L125,8.17310117 L117.86699,3.33647657 L119.054653,2.22044605e-14 Z" id="Combined-Shape" fill="#FFEEE7"></path>
                    <path d="M178.90625,6.40128457 L164.6875,6.40128457 L164.6875,3.10143279 C164.6875,2.77364751 164.543125,2.46346145 164.291562,2.25447083 C164.042188,2.04548022 163.7075,1.95528427 163.3925,2.02128131 L145.8925,5.32113309 C145.374063,5.41792874 145,5.87110839 145,6.40128457 L145,30.6001976 C145,31.1281739 145.374063,31.5835535 145.8925,31.6803491 L163.3925,34.9802009 C163.458125,34.9934003 163.525937,35 163.59375,35 C163.8475,35 164.094687,34.912004 164.291562,34.7470114 C164.543125,34.5380208 164.6875,34.2256348 164.6875,33.9000494 L164.6875,30.6001976 L178.90625,30.6001976 C179.51,30.6001976 180,30.1074198 180,29.500247 L180,7.50123516 C180,6.89406244 179.51,6.40128457 178.90625,6.40128457 Z M160.305937,14.2219333 L159.212187,24.1236885 C159.155313,24.6274659 158.761562,25.0300478 158.260625,25.0916451 C158.214687,25.0982448 158.170938,25.1004447 158.125,25.1004447 C157.674375,25.1004447 157.263125,24.8188573 157.10125,24.3876767 L154.84375,18.3335486 L152.58625,24.3876767 C152.41125,24.8584555 151.951875,25.1466426 151.444375,25.093845 C150.947812,25.0410473 150.549688,24.6538647 150.479688,24.1544871 L149.385938,16.454833 C149.300625,15.85426 149.71625,15.297685 150.313437,15.2118888 C150.912813,15.1238928 151.46625,15.5440739 151.551562,16.1446469 L152.039375,19.5852924 L153.817813,14.8137067 C154.137188,13.9557452 155.545938,13.9557452 155.8675,14.8137067 L157.543125,19.3059049 L158.131563,13.9777443 C158.199375,13.3749713 158.755,12.9437907 159.339063,13.0075878 C159.940625,13.0757848 160.371563,13.6191604 160.305937,14.2219333 Z M177.8125,28.4002964 L164.6875,28.4002964 L164.6875,26.2003953 L174.53125,26.2003953 C175.135,26.2003953 175.625,25.7076174 175.625,25.1004447 C175.625,24.4932719 175.135,24.0004941 174.53125,24.0004941 L164.6875,24.0004941 L164.6875,21.8005929 L174.53125,21.8005929 C175.135,21.8005929 175.625,21.307815 175.625,20.7006423 C175.625,20.0934696 175.135,19.6006917 174.53125,19.6006917 L164.6875,19.6006917 L164.6875,17.4007905 L174.53125,17.4007905 C175.135,17.4007905 175.625,16.9080126 175.625,16.3008399 C175.625,15.6936672 175.135,15.2008893 174.53125,15.2008893 L164.6875,15.2008893 L164.6875,13.0009881 L174.53125,13.0009881 C175.135,13.0009881 175.625,12.5082103 175.625,11.9010375 C175.625,11.2938648 175.135,10.8010869 174.53125,10.8010869 L164.6875,10.8010869 L164.6875,8.60118576 L177.8125,8.60118576 L177.8125,28.4002964 Z" id="Shape" fill="#E5F4F3"></path>
                </g>
            </g>
        </g>
    </g>
</svg>