<?xml version="1.0" encoding="UTF-8"?>
<svg width="874px" height="398px" viewBox="0 0 874 398" version="1.1" xmlns="http://www.w3.org/2000/svg" xmlns:xlink="http://www.w3.org/1999/xlink">
    <!-- Generator: Sketch 52.3 (67297) - http://www.bohemiancoding.com/sketch -->
    <title>Group 46</title>
    <desc>Created with Sketch.</desc>
    <defs>
        <linearGradient x1="50%" y1="130.651573%" x2="50%" y2="0%" id="linearGradient-1">
            <stop stop-color="#009EFD" offset="0%"></stop>
            <stop stop-color="#2AF598" offset="100%"></stop>
        </linearGradient>
        <linearGradient x1="100%" y1="50%" x2="0%" y2="50%" id="linearGradient-2">
            <stop stop-color="#60729F" stop-opacity="0" offset="0%"></stop>
            <stop stop-color="#404E7D" offset="100%"></stop>
        </linearGradient>
        <linearGradient x1="100%" y1="50%" x2="32.058433%" y2="50%" id="linearGradient-3">
            <stop stop-color="#60729F" stop-opacity="0" offset="0%"></stop>
            <stop stop-color="#323E65" offset="100%"></stop>
        </linearGradient>
    </defs>
    <g id="Page-1" stroke="none" stroke-width="1" fill="none" fill-rule="evenodd">
        <g id="StaffCloud.io-Website-Design---V2" transform="translate(-1046.000000, -9094.000000)">
            <g id="Group-43" transform="translate(-115.000000, 8580.000000)">
                <g id="Group-42">
                    <g id="Group-36">
                        <g id="Group-46" transform="translate(1161.000000, 514.000000)">
                            <g id="Group-180-Copy" opacity="0.02" transform="translate(638.000000, 140.000000) scale(-1, 1) translate(-638.000000, -140.000000) translate(124.000000, 0.000000)">
                                <polygon id="Fill-1" fill="#E9EBEE" points="829 113 843 113 843 102 829 102"></polygon>
                                <polygon id="Fill-2" fill="#E9EBEE" points="823 235 854 235 854 105 823 105"></polygon>
                                <polygon id="Fill-3" fill="#E9EBEE" points="828 163 828 280 869 280 869 185.689822 861.167393 185.689822 861.167393 170.546536 858.84932 170.546536 858.84932 163"></polygon>
                                <polygon id="Fill-4" fill="#E9EBEE" points="828.3885 147 830.6115 147 830.6115 85 828.3885 85"></polygon>
                                <polygon id="Fill-5" fill="#E9EBEE" points="834.3885 147 836.6115 147 836.6115 85 834.3885 85"></polygon>
                                <polygon id="Stroke-6" stroke="#CACCCF" points="795 192 822 192 822 59 795 59"></polygon>
                                <polygon id="Fill-7" fill="#E9EBEE" points="749 280 806 280 806 99 749 99"></polygon>
                                <polygon id="Fill-8" fill="#E9EBEE" points="798 280 851 280 851 147 798 147"></polygon>
                                <polygon id="Fill-9" fill="#E9EBEE" points="793 280 824 280 824 163 793 163"></polygon>
                                <polygon id="Fill-10" fill="#FFFFFF" points="807 170 834 170 834 164 807 164"></polygon>
                                <polygon id="Fill-11" fill="#FFFFFF" points="807 181 834 181 834 175 807 175"></polygon>
                                <polygon id="Fill-12" fill="#FFFFFF" points="807 190 834 190 834 184 807 184"></polygon>
                                <polygon id="Fill-13" fill="#FFFFFF" points="807 199 834 199 834 193 807 193"></polygon>
                                <polygon id="Fill-14" fill="#FFFFFF" points="807 210 834 210 834 204 807 204"></polygon>
                                <polygon id="Fill-15" fill="#FFFFFF" points="807 218 834 218 834 212 807 212"></polygon>
                                <polygon id="Fill-16" fill="#FFFFFF" points="807 229 834 229 834 223 807 223"></polygon>
                                <polygon id="Fill-17" fill="#FFFFFF" points="807 238 834 238 834 232 807 232"></polygon>
                                <polygon id="Fill-18" fill="#FFFFFF" points="807 249 834 249 834 243 807 243"></polygon>
                                <polygon id="Fill-19" fill="#E9EBEE" points="940 153 957 153 957 25 940 25"></polygon>
                                <polygon id="Fill-20" fill="#E9EBEE" points="927 189 987 189 987 31 927 31"></polygon>
                                <polygon id="Stroke-21" stroke="#CACCCF" points="618 278 678 278 678 83 618 83"></polygon>
                                <polygon id="Fill-23" fill="#A98484" points="922 150.901 933 150.901 933 148.099 922 148.099"></polygon>
                                <polygon id="Fill-24" fill="#A98484" points="919 151.109 933 151.109 933 149.891 919 149.891"></polygon>
                                <polygon id="Fill-25" fill="#9B5755" points="915 177 936 177 936 152 915 152"></polygon>
                                <polygon id="Fill-26" fill="#E9EBEE" points="914.198107 81 914.198107 130.992524 909.713536 130.992524 909.713536 97.3866596 885.58279 97.3866596 885.58279 130.992524 881.542343 130.992524 881.542343 182.794929 877 182.794929 877 280 996 280 996 118.576743 936.94954 86.6395882 915.050247 86.6395882 915.050247 81"></polygon>
                                <polygon id="Fill-27" fill="#E9EBEE" points="950 280 997 280 997 119.206955 950 94"></polygon>
                                <polygon id="Stroke-28" stroke="#CACCCF" points="911 280 939 280 939 139 911 139"></polygon>
                                <polygon id="Fill-30" fill="#FFFFFF" points="931.549 264 933.451 264 933.451 157 931.549 157"></polygon>
                                <polygon id="Fill-31" fill="#FFFFFF" points="928.549 264 930.451 264 930.451 157 928.549 157"></polygon>
                                <polygon id="Fill-32" fill="#FFFFFF" points="921.5475 264 923.4525 264 923.4525 157 921.5475 157"></polygon>
                                <polygon id="Fill-33" fill="#FFFFFF" points="917.549 264 919.451 264 919.451 157 917.549 157"></polygon>
                                <polygon id="Stroke-34" stroke="#CACCCF" points="948 157 965 157 965 137 948 137"></polygon>
                                <polygon id="Fill-35" fill="#E9EBEE" points="729 280 750 280 750 149 729 149"></polygon>
                                <polygon id="Fill-36" fill="#C48983" points="679 164 715 164 715 144 679 144"></polygon>
                                <polygon id="Fill-37" fill="#E9EBEE" points="750 68 770 68 770 43 750 43"></polygon>
                                <polygon id="Fill-38" fill="#E9EBEE" points="720.24562 37 720.24562 49.9674752 710.096142 49.9674752 710.096142 150.765749 704.703547 150.765749 704.703547 120.538645 658.928598 126.024884 658.928598 141.369609 656.144616 141.369609 654 280 781 280 781 192.340305 781 146.990547 775.143408 146.990547 775.143408 49.9674752 723.102673 49.9674752 723.102673 37"></polygon>
                                <polygon id="Fill-39" fill="#E9EBEE" points="685 136 696 136 696 116 685 116"></polygon>
                                <polygon id="Fill-40" fill="#E9EBEE" points="691 142 706 142 706 127 691 127"></polygon>
                                <polygon id="Fill-41" fill="#E9EBEE" points="707 280 744 280 744 127 707 127"></polygon>
                                <polygon id="Fill-42" fill="#E9EBEE" points="670 280 698 280 698 158 670 158"></polygon>
                                <polygon id="Fill-43" fill="#FFFFFF" points="667 165 687 165 687 159 667 159"></polygon>
                                <polygon id="Fill-44" fill="#FFFFFF" points="667 176 687 176 687 170 667 170"></polygon>
                                <polygon id="Fill-45" fill="#FFFFFF" points="667 189 687 189 687 183 667 183"></polygon>
                                <polygon id="Fill-46" fill="#FFFFFF" points="667 201 687 201 687 195 667 195"></polygon>
                                <polygon id="Fill-47" fill="#FFFFFF" points="667 211 687 211 687 205 667 205"></polygon>
                                <polygon id="Fill-48" fill="#FFFFFF" points="667 223 687 223 687 217 667 217"></polygon>
                                <polygon id="Fill-49" fill="#FFFFFF" points="667 233 687 233 687 227 667 227"></polygon>
                                <polygon id="Fill-50" fill="#FFFFFF" points="667 245 687 245 687 239 667 239"></polygon>
                                <polygon id="Fill-51" fill="#FFFFFF" points="667 255 687 255 687 249 667 249"></polygon>
                                <polyline id="Stroke-52" stroke="#CACCCF" points="775 68 726 68 726 280 775 280"></polyline>
                                <polygon id="Fill-54" fill="#FFFFFF" points="750 84 777 84 777 81 750 81"></polygon>
                                <polygon id="Fill-55" fill="#FFFFFF" points="750 90 777 90 777 87 750 87"></polygon>
                                <polygon id="Fill-56" fill="#FFFFFF" points="750 96 777 96 777 93 750 93"></polygon>
                                <polygon id="Fill-57" fill="#FFFFFF" points="750 104 777 104 777 101 750 101"></polygon>
                                <polygon id="Fill-58" fill="#FFFFFF" points="750 110 777 110 777 107 750 107"></polygon>
                                <polygon id="Fill-59" fill="#FFFFFF" points="750 117 777 117 777 114 750 114"></polygon>
                                <polygon id="Fill-60" fill="#FFFFFF" points="750 124 777 124 777 121 750 121"></polygon>
                                <polygon id="Fill-61" fill="#FFFFFF" points="750 131 777 131 777 128 750 128"></polygon>
                                <polygon id="Fill-62" fill="#FFFFFF" points="750 137 777 137 777 134 750 134"></polygon>
                                <polygon id="Fill-74" fill="#FFFFFF" points="1006 222.817 1028 222.817 1028 220.183 1006 220.183"></polygon>
                                <polygon id="Fill-75" fill="#FFFFFF" points="1006 230.817 1028 230.817 1028 228.183 1006 228.183"></polygon>
                                <polygon id="Fill-76" fill="#FFFFFF" points="1006 237.8185 1028 237.8185 1028 235.1815 1006 235.1815"></polygon>
                                <polygon id="Fill-77" fill="#FFFFFF" points="1006 245.817 1028 245.817 1028 243.183 1006 243.183"></polygon>
                                <polygon id="Fill-78" fill="#FFFFFF" points="1006 252.817 1028 252.817 1028 250.183 1006 250.183"></polygon>
                                <polygon id="Fill-79" fill="#FFFFFF" points="1006 261.817 1028 261.817 1028 259.183 1006 259.183"></polygon>
                                <polygon id="Fill-80" fill="#FFFFFF" points="1006 268.817 1028 268.817 1028 266.183 1006 266.183"></polygon>
                                <polygon id="Fill-81" fill="#FFFFFF" points="1006 276.817 1028 276.817 1028 274.183 1006 274.183"></polygon>
                                <polygon id="Fill-87" fill="#E9EBEE" points="536 152 553 152 553 72 536 72"></polygon>
                                <polygon id="Fill-88" fill="#E9EBEE" points="505 187 565 187 565 77 505 77"></polygon>
                                <polygon id="Fill-89" fill="#A98484" points="561 150.901 572 150.901 572 148.099 561 148.099"></polygon>
                                <polygon id="Fill-90" fill="#A98484" points="560 151.109 574 151.109 574 149.891 560 149.891"></polygon>
                                <polygon id="Fill-91" fill="#9B5755" points="556 177 577 177 577 152 556 152"></polygon>
                                <polygon id="Fill-92" fill="#E9EBEE" points="497 280 497 118.105966 556.05046 86.0800184 577.946142 86.0800184 577.946142 80.4241097 578.798283 80.4241097 578.798283 130.561308 583.282853 130.561308 583.282853 43 607.41721 43 607.41721 130.561308 611.457657 130.561308 611.457657 182.513625 616 182.513625 616 280"></polygon>
                                <polygon id="Fill-122" fill="#E9EBEE" points="403 280 401.366479 76.3325938 398.622308 76.3325938 398.622308 61.0137651 353.44265 55.5393817 353.44265 85.7047964 348.120184 85.7047964 348.120184 24.483971 338.102697 24.483971 338.102697 0 337.316588 0 337.316588 24.483971 330 24.483971 330 280"></polygon>
                                <polygon id="Fill-123" fill="#E9EBEE" points="360 280 388 280 388 93 360 93"></polygon>
                                <polygon id="Fill-124" fill="#FFFFFF" points="330 63 335 63 335 52 330 52"></polygon>
                                <polygon id="Fill-125" fill="#FFFFFF" points="381 80 387 80 387 69 381 69"></polygon>
                                <polygon id="Stroke-126" stroke="#CACCCF" points="372 130 392 130 392 123 372 123"></polygon>
                                <polygon id="Stroke-127" stroke="#CACCCF" points="372 141 392 141 392 134 372 134"></polygon>
                                <polygon id="Stroke-128" stroke="#CACCCF" points="372 153 392 153 392 146 372 146"></polygon>
                                <polygon id="Stroke-129" stroke="#CACCCF" points="372 164 392 164 392 157 372 157"></polygon>
                                <polygon id="Stroke-130" stroke="#CACCCF" points="372 176 392 176 392 169 372 169"></polygon>
                                <polygon id="Stroke-131" stroke="#CACCCF" points="372 187 392 187 392 180 372 180"></polygon>
                                <polygon id="Stroke-132" stroke="#CACCCF" points="372 197 392 197 392 191 372 191"></polygon>
                                <polygon id="Fill-133" fill="#E9EBEE" points="330 280 334 280 334 139 330 139"></polygon>
                                <polygon id="Fill-134" fill="#E9EBEE" points="307 235 329 235 329 202"></polygon>
                                <polygon id="Fill-135" fill="#E9EBEE" points="306 280 341 280 341 234 306 234"></polygon>
                                <polygon id="Fill-136" fill="#E9EBEE" points="332 236 335 236 335 193 332 193"></polygon>
                                <polygon id="Stroke-137" stroke="#CACCCF" points="334.637529 188.173782 334.637529 164 308 164 308 274.030133 320.358821 274.030133 320.358821 280 347 280 347 193.006359 347 188.173782"></polygon>
                                <polygon id="Fill-138" fill="#E9EBEE" points="286 215 286 111.670668 279.025527 111.670668 279.025527 106.758033 277.45356 106.758033 276.813932 106 271.165693 106 271.165693 106.758033 269.593726 106.758033 269.593726 111.670668 250.191681 111.670668 239 127.618509 239 215"></polygon>
                                <path d="M301,280 L301,132 L299.001398,132 L299.001398,165.174413 L277.16082,165.174413 L277.16082,152.383798 L265.223225,152.383798 L265.223225,147.059509 L258.881715,147.059509 L258.881715,152.383798 L228.877478,152.383798 C228.776648,152.59039 228.679419,152.796983 228.564184,152.999951 L228.564184,209.889014 L216,209.889014 L216,280 L301,280 Z" id="Fill-141" fill="#E9EBEE"></path>
                                <polygon id="Stroke-150" stroke="#CACCCF" points="243 280 301 280 301 165 243 165"></polygon>
                                <polygon id="Fill-151" fill="#E9EBEE" points="290 279 317 279 317 203 290 203"></polygon>
                                <polygon id="Fill-152" fill="#E9EBEE" points="277 280 304 280 304 226 277 226"></polygon>
                                <polygon id="Fill-153" fill="#E9EBEE" points="299 280 326 280 326 258 299 258"></polygon>
                                <polygon id="Fill-154" fill="#FFFFFF" points="276 279 287 279 287 180 276 180"></polygon>
                                <polygon id="Fill-155" fill="#E9EBEE" points="497 280 497 118.341985 544 93 544 280"></polygon>
                                <polygon id="Stroke-156" stroke="#CACCCF" points="554 280 582 280 582 139 554 139"></polygon>
                                <polygon id="Fill-157" fill="#FFFFFF" points="558.549 264 560.451 264 560.451 156 558.549 156"></polygon>
                                <polygon id="Fill-158" fill="#FFFFFF" points="563.549 264 565.451 264 565.451 156 563.549 156"></polygon>
                                <polygon id="Fill-159" fill="#FFFFFF" points="568.549 264 570.451 264 570.451 156 568.549 156"></polygon>
                                <polygon id="Fill-160" fill="#FFFFFF" points="573.549 264 575.451 264 575.451 156 573.549 156"></polygon>
                                <polygon id="Stroke-161" stroke="#CACCCF" points="528 156 544 156 544 136 528 136"></polygon>
                                <polygon id="Fill-162" fill="#E9EBEE" points="489 215 489 127.618509 477.808319 111.670668 458.406274 111.670668 458.406274 106.758033 456.834307 106.758033 456.834307 106 451.186068 106 450.54644 106.758033 448.974473 106.758033 448.974473 111.670668 442 111.670668 442 215"></polygon>
                                <polygon id="Stroke-163" stroke="#CACCCF" points="474 161 496 161 496 141 474 141"></polygon>
                                <polygon id="Stroke-164" stroke="#CACCCF" points="470 280 511 280 511 173 470 173"></polygon>
                                <path d="M427,280 L427,132 L428.998602,132 L428.998602,165.174413 L450.83918,165.174413 L450.83918,152.383798 L462.773174,152.383798 L462.773174,147.059509 L469.118285,147.059509 L469.118285,152.383798 L499.118921,152.383798 C499.223352,152.59039 499.31698,152.796983 499.435816,152.999951 L499.435816,209.889014 L512,209.889014 L512,280 L427,280 Z" id="Fill-165" fill="#E9EBEE"></path>
                                <polygon id="Fill-166" fill="#FFFFFF" points="494 222.817 516 222.817 516 220.183 494 220.183"></polygon>
                                <polygon id="Fill-167" fill="#FFFFFF" points="494 230.817 516 230.817 516 228.183 494 228.183"></polygon>
                                <polygon id="Fill-168" fill="#FFFFFF" points="494 237.8185 516 237.8185 516 235.1815 494 235.1815"></polygon>
                                <polygon id="Fill-169" fill="#FFFFFF" points="494 245.817 516 245.817 516 243.183 494 243.183"></polygon>
                                <polygon id="Fill-170" fill="#FFFFFF" points="494 252.817 516 252.817 516 250.183 494 250.183"></polygon>
                                <polygon id="Fill-171" fill="#FFFFFF" points="494 261.817 516 261.817 516 259.183 494 259.183"></polygon>
                                <polygon id="Fill-172" fill="#FFFFFF" points="494 268.817 516 268.817 516 266.183 494 266.183"></polygon>
                                <polygon id="Stroke-174" stroke="#CACCCF" points="426 280 484 280 484 165 426 165"></polygon>
                                <polygon id="Fill-175" fill="#E9EBEE" points="411 279 438 279 438 203 411 203"></polygon>
                                <polygon id="Fill-176" fill="#E9EBEE" points="424 280 451 280 451 226 424 226"></polygon>
                                <polygon id="Fill-177" fill="#E9EBEE" points="402 280 429 280 429 258 402 258"></polygon>
                                <polygon id="Fill-178" fill="#FFFFFF" points="440 279 451 279 451 180 440 180"></polygon>
                            </g>
                            <g id="Group-171-Copy" opacity="0.7" transform="translate(519.500000, 224.000000) scale(-1, 1) translate(-519.500000, -224.000000) translate(118.000000, 170.000000)">
                                <path d="M451.549427,18.0187831 C451.080694,16.5626223 450.896553,14.9884381 451.056575,13.3687118 C451.681154,7.04894869 457.311011,2.4301615 463.630282,3.05695059 C469.428,3.62982949 473.791386,8.41150108 473.992733,14.0771062 C479.277124,16.2424041 483,21.4375231 483,27.5011024 C483,30.3291543 482.190168,32.9680161 480.789784,35.1986005 C485.827593,39.6857265 489,46.2218166 489,53.4988921 C489,67.0291231 478.033059,78 464.5,78 C450.969157,78 440,67.0291231 440,53.4988921 C440,47.1115307 442.444589,41.2950414 446.449233,36.9339175 C444.91017,34.8565086 444,32.285149 444,29.5010916 C444,24.3562983 447.108151,19.9366364 451.549427,18.0187831 Z" id="Combined-Shape" fill="url(#linearGradient-1)" opacity="0.438290551"></path>
                                <path d="M465,25 L465,88 L465,25 Z M474,56 L465,66 L474,56 Z M471,28 L465,36 L471,28 Z M456,43 L464,52 L456,43 Z" id="Combined-Shape" stroke="#D2D3D6" opacity="0.328892299" stroke-linecap="round"></path>
                                <path d="M706.295333,17.8113376 C711.94737,19.7904955 716,25.1705176 716,31.5 C716,34.8254708 714.881318,37.8888538 712.999741,40.3346245 C716.134712,44.3902278 718,49.4772209 718,55 C718,68.2551558 707.255156,79 694,79 C680.744844,79 670,68.2551558 670,55 C670,52.8410126 670.285056,50.7486227 670.819587,48.7584128 C669.317549,46.819371 668.325521,44.4476143 668.066691,41.8262701 C667.54243,36.532826 670.151962,31.6541986 674.384881,29.0258395 C674.133681,28.0588921 674,27.0445235 674,25.9988859 C674,21.4948456 676.482018,17.5703352 680.153003,15.5182858 C680.118536,15.289215 680.089713,15.058043 680.066691,14.8248987 C679.33183,7.40775914 684.754216,0.801138627 692.171862,0.0663274474 C699.591735,-0.666257032 706.201034,4.75353209 706.933668,12.1728983 C707.128016,14.1410496 706.889395,16.0520086 706.295333,17.8113376 Z" id="Combined-Shape" fill-opacity="0.3" fill="url(#linearGradient-1)" opacity="0.438290551"></path>
                                <path d="M691,26 L691,106 L691,26 Z M684,29 L691,38 L684,29 Z M701,46 L692,56 L701,46 Z" id="Combined-Shape" stroke="#D2D3D6" opacity="0.328892299" stroke-linecap="round"></path>
                                <path d="M603.465717,51.3613368 C603.078673,50.2131698 602.919086,48.9579768 603.039241,47.6635791 C603.475096,42.991244 607.389242,39.578941 611.786248,40.0420879 C616.183253,40.5029645 619.394477,44.6644757 618.960759,49.3345405 C618.94577,49.4960127 618.926622,49.6559801 618.903438,49.8143347 C621.33533,51.0545983 623,53.583204 623,56.5011276 C623,57.2367151 622.894209,57.94749 622.697005,58.6190746 C624.918556,60.3346981 626.249883,63.2216421 625.960781,66.3345405 C625.856458,67.4528786 625.552863,68.4990295 625.091072,69.4371604 C625.678766,71.0137125 626,72.7199603 626,74.5010856 C626,82.5082728 619.507787,89 611.5,89 C603.492213,89 597,82.5082728 597,74.5010856 C597,71.4496646 597.942838,68.6180126 599.553089,66.2817735 C597.973154,64.6604758 597,62.4446773 597,60 C597,55.9082675 599.728621,52.4552598 603.465717,51.3613368 Z" id="Combined-Shape" fill="#6A69FF" opacity="0.438290551"></path>
                                <path d="M612,57 L612,106 L612,57 Z M617,59 L613,64 L617,59 Z M606,69 L612,75 L606,69 Z" id="Combined-Shape" stroke="#D2D3D6" opacity="0.328892299" stroke-linecap="round"></path>
                                <path d="M342.205244,91.9333879 C345.321275,88.2963613 349.89802,86 354.998902,86 C364.38806,86 372,93.77678 372,103.374278 C372,104.615779 371.865995,105.83034 371.622149,107 L338.377851,107 L321,107 L295,107 C296.56987,101.235453 301.793095,97 307.998883,97 C308.034625,97 308.070334,97.0001404 308.10601,97.0004207 C310.780166,89.4263112 318.00618,84 326.5,84 C332.941866,84 338.654493,87.1212026 342.205244,91.9333879 Z" id="Combined-Shape" fill="#6A69FF" opacity="0.438290551"></path>
                                <path d="M772.17744,96.3871016 C775.461829,93.0582482 779.994009,91 785.001115,91 C794.214671,91 801.817917,97.9691306 803,107 L779,107 L766.496184,107 L735.503816,107 L696,107 C697.279439,97.1712178 704.325067,89.2033694 713.552749,86.7683612 C714.398608,83.1913877 716.215255,79.7974401 719.002597,77.0067678 C727.010772,68.9977441 739.988412,68.9977441 747.996587,77.0067678 C750.896917,79.9097722 752.74626,83.4655964 753.544823,87.2011722 C758.422209,87.9806554 762.56416,90.9652914 764.91657,95.1012091 C765.435088,95.0344183 765.963559,95 766.5,95 C768.544905,95 770.473999,95.5001402 772.17744,96.3871016 Z" id="Combined-Shape" fill-opacity="0.3" fill="url(#linearGradient-1)" opacity="0.438290551"></path>
                                <path d="M742,107 C741.049364,99.6611425 734.920555,94 727.501118,94 C720.079445,94 713.952873,99.6611425 713,107 L742,107 Z" id="Fill-61" fill-opacity="0.3" fill="#9BC666"></path>
                                <path d="M493.376334,75.0481259 C499.093906,75.4494028 504.111544,78.3310691 507.315546,82.6013302 C518.011494,85.0633179 526,94.796449 526,106.429503 C526,106.619669 525.98888,106.809834 525.984431,107 L492.102321,107 L459.895468,107 L429,107 C430.295315,102.111878 433.154667,97.8660671 437.005788,94.8401959 C437.001938,94.6924031 437,94.5441208 437,94.3953739 C437,85.3385845 444.164276,78 453.001087,78 C454.120417,78 455.212933,78.1178015 456.267463,78.3419739 C460.28821,71.5465995 467.62071,67 475.998895,67 C482.937844,67 489.159104,70.1176194 493.376334,75.0481259 Z" id="Combined-Shape" fill="url(#linearGradient-1)" opacity="0.438290551"></path>
                                <path d="M447,107 C450.183274,99.3662538 457.713903,94 466.5,94 C475.286097,94 482.81455,99.3662538 486,107 L447,107 Z" id="Fill-77" fill="#6A69FF" opacity="0.438290551"></path>
                                <path d="M229.015504,84.0357914 C233.243172,84.3348689 236.950742,86.4865981 239.309994,89.6727835 C246.635988,91.7732957 252,98.5519372 252,106.59071 C252,106.726411 251.991289,106.8643 251.989111,107 L227.902414,107 L212.708707,107 C212.815153,107.329109 212.912356,107.66255 213,108 L180,108 C181.07964,103.843155 183.609702,100.294547 187.000327,97.9602978 C187.000109,97.9308327 187,97.9013422 187,97.8718266 C187,91.3160991 192.373494,86 199.002191,86 C199.82535,86 200.629141,86.0820336 201.405672,86.2382868 C204.375321,81.3031176 209.799671,78 216,78 C221.223211,78 225.896848,80.3451615 229.015504,84.0357914 Z" id="Combined-Shape" fill="#6A69FF" opacity="0.438290551"></path>
                                <path d="M194,107 C196.36615,101.127698 201.967558,97 208.498914,97 C215.032442,97 220.63385,101.127698 223,107 L194,107 Z" id="Fill-89" fill="#6A69FF" opacity="0.438290551"></path>
                                <path d="M578.78769,89.0490754 C579.187572,89.016567 579.59188,89 580,89 C585.030866,89 589.48388,91.518748 592.205184,95.3832535 C594.958448,93.8647352 598.127284,93 601.5,93 C610.331503,93 617.765071,98.9291536 620,107 L583,107 L576.256938,107 L546.743062,107 L525,107 C527.697788,99.9711684 534.287037,95 542,95 C542.339885,95 542.67758,95.0096479 543.01285,95.0286946 C543.378826,85.0079869 551.516346,77 561.501104,77 C569.391697,77 576.129478,82.0032857 578.78769,89.0490754 Z" id="Combined-Shape" fill="#6A69FF" opacity="0.438290551"></path>
                                <path d="M539,107 C542.022928,101.61954 547.601321,98 554.001113,98 C560.400905,98 565.977072,101.61954 569,107 L539,107 Z" id="Fill-99" fill="#6A69FF" opacity="0.438290551"></path>
                                <path d="M11.4437237,31.6726949 C11.0537549,30.3149081 10.9091909,28.8619859 11.0565749,27.3706714 C11.6811547,21.0486573 17.3110172,16.431966 23.6302949,17.0566026 C29.4255641,17.6294429 33.7903686,22.412268 33.9926651,28.0759825 C39.2774745,30.2401885 43,35.434574 43,41.4988976 C43,44.6004965 42.0262573,47.4748668 40.3677813,49.8327426 C45.649498,54.3268239 49,61.0223222 49,68.4988921 C49,82.0291231 38.030843,93 24.5,93 C10.969157,93 0,82.0291231 0,68.4988921 C0,62.1586912 2.40941228,56.3801744 6.36272667,52.029497 C4.27666517,49.795616 3,46.7961851 3,43.4989084 C3,38.0152982 6.53101339,33.3568508 11.4437237,31.6726949 Z" id="Combined-Shape" fill="url(#linearGradient-1)" opacity="0.438290551"></path>
                                <path d="M154.465717,51.3613368 C154.078673,50.2131698 153.919086,48.9579768 154.039241,47.6635791 C154.475096,42.991244 158.391379,39.578941 162.786248,40.0420879 C167.183253,40.5029645 170.394477,44.6644757 169.960759,49.3345405 C169.945753,49.4962006 169.926577,49.6563522 169.903357,49.8148872 C172.334956,51.0553491 174,53.5836372 174,56.5011276 C174,57.2364682 173.894225,57.9470129 173.697061,58.6183984 C175.919135,60.3339394 177.249898,63.2212331 176.960759,66.3345405 C176.814532,67.9098043 176.272449,69.3418426 175.449548,70.5305122 C175.808085,71.7924267 176,73.1243891 176,74.5010856 C176,82.5082728 169.507787,89 161.5,89 C153.492213,89 147,82.5082728 147,74.5010856 C147,71.1752345 148.120053,68.1104597 150.003539,65.6636649 C148.750567,64.1174066 148,62.1469672 148,60 C148,55.9082675 150.728621,52.4552598 154.465717,51.3613368 Z" id="Combined-Shape" fill="#6A69FF" opacity="0.438290551"></path>
                                <path d="M163,57 L163,106 L163,57 Z M167,59 L163,64 L167,59 Z M157,69 L163,75 L157,69 Z" id="Combined-Shape" stroke="#D2D3D6" opacity="0.328892299" stroke-linecap="round"></path>
                                <path d="M130.98681,109 L86.01319,109 L85.5718885,109 L75,109 C75.1298092,108.661795 75.268628,108.328353 75.4161481,108 L68.4476031,108 L39,108 C40.2763531,103.249893 43.1431994,99.1452276 47.0000114,96.2828869 C47.0000038,96.2766583 47,96.2704287 47,96.2641983 C47,87.8336709 53.9397349,81 62.5011107,81 C63.4259343,81 64.3318092,81.0797416 65.2120375,81.2326236 C69.0027699,75.0909614 75.776024,71 83.5,71 C90.2655768,71 96.3005806,74.1375728 100.241532,79.0423471 C102.166291,79.173855 104.007992,79.6082879 105.719425,80.2984074 C107.819358,79.4603466 110.107136,79 112.501104,79 C120.391697,79 127.129478,84.0032857 129.78769,91.0490754 C130.187572,91.016567 130.59188,91 131,91 C136.030866,91 140.48388,93.518748 143.205184,97.3832535 C145.958448,95.8647352 149.127284,95 152.5,95 C161.331503,95 168.765071,100.929154 171,109 L134,109 L130.98681,109 Z" id="Combined-Shape" fill="url(#linearGradient-1)" opacity="0.438290551"></path>
                                <path d="M280.363956,56.392315 C280.051355,55.3953156 279.930126,54.3201585 280.039377,53.2145392 C280.473926,48.8169314 284.389168,45.6047844 288.786287,46.0393816 C292.85979,46.4421909 295.918718,49.837316 295.998406,53.8316094 C299.530836,55.3745758 302,58.8993387 302,63 C302,65.2616713 301.248894,67.3481575 299.982557,69.0235844 C303.663598,72.1421167 306,76.7985295 306,82 C306,91.3899314 298.389439,99 288.9989,99 C279.610561,99 272,91.3899314 272,82 C272,77.7359558 273.570141,73.8382089 276.163838,70.8537227 C274.81501,69.2800973 274,67.2353302 274,65 C274,60.946275 276.680329,57.5192564 280.363956,56.392315 Z" id="Combined-Shape" fill="url(#linearGradient-1)" opacity="0.438290551"></path>
                                <path d="M289,62 L289,106 L289,62 Z M295,83 L289,90 L295,83 Z M293,64 L289,69 L293,64 Z M283,74 L289,80 L283,74 Z" id="Combined-Shape" stroke="#D2D3D6" opacity="0.328892299" stroke-linecap="round"></path>
                            </g>
                            <rect id="Rectangle-Copy-19" fill="url(#linearGradient-2)" opacity="0.5" transform="translate(439.000000, 344.500000) scale(-1, 1) translate(-439.000000, -344.500000) " x="0" y="288" width="878" height="113"></rect>
                            <rect id="Rectangle-Copy-19" fill="url(#linearGradient-3)" transform="translate(467.500000, 282.500000) scale(-1, 1) translate(-467.500000, -282.500000) " x="57" y="277" width="821" height="11"></rect>
                        </g>
                    </g>
                </g>
            </g>
        </g>
    </g>
</svg>