<?xml version="1.0" encoding="UTF-8"?>
<svg width="1046px" height="410px" viewBox="0 0 1046 410" version="1.1" xmlns="http://www.w3.org/2000/svg" xmlns:xlink="http://www.w3.org/1999/xlink">
    <!-- Generator: Sketch 52.3 (67297) - http://www.bohemiancoding.com/sketch -->
    <title>Group 49</title>
    <desc>Created with Sketch.</desc>
    <defs>
        <linearGradient x1="50%" y1="130.651573%" x2="50%" y2="0%" id="linearGradient-1">
            <stop stop-color="#009EFD" offset="0%"></stop>
            <stop stop-color="#2AF598" offset="100%"></stop>
        </linearGradient>
        <linearGradient x1="50%" y1="0%" x2="50%" y2="100%" id="linearGradient-2">
            <stop stop-color="#FAD961" offset="0%"></stop>
            <stop stop-color="#F76B1C" offset="100%"></stop>
        </linearGradient>
        <linearGradient x1="50%" y1="0%" x2="50%" y2="98.8597363%" id="linearGradient-3">
            <stop stop-color="#2DFFE3" offset="0%"></stop>
            <stop stop-color="#20E82C" offset="100%"></stop>
        </linearGradient>
        <linearGradient x1="120.660472%" y1="0%" x2="-49.8776757%" y2="42.7743532%" id="linearGradient-4">
            <stop stop-color="#5D8FB1" offset="0%"></stop>
            <stop stop-color="#30567A" offset="100%"></stop>
        </linearGradient>
        <polygon id="path-5" points="0.7619625 0.825628571 24.9667433 0.825628571 24.9667433 11 0.7619625 11"></polygon>
        <linearGradient x1="0%" y1="0%" x2="101.999998%" y2="100.999999%" id="linearGradient-7">
            <stop stop-color="#3023AE" offset="0%"></stop>
            <stop stop-color="#C86DD7" offset="100%"></stop>
        </linearGradient>
        <linearGradient x1="50%" y1="0%" x2="38.0293533%" y2="71.0726023%" id="linearGradient-8">
            <stop stop-color="#426C80" offset="0%"></stop>
            <stop stop-color="#1F3A49" offset="100%"></stop>
        </linearGradient>
        <linearGradient x1="66.5790236%" y1="14.5579038%" x2="50%" y2="50%" id="linearGradient-9">
            <stop stop-color="#FCEBCF" offset="0%"></stop>
            <stop stop-color="#FCC57F" offset="100%"></stop>
        </linearGradient>
        <linearGradient x1="50%" y1="0%" x2="36.2170714%" y2="81.8759751%" id="linearGradient-10">
            <stop stop-color="#FCEBCF" offset="0%"></stop>
            <stop stop-color="#FCC57F" offset="100%"></stop>
        </linearGradient>
        <linearGradient x1="50%" y1="0%" x2="50%" y2="100%" id="linearGradient-11">
            <stop stop-color="#5D8FB1" offset="0%"></stop>
            <stop stop-color="#30567A" offset="100%"></stop>
        </linearGradient>
        <linearGradient x1="50%" y1="0%" x2="50%" y2="100%" id="linearGradient-12">
            <stop stop-color="#F68AA3" offset="0%"></stop>
            <stop stop-color="#E9526A" offset="100%"></stop>
        </linearGradient>
        <linearGradient x1="50%" y1="0%" x2="50%" y2="100%" id="linearGradient-13">
            <stop stop-color="#FCEBCF" offset="0%"></stop>
            <stop stop-color="#FCC57F" offset="100%"></stop>
        </linearGradient>
        <linearGradient x1="50%" y1="0%" x2="50%" y2="100%" id="linearGradient-14">
            <stop stop-color="#D17AFF" offset="0%"></stop>
            <stop stop-color="#816DFF" offset="100%"></stop>
        </linearGradient>
        <linearGradient x1="20.5074281%" y1="-23.7170895%" x2="100%" y2="71.0726023%" id="linearGradient-15">
            <stop stop-color="#426C80" offset="0%"></stop>
            <stop stop-color="#1F3A49" offset="100%"></stop>
        </linearGradient>
        <linearGradient x1="100%" y1="50%" x2="0%" y2="50%" id="linearGradient-16">
            <stop stop-color="#60729F" stop-opacity="0" offset="0%"></stop>
            <stop stop-color="#404E7D" offset="100%"></stop>
        </linearGradient>
    </defs>
    <g id="Page-1" stroke="none" stroke-width="1" fill="none" fill-rule="evenodd">
        <g id="StaffCloud.io-Website-Design---V2" transform="translate(0.000000, -9082.000000)">
            <g id="Group-43" transform="translate(-115.000000, 8580.000000)">
                <g id="Group-36">
                    <g id="Group-49" transform="translate(115.000000, 502.000000)">
                        <g id="Group-45">
                            <g id="Group-40" transform="translate(19.000000, 0.000000)">
                                <g id="Group-39">
                                    <g id="Group-37">
                                        <g id="Group-171" opacity="0.7" transform="translate(0.000000, 182.000000)">
                                            <path d="M451.549427,18.0187831 C451.080694,16.5626223 450.896553,14.9884381 451.056575,13.3687118 C451.681154,7.04894869 457.311011,2.4301615 463.630282,3.05695059 C469.428,3.62982949 473.791386,8.41150108 473.992733,14.0771062 C479.277124,16.2424041 483,21.4375231 483,27.5011024 C483,30.3291543 482.190168,32.9680161 480.789784,35.1986005 C485.827593,39.6857265 489,46.2218166 489,53.4988921 C489,67.0291231 478.033059,78 464.5,78 C450.969157,78 440,67.0291231 440,53.4988921 C440,47.1115307 442.444589,41.2950414 446.449233,36.9339175 C444.91017,34.8565086 444,32.285149 444,29.5010916 C444,24.3562983 447.108151,19.9366364 451.549427,18.0187831 Z" id="Combined-Shape" fill="url(#linearGradient-1)" opacity="0.438290551"></path>
                                            <path d="M465,25 L465,88 L465,25 Z M474,56 L465,66 L474,56 Z M471,28 L465,36 L471,28 Z M456,43 L464,52 L456,43 Z" id="Combined-Shape" stroke="#D2D3D6" opacity="0.328892299" stroke-linecap="round"></path>
                                            <path d="M706.295333,17.8113376 C711.94737,19.7904955 716,25.1705176 716,31.5 C716,34.8254708 714.881318,37.8888538 712.999741,40.3346245 C716.134712,44.3902278 718,49.4772209 718,55 C718,68.2551558 707.255156,79 694,79 C680.744844,79 670,68.2551558 670,55 C670,52.8410126 670.285056,50.7486227 670.819587,48.7584128 C669.317549,46.819371 668.325521,44.4476143 668.066691,41.8262701 C667.54243,36.532826 670.151962,31.6541986 674.384881,29.0258395 C674.133681,28.0588921 674,27.0445235 674,25.9988859 C674,21.4948456 676.482018,17.5703352 680.153003,15.5182858 C680.118536,15.289215 680.089713,15.058043 680.066691,14.8248987 C679.33183,7.40775914 684.754216,0.801138627 692.171862,0.0663274474 C699.591735,-0.666257032 706.201034,4.75353209 706.933668,12.1728983 C707.128016,14.1410496 706.889395,16.0520086 706.295333,17.8113376 Z" id="Combined-Shape" fill-opacity="0.35" fill="url(#linearGradient-1)" opacity="0.438290551"></path>
                                            <path d="M691,27 L691,107 L691,27 Z M684,30 L691,39 L684,30 Z M701,47 L692,57 L701,47 Z" id="Combined-Shape" stroke="#D2D3D6" opacity="0.328892299" stroke-linecap="round"></path>
                                            <path d="M603.465717,51.3613368 C603.078673,50.2131698 602.919086,48.9579768 603.039241,47.6635791 C603.475096,42.991244 607.389242,39.578941 611.786248,40.0420879 C616.183253,40.5029645 619.394477,44.6644757 618.960759,49.3345405 C618.94577,49.4960127 618.926622,49.6559801 618.903438,49.8143347 C621.33533,51.0545983 623,53.583204 623,56.5011276 C623,57.2367151 622.894209,57.94749 622.697005,58.6190746 C624.918556,60.3346981 626.249883,63.2216421 625.960781,66.3345405 C625.856458,67.4528786 625.552863,68.4990295 625.091072,69.4371604 C625.678766,71.0137125 626,72.7199603 626,74.5010856 C626,82.5082728 619.507787,89 611.5,89 C603.492213,89 597,82.5082728 597,74.5010856 C597,71.4496646 597.942838,68.6180126 599.553089,66.2817735 C597.973154,64.6604758 597,62.4446773 597,60 C597,55.9082675 599.728621,52.4552598 603.465717,51.3613368 Z" id="Combined-Shape" fill="#6A69FF" opacity="0.438290551"></path>
                                            <path d="M612,58 L612,107 L612,58 Z M617,60 L613,65 L617,60 Z M606,70 L612,76 L606,70 Z" id="Combined-Shape" stroke="#D2D3D6" opacity="0.328892299" stroke-linecap="round"></path>
                                            <path d="M342.205244,91.9333879 C345.321275,88.2963613 349.89802,86 354.998902,86 C364.38806,86 372,93.77678 372,103.374278 C372,104.615779 371.865995,105.83034 371.622149,107 L338.377851,107 L321,107 L295,107 C296.56987,101.235453 301.793095,97 307.998883,97 C308.034625,97 308.070334,97.0001404 308.10601,97.0004207 C310.780166,89.4263112 318.00618,84 326.5,84 C332.941866,84 338.654493,87.1212026 342.205244,91.9333879 Z" id="Combined-Shape" fill="#6A69FF" opacity="0.438290551"></path>
                                            <path d="M772.17744,96.3871016 C775.461829,93.0582482 779.994009,91 785.001115,91 C794.214671,91 801.817917,97.9691306 803,107 L779,107 L766.496184,107 L735.503816,107 L696,107 C697.279439,97.1712178 704.325067,89.2033694 713.552749,86.7683612 C714.398608,83.1913877 716.215255,79.7974401 719.002597,77.0067678 C727.010772,68.9977441 739.988412,68.9977441 747.996587,77.0067678 C750.896917,79.9097722 752.74626,83.4655964 753.544823,87.2011722 C758.422209,87.9806554 762.56416,90.9652914 764.91657,95.1012091 C765.435088,95.0344183 765.963559,95 766.5,95 C768.544905,95 770.473999,95.5001402 772.17744,96.3871016 Z" id="Combined-Shape" fill-opacity="0.35" fill="url(#linearGradient-1)" opacity="0.438290551"></path>
                                            <path d="M742,107 C741.049364,99.6611425 734.920555,94 727.501118,94 C720.079445,94 713.952873,99.6611425 713,107 L742,107 Z" id="Fill-61" fill-opacity="0.35" fill="#9BC666"></path>
                                            <path d="M493.37775,75.049781 C498.966531,75.455093 503.886442,78.3067684 507.097292,82.552186 C517.90264,84.931227 526,94.717459 526,106.429503 C526,106.619669 525.98888,106.809834 525.984431,107 L492.102321,107 L459.895468,107 L429,107 C430.295315,102.111878 433.154667,97.8660671 437.005788,94.8401959 C437.001938,94.6924031 437,94.5441208 437,94.3953739 C437,85.3385845 444.164276,78 453.001087,78 C454.120417,78 455.212933,78.1178015 456.267463,78.3419739 C460.28821,71.5465995 467.62071,67 475.998895,67 C482.938621,67 489.160496,70.1183171 493.37775,75.049781 Z" id="Combined-Shape" fill="url(#linearGradient-1)" opacity="0.438290551"></path>
                                            <path d="M447,106 C450.183274,98.3662538 457.713903,93 466.5,93 C475.286097,93 482.81455,98.3662538 486,106 L447,106 Z" id="Fill-77" fill="#6A69FF" opacity="0.438290551"></path>
                                            <path d="M228.83381,83.0251471 C233.022434,83.2785093 236.7156,85.4282983 239.116175,88.6527875 C246.541186,90.8015647 252,98.0079447 252,106.567972 C252,106.711211 251.991289,106.856761 251.989111,107 L227.902414,107 L204.097586,107 L180,107 C181.07964,102.843155 183.609702,99.2945466 187.000327,96.9602978 C187.000109,96.9308327 187,96.9013422 187,96.8718266 C187,90.3160991 192.373494,85 199.002191,85 C199.878457,85 200.732774,85.0929599 201.555624,85.2694536 C204.555673,80.304484 209.902625,77 216,77 C221.122736,77 225.716837,79.3335907 228.83381,83.0251471 Z" id="Combined-Shape" fill="#6A69FF" opacity="0.438290551"></path>
                                            <path d="M194,107 C196.36615,101.127698 201.967558,97 208.498914,97 C215.032442,97 220.63385,101.127698 223,107 L194,107 Z" id="Fill-89" fill="#6A69FF" opacity="0.438290551"></path>
                                            <path d="M578.78769,89.0490754 C579.187572,89.016567 579.59188,89 580,89 C585.030866,89 589.48388,91.518748 592.205184,95.3832535 C594.958448,93.8647352 598.127284,93 601.5,93 C610.331503,93 617.765071,98.9291536 620,107 L583,107 L576.256938,107 L546.743062,107 L525,107 C527.697788,99.9711684 534.287037,95 542,95 C542.339885,95 542.67758,95.0096479 543.01285,95.0286946 C543.378826,85.0079869 551.516346,77 561.501104,77 C569.391697,77 576.129478,82.0032857 578.78769,89.0490754 Z" id="Combined-Shape" fill="#6A69FF" opacity="0.438290551"></path>
                                            <path d="M539,107 C542.022928,101.61954 547.601321,98 554.001113,98 C560.400905,98 565.977072,101.61954 569,107 L539,107 Z" id="Fill-99" fill="#6A69FF" opacity="0.438290551"></path>
                                            <path d="M11.4437237,31.6726949 C11.0537549,30.3149081 10.9091909,28.8619859 11.0565749,27.3706714 C11.6811547,21.0486573 17.3110172,16.431966 23.6302949,17.0566026 C29.4255641,17.6294429 33.7903686,22.412268 33.9926651,28.0759825 C39.2774745,30.2401885 43,35.434574 43,41.4988976 C43,44.6004965 42.0262573,47.4748668 40.3677813,49.8327426 C45.649498,54.3268239 49,61.0223222 49,68.4988921 C49,82.0291231 38.030843,93 24.5,93 C10.969157,93 0,82.0291231 0,68.4988921 C0,62.1586912 2.40941228,56.3801744 6.36272667,52.029497 C4.27666517,49.795616 3,46.7961851 3,43.4989084 C3,38.0152982 6.53101339,33.3568508 11.4437237,31.6726949 Z" id="Combined-Shape" fill="url(#linearGradient-1)" opacity="0.438290551"></path>
                                            <path d="M24,44 L24,107 L24,44 Z M33,75 L24,85 L33,75 Z M31,47 L25,55 L31,47 Z M16,62 L24,71 L16,62 Z" id="Combined-Shape" stroke="#D2D3D6" opacity="0.328892299" stroke-linecap="round"></path>
                                            <path d="M154.465717,51.3613368 C154.078673,50.2131698 153.919086,48.9579768 154.039241,47.6635791 C154.475096,42.991244 158.391379,39.578941 162.786248,40.0420879 C167.183253,40.5029645 170.394477,44.6644757 169.960759,49.3345405 C169.945753,49.4962006 169.926577,49.6563522 169.903357,49.8148872 C172.334956,51.0553491 174,53.5836372 174,56.5011276 C174,57.2364682 173.894225,57.9470129 173.697061,58.6183984 C175.919135,60.3339394 177.249898,63.2212331 176.960759,66.3345405 C176.814532,67.9098043 176.272449,69.3418426 175.449548,70.5305122 C175.808085,71.7924267 176,73.1243891 176,74.5010856 C176,82.5082728 169.507787,89 161.5,89 C153.492213,89 147,82.5082728 147,74.5010856 C147,71.1752345 148.120053,68.1104597 150.003539,65.6636649 C148.750567,64.1174066 148,62.1469672 148,60 C148,55.9082675 150.728621,52.4552598 154.465717,51.3613368 Z" id="Combined-Shape" fill="#6A69FF" opacity="0.438290551"></path>
                                            <path d="M163,58 L163,107 L163,58 Z M167,60 L163,65 L167,60 Z M157,70 L163,76 L157,70 Z" id="Combined-Shape" stroke="#D2D3D6" opacity="0.328892299" stroke-linecap="round"></path>
                                            <path d="M130.98681,107 L86.01319,107 L85.5718885,107 L81,107 L39,107 C40.2766432,101.951864 43.1445025,97.5898222 47.0026409,94.5484942 C47.0008829,94.4539369 47,94.3591691 47,94.2641983 C47,85.8336709 53.9397349,79 62.5011107,79 C63.4259343,79 64.3318092,79.0797416 65.2120375,79.2326236 C69.0027699,73.0909614 75.776024,69 83.5,69 C90.2655768,69 96.3005806,72.1375728 100.241532,77.0423471 C102.166291,77.173855 104.007992,77.6082879 105.719425,78.2984074 C107.819358,77.4603466 110.107136,77 112.501104,77 C120.391697,77 127.129478,82.0032857 129.78769,89.0490754 C130.187572,89.016567 130.59188,89 131,89 C136.030866,89 140.48388,91.518748 143.205184,95.3832535 C145.958448,93.8647352 149.127284,93 152.5,93 C161.331503,93 168.765071,98.9291536 171,107 L134,107 L130.98681,107 Z" id="Combined-Shape" fill="url(#linearGradient-1)" opacity="0.438290551"></path>
                                            <path d="M280.363956,56.392315 C280.051355,55.3953156 279.930126,54.3201585 280.039377,53.2145392 C280.473926,48.8169314 284.389168,45.6047844 288.786287,46.0393816 C292.85979,46.4421909 295.918718,49.837316 295.998406,53.8316094 C299.530836,55.3745758 302,58.8993387 302,63 C302,65.2616713 301.248894,67.3481575 299.982557,69.0235844 C303.663598,72.1421167 306,76.7985295 306,82 C306,91.3899314 298.389439,99 288.9989,99 C279.610561,99 272,91.3899314 272,82 C272,77.7359558 273.570141,73.8382089 276.163838,70.8537227 C274.81501,69.2800973 274,67.2353302 274,65 C274,60.946275 276.680329,57.5192564 280.363956,56.392315 Z" id="Combined-Shape" fill="url(#linearGradient-1)" opacity="0.438290551"></path>
                                            <path d="M289,63 L289,107 L289,63 Z M295,84 L289,91 L295,84 Z M293,65 L289,70 L293,65 Z M283,75 L289,81 L283,75 Z" id="Combined-Shape" stroke="#D2D3D6" opacity="0.328892299" stroke-linecap="round"></path>
                                        </g>
                                        <g id="Group-19" transform="translate(416.000000, 0.000000)">
                                            <path d="M86,45.5908587 C86,27.0398496 70.1059134,12 50.5008152,12 C30.8940866,12 15,27.0398496 15,45.5908587 C15,57.462782 21.5154668,67.8895133 31.3424733,73.8640681 L40.7439201,77.9812228 L50.5008152,95 L60.2560799,77.9812228 L69.6591572,73.8640681 C79.4845332,67.8895133 86,57.462782 86,45.5908587" id="Fill-1" fill="url(#linearGradient-2)" transform="translate(50.500000, 53.500000) rotate(26.000000) translate(-50.500000, -53.500000) "></path>
                                            <path d="M50.3151992,54.6378714 C49.8700668,54.6378714 49.422126,54.4439656 49.0823089,54.0561539 L42.9122408,47.0409185 C42.2297981,46.2666802 42.2297981,45.0090625 42.9122408,44.2348243 C43.5932792,43.459201 44.698387,43.459201 45.3794255,44.2348243 L50.3151992,49.8470126 L61.421041,37.2195888 C62.1034837,36.4439656 63.2085914,36.4439656 63.8896299,37.2195888 C64.5706684,37.993827 64.5706684,39.2500597 63.8896299,40.025683 L51.5494936,54.0561539 C51.2096765,54.4439656 50.7617357,54.6378714 50.3151992,54.6378714" id="Fill-1" fill="#FFFFFF"></path>
                                        </g>
                                        <path d="M317,22.7263249 C317,28.9730669 320.141046,34.6533449 325.212256,38.7662902 C325.772849,39.2250217 326.388639,39.6837533 327.016503,40.0955691 C327.016503,40.0955691 335.578914,48.3509991 340.850213,51.5638575 C346.130137,54.7767159 352.224214,57.2458732 358.756416,58 C354.82709,54.6151173 352.376005,50.0816681 351.996527,45.4231103 L363.001399,45.4231103 C378.418568,45.4231103 391,35.2180712 391,22.7263249 C391,16.4813206 387.857229,10.799305 382.787744,6.68635969 C377.697559,2.55430061 370.701359,0 363.001399,0 L344.971003,0 C329.579707,0 317,10.2363162 317,22.7263249" id="Fill-1" fill="url(#linearGradient-3)"></path>
                                        <g id="Group-35" transform="translate(377.000000, 105.000000)">
                                            <path d="M26,118.10903 C26.1362496,126.020148 31.926856,168.064196 31.9902279,181.373922 C32.0535998,194.683648 34.1306134,224 34.1306134,224 L45.2080198,223.738648 C45.2080198,223.738648 46.3518824,199.251702 48.4700878,170.969536 C50.5882932,142.685766 49.8896181,118 49.8896181,118 L26,118.10903 Z" id="Fill-1" fill="url(#linearGradient-4)"></path>
                                            <g id="Group-7" transform="translate(34.000000, 228.000000)">
                                                <mask id="mask-6" fill="white">
                                                    <use xlink:href="#path-5"></use>
                                                </mask>
                                                <g id="Clip-6"></g>
                                                <path d="M12.6602125,0.825628571 C9.5532125,2.1912 0.7619625,1.5642 0.7619625,1.5642 L0.7619625,10.7272 L24.8672125,11.0006286 C24.8672125,11.0006286 25.8909625,7.82477143 21.3718375,5.63891429 C16.8527125,3.45462857 12.6602125,0.825628571 12.6602125,0.825628571" id="Fill-5" fill="url(#linearGradient-7)" mask="url(#mask-6)"></path>
                                            </g>
                                            <polygon id="Fill-8" fill="#4C89C2" points="34 229 47 229 47 224 34 224"></polygon>
                                            <path d="M48.8872897,44 C48.8872897,44 54.0059083,46.7855745 55.3894478,53.4722355 C56.7745795,60.1572938 58.6023164,84.1263771 58.9876059,88.0162444 C59.2646322,90.8018189 54.8369873,94.7029054 51.7928819,92.1946062 C48.7487766,89.6879097 46.5341581,70.7450413 45.8431844,69.2112123 C45.1506186,67.6789861 41,57.3717193 41,57.3717193 L48.8872897,44 Z" id="Fill-10" fill="#F8D2A1"></path>
                                            <path d="M57.7202939,73.588416 C58.3252941,80.2215476 58.8092942,86.2510866 58.98761,88.0347188 C59.2646364,90.8099674 54.8353984,94.6965929 51.7928844,92.1975917 C48.7487784,89.7001873 46.5341594,70.8275386 45.8431855,69.2993954 C45.1506195,67.772849 41,57.5037903 41,57.5037903 L44.8497115,51 C49.3044233,58.4315346 53.4661875,66.037121 57.7202939,73.588416" id="Fill-11" fill="#EAB095"></path>
                                            <path d="M47,13.1179864 C47,13.1179864 43.6927798,6.84549436 39.1830785,4.34036646 C34.6717887,1.83362651 28.2511431,3.20548227 25.3902864,5.48814707 C22.5262528,7.76919982 20.7376217,6.93899334 20.0545743,12.9906344 C19.2603331,20.0433593 27.4060705,31.1729623 26.8977562,33.4443427 C26.3910303,35.7173352 28.9596062,38 28.9596062,38 C28.9596062,38 27.7571251,32.0273495 31.5933099,25.3760254 C35.4294947,18.7263133 47,13.1179864 47,13.1179864" id="Fill-12" fill="url(#linearGradient-8)"></path>
                                            <path d="M36.6124484,39.9850713 L36.915689,39.9677933 L45,42.921065 C45,42.921065 42.5263472,59.1632687 29.9862796,58.9987587 C17.4478027,58.8358305 13,41.4072562 13,41.4072562 C13,41.4072562 14.1469477,41.1177818 18.2718234,40.2968134 C20.0142289,39.9500248 21.874431,39.4863842 23.4420082,39.0664902 C24.621995,36.8674759 27.7775196,30.7782668 28.0819026,28 L36.3259861,34.3632091 C36.0245988,35.8176284 36.3228466,38.2553252 36.6124484,39.9850713 Z" id="Combined-Shape" fill="url(#linearGradient-9)"></path>
                                            <path d="M46.3704191,12.8862143 C27.7250674,8.85150329 36.1735652,19.8209233 32.798379,21.2369441 C29.4231928,22.6529649 29.5528207,19.7087163 27.0607245,19.7008144 C24.5702486,19.6913321 24.4859905,22.8283871 26.0123589,25.4123089 C26.798228,26.7429892 26.8598012,26.8030436 27.7866406,28.046803 C29.6743468,30.5817331 28.489872,33.4343196 34.2599334,36.4196581 C37.362901,38.0237441 42.0554307,36.2473966 45.0336315,31.7733398 C48.0118322,27.2977027 50,13.9577122 50,13.9577122 C50,13.9577122 49.7990768,13.6289931 46.3704191,12.8862143" id="Fill-13" fill="url(#linearGradient-10)"></path>
                                            <path d="M9,118.10903 C9.13624699,126.020148 14.9267442,168.064196 14.9901149,181.373922 C15.0534856,194.683648 17.1304601,224 17.1304601,224 L28.2076574,223.738648 C28.2076574,223.738648 29.3514985,199.251702 31.4696639,170.969536 C33.5894137,142.685766 32.8891675,118 32.8891675,118 L9,118.10903 Z" id="Fill-16" fill="url(#linearGradient-11)"></path>
                                            <path d="M47.8799524,64.7560476 C46.8283654,67.6622782 47.3541589,81.6616669 46.3041701,89.8502007 C45.3676503,97.1374657 49.5436334,105.285836 52,116.637647 C39.3090389,121.860508 26.1050695,119.786465 12.8931093,118.411267 C11.5922099,118.276318 10.2945068,118.118877 9,117.95019 C9,117.940551 9,117.932518 9.00159816,117.922879 C10.5789787,101.280732 9.70478704,54.7489106 9.70478704,54.7489106 C9.70478704,54.7489106 14.1988032,51.8105491 13.9367056,48.3789799 C13.6730097,44.9441976 11.1766892,40.9808637 11.1766892,40.9808637 L20.944622,39 C20.944622,39 27.9077901,45.9996943 33.4278228,44.6791185 C38.9462573,43.3585427 39.4704527,40.4523121 39.4704527,40.4523121 C46.5662677,42.3014395 49.0737754,43.3649689 49.0737754,43.3649689 C50.2404296,45.46311 47.5459377,55.7899484 47.5459377,55.7899484 C48.3338289,59.2247307 48.9315394,61.8498169 47.8799524,64.7560476" id="Fill-17" fill="url(#linearGradient-12)"></path>
                                            <path d="M49.1210302,44 C49.1210302,44 54.4679368,44.9616603 55.6570274,53.3631179 C56.8493188,61.7629911 58,73.1761724 58,73.1761724 L44.1134064,74 C44.1134064,74 37.3213466,63.6704689 41.1926926,57.2176806 C45.0624383,50.7664766 49.1210302,44 49.1210302,44" id="Fill-18" fill="url(#linearGradient-12)"></path>
                                            <path d="M47,66.6456784 C47,66.6456784 48.2524142,77.1209025 49.1171764,83.0677499 C49.1337427,83.1766203 49.1420259,83.2744458 49.1602489,83.3738492 C50.0233544,89.2717838 52.3211038,92.7035676 54.6287929,92.9749546 C56.9348255,93.2447639 59.5274554,91.3292763 59.9581799,87.4872563 C60.390561,83.6515476 57.3672066,79.8111054 55.6393388,75.1454573 C55.1903914,73.9179043 54.6967149,72.6445942 54.2312011,71.4265082 C52.9274313,67.9884131 51.7512222,65 51.7512222,65 L47,66.6456784 Z" id="Fill-19" fill="url(#linearGradient-13)"></path>
                                            <path d="M47,66.6395075 C47,66.6395075 48.2123711,77.0754519 49.0494845,83 L52.5695304,80.3025937 L54,71.4024103 C52.7379152,67.9772072 51.5993127,65 51.5993127,65 L47,66.6395075 Z" id="Fill-20" fill="#EAB095"></path>
                                            <path d="M50,63.5773401 C49.4280347,62.6355388 47.0004696,59.1347643 47.0004696,59.1347643 L44.1439305,59 L43,63.1730471 L45.4292087,66 L50,63.5773401 Z" id="Fill-21" fill="url(#linearGradient-13)"></path>
                                            <path d="M39.5616235,80.5259119 L48.0436512,81.9897287 C48.4142889,82.0533729 48.7668867,81.8147071 48.8324863,81.4551173 L51.9894668,64.2409506 C52.0550664,63.8797698 51.807428,63.5376822 51.4367903,63.4740379 L42.9547626,62.0102212 C42.5841249,61.946577 42.2315271,62.1868339 42.1659275,62.5448325 L39.0105869,79.7605903 C38.9449873,80.118589 39.1909858,80.4622677 39.5616235,80.5259119" id="Fill-22" fill="#1F3A49"></path>
                                            <path d="M11.2222029,41 C11.2222029,41 6.63270621,41.569022 4.14208412,46.5969904 C1.64986955,51.6265662 1.27882419,86.7210782 3.3108151,88.5069071 C6.56423003,91.363269 10.3686394,89.6738845 20.5078918,87.1791891 C30.2633592,84.7777234 44,76.7728377 44,76.7728377 L42.754689,70.4862698 C42.754689,70.4862698 34.4005946,73.7782389 29.468717,74.6060534 C21.9952582,75.8630455 12.4452194,77.1923709 12.4452194,77.1923709 C12.4452194,77.1923709 13.3131152,59.5559038 13.7096401,55.8010016 C14.106165,52.0460993 15.8116997,45.880087 11.2222029,41" id="Fill-23" fill="url(#linearGradient-13)"></path>
                                            <path d="M38,72.1641006 L39.855954,67.2929738 L42.4286448,65 L41.4275146,69.1557059 C41.4275146,69.1557059 45.285729,69.2991197 46.5712524,69.012292 C47.8584198,68.7254642 52.2870646,67.1495599 52.2870646,67.1495599 L53.5725881,68.8688781 L52.8574951,69.8711269 L53.7156067,71.4470312 L53.1435323,73.596591 L54,75.1724954 L52.7161204,76.4615719 L53.2865509,78.0374762 C53.2865509,78.0374762 52.2870646,78.1808901 52.0010274,78.7545457 C51.7149902,79.3282012 48.7148875,78.7545457 47.0003082,78.4677179 C45.285729,78.1808901 38.9994863,78.4677179 38.9994863,78.4677179 L38,72.1641006 Z" id="Fill-24" fill="url(#linearGradient-13)"></path>
                                            <path d="M28.8595215,229 C25.7626347,230.342085 17,229.725869 17,229.725869 L17,238.731274 L42.9007932,239 C42.9007932,239 43.9212109,235.878764 39.4167956,233.730502 C34.9123802,231.583784 28.8595215,229 28.8595215,229" id="Fill-25" fill="url(#linearGradient-14)"></path>
                                            <path d="M11.0179721,41.1956174 C11.0179721,41.1956174 4.86091669,41.4430279 2.59703675,50.4397732 C0.333156823,59.434912 0,74 0,74 L12.7138989,74 C12.7138989,74 18.0095059,59.434912 17.9999872,53.3621089 C17.9904684,47.2893058 14.768366,39.6790232 11.0179721,41.1956174" id="Fill-29" fill="url(#linearGradient-12)"></path>
                                            <path d="M51.3255799,13.9141604 C49.9491318,16.8286896 46.0510827,16.5585931 41.7405844,13.9141604 C37.4300861,11.2697277 32.4742261,12.5950847 31.455234,12.1004313 C30.4362419,11.605778 25,5.48463859 25,5.48463859 C25,5.48463859 27.5490977,-2.07963241 38.9844534,0.558518984 C49.1954011,2.91558163 53.8487984,8.57190385 51.3255799,13.9141604" id="Fill-30" fill="url(#linearGradient-15)"></path>
                                            <polygon id="Fill-31" fill="#4C89C2" points="17 229 30 229 30 224 17 224"></polygon>
                                        </g>
                                    </g>
                                </g>
                            </g>
                            <rect id="Rectangle" fill="url(#linearGradient-16)" opacity="0.5" x="0" y="300" width="1046" height="113"></rect>
                            <rect id="Rectangle" fill="url(#linearGradient-16)" x="0" y="289" width="986" height="11"></rect>
                        </g>
                    </g>
                </g>
            </g>
        </g>
    </g>
</svg>