<svg width="549" height="98" viewBox="0 0 549 98" fill="none" xmlns="http://www.w3.org/2000/svg">
<g clip-path="url(#clip0_0_15)">
<path d="M104.14 3C104.14 3.42 104.07 4.12 104.28 4.23C108.198 6.34909 111.75 9.08395 114.8 12.33V12.33C119.699 17.4826 123.362 23.6824 125.51 30.46V30.46C127.563 36.942 128.281 43.7729 127.62 50.54V50.54C126.981 57.4488 125.076 64.181 122 70.4V70.4C119.684 75.4839 116.635 80.2007 112.95 84.4V84.4C109.335 88.169 105.519 91.7408 101.52 95.1V95.1C100.569 95.7154 99.5306 96.1839 98.44 96.49V96.49C98.56 96.9 98.67 97.26 98.77 97.62C98.46 97.5 98.15 97.38 97.84 97.28C97.7914 97.2576 97.7385 97.246 97.685 97.246C97.6315 97.246 97.5786 97.2576 97.53 97.28V97.28C96.53 98.14 95.63 99.01 94.69 99.88L94.98 100.39H113.52C127.58 100.39 141.637 100.39 155.69 100.39C162.471 100.371 169.039 98.0197 174.29 93.73C178.822 90.1392 182.282 85.3725 184.29 79.95V79.95C184.877 78.0009 185.325 76.0126 185.63 74C185.711 73.77 185.815 73.5489 185.94 73.34V73.34V65.34C185.41 63.34 184.94 61.21 184.34 59.19C182.556 53.5858 179.136 48.6438 174.52 45V45C170.362 41.5567 165.34 39.3189 160 38.53V38.53C156.89 38.04 153.65 38.36 150.48 38.41C150.22 38.41 149.79 39.12 149.74 39.54C149.48 41.95 149.44 44.39 149.08 46.79C148.538 51.2924 147.363 55.6958 145.59 59.87V59.87C144.41 62.46 143.06 64.97 141.79 67.52L141.3 67.34C141.69 65.81 142.05 64.27 142.48 62.76C143.823 57.4776 144.192 51.9948 143.57 46.58V46.58C143.086 40.2546 141.348 34.0888 138.457 28.442C135.565 22.7952 131.579 17.7805 126.73 13.69V13.69C122.759 10.2232 118.215 7.47543 113.3 5.57V5.57C110.91 4.65 108.47 3.85 106.05 3H104.14Z" fill="white"/>
<path d="M70.75 6.87C66.3975 8.81228 62.4876 11.6231 59.26 15.13V15.13C56.52 18.21 54.01 21.48 51.44 24.71C50.88 25.41 50.84 26 51.83 26.71C53.8366 28.1378 55.6809 29.7809 57.33 31.61V31.61C62.26 37.35 65.6 43.89 66.27 51.61C65.74 50.61 65.27 49.61 64.67 48.66C62.22 44.3534 58.8706 40.6255 54.85 37.73V37.73C51.8368 35.4714 48.4528 33.7557 44.85 32.66V32.66C39.9792 31.2637 34.8724 30.8892 29.85 31.56V31.56C25.3925 32.0982 21.0953 33.5556 17.23 35.84V35.84C12.7571 38.4847 8.92267 42.0836 5.99999 46.38V46.38C3.53157 49.9905 1.76731 54.0347 0.799993 58.3V58.3C-0.100227 62.3245 -0.252763 66.4803 0.349993 70.56V70.56C0.904687 75.1605 2.42816 79.5912 4.81999 83.56V83.56C8.06061 88.9949 12.7439 93.4255 18.35 96.36V96.36C22.9105 98.8216 27.9803 100.191 33.16 100.36V100.36C37.88 100.49 42.6 100.47 47.32 100.36C49.79 100.31 52.26 100.36 54.74 100.42C60.1 100.54 65.46 100.65 70.74 99.68C74.6258 98.9552 78.4454 97.9117 82.16 96.56V96.56C87.2392 94.6121 91.9985 91.9157 96.28 88.56C101.215 84.8341 105.572 80.3996 109.21 75.4V75.4C112.253 71.4123 114.664 66.9805 116.36 62.26V62.26C117.866 58.1553 118.946 53.9061 119.58 49.58V49.58C119.96 45.1626 119.99 40.7221 119.67 36.3C119.362 31.9702 118.254 27.7351 116.4 23.81V23.81C114.611 19.4821 111.93 15.5805 108.53 12.36V12.36C105.54 9.55493 102.036 7.35454 98.21 5.88V5.88C94.3742 4.41745 90.3144 3.62917 86.21 3.55H85.43C80.3518 3.56116 75.3388 4.69488 70.75 6.87" fill="white"/>
<path d="M244.08 63.81C244.08 66.5167 243.38 69.0833 241.98 71.51C240.627 73.9367 238.503 75.92 235.61 77.46C232.763 78.9533 229.053 79.7 224.48 79.7C222.193 79.7 220.187 79.5833 218.46 79.35C216.78 79.1633 215.193 78.8367 213.7 78.37C212.207 77.9033 210.667 77.2967 209.08 76.55V64.51C211.787 65.8633 214.517 66.9133 217.27 67.66C220.023 68.36 222.52 68.71 224.76 68.71C226.767 68.71 228.237 68.36 229.17 67.66C230.103 66.96 230.57 66.0733 230.57 65C230.57 63.6933 229.87 62.6433 228.47 61.85C227.117 61.01 224.807 59.8667 221.54 58.42C219.067 57.2533 216.92 56.04 215.1 54.78C213.28 53.4733 211.88 51.8867 210.9 50.02C209.92 48.1533 209.43 45.7967 209.43 42.95C209.43 39.73 210.223 37.0467 211.81 34.9C213.397 32.7067 215.59 31.0733 218.39 30C221.237 28.88 224.527 28.32 228.26 28.32C231.527 28.32 234.467 28.6933 237.08 29.44C239.693 30.14 242.027 30.9567 244.08 31.89L239.95 42.32C237.803 41.34 235.68 40.57 233.58 40.01C231.527 39.4033 229.613 39.1 227.84 39.1C226.113 39.1 224.83 39.4033 223.99 40.01C223.197 40.6167 222.8 41.3867 222.8 42.32C222.8 43.1133 223.103 43.8133 223.71 44.42C224.317 45.0267 225.32 45.7033 226.72 46.45C228.167 47.15 230.127 48.06 232.6 49.18C235.027 50.2533 237.08 51.4433 238.76 52.75C240.487 54.01 241.793 55.5267 242.68 57.3C243.613 59.0267 244.08 61.1967 244.08 63.81ZM264.46 46.73C264.46 48.3167 264.39 50.0667 264.25 51.98C264.11 53.8933 263.924 55.6433 263.69 57.23H263.97C264.484 56.4367 265.137 55.4333 265.93 54.22C266.77 53.0067 267.494 52.0033 268.1 51.21L276.78 40.29H291.69L278.25 56.74L292.53 79H277.27L268.8 65.14L264.46 68.43V79H251.02V25.8H264.46V46.73ZM292.473 40.29H306.543L313.123 62.48C313.263 62.9467 313.38 63.5767 313.473 64.37C313.613 65.1633 313.706 65.9333 313.753 66.68H314.033C314.126 65.7467 314.243 64.9533 314.383 64.3C314.57 63.6 314.733 63.0167 314.873 62.55L321.593 40.29H335.243L319.913 81.45C318.746 84.5767 317.37 87.2133 315.783 89.36C314.243 91.5067 312.33 93.1167 310.043 94.19C307.756 95.2633 304.91 95.8 301.503 95.8C300.29 95.8 299.24 95.73 298.353 95.59C297.466 95.4967 296.696 95.38 296.043 95.24V84.74C296.556 84.8333 297.163 84.9267 297.863 85.02C298.61 85.1133 299.38 85.16 300.173 85.16C302.366 85.16 303.976 84.5067 305.003 83.2C306.076 81.94 306.94 80.47 307.593 78.79L307.733 78.44L292.473 40.29Z" fill="white"/>
<path d="M373.08 63.81C373.08 66.5167 372.38 69.0833 370.98 71.51C369.627 73.9367 367.503 75.92 364.61 77.46C361.763 78.9533 358.053 79.7 353.48 79.7C351.193 79.7 349.187 79.5833 347.46 79.35C345.78 79.1633 344.193 78.8367 342.7 78.37C341.207 77.9033 339.667 77.2967 338.08 76.55V64.51C340.787 65.8633 343.517 66.9133 346.27 67.66C349.023 68.36 351.52 68.71 353.76 68.71C355.767 68.71 357.237 68.36 358.17 67.66C359.103 66.96 359.57 66.0733 359.57 65C359.57 63.6933 358.87 62.6433 357.47 61.85C356.117 61.01 353.807 59.8667 350.54 58.42C348.067 57.2533 345.92 56.04 344.1 54.78C342.28 53.4733 340.88 51.8867 339.9 50.02C338.92 48.1533 338.43 45.7967 338.43 42.95C338.43 39.73 339.223 37.0467 340.81 34.9C342.397 32.7067 344.59 31.0733 347.39 30C350.237 28.88 353.527 28.32 357.26 28.32C360.527 28.32 363.467 28.6933 366.08 29.44C368.693 30.14 371.027 30.9567 373.08 31.89L368.95 42.32C366.803 41.34 364.68 40.57 362.58 40.01C360.527 39.4033 358.613 39.1 356.84 39.1C355.113 39.1 353.83 39.4033 352.99 40.01C352.197 40.6167 351.8 41.3867 351.8 42.32C351.8 43.1133 352.103 43.8133 352.71 44.42C353.317 45.0267 354.32 45.7033 355.72 46.45C357.167 47.15 359.127 48.06 361.6 49.18C364.027 50.2533 366.08 51.4433 367.76 52.75C369.487 54.01 370.793 55.5267 371.68 57.3C372.613 59.0267 373.08 61.1967 373.08 63.81ZM397.66 79.7C391.78 79.7 387.09 78.1133 383.59 74.94C380.09 71.7667 378.34 66.7267 378.34 59.82C378.34 55.1067 379.227 51.28 381 48.34C382.774 45.3533 385.177 43.16 388.21 41.76C391.29 40.3133 394.79 39.59 398.71 39.59C401.09 39.59 403.33 39.8467 405.43 40.36C407.577 40.8733 409.56 41.5967 411.38 42.53L407.46 52.4C405.874 51.7 404.38 51.14 402.98 50.72C401.627 50.3 400.204 50.09 398.71 50.09C396.704 50.09 395.07 50.8833 393.81 52.47C392.55 54.0567 391.92 56.4833 391.92 59.75C391.92 63.11 392.55 65.5133 393.81 66.96C395.117 68.36 396.774 69.06 398.78 69.06C400.694 69.06 402.607 68.7567 404.52 68.15C406.48 67.5433 408.324 66.7033 410.05 65.63V76.27C408.464 77.2967 406.667 78.1367 404.66 78.79C402.654 79.3967 400.32 79.7 397.66 79.7ZM454.715 59.54C454.715 66.0267 452.988 71.02 449.535 74.52C446.081 77.9733 441.345 79.7 435.325 79.7C431.591 79.7 428.278 78.93 425.385 77.39C422.491 75.8033 420.205 73.5167 418.525 70.53C416.891 67.4967 416.075 63.8333 416.075 59.54C416.075 53.1467 417.801 48.2233 421.255 44.77C424.708 41.3167 429.468 39.59 435.535 39.59C439.268 39.59 442.558 40.36 445.405 41.9C448.298 43.44 450.561 45.7033 452.195 48.69C453.875 51.63 454.715 55.2467 454.715 59.54ZM429.655 59.54C429.655 62.8533 430.098 65.3967 430.985 67.17C431.871 68.8967 433.365 69.76 435.465 69.76C437.518 69.76 438.965 68.8967 439.805 67.17C440.691 65.3967 441.135 62.8533 441.135 59.54C441.135 56.2267 440.691 53.73 439.805 52.05C438.965 50.37 437.495 49.53 435.395 49.53C433.388 49.53 431.918 50.37 430.985 52.05C430.098 53.73 429.655 56.2267 429.655 59.54ZM499.985 40.29V79H489.905L488.225 74.17H487.455C486.242 76.13 484.585 77.5533 482.485 78.44C480.385 79.28 478.145 79.7 475.765 79.7C473.245 79.7 470.958 79.21 468.905 78.23C466.852 77.25 465.218 75.71 464.005 73.61C462.838 71.51 462.255 68.8033 462.255 65.49V40.29H475.625V61.43C475.625 63.95 475.975 65.8633 476.675 67.17C477.422 68.4767 478.612 69.13 480.245 69.13C482.765 69.13 484.445 68.1033 485.285 66.05C486.172 63.9967 486.615 61.0567 486.615 57.23V40.29H499.985ZM528.19 69.13C529.403 69.13 530.5 69.0133 531.48 68.78C532.506 68.5 533.556 68.1733 534.63 67.8V77.53C533.183 78.1367 531.643 78.65 530.01 79.07C528.376 79.49 526.3 79.7 523.78 79.7C521.26 79.7 519.043 79.3033 517.13 78.51C515.263 77.7167 513.793 76.3633 512.72 74.45C511.646 72.49 511.11 69.76 511.11 66.26V50.3H506.42V44.84L512.37 40.64L515.8 32.52H524.55V40.29H534.07V50.3H524.55V65.35C524.55 67.87 525.763 69.13 528.19 69.13Z" fill="white"/>
</g>
<defs>
<clipPath id="clip0_0_15">
<rect width="548.72" height="97.51" fill="white"/>
</clipPath>
</defs>
</svg>
