<?xml version="1.0" encoding="UTF-8"?>
<svg width="75px" height="78px" viewBox="0 0 75 78" version="1.1" xmlns="http://www.w3.org/2000/svg" xmlns:xlink="http://www.w3.org/1999/xlink">
    <!-- Generator: Sketch 52.3 (67297) - http://www.bohemiancoding.com/sketch -->
    <title>Combined Shape</title>
    <desc>Created with Sketch.</desc>
    <defs>
        <path d="M542.256961,3734.37792 L542.256961,3738.02095 C542.256961,3738.59794 541.78936,3739.06496 541.2124,3739.06496 L537.56728,3739.06496 C536.990981,3739.06496 536.523286,3738.59794 536.523286,3738.02095 L536.523286,3734.37792 C536.523286,3733.80168 536.990981,3733.33485 537.56728,3733.33485 L541.2124,3733.33485 C541.78936,3733.33485 542.256961,3733.80168 542.256961,3734.37792 Z M551.366602,3734.37792 L551.366602,3738.02095 C551.366602,3738.59794 550.898906,3739.06496 550.323078,3739.06496 L546.677487,3739.06496 C546.101188,3739.06496 545.633493,3738.59794 545.633493,3738.02095 L545.633493,3734.37792 C545.633493,3733.80168 546.101188,3733.33485 546.677487,3733.33485 L550.323078,3733.33485 C550.898906,3733.33485 551.366602,3733.80168 551.366602,3734.37792 Z M560.476714,3734.37792 L560.476714,3738.02095 C560.476714,3738.59794 560.009019,3739.06496 559.43272,3739.06496 L555.7876,3739.06496 C555.21064,3739.06496 554.743039,3738.59794 554.743039,3738.02095 L554.743039,3734.37792 C554.743039,3733.80168 555.21064,3733.33485 555.7876,3733.33485 L559.43272,3733.33485 C560.009019,3733.33485 560.476714,3733.80168 560.476714,3734.37792 Z M542.256961,3743.48448 L542.256961,3747.12685 C542.256961,3747.70337 541.78936,3748.17039 541.2124,3748.17039 L537.56728,3748.17039 C536.990981,3748.17039 536.523286,3747.70346 536.523286,3747.12685 L536.523286,3743.48448 C536.523286,3742.9073 536.990981,3742.44085 537.56728,3742.44085 L541.2124,3742.44085 C541.78936,3742.44085 542.256961,3742.9073 542.256961,3743.48448 Z M551.366602,3743.48448 L551.366602,3747.12685 C551.366602,3747.70337 550.898906,3748.17039 550.323078,3748.17039 L546.677487,3748.17039 C546.101188,3748.17039 545.633493,3747.70346 545.633493,3747.12685 L545.633493,3743.48448 C545.633493,3742.9073 546.101188,3742.44085 546.677487,3742.44085 L550.323078,3742.44085 C550.898906,3742.44085 551.366602,3742.9073 551.366602,3743.48448 Z M560.476714,3743.48448 L560.476714,3747.12685 C560.476714,3747.70337 560.009019,3748.17039 559.433191,3748.17039 L555.7876,3748.17039 C555.21064,3748.17039 554.743039,3747.70346 554.743039,3747.12685 L554.743039,3743.48448 C554.743039,3742.9073 555.21064,3742.44085 555.7876,3742.44085 L559.433191,3742.44085 C560.009019,3742.44085 560.476714,3742.9073 560.476714,3743.48448 Z M566.994564,3714.12193 C569.193325,3714.18817 571,3716.00677 571,3718.24207 L571,3750.85235 C571,3753.1258 569.149959,3755 566.875024,3755 L530.124976,3755 C527.846647,3755 526,3753.12967 526,3750.85235 L526,3718.24207 C526,3716.00677 527.806769,3714.18817 530.005531,3714.12193 L530.005531,3719.68637 C530.005531,3722.20144 532.046666,3724.2282 534.562378,3724.2282 L537.437653,3724.2282 C539.953271,3724.2282 542.021463,3722.20144 542.021463,3719.68637 L542.021463,3714.10195 L554.978537,3714.10195 L554.978537,3719.68637 C554.978537,3722.20144 557.046823,3724.2282 559.562818,3724.2282 L562.437527,3724.2282 C564.953334,3724.2282 566.994564,3722.20144 566.994564,3719.68637 L566.994564,3714.12193 Z M565.659355,3748.82163 L565.659261,3731.97724 C565.659261,3730.9927 564.860945,3730.19426 563.875966,3730.19426 L533.045409,3730.19426 C532.060336,3730.19426 531.262114,3730.9927 531.262114,3731.97724 L531.262114,3748.82163 C531.262114,3749.8058 532.06043,3750.60423 533.045409,3750.60423 L563.876061,3750.60423 C564.86104,3750.60423 565.659355,3749.8058 565.659355,3748.82163 Z M534.552291,3721.24507 C533.689114,3721.24507 532.98941,3720.54662 532.98941,3719.68392 L532.98941,3710.56172 C532.98941,3709.69892 533.689114,3709 534.552291,3709 L537.395795,3709 C538.258878,3709 538.958676,3709.69892 538.958676,3710.56172 L538.958676,3719.68392 C538.958676,3720.54662 538.258878,3721.24507 537.395795,3721.24507 L534.552291,3721.24507 Z M559.52624,3721.24507 C558.663252,3721.24507 557.963453,3720.54662 557.963453,3719.68392 L557.963453,3710.56172 C557.963453,3709.69892 558.663252,3709 559.52624,3709 L562.369744,3709 C563.232355,3709 563.932154,3709.69892 563.93206,3710.56172 L563.93206,3719.68392 C563.93206,3720.54662 563.232261,3721.24507 562.369744,3721.24507 L559.52624,3721.24507 Z" id="path-1"></path>
        <filter x="-68.9%" y="-34.8%" width="237.8%" height="239.1%" filterUnits="objectBoundingBox" id="filter-2">
            <feOffset dx="0" dy="17" in="SourceAlpha" result="shadowOffsetOuter1"></feOffset>
            <feGaussianBlur stdDeviation="7.5" in="shadowOffsetOuter1" result="shadowBlurOuter1"></feGaussianBlur>
            <feColorMatrix values="0 0 0 0 0.91479846   0 0 0 0 0.652892079   0 0 0 0 0.652892079  0 0 0 0.5 0" type="matrix" in="shadowBlurOuter1"></feColorMatrix>
        </filter>
    </defs>
    <g id="Page-1" stroke="none" stroke-width="1" fill="none" fill-rule="evenodd">
        <g id="StaffCloud.io-Website-Design---V2" transform="translate(-511.000000, -3709.000000)" fill-rule="nonzero">
            <g id="Combined-Shape">
                <use fill="black" fill-opacity="1" filter="url(#filter-2)" xlink:href="#path-1"></use>
                <use fill="#FF542B" xlink:href="#path-1"></use>
            </g>
        </g>
    </g>
</svg>