<?xml version="1.0" encoding="UTF-8"?>
<svg width="85px" height="89px" viewBox="0 0 85 89" version="1.1" xmlns="http://www.w3.org/2000/svg" xmlns:xlink="http://www.w3.org/1999/xlink">
    <!-- Generator: Sketch 52.3 (67297) - http://www.bohemiancoding.com/sketch -->
    <title>Combined Shape</title>
    <desc>Created with Sketch.</desc>
    <defs>
        <path d="M1019.77417,4152.87462 C1019.14113,4152.39328 1019.01969,4151.49222 1019.50295,4150.86177 C1024.30779,4144.59445 1031.59639,4141 1039.4999,4141 C1047.40342,4141 1054.69202,4144.59445 1059.49705,4150.86177 C1059.98011,4151.49222 1059.85867,4152.39328 1059.22564,4152.87462 C1058.96444,4153.07306 1058.6566,4153.16902 1058.35164,4153.16902 C1057.91715,4153.16902 1057.48787,4152.97461 1057.20393,4152.60439 C1052.94943,4147.05486 1046.49666,4143.87207 1039.4999,4143.87207 C1032.50315,4143.87207 1026.05037,4147.05467 1021.79588,4152.60439 C1021.31243,4153.23466 1020.40759,4153.35576 1019.77417,4152.87462 Z M1054.83177,4160.53469 C1054.83177,4158.06162 1056.85271,4156.04973 1059.33647,4156.04973 C1061.82024,4156.04973 1063.84118,4158.06181 1063.84118,4160.53469 C1063.84118,4163.00757 1061.82024,4165.01965 1059.33647,4165.01965 C1056.85271,4165.01965 1054.83177,4163.00757 1054.83177,4160.53469 Z M1063.94662,4166.50798 C1065.77286,4167.11425 1067,4168.80909 1067,4170.7256 L1067,4177.50591 C1067,4177.7673 1066.92309,4178.02313 1066.77871,4178.24173 L1064.49484,4181.70222 L1064.49484,4190.78998 C1064.49484,4191.53021 1063.89226,4192.13015 1063.14877,4192.13015 L1055.52437,4192.13015 C1054.78088,4192.13015 1054.1783,4191.53021 1054.1783,4190.78998 L1054.1783,4181.70222 L1051.89444,4178.24173 C1051.74986,4178.02332 1051.67314,4177.76749 1051.67314,4177.50591 L1051.67314,4170.7256 C1051.67314,4168.80909 1052.90009,4167.11425 1054.72633,4166.50798 C1054.73674,4166.50453 1055.87173,4166.15773 1055.87173,4166.15773 C1056.28232,4166.0326 1056.72896,4166.10956 1057.07323,4166.36615 L1059.33647,4168.05331 L1061.59972,4166.36615 C1061.9438,4166.10975 1062.39024,4166.03279 1062.80121,4166.15773 C1062.80121,4166.15773 1063.93621,4166.50453 1063.94662,4166.50798 Z M1019.66333,4165.01965 C1017.17938,4165.01965 1015.15844,4163.00776 1015.15844,4160.53469 C1015.15844,4158.06162 1017.17957,4156.04973 1019.66333,4156.04973 C1022.1471,4156.04973 1024.16803,4158.06181 1024.16803,4160.53469 C1024.16803,4163.00757 1022.1471,4165.01965 1019.66333,4165.01965 Z M1024.27348,4166.50798 C1026.09953,4167.11425 1027.32666,4168.80909 1027.32666,4170.7256 L1027.32666,4177.50591 C1027.32666,4177.7673 1027.24975,4178.02313 1027.10537,4178.24173 L1024.8215,4181.70222 L1024.8215,4190.78998 C1024.8215,4191.53021 1024.21892,4192.13015 1023.47543,4192.13015 L1015.85123,4192.13015 C1015.10774,4192.13015 1014.50516,4191.53021 1014.50516,4190.78998 L1014.50516,4181.70222 L1012.22129,4178.24173 C1012.07672,4178.02332 1012,4177.76749 1012,4177.50591 L1012,4170.7256 C1012,4168.80909 1013.22694,4167.11425 1015.05319,4166.50798 C1015.0636,4166.50453 1016.19859,4166.15773 1016.19859,4166.15773 C1016.60918,4166.0326 1017.05601,4166.10956 1017.40009,4166.36615 L1019.66333,4168.05331 L1021.92657,4166.36615 C1022.27085,4166.10975 1022.71691,4166.03279 1023.12807,4166.15773 C1023.12807,4166.15773 1024.26307,4166.50453 1024.27348,4166.50798 Z M1045.3102,4154.21383 C1045.3102,4157.40372 1042.70364,4159.99866 1039.4999,4159.99866 C1036.29617,4159.99866 1033.68961,4157.40372 1033.68961,4154.21383 C1033.68961,4151.02413 1036.29617,4148.429 1039.4999,4148.429 C1042.70364,4148.429 1045.3102,4151.02413 1045.3102,4154.21383 Z M1045.88174,4162.80221 C1047.98287,4163.48756 1049.40373,4165.43957 1049.40392,4167.64088 L1049.40392,4177.74427 C1049.40392,4177.84426 1049.37443,4177.94214 1049.3193,4178.02582 L1045.68069,4183.53851 L1045.68069,4197.48719 C1045.68069,4197.77046 1045.45014,4198 1045.16562,4198 L1033.83438,4198 C1033.54986,4198 1033.31931,4197.77046 1033.31931,4197.48719 L1033.31931,4183.53851 L1029.6807,4178.02582 C1029.62557,4177.94214 1029.59608,4177.84426 1029.59608,4177.74427 L1029.59608,4167.66736 C1029.59608,4165.45645 1031.01135,4163.50118 1033.12982,4162.79837 C1033.12982,4162.79837 1034.88803,4162.26964 1034.93795,4162.26964 C1035.14883,4162.26964 1035.34545,4162.39976 1035.4214,4162.60722 L1038.9085,4172.13313 C1039.10975,4172.6826 1039.89025,4172.6826 1040.0915,4172.13313 L1043.5786,4162.60722 C1043.67267,4162.35024 1043.95217,4162.21244 1044.21375,4162.29247 L1045.8721,4162.79914 L1045.88174,4162.80221 Z M1040.86236,4162.60166 C1041.08539,4162.84367 1041.11777,4163.19315 1040.95932,4163.46625 L1040.10981,4164.74136 L1040.50748,4168.08172 L1039.72428,4170.15598 C1039.64775,4170.3646 1039.35148,4170.3646 1039.27514,4170.15598 L1038.49194,4168.08172 L1038.88961,4164.74136 L1038.0401,4163.46625 C1037.88184,4163.19315 1037.91423,4162.84367 1038.13725,4162.60166 C1038.28144,4162.44543 1038.49213,4162.36675 1038.70514,4162.36675 L1040.29448,4162.36675 C1040.50767,4162.36675 1040.71836,4162.44543 1040.86236,4162.60166 Z" id="path-1"></path>
        <filter x="-56.4%" y="-28.1%" width="212.7%" height="212.3%" filterUnits="objectBoundingBox" id="filter-2">
            <feOffset dx="0" dy="17" in="SourceAlpha" result="shadowOffsetOuter1"></feOffset>
            <feGaussianBlur stdDeviation="7.5" in="shadowOffsetOuter1" result="shadowBlurOuter1"></feGaussianBlur>
            <feColorMatrix values="0 0 0 0 0.652892079   0 0 0 0 0.7725414   0 0 0 0 0.91479846  0 0 0 0.5 0" type="matrix" in="shadowBlurOuter1"></feColorMatrix>
        </filter>
    </defs>
    <g id="Page-1" stroke="none" stroke-width="1" fill="none" fill-rule="evenodd">
        <g id="StaffCloud.io-Website-Design---V2" transform="translate(-997.000000, -4141.000000)" fill-rule="nonzero">
            <g id="Combined-Shape">
                <use fill="black" fill-opacity="1" filter="url(#filter-2)" xlink:href="#path-1"></use>
                <use fill="#008AFA" xlink:href="#path-1"></use>
            </g>
        </g>
    </g>
</svg>