<?xml version="1.0" encoding="UTF-8"?>
<svg width="80px" height="82px" viewBox="0 0 80 82" version="1.1" xmlns="http://www.w3.org/2000/svg" xmlns:xlink="http://www.w3.org/1999/xlink">
    <!-- Generator: Sketch 52.3 (67297) - http://www.bohemiancoding.com/sketch -->
    <title>Combined Shape</title>
    <desc>Created with Sketch.</desc>
    <defs>
        <path d="M551,3562 C564.785132,3562 576,3573.21487 576,3587 C576,3600.78526 564.785132,3612 551,3612 C537.214737,3612 526,3600.785 526,3587 C526,3573.215 537.214737,3562 551,3562 Z M561.513158,3603.69645 C563.847237,3602.22132 565.852237,3600.27145 567.391316,3597.98237 L565.129737,3596.67671 C564.500395,3596.31342 564.284868,3595.50868 564.648289,3594.87947 C565.011842,3594.25026 565.816053,3594.03447 566.445526,3594.39789 L568.710263,3595.70553 C569.918553,3593.25737 570.633947,3590.52421 570.725921,3587.63618 L568.576842,3587.64276 L568.574605,3587.64276 C568.453026,3587.64276 568.333947,3587.61145 568.229474,3587.55158 C568.013421,3587.42776 567.879211,3587.19684 567.878421,3586.94855 C567.877763,3586.7625 567.949737,3586.5875 568.080789,3586.45553 C568.211579,3586.32368 568.386184,3586.25066 568.572237,3586.25013 L570.720921,3586.24355 C570.613289,3583.40013 569.901711,3580.70908 568.709868,3578.29487 L566.445132,3579.6025 C566.238158,3579.72211 566.011842,3579.77895 565.788684,3579.77895 C565.333947,3579.77895 564.891842,3579.54303 564.647895,3579.12092 C564.284474,3578.49158 564.5,3577.68684 565.129342,3577.32355 L567.390921,3576.01789 C565.829868,3573.69579 563.788553,3571.72263 561.410789,3570.24039 L560.344474,3572.10026 C560.220789,3572.31618 559.988816,3572.45039 559.739211,3572.45039 C559.617105,3572.45039 559.500921,3572.41921 559.393947,3572.35789 C559.060921,3572.16697 558.945263,3571.74053 559.136184,3571.40737 L560.203421,3569.54566 C557.819868,3568.28368 555.148553,3567.49605 552.315658,3567.30868 L552.315658,3569.92566 C552.315658,3570.65224 551.726316,3571.24145 550.999868,3571.24145 C550.273289,3571.24145 549.684079,3570.65224 549.684079,3569.92566 L549.684079,3567.30868 C546.808684,3567.49895 544.099737,3568.30697 541.689342,3569.60211 L542.768026,3571.45763 C542.861447,3571.61842 542.886842,3571.80592 542.839211,3571.98566 C542.791711,3572.16553 542.676842,3572.31618 542.515789,3572.40974 C542.301316,3572.53461 542.031447,3572.53329 541.818553,3572.41145 C541.711842,3572.35013 541.626316,3572.26474 541.563947,3572.15763 L540.486579,3570.30447 C538.152632,3571.77934 536.147368,3573.72908 534.608816,3576.01816 L536.870395,3577.32382 C537.499605,3577.68711 537.715263,3578.49184 537.351842,3579.12118 C537.108158,3579.54329 536.665789,3579.77921 536.211053,3579.77921 C535.987895,3579.77921 535.761711,3579.72237 535.554605,3579.60276 L533.289868,3578.29526 C532.081579,3580.74355 531.366184,3583.47658 531.274211,3586.36461 L533.425263,3586.35803 C533.808026,3586.35803 534.120526,3586.66947 534.121711,3587.05237 C534.122368,3587.23842 534.050395,3587.41355 533.919342,3587.54553 C533.788289,3587.67737 533.613684,3587.75039 533.427632,3587.75092 L531.278947,3587.7575 C531.386579,3590.60092 532.098421,3593.29184 533.29,3595.70618 L535.554737,3594.39868 C536.183947,3594.03513 536.988684,3594.25092 537.351974,3594.88 C537.715395,3595.50934 537.499737,3596.31408 536.870526,3596.67737 L534.608947,3597.98303 C536.17,3600.30513 538.211316,3602.27803 540.588816,3603.76039 L541.654868,3601.90079 C541.778947,3601.68474 542.011053,3601.55039 542.260526,3601.55039 C542.3825,3601.55039 542.498684,3601.58158 542.605789,3601.64303 C542.767105,3601.73553 542.882763,3601.88526 542.931447,3602.06474 C542.980132,3602.24461 542.955921,3602.43211 542.863421,3602.59342 L541.796184,3604.45513 C544.179737,3605.71711 546.851184,3606.50487 549.684211,3606.69224 L549.684211,3604.075 C549.684211,3603.34855 550.273421,3602.75921 551,3602.75921 C551.726447,3602.75921 552.315789,3603.34855 552.315789,3604.075 L552.315789,3606.69263 C555.191316,3606.50211 557.900395,3605.69434 560.310526,3604.39921 L559.231711,3602.54368 C559.138158,3602.38263 559.113289,3602.195 559.160395,3602.01513 C559.208026,3601.83513 559.322763,3601.68474 559.483816,3601.59118 C559.591711,3601.52842 559.708816,3601.49658 559.832237,3601.49658 C560.080132,3601.49658 560.311447,3601.62947 560.435789,3601.84329 L561.513158,3603.69645 Z M560.724474,3579.86513 C561.522763,3579.42224 562.528684,3579.71026 562.970789,3580.50842 C563.413289,3581.30658 563.125395,3582.31263 562.327237,3582.75539 L553.716579,3587.53316 C553.467895,3588.8075 552.346579,3589.76961 550.999474,3589.76961 C549.652368,3589.76961 548.531184,3588.80763 548.282368,3587.53316 L539.671447,3582.75539 C538.873158,3582.3125 538.585263,3581.30645 539.027895,3580.50842 C539.470921,3579.71039 540.477105,3579.42224 541.275,3579.86513 L549.714605,3584.54776 C550.098816,3584.34592 550.535395,3584.23039 550.999605,3584.23039 C551.464079,3584.23039 551.900526,3584.34605 552.284737,3584.54776 L560.724474,3579.86513 Z" id="path-1"></path>
        <filter x="-62.0%" y="-32.0%" width="224.0%" height="228.0%" filterUnits="objectBoundingBox" id="filter-2">
            <feOffset dx="0" dy="17" in="SourceAlpha" result="shadowOffsetOuter1"></feOffset>
            <feGaussianBlur stdDeviation="7.5" in="shadowOffsetOuter1" result="shadowBlurOuter1"></feGaussianBlur>
            <feColorMatrix values="0 0 0 0 0.688377647   0 0 0 0 0.652892079   0 0 0 0 0.91479846  0 0 0 0.5 0" type="matrix" in="shadowBlurOuter1"></feColorMatrix>
        </filter>
    </defs>
    <g id="Page-1" stroke="none" stroke-width="1" fill="none" fill-rule="evenodd">
        <g id="StaffCloud.io-Website-Design---V2" transform="translate(-511.000000, -3562.000000)" fill-rule="nonzero">
            <g id="Combined-Shape">
                <use fill="black" fill-opacity="1" filter="url(#filter-2)" xlink:href="#path-1"></use>
                <use fill="#4A90E2" xlink:href="#path-1"></use>
            </g>
        </g>
    </g>
</svg>