<?xml version="1.0" encoding="UTF-8"?>
<svg width="63px" height="64px" viewBox="0 0 63 64" version="1.1" xmlns="http://www.w3.org/2000/svg" xmlns:xlink="http://www.w3.org/1999/xlink">
    <!-- Generator: Sketch 52.3 (67297) - http://www.bohemiancoding.com/sketch -->
    <title>Combined Shape</title>
    <desc>Created with Sketch.</desc>
    <defs>
        <path d="M1118.04132,9110 C1120.77612,9110 1123,9112.28762 1123,9115 C1123,9117.71238 1120.77612,9120 1118.04132,9120 C1115.30653,9120 1113,9117.71238 1113,9115 C1113,9112.28762 1115.30653,9110 1118.04132,9110 Z M1123.18944,9120 C1124.30263,9121.24126 1125,9122.86736 1125,9124.66667 L1125,9125.83333 C1125,9126.47819 1124.48107,9127 1123.83978,9127 L1112.16022,9127 C1111.51893,9127 1111,9126.47819 1111,9125.83333 L1111,9124.66667 C1111,9122.86736 1111.69737,9121.24126 1112.81056,9120 C1114.08565,9121.4217 1115.98926,9122.33333 1118.03867,9122.33333 C1120.08809,9122.33333 1121.91435,9121.4217 1123.18944,9120 Z M1107.74394,9146.80642 C1108.34425,9148.01376 1107.85293,9149.4807 1106.64751,9150.07953 L1105.04931,9150.87367 C1104.45134,9151.16943 1103.72177,9150.92935 1103.42185,9150.32604 L1096.12857,9135.6965 C1095.82768,9135.09295 1096.07298,9134.35814 1096.67581,9134.05832 L1098.29484,9133.25394 C1099.49556,9132.6573 1100.9513,9133.14779 1101.54943,9134.35059 L1107.74394,9146.80642 Z M1136.01552,9129.88513 C1137.10064,9130.66611 1137.31768,9132.18042 1136.52187,9133.22169 L1129.44801,9143.16038 C1128.09753,9144.93514 1125.92704,9146 1123.66016,9146 L1111.88358,9146 L1109.854,9146 L1103,9132.51415 L1104.74405,9131.00805 L1104.77982,9131.03652 C1105.85345,9130.20215 1106.91205,9129.57987 1108.48182,9129.22287 C1111.30898,9128.57985 1114.10158,9129.37353 1115.96725,9131.0209 C1116.44121,9131.42792 1116.74088,9131.80188 1117.34185,9131.80188 C1123.39891,9131.80188 1117.99731,9131.80188 1123.66016,9131.80188 C1124.98652,9131.80188 1126.07173,9132.86674 1126.07173,9134.16823 C1126.07173,9135.46973 1124.98652,9136.53459 1123.66016,9136.53459 C1122.23991,9136.53459 1120.45197,9136.53459 1118.83702,9136.53459 C1118.1617,9136.53459 1117.63124,9137.0551 1117.63124,9137.71776 C1117.63124,9138.38042 1118.1617,9138.90094 1118.83702,9138.90094 L1124.45606,9138.90094 C1124.91426,9138.90094 1125.78242,9138.61698 1126.24062,9138.14371 L1132.83224,9130.19276 C1133.6521,9129.31721 1135.02669,9129.17523 1136.01552,9129.88513 Z" id="path-1"></path>
        <filter x="-56.1%" y="-31.7%" width="212.2%" height="212.2%" filterUnits="objectBoundingBox" id="filter-2">
            <feOffset dx="0" dy="10" in="SourceAlpha" result="shadowOffsetOuter1"></feOffset>
            <feGaussianBlur stdDeviation="6" in="shadowOffsetOuter1" result="shadowBlurOuter1"></feGaussianBlur>
            <feColorMatrix values="0 0 0 0 0   0 0 0 0 0   0 0 0 0 0  0 0 0 0.2 0" type="matrix" in="shadowBlurOuter1"></feColorMatrix>
        </filter>
    </defs>
    <g id="Page-1" stroke="none" stroke-width="1" fill="none" fill-rule="evenodd">
        <g id="StaffCloud.io-Website-Design---V2" transform="translate(-1085.000000, -9108.000000)" fill-rule="nonzero">
            <g id="Combined-Shape">
                <use fill="black" fill-opacity="1" filter="url(#filter-2)" xlink:href="#path-1"></use>
                <use fill="#FFFFFF" xlink:href="#path-1"></use>
            </g>
        </g>
    </g>
</svg>