<?xml version="1.0" encoding="UTF-8"?>
<svg width="56px" height="56px" viewBox="0 0 56 56" version="1.1" xmlns="http://www.w3.org/2000/svg" xmlns:xlink="http://www.w3.org/1999/xlink">
    <!-- Generator: Sketch 52.3 (67297) - http://www.bohemiancoding.com/sketch -->
    <title>Combined Shape</title>
    <desc>Created with Sketch.</desc>
    <defs>
        <path d="M54.0002746,57.7131347 C51.794826,57.7131347 50.0004883,55.9182129 50,53.7131347 C50,52.6108398 50.4479741,51.6113281 51.1720565,50.8872071 C51.1823099,50.8769531 51.1930515,50.8684082 51.2033049,50.8586426 C51.8221683,50.2524414 52.6363338,49.8457031 53.5415589,49.7416992 C53.5591361,49.7392578 53.5764691,49.7353516 53.5940463,49.7336426 C53.7278283,49.7199707 53.863319,49.7131347 54.0002746,49.7131347 C54.1882529,49.7131347 54.3762312,49.7260742 54.5625005,49.7524414 C56.5990128,50.0397949 58.1436081,51.9238281 57.9880988,53.982666 C57.8338101,56.0222168 56.0436225,57.7131347 54.0002746,57.7131347 Z M54.0002746,51.9987793 C54.9455366,51.9987793 55.7145386,52.7678222 55.7145386,53.7131347 C55.7145386,54.6582031 54.9455366,55.4272461 54.0002746,55.4272461 C53.6848618,55.4272461 53.4290161,55.6826172 53.4290161,55.9987793 C53.4290161,56.3146972 53.6848618,56.5700684 54.0002746,56.5700684 C55.57563,56.5700684 56.8572998,55.2883301 56.8572998,53.7131347 C56.8572998,52.1376953 55.57563,50.8559571 54.0002746,50.8559571 C53.6848618,50.8559571 53.4290161,51.1113281 53.4290161,51.4272461 C53.4290161,51.7434082 53.6848618,51.9987793 54.0002746,51.9987793 Z M77.4277344,48.5700684 C77.4277344,50.1481934 76.1485059,51.4272461 74.5707093,51.4272461 C72.9929127,51.4272461 71.7136841,50.1481934 71.7136841,48.5700684 C71.7136841,46.9921875 72.9929127,45.7131347 74.5707093,45.7131347 C76.1485059,45.7131347 77.4277344,46.9921875 77.4277344,48.5700684 Z M59.7143249,41.1416016 C59.7143249,42.0883789 58.9467878,42.8559571 58.000061,42.8559571 C57.0533342,42.8559571 56.2860412,42.0883789 56.2860412,41.1416016 C56.2860412,40.1948242 57.0533342,39.4272461 58.000061,39.4272461 C58.9467878,39.4272461 59.7143249,40.1948242 59.7143249,41.1416016 Z M68.2854004,33.1416016 C68.2854004,33.7727051 67.773709,34.2844238 67.1423951,34.2844238 C66.5113252,34.2844238 65.9996338,33.7727051 65.9996338,33.1416016 C65.9996338,32.5104981 66.5113252,31.9987793 67.1423951,31.9987793 C67.773709,31.9987793 68.2854004,32.5104981 68.2854004,33.1416016 Z M65.4283753,49.7131347 C65.4283753,50.3442383 64.9166839,50.8559571 64.285614,50.8559571 C63.6543001,50.8559571 63.1426087,50.3442383 63.1426087,49.7131347 C63.1426087,49.0817871 63.6543001,48.5700684 64.285614,48.5700684 C64.9166839,48.5700684 65.4283753,49.0817871 65.4283753,49.7131347 Z M80.1487805,36.5268554 C81.3618505,38.8205566 81.9987793,41.3854981 82,44 C82,49.6791992 79.0235965,54.6730957 74.5511791,57.5129394 C74.4462042,56.032959 73.2209279,54.8569336 71.7149047,54.8569336 C70.1395494,54.8569336 68.8578796,56.1386719 68.8578796,57.7141113 C68.8578796,58.4267578 69.1212932,59.0856934 69.5692674,59.5935059 C68.4206471,59.8564453 67.2275956,60 66.0008545,60 C62.9512126,60 60.0126489,59.1455078 57.4539476,57.5227051 C57.4829988,57.4958496 57.5086322,57.4660644 57.5371951,57.4387207 C57.6035978,57.3752441 57.6680475,57.310791 57.7310324,57.2443847 C59.1359867,55.7651367 59.532694,53.4873047 58.6989983,51.6220703 C58.4099512,50.9753418 57.9829721,50.3935547 57.4578536,49.9182129 C55.6986703,48.3256836 53.0122903,48.1335449 51.0592696,49.5021972 C51.0365658,49.5180664 51.0114206,49.5290527 50.989205,49.5449219 C50.3332341,47.7736816 50.0012206,45.9118652 50.0012206,44 C50.0012206,40.6821289 50.9982377,37.5278321 52.8907147,34.8317871 C52.7981904,34.9643554 54.0981698,35.6586914 54.241961,35.7158203 C54.8019897,35.9382324 55.4127969,36.032959 56.0140831,35.9890137 C56.6449088,35.9426269 57.259622,35.7387696 57.7962145,35.4050293 C59.7348317,34.1992188 60.3195172,31.5261231 58.9526469,29.6611328 C58.9480084,29.6540528 58.9445907,29.6467285 58.9401964,29.6398926 C61.1256265,28.5649414 63.5512782,28 66.0003662,28 C68.307616,28 70.6024153,28.5039063 72.6901945,29.4650879 C71.2012603,30.9211426 70.7349766,33.2199707 71.5469449,35.1398926 C72.3440216,37.0239258 74.239184,38.2856446 76.2854614,38.2856446 C76.4705101,38.2856446 76.6528734,38.2746582 76.8327955,38.2553711 C76.8476873,38.2536621 76.8620908,38.2502441 76.8762502,38.2485352 C77.0459188,38.2290039 77.2138786,38.2016602 77.3784206,38.1655273 C77.9208721,38.0473633 78.427681,37.8422852 78.8905469,37.5683594 C79.045812,37.4758301 79.1915562,37.3786621 79.332662,37.2746582 C79.3412064,37.2678223 79.3497509,37.2614746 79.3585395,37.2553711 C79.4911007,37.1557617 79.6190237,37.0500488 79.7413316,36.9387207 C79.7554909,36.9262696 79.7691621,36.9135742 79.7830774,36.9011231 C79.9012351,36.7907715 80.0145103,36.6748047 80.1219264,36.5541992 C80.1304709,36.5444336 80.1399919,36.5363769 80.1487805,36.5268554 Z M58.000061,43.9987793 C59.5754164,43.9987793 60.8570862,42.717041 60.8570862,41.1416016 C60.8570862,39.5661621 59.5754164,38.2844238 58.000061,38.2844238 C56.4247057,38.2844238 55.1430359,39.5661621 55.1430359,41.1416016 C55.1430359,42.717041 56.4247057,43.9987793 58.000061,43.9987793 Z M64.285614,51.9987793 C65.5455565,51.9987793 66.5711365,50.9736328 66.5711365,49.7131347 C66.5711365,48.4523926 65.5460447,47.4272461 64.285614,47.4272461 C63.0249391,47.4272461 61.9998474,48.4523926 61.9998474,49.7131347 C61.9998474,50.9736328 63.0249391,51.9987793 64.285614,51.9987793 Z M67.1423951,35.4272461 C68.4023375,35.4272461 69.4281617,34.4020996 69.4281617,33.1416016 C69.4281617,31.8811035 68.4030699,30.8559571 67.1423951,30.8559571 C65.8819643,30.8559571 64.8568726,31.8811035 64.8568726,33.1416016 C64.8568726,34.4020996 65.8819643,35.4272461 67.1423951,35.4272461 Z M74.5707093,52.5700684 C76.776402,52.5700684 78.5704957,50.7753906 78.5704957,48.5700684 C78.5704957,46.3649902 76.776402,44.5700684 74.5707093,44.5700684 C72.3650165,44.5700684 70.5709229,46.3649902 70.5709229,48.5700684 C70.5709229,50.7753906 72.3650165,52.5700684 74.5707093,52.5700684 Z M53.3565102,33.5993652 C53.0391443,33.1335449 52.8575134,32.5759277 52.8570252,31.9980469 C52.8570252,30.4228516 54.138695,29.1411133 55.7140503,29.1411133 C56.6361202,29.1411133 57.5157119,29.6066894 58.040098,30.3645019 C58.325239,30.7763672 58.5000343,31.2587891 58.5371417,31.7587891 C58.6989983,33.9101562 56.4408181,35.5244141 54.4682672,34.5649414 C54.0146782,34.3444824 53.633595,34.0068359 53.3565102,33.5993652 Z M73.2746359,30.5598144 C74.019225,29.6987304 75.1107195,29.1416016 76.2854614,29.1416016 C78.4911541,29.1416016 80.2852478,30.9365234 80.2852478,33.1416016 C80.2852478,34.7106934 79.3189908,36.1774902 77.8820559,36.8056641 C77.3127503,37.0541992 76.6848542,37.1650391 76.0655024,37.1330566 C73.8873961,37.0205078 72.1233302,35.029541 72.2988579,32.8491211 C72.367946,31.9885254 72.7280342,31.1918946 73.2746359,30.5598144 Z M76.2849732,30.2844238 C74.7096179,30.2844238 73.4279481,31.5661621 73.4279481,33.1416016 C73.4279481,33.4575196 73.6837938,33.7131347 73.9992065,33.7131347 C74.3146194,33.7131347 74.5707093,33.4575196 74.5707093,33.1416016 C74.5707093,32.1965332 75.3397111,31.4272461 76.2849732,31.4272461 C76.600386,31.4272461 76.8562317,31.171875 76.8562317,30.8559571 C76.8562317,30.5397949 76.600386,30.2844238 76.2849732,30.2844238 Z M71.9844216,58.8330078 C71.6902479,58.9519043 71.3931446,59.0615234 71.0938441,59.1621094 C71.0337888,59.1826172 70.9737334,59.2038574 70.913678,59.2233887 C70.3526728,58.9289551 69.9994202,58.3552246 69.9994202,57.7131347 C69.9994202,56.7678222 70.7686662,55.9987793 71.7136841,55.9987793 C72.658702,55.9987793 73.4279481,56.7678222 73.4279481,57.7131347 C73.4279481,57.8793946 73.4032911,58.0422363 73.3564186,58.1999512 C73.2924572,58.2329102 73.2280075,58.2661133 73.1633137,58.2988281 C72.8508304,58.4558106 72.5354176,58.6062012 72.2141456,58.7421875 C72.1387102,58.7741699 72.0605894,58.8022461 71.9844216,58.8330078 Z" id="path-1"></path>
        <filter x="-71.9%" y="-40.6%" width="243.7%" height="243.7%" filterUnits="objectBoundingBox" id="filter-2">
            <feOffset dx="0" dy="10" in="SourceAlpha" result="shadowOffsetOuter1"></feOffset>
            <feGaussianBlur stdDeviation="6" in="shadowOffsetOuter1" result="shadowBlurOuter1"></feGaussianBlur>
            <feColorMatrix values="0 0 0 0 0   0 0 0 0 0   0 0 0 0 0  0 0 0 0.2 0" type="matrix" in="shadowBlurOuter1"></feColorMatrix>
        </filter>
    </defs>
    <g id="Page-1" stroke="none" stroke-width="1" fill="none" fill-rule="evenodd">
        <g id="StaffCloud.io-Website-Design---V2" transform="translate(-933.000000, -9112.000000)" fill-rule="nonzero">
            <g id="Group-16" transform="translate(895.000000, 9086.000000)">
                <g id="Combined-Shape">
                    <use fill="black" fill-opacity="1" filter="url(#filter-2)" xlink:href="#path-1"></use>
                    <use fill="#FFFFFF" xlink:href="#path-1"></use>
                </g>
            </g>
        </g>
    </g>
</svg>