<?xml version="1.0" encoding="UTF-8"?>
<svg width="80px" height="82px" viewBox="0 0 80 82" version="1.1" xmlns="http://www.w3.org/2000/svg" xmlns:xlink="http://www.w3.org/1999/xlink">
    <!-- Generator: Sketch 52.3 (67297) - http://www.bohemiancoding.com/sketch -->
    <title>Combined Shape</title>
    <desc>Created with Sketch.</desc>
    <defs>
        <path d="M1021.30986,4329.22539 C1017.8493,4329.22523 1015.03383,4326.40966 1015.03383,4322.94907 C1015.03383,4319.48875 1017.84946,4316.67313 1021.31015,4316.67313 C1024.77046,4316.67313 1027.58609,4319.48875 1027.58609,4322.94907 C1027.58609,4326.40976 1024.77046,4329.22539 1021.31015,4329.22539 C1026.45181,4329.22559 1030.61992,4333.39345 1030.61992,4338.53516 C1030.61992,4339.34425 1029.96379,4340 1029.15508,4340 L1013.46484,4340 C1012.65575,4340 1012,4339.34425 1012,4338.53516 C1012,4333.39333 1016.16832,4329.22539 1021.30977,4329.22539 Z M1044.84492,4313.32687 C1044.03621,4313.32687 1043.38008,4312.67113 1043.38046,4311.86203 C1043.38046,4306.7202 1047.5484,4302.55226 1052.69023,4302.55226 C1057.83168,4302.55226 1062,4306.7202 1062,4311.86203 C1062,4312.67113 1061.34425,4313.32687 1060.53516,4313.32687 L1044.84492,4313.32687 Z M1052.69023,4302.55188 C1049.22954,4302.55188 1046.41391,4299.73663 1046.41391,4296.27594 C1046.41391,4292.81525 1049.22954,4290 1052.69023,4290 C1056.15092,4290 1058.96617,4292.81525 1058.96617,4296.27594 C1058.96617,4299.73663 1056.15092,4302.55188 1052.69023,4302.55188 Z M1025.36784,4304.29901 L1022.1532,4301.08437 C1021.55276,4300.48355 1021.55811,4299.5005 1022.16541,4298.8932 C1022.77347,4298.28552 1023.75652,4298.2798 1024.35695,4298.88062 C1024.63161,4299.15565 1025.0043,4299.31015 1025.39264,4299.31015 C1025.39302,4299.31015 1025.39302,4299.31015 1025.39302,4299.31015 C1025.78136,4299.31015 1026.15405,4299.15565 1026.42871,4298.881 L1026.43863,4298.87108 C1027.04631,4298.27408 1028.02402,4298.27255 1028.62025,4298.86841 C1029.22794,4299.47647 1029.20848,4300.45876 1028.60767,4301.05919 L1025.36784,4304.29901 Z M1017.3875,4313.32687 C1014.41051,4313.32687 1012,4310.91904 1012,4307.93938 L1012,4295.3875 C1012,4292.41089 1014.40746,4290 1017.3875,4290 L1042.01823,4290 C1043.32019,4290 1043.97479,4291.57967 1043.05392,4292.50053 L1038.77574,4296.77872 L1038.77574,4307.93938 C1038.77574,4310.90988 1036.35913,4313.32687 1033.38863,4313.32687 L1017.3875,4313.32687 Z M1020.09402,4296.82106 C1018.34422,4298.57124 1018.3385,4301.41281 1020.08182,4303.15575 L1024.33215,4307.40608 C1024.61826,4307.69218 1024.99324,4307.83524 1025.36784,4307.83524 C1025.74283,4307.83524 1026.11743,4307.69218 1026.40353,4307.40608 L1030.67905,4303.13095 C1032.43037,4301.38077 1032.44029,4298.54568 1030.69164,4296.79703 C1029.26494,4295.36995 1027.09132,4295.11627 1025.39149,4296.03676 C1023.69701,4295.12505 1021.52911,4295.38712 1020.09402,4296.82106 Z M1049.64343,4325.55374 C1050.24348,4324.95331 1051.22653,4324.95865 1051.83459,4325.56633 C1052.44189,4326.17363 1052.44762,4327.15668 1051.8468,4327.75749 L1048.63216,4330.97214 L1045.39272,4327.73232 C1044.7919,4327.13188 1044.77206,4326.1496 1045.38013,4325.54153 C1045.97598,4324.94568 1046.95369,4324.94682 1047.56137,4325.5442 L1047.57167,4325.55412 C1047.84633,4325.82878 1048.21864,4325.98328 1048.60736,4325.98328 C1048.99608,4325.98328 1049.36839,4325.82878 1049.64343,4325.55374 Z M1056.6125,4316.67313 C1059.59254,4316.67313 1062,4319.0844 1062,4322.06062 L1062,4334.6125 C1062,4337.59216 1059.58949,4340 1056.61288,4340 L1040.61137,4340 C1037.64087,4340 1035.22426,4337.58339 1035.22426,4334.6125 L1035.22426,4323.45184 L1030.94608,4319.17366 C1030.02521,4318.25279 1030.67981,4316.67313 1031.98177,4316.67313 L1056.6125,4316.67313 Z M1053.91856,4329.82887 C1055.6615,4328.08594 1055.65578,4325.24437 1053.90598,4323.49457 C1052.47089,4322.06024 1050.30299,4321.79817 1048.60851,4322.70988 C1046.90868,4321.78978 1044.73506,4322.04346 1043.30836,4323.47015 C1041.55971,4325.21881 1041.57001,4328.05389 1043.32133,4329.80408 L1047.59647,4334.07921 C1047.88257,4334.36569 1048.25755,4334.50836 1048.63216,4334.50836 C1049.00714,4334.50836 1049.38174,4334.36531 1049.66785,4334.07921 L1053.91856,4329.82887 Z" id="path-1"></path>
        <filter x="-62.0%" y="-32.0%" width="224.0%" height="228.0%" filterUnits="objectBoundingBox" id="filter-2">
            <feOffset dx="0" dy="17" in="SourceAlpha" result="shadowOffsetOuter1"></feOffset>
            <feGaussianBlur stdDeviation="7.5" in="shadowOffsetOuter1" result="shadowBlurOuter1"></feGaussianBlur>
            <feColorMatrix values="0 0 0 0 0.91479846   0 0 0 0 0.817814115   0 0 0 0 0.652892079  0 0 0 0.5 0" type="matrix" in="shadowBlurOuter1"></feColorMatrix>
        </filter>
    </defs>
    <g id="Page-1" stroke="none" stroke-width="1" fill="none" fill-rule="evenodd">
        <g id="StaffCloud.io-Website-Design---V2" transform="translate(-997.000000, -4290.000000)" fill-rule="nonzero">
            <g id="Combined-Shape">
                <use fill="black" fill-opacity="1" filter="url(#filter-2)" xlink:href="#path-1"></use>
                <use fill="#FFBD0E" xlink:href="#path-1"></use>
            </g>
        </g>
    </g>
</svg>