<?xml version="1.0" encoding="UTF-8"?>
<svg width="78px" height="81px" viewBox="0 0 78 81" version="1.1" xmlns="http://www.w3.org/2000/svg" xmlns:xlink="http://www.w3.org/1999/xlink">
    <!-- Generator: Sketch 52.3 (67297) - http://www.bohemiancoding.com/sketch -->
    <title>Combined Shape</title>
    <desc>Created with Sketch.</desc>
    <defs>
        <path d="M1038.46774,3417 C1041.69958,3417 1044.32766,3419.72548 1044.32766,3422.95702 C1044.32766,3426.18855 1041.69958,3428.91403 1038.46774,3428.91403 C1035.2359,3428.91403 1032.51016,3426.18855 1032.51016,3422.95702 C1032.51016,3419.72548 1035.2359,3417 1038.46774,3417 Z M1044.97147,3428.91403 C1046.37707,3430.47252 1047.25762,3432.51422 1047.25762,3434.77339 L1047.25762,3436.23823 C1047.25762,3437.0479 1046.60238,3437.70307 1045.79264,3437.70307 L1031.04518,3437.70307 C1030.23544,3437.70307 1029.5802,3437.0479 1029.5802,3436.23823 L1029.5802,3434.77339 C1029.5802,3432.51422 1030.46075,3430.47252 1031.86635,3428.91403 C1033.47636,3430.69909 1035.88,3431.84371 1038.46774,3431.84371 C1041.05548,3431.84371 1043.36146,3430.69909 1044.97147,3428.91403 Z M1026.15381,3461.96121 C1026.87731,3463.41189 1026.28517,3465.17448 1024.8324,3465.89401 L1022.90624,3466.84821 C1022.18557,3467.20358 1021.30629,3466.91511 1020.94483,3466.1902 L1012.15495,3448.61213 C1011.79232,3447.88693 1012.08796,3447.00402 1012.81449,3446.64377 L1014.76574,3445.67727 C1016.21285,3444.96038 1017.96731,3445.54973 1018.68818,3446.99494 L1026.15381,3461.96121 Z M1060.80389,3441.18939 C1062.12228,3442.15628 1062.38597,3444.03108 1061.41909,3445.32024 L1052.82464,3457.62489 C1051.18386,3459.82215 1048.5468,3461.14051 1045.79264,3461.14051 L1031.48458,3461.14051 L1029.01872,3461.14051 L1020.69139,3444.44427 L1022.81034,3442.57962 L1022.8538,3442.61488 C1024.15821,3441.58187 1025.44437,3440.81146 1027.35158,3440.36947 C1030.78646,3439.57338 1034.17936,3440.55599 1036.44607,3442.59554 C1037.02191,3443.09944 1037.386,3443.56243 1038.11615,3443.56243 C1045.47523,3443.56243 1038.91251,3443.56243 1045.79264,3443.56243 C1047.40412,3443.56243 1048.7226,3444.88079 1048.7226,3446.49211 C1048.7226,3448.10344 1047.40412,3449.42179 1045.79264,3449.42179 C1044.06709,3449.42179 1041.89482,3449.42179 1039.93272,3449.42179 C1039.11224,3449.42179 1038.46774,3450.06622 1038.46774,3450.88663 C1038.46774,3451.70704 1039.11224,3452.35147 1039.93272,3452.35147 L1046.75962,3452.35147 C1047.31632,3452.35147 1048.3711,3451.99991 1048.92779,3451.41397 L1056.93635,3441.57025 C1057.93244,3440.48627 1059.60251,3440.31049 1060.80389,3441.18939 Z" id="path-1"></path>
        <filter x="-62.0%" y="-32.0%" width="224.0%" height="228.0%" filterUnits="objectBoundingBox" id="filter-2">
            <feOffset dx="0" dy="17" in="SourceAlpha" result="shadowOffsetOuter1"></feOffset>
            <feGaussianBlur stdDeviation="7.5" in="shadowOffsetOuter1" result="shadowBlurOuter1"></feGaussianBlur>
            <feColorMatrix values="0 0 0 0 0.91479846   0 0 0 0 0.788839005   0 0 0 0 0.652892079  0 0 0 0.5 0" type="matrix" in="shadowBlurOuter1"></feColorMatrix>
        </filter>
    </defs>
    <g id="Page-1" stroke="none" stroke-width="1" fill="none" fill-rule="evenodd">
        <g id="StaffCloud.io-Website-Design---V2" transform="translate(-998.000000, -3417.000000)" fill-rule="nonzero">
            <g id="Combined-Shape">
                <use fill="black" fill-opacity="1" filter="url(#filter-2)" xlink:href="#path-1"></use>
                <use fill="#F5A623" xlink:href="#path-1"></use>
            </g>
        </g>
    </g>
</svg>