<?xml version="1.0" encoding="UTF-8"?>
<svg width="70px" height="86px" viewBox="0 0 70 86" version="1.1" xmlns="http://www.w3.org/2000/svg" xmlns:xlink="http://www.w3.org/1999/xlink">
    <!-- Generator: Sketch 52.3 (67297) - http://www.bohemiancoding.com/sketch -->
    <title>Shape</title>
    <desc>Created with Sketch.</desc>
    <defs>
        <path d="M559.859159,4316.73253 C561.253453,4316.73253 562.572134,4317.27127 563.569211,4318.25108 C564.149914,4318.82103 565.013913,4318.98618 565.76298,4318.67401 C566.513056,4318.35983 567,4317.62775 567,4316.8151 L567,4304.06154 C567,4302.94982 566.096683,4302.04755 564.983668,4302.04755 L555.046174,4302.04755 C555.870854,4300.64582 556.32957,4299.02255 556.32957,4297.31871 C556.32957,4292.18003 552.14568,4288 547,4288 C541.855328,4288 537.67043,4292.18003 537.67043,4297.31871 C537.67043,4299.02255 538.130154,4300.64683 538.954834,4302.04755 L529.016332,4302.04755 C527.903317,4302.04755 527,4302.94982 527,4304.06154 L527,4339.98601 C527,4341.09874 527.903317,4342 529.016332,4342 L564.98266,4342 C566.095675,4342 566.998992,4341.09874 566.998992,4339.98601 L566.998992,4327.23144 C566.998992,4326.42081 566.511039,4325.68772 565.760964,4325.37455 C565.011896,4325.05936 564.14689,4325.22752 563.568202,4325.79547 C562.571126,4326.77527 561.252445,4327.31401 559.856135,4327.31401 C556.936486,4327.31401 554.55923,4324.94255 554.55923,4322.02327 C554.560238,4319.10702 556.937494,4316.73253 559.859159,4316.73253 Z M559.859159,4331.34199 C560.931848,4331.34199 561.980341,4331.16073 562.966327,4330.81331 L562.966327,4337.97203 L531.032665,4337.97203 L531.032665,4306.07552 L544.187216,4306.07552 C545.149007,4306.07552 545.975703,4305.39782 546.16423,4304.45628 C546.352757,4303.51474 545.848674,4302.5722 544.962496,4302.20263 C542.982458,4301.37992 541.702087,4299.46159 541.702087,4297.31871 C541.702087,4294.40145 544.078335,4292.02797 546.998992,4292.02797 C549.919649,4292.02797 552.296905,4294.40045 552.296905,4297.31871 C552.296905,4299.46159 551.015526,4301.37891 549.036496,4302.20263 C548.149309,4302.5722 547.646234,4303.51575 547.834762,4304.45628 C548.023289,4305.39883 548.850993,4306.07552 549.811775,4306.07552 L562.966327,4306.07552 L562.966327,4313.23424 C561.980341,4312.88582 560.931848,4312.70557 559.859159,4312.70557 C554.713479,4312.70557 550.528582,4316.8866 550.528582,4322.02327 C550.527573,4327.16297 554.714487,4331.34199 559.859159,4331.34199 Z" id="path-1"></path>
        <filter x="-77.5%" y="-29.6%" width="255.0%" height="218.5%" filterUnits="objectBoundingBox" id="filter-2">
            <feOffset dx="0" dy="17" in="SourceAlpha" result="shadowOffsetOuter1"></feOffset>
            <feGaussianBlur stdDeviation="7.5" in="shadowOffsetOuter1" result="shadowBlurOuter1"></feGaussianBlur>
            <feColorMatrix values="0 0 0 0 0.91479846   0 0 0 0 0.652892079   0 0 0 0 0.652892079  0 0 0 0.5 0" type="matrix" in="shadowBlurOuter1"></feColorMatrix>
        </filter>
    </defs>
    <g id="Page-1" stroke="none" stroke-width="1" fill="none" fill-rule="evenodd">
        <g id="StaffCloud.io-Website-Design---V2" transform="translate(-512.000000, -4288.000000)" fill-rule="nonzero">
            <g id="Shape">
                <use fill="black" fill-opacity="1" filter="url(#filter-2)" xlink:href="#path-1"></use>
                <use fill="#FF2C5E" xlink:href="#path-1"></use>
            </g>
        </g>
    </g>
</svg>