<?xml version="1.0" encoding="UTF-8"?>
<svg width="80px" height="75px" viewBox="0 0 80 75" version="1.1" xmlns="http://www.w3.org/2000/svg" xmlns:xlink="http://www.w3.org/1999/xlink">
    <!-- Generator: Sketch 52.3 (67297) - http://www.bohemiancoding.com/sketch -->
    <title>Combined Shape</title>
    <desc>Created with Sketch.</desc>
    <defs>
        <path d="M573.578669,3421 C574.916091,3421 576,3422.08055 576,3423.41356 L576,3451.65222 C576,3452.98523 574.916091,3454.06578 573.578669,3454.06578 L556.690128,3454.06578 L556.690128,3459.53491 L563.261983,3459.53491 C564.496983,3459.53491 565.501714,3460.53642 565.501714,3461.76746 C565.501714,3462.99849 564.496983,3464 563.261983,3464 L538.738017,3464 C537.503017,3464 536.498286,3462.99849 536.498286,3461.76746 C536.498286,3460.53642 537.503017,3459.53491 538.738017,3459.53491 L545.309872,3459.53491 L545.309872,3454.06578 L528.421331,3454.06578 C527.083909,3454.06578 526,3452.98523 526,3451.65222 L526,3423.41356 C526,3422.08055 527.083909,3421 528.421331,3421 L573.578669,3421 Z M572.368004,3450.44544 L572.368004,3424.62034 L529.631996,3424.62034 L529.631996,3450.44544 L572.368004,3450.44544 Z M537.451806,3438.89643 C536.929888,3438.65363 536.593081,3438.12711 536.593202,3437.55486 L536.593202,3437.4489 C536.593202,3436.87592 536.93013,3436.34928 537.451685,3436.10732 L545.088442,3432.56759 C545.281785,3432.47805 545.497889,3432.43087 545.713145,3432.43087 C545.998741,3432.43087 546.275378,3432.51075 546.512911,3432.66208 C546.942213,3432.93482 547.198753,3433.401 547.198753,3433.90917 L547.198753,3433.94767 C547.198753,3434.52077 546.861582,3435.04753 546.339785,3435.28937 L541.562984,3437.50188 L546.339664,3439.71391 C546.861582,3439.95574 547.198753,3440.48238 547.198753,3441.05573 L547.198753,3441.09458 C547.198753,3441.60203 546.942334,3442.06821 546.512789,3442.34179 C546.272957,3442.49385 545.997167,3442.57398 545.714113,3442.57398 C545.496799,3442.57398 545.286627,3442.52776 545.089168,3442.43664 L537.451806,3438.89643 Z M547.266792,3446.10719 C546.988581,3445.72741 546.907951,3445.233 547.051051,3444.78407 L552.082819,3429.24424 C552.280279,3428.62999 552.848565,3428.21655 553.496755,3428.21655 L553.53477,3428.21655 C554.006809,3428.21655 554.454876,3428.44354 554.73345,3428.82356 C555.012024,3429.20442 555.09217,3429.69932 554.947859,3430.14788 L549.916697,3445.68638 C549.719358,3446.30063 549.151556,3446.71408 548.503608,3446.71408 L548.465472,3446.71408 C547.993433,3446.71408 547.545366,3446.4872 547.266792,3446.10719 Z M554.801247,3433.94755 L554.801247,3433.90893 C554.801247,3433.40075 555.057787,3432.93458 555.488058,3432.66136 C555.725348,3432.51051 556.002107,3432.43062 556.287581,3432.43062 C556.502959,3432.43062 556.718699,3432.47793 556.911316,3432.56711 L564.548194,3436.10708 C565.069991,3436.34904 565.406919,3436.87568 565.406919,3437.44866 L565.406919,3437.55461 C565.406919,3438.12699 565.070112,3438.65351 564.548678,3438.89595 L556.91168,3442.43604 C556.712888,3442.52764 556.502838,3442.57385 556.285887,3442.57385 C556.00247,3442.57385 555.726438,3442.4936 555.487453,3442.34179 C555.057424,3442.06809 554.801126,3441.60191 554.801126,3441.09446 L554.801126,3441.0556 C554.801126,3440.48226 555.138297,3439.95562 555.660215,3439.71379 L560.436895,3437.50176 L555.660215,3435.28973 C555.138055,3435.04692 554.801247,3434.52029 554.801247,3433.94755 Z" id="path-1"></path>
        <filter x="-62.0%" y="-37.2%" width="224.0%" height="248.8%" filterUnits="objectBoundingBox" id="filter-2">
            <feOffset dx="0" dy="17" in="SourceAlpha" result="shadowOffsetOuter1"></feOffset>
            <feGaussianBlur stdDeviation="7.5" in="shadowOffsetOuter1" result="shadowBlurOuter1"></feGaussianBlur>
            <feColorMatrix values="0 0 0 0 0.91479846   0 0 0 0 0.652892079   0 0 0 0 0.652892079  0 0 0 0.5 0" type="matrix" in="shadowBlurOuter1"></feColorMatrix>
        </filter>
    </defs>
    <g id="Page-1" stroke="none" stroke-width="1" fill="none" fill-rule="evenodd">
        <g id="StaffCloud.io-Website-Design---V2" transform="translate(-511.000000, -3421.000000)" fill-rule="nonzero">
            <g id="Combined-Shape">
                <use fill="black" fill-opacity="1" filter="url(#filter-2)" xlink:href="#path-1"></use>
                <use fill="#DF2783" xlink:href="#path-1"></use>
            </g>
        </g>
    </g>
</svg>