<?xml version="1.0" encoding="UTF-8"?>
<svg width="77px" height="88px" viewBox="0 0 77 88" version="1.1" xmlns="http://www.w3.org/2000/svg" xmlns:xlink="http://www.w3.org/1999/xlink">
    <!-- Generator: Sketch 52.3 (67297) - http://www.bohemiancoding.com/sketch -->
    <title>Combined Shape</title>
    <desc>Created with Sketch.</desc>
    <defs>
        <path d="M1039.5285,3743.50421 C1039.53304,3743.49622 1039.53753,3743.48849 1039.5418,3743.48098 C1039.53762,3743.48834 1039.53325,3743.49583 1039.52828,3743.50461 C1039.52659,3743.50763 1039.5249,3743.51064 1039.5232,3743.51365 C1039.52244,3743.51502 1039.52166,3743.51643 1039.52087,3743.51787 C1039.52151,3743.5167 1039.52215,3743.51552 1039.5228,3743.51436 C1039.52211,3743.51557 1039.52142,3743.51679 1039.52073,3743.51801 C1038.96327,3744.49759 1037.74435,3744.87841 1036.68263,3744.997 L1036.68263,3739.9876 C1037.33676,3740.15759 1037.99555,3740.34589 1038.59794,3740.65634 C1038.87461,3740.79905 1039.14234,3740.97035 1039.35393,3741.19937 C1039.55113,3741.41297 1039.6726,3741.67203 1039.7314,3741.95428 C1039.83873,3742.47006 1039.78788,3743.03882 1039.5285,3743.50421 Z M1031.70255,3733.1914 C1032.19002,3732.48801 1033.08027,3732.12116 1033.89506,3731.94933 L1033.89506,3736.48224 C1033.57253,3736.38447 1033.27334,3736.28327 1033.00734,3736.17746 C1032.69028,3736.05148 1032.37895,3735.90285 1032.09588,3735.71257 C1031.84362,3735.54258 1031.59922,3735.33149 1031.48256,3735.04555 C1031.36002,3734.7455 1031.34229,3734.39091 1031.37389,3734.07216 C1031.40549,3733.75406 1031.52002,3733.45481 1031.70255,3733.1914 Z M1039.56846,3743.43407 C1039.5702,3743.4309 1039.57046,3743.43064 1039.56846,3743.43407 Z M1038.46834,3716.18468 C1054.71643,3722.79562 1078.44509,3763.21443 1031.05749,3759.79511 C996.80975,3757.32402 1016.44099,3723.26735 1030.40777,3716.48327 C1025.72636,3713.48496 1022.73412,3706.60258 1024.4769,3704.71009 C1026.62034,3702.38249 1030.43897,3706.5583 1033.94506,3706.13993 C1036.41703,3705.77783 1041.53138,3703.7226 1043.88655,3704.19131 C1045.65906,3704.54393 1042.77883,3712.60605 1038.46834,3716.18468 Z M1042.53803,3743.04337 C1042.64803,3742.04231 1042.48176,3740.98853 1041.97577,3740.10725 C1042.07337,3740.27631 1042.16617,3740.43707 1041.97177,3740.09974 C1041.77377,3739.75635 1041.86977,3739.92304 1041.96844,3740.09408 C1041.33244,3738.99616 1040.22832,3738.29989 1039.06314,3737.8458 C1038.29221,3737.54537 1037.48689,3737.3377 1036.68223,3737.14729 L1036.68223,3731.93154 C1037.35929,3732.05027 1038.03688,3732.26268 1038.59554,3732.67038 C1038.85354,3732.85842 1039.07954,3733.08664 1039.25393,3733.35282 C1039.34367,3733.48973 1039.42153,3733.63468 1039.48167,3733.78661 C1039.54126,3733.93669 1039.57046,3734.09601 1039.62886,3734.24649 C1039.825,3734.75249 1040.32126,3735.10497 1040.86898,3735.12856 C1041.42644,3735.15215 1041.9563,3734.83432 1042.19257,3734.33517 C1042.3079,3734.09153 1042.34897,3733.81639 1042.3087,3733.55008 C1042.2835,3733.38326 1042.23043,3733.21868 1042.17764,3733.05884 C1042.12097,3732.8874 1042.0555,3732.71927 1041.9807,3732.55495 C1041.71284,3731.96593 1041.33191,3731.4258 1040.86658,3730.97251 C1039.88433,3730.01546 1038.57061,3729.4673 1037.22742,3729.22708 C1037.04663,3729.19466 1036.8649,3729.16752 1036.68263,3729.14485 L1036.68263,3729.03324 L1036.68263,3727.63028 C1036.68263,3727.09766 1036.36077,3726.60142 1035.87117,3726.37859 C1035.37505,3726.15274 1034.77479,3726.24102 1034.36599,3726.59825 C1034.06866,3726.85811 1033.8952,3727.23787 1033.8952,3727.63028 L1033.8952,3729.03324 L1033.8952,3729.15316 C1032.52734,3729.34449 1031.16363,3729.86538 1030.13697,3730.79923 C1029.65684,3731.23605 1029.26525,3731.76301 1028.99325,3732.34991 C1028.70285,3732.97675 1028.57059,3733.65866 1028.57579,3734.34663 C1028.58086,3735.0242 1028.70552,3735.70638 1029.00645,3736.31871 C1029.29165,3736.8989 1029.72711,3737.38909 1030.2403,3737.78361 C1031.29629,3738.59505 1032.61628,3739.01764 1033.89506,3739.34483 L1033.89506,3744.79513 C1033.24107,3744.61381 1032.61374,3744.30902 1032.12122,3743.84005 C1031.88229,3743.61248 1031.67482,3743.35026 1031.50922,3743.0659 C1031.42536,3742.92148 1031.35402,3742.76981 1031.29496,3742.61379 C1031.23536,3742.45672 1031.19936,3742.29399 1031.14629,3742.1352 C1030.97403,3741.61972 1030.49443,3741.24443 1029.94724,3741.19647 C1029.39125,3741.14745 1028.84672,3741.44249 1028.58832,3741.93096 C1028.46259,3742.16841 1028.40912,3742.44038 1028.43672,3742.70696 C1028.45312,3742.86587 1028.50059,3743.02083 1028.54659,3743.17329 C1028.59739,3743.3417 1028.65539,3743.50825 1028.72045,3743.67178 C1028.96952,3744.29756 1029.32965,3744.87722 1029.77138,3745.38809 C1030.65817,3746.41301 1031.87215,3747.10573 1033.18094,3747.46111 C1033.41653,3747.52502 1033.65493,3747.57865 1033.89506,3747.62372 L1033.89506,3749.2271 C1033.89506,3749.75972 1034.21679,3750.2561 1034.70652,3750.47879 C1035.20251,3750.70465 1035.80304,3750.61649 1036.2117,3750.25913 C1036.50903,3749.99928 1036.6825,3749.61965 1036.6825,3749.2271 L1036.6825,3747.7601 C1038.08288,3747.64796 1039.49233,3747.24764 1040.61605,3746.38692 C1041.68031,3745.57178 1042.3923,3744.37109 1042.53803,3743.04337 Z M1039.50033,3743.55345 C1039.4922,3743.56781 1039.48513,3743.58046 1039.47953,3743.59008 C1039.48433,3743.58178 1039.49153,3743.56926 1039.50033,3743.55345 Z" id="path-1"></path>
        <filter x="-66.0%" y="-28.6%" width="231.9%" height="214.3%" filterUnits="objectBoundingBox" id="filter-2">
            <feOffset dx="0" dy="17" in="SourceAlpha" result="shadowOffsetOuter1"></feOffset>
            <feGaussianBlur stdDeviation="7.5" in="shadowOffsetOuter1" result="shadowBlurOuter1"></feGaussianBlur>
            <feColorMatrix values="0 0 0 0 0.672151585   0 0 0 0 0.652892079   0 0 0 0 0.91479846  0 0 0 0.5 0" type="matrix" in="shadowBlurOuter1"></feColorMatrix>
        </filter>
    </defs>
    <g id="Page-1" stroke="none" stroke-width="1" fill="none" fill-rule="evenodd">
        <g id="StaffCloud.io-Website-Design---V2" transform="translate(-997.000000, -3704.000000)" fill-rule="nonzero">
            <g id="Combined-Shape">
                <use fill="black" fill-opacity="1" filter="url(#filter-2)" xlink:href="#path-1"></use>
                <use fill="#3D566E" xlink:href="#path-1"></use>
            </g>
        </g>
    </g>
</svg>