<?xml version="1.0" encoding="UTF-8"?>
<svg width="78px" height="102px" viewBox="0 0 78 102" version="1.1" xmlns="http://www.w3.org/2000/svg" xmlns:xlink="http://www.w3.org/1999/xlink">
    <!-- Generator: Sketch 52.3 (67297) - http://www.bohemiancoding.com/sketch -->
    <title>Combined Shape</title>
    <desc>Created with Sketch.</desc>
    <defs>
        <path d="M1027.975,4007.43275 L1021.91156,4001.49403 C1021.3556,4000.9493 1021.15522,4000.13432 1021.39546,3999.39145 C1021.63517,3998.64911 1022.27405,3998.10811 1023.04261,3997.99596 L1031.42183,3996.77243 L1035.16896,3989.14288 C1035.51284,3988.44327 1036.2224,3988 1036.99947,3988 C1037.77653,3988 1038.48556,3988.44327 1038.82945,3989.14288 L1042.57711,3996.77243 L1050.95686,3997.99596 C1051.72542,3998.10811 1052.3643,3998.64911 1052.60401,3999.39145 C1052.84425,4000.13432 1052.64387,4000.9493 1052.08791,4001.49403 L1046.02447,4007.43275 L1047.43669,4015.70638 C1047.47017,4015.85431 1047.48771,4016.00758 1047.48771,4016.16513 C1047.48771,4017.29626 1046.57564,4018.21378 1045.44991,4018.21591 C1045.11931,4018.21538 1044.79509,4018.13847 1044.49426,4017.97986 L1036.99947,4014.02089 L1029.50468,4017.97986 C1029.20597,4018.13794 1028.88016,4018.21591 1028.5554,4018.21591 C1028.13179,4018.21591 1027.71084,4018.08347 1027.35526,4017.82391 C1026.72702,4017.36516 1026.41183,4016.58757 1026.54365,4015.81799 L1027.975,4007.43275 Z M1029.52275,4032.20502 C1029.52275,4028.06287 1032.87709,4024.69296 1036.99947,4024.69296 C1041.12184,4024.69296 1044.47619,4028.06287 1044.47619,4032.20502 C1044.47619,4036.3477 1041.12184,4039.71814 1036.99947,4039.71814 C1032.87709,4039.71814 1029.52275,4036.3477 1029.52275,4032.20502 Z M1061.15703,4029.98494 C1061.70023,4030.53075 1061.99947,4031.25653 1062,4032.02824 C1062,4032.79996 1061.70076,4033.52574 1061.15756,4034.07101 L1045.38985,4049.9149 C1045.00716,4050.29942 1044.7919,4050.82066 1044.7919,4051.36487 L1044.7919,4058 L1029.2081,4058 L1029.2081,4051.36487 C1029.2081,4050.82066 1028.99284,4050.29942 1028.61015,4049.9149 L1012.84191,4034.07101 C1012.29871,4033.52574 1012,4032.79996 1012,4032.02824 C1012,4031.25653 1012.29924,4030.53075 1012.84244,4029.98494 C1013.38511,4029.43967 1014.10743,4029.13899 1014.87546,4029.13899 C1015.64349,4029.13899 1016.3658,4029.43967 1016.90901,4029.98494 L1030.07924,4043.21889 C1030.46192,4043.60394 1030.98067,4043.8197 1031.52228,4043.8197 L1042.47719,4043.8197 C1043.01826,4043.8197 1043.53701,4043.60394 1043.92023,4043.21889 L1057.09099,4029.98494 C1057.63366,4029.43967 1058.35598,4029.13899 1059.12401,4029.13899 C1059.89204,4029.13899 1060.61383,4029.43967 1061.15703,4029.98494 Z" id="path-1"></path>
        <filter x="-62.0%" y="-22.9%" width="224.0%" height="191.4%" filterUnits="objectBoundingBox" id="filter-2">
            <feOffset dx="0" dy="17" in="SourceAlpha" result="shadowOffsetOuter1"></feOffset>
            <feGaussianBlur stdDeviation="7.5" in="shadowOffsetOuter1" result="shadowBlurOuter1"></feGaussianBlur>
            <feColorMatrix values="0 0 0 0 0.848449034   0 0 0 0 0.652892079   0 0 0 0 0.91479846  0 0 0 0.5 0" type="matrix" in="shadowBlurOuter1"></feColorMatrix>
        </filter>
    </defs>
    <g id="Page-1" stroke="none" stroke-width="1" fill="none" fill-rule="evenodd">
        <g id="StaffCloud.io-Website-Design---V2" transform="translate(-998.000000, -3988.000000)" fill-rule="nonzero">
            <g id="Combined-Shape">
                <use fill="black" fill-opacity="1" filter="url(#filter-2)" xlink:href="#path-1"></use>
                <use fill="#9B59B6" xlink:href="#path-1"></use>
            </g>
        </g>
    </g>
</svg>