<?xml version="1.0" encoding="UTF-8"?>
<svg width="85px" height="80px" viewBox="0 0 85 80" version="1.1" xmlns="http://www.w3.org/2000/svg" xmlns:xlink="http://www.w3.org/1999/xlink">
    <!-- Generator: Sketch 52.3 (67297) - http://www.bohemiancoding.com/sketch -->
    <title>Combined Shape</title>
    <desc>Created with Sketch.</desc>
    <defs>
        <path d="M567.148475,4012.41602 C569.308658,4013.26902 570.230708,4014.34143 570.231173,4016.0011 C570.231173,4017.61692 569.147284,4018.90378 567.387669,4019.2989 C567.370307,4019.30308 567.286132,4019.31315 567.286132,4019.4272 L567.286132,4020.64696 C567.286132,4020.98057 567.007563,4021.25189 566.665282,4021.25189 L566.111556,4021.25189 C565.76943,4021.25189 565.490862,4020.98041 565.490862,4020.64696 L565.490862,4019.48794 C565.490862,4019.40209 565.396921,4019.36909 565.378474,4019.36646 C565.3098,4019.35576 563.766746,4019.11249 562.969331,4018.69738 C562.769512,4018.59326 562.613408,4018.35928 562.71479,4018.07108 L563.000024,4017.29912 C563.08606,4017.06777 563.301225,4016.9184 563.548325,4016.9184 C563.638856,4016.9184 563.726906,4016.93824 563.809996,4016.97759 C563.822863,4016.98379 565.121298,4017.59166 566.080708,4017.59166 C567.204282,4017.59166 567.98852,4016.98953 567.98852,4016.12738 C567.98852,4015.33513 567.434794,4014.79497 566.077297,4014.26225 C564.379224,4013.6172 562.806561,4012.75784 562.806561,4010.85614 C562.806561,4009.33066 563.83883,4008.12128 565.490552,4007.72802 C565.525896,4007.7198 565.622628,4007.68107 565.622628,4007.59182 L565.621233,4006.42768 C565.621233,4006.09392 565.899646,4005.8226 566.241307,4005.8226 L566.777206,4005.8226 C567.119177,4005.8226 567.397745,4006.09407 567.397745,4006.42752 L567.40193,4007.53479 C567.40193,4007.62048 567.475254,4007.63613 567.496337,4007.63985 C567.509668,4007.64217 568.81818,4007.86763 569.487705,4008.15893 C569.688919,4008.24586 569.846727,4008.4882 569.74271,4008.76634 L569.443989,4009.52962 C569.356714,4009.75244 569.146199,4009.89638 568.908245,4009.89638 C568.810739,4009.89638 568.712302,4009.87144 568.624561,4009.82464 C568.617121,4009.82092 567.783121,4009.39233 566.695666,4009.39233 C565.466214,4009.39233 565.030147,4010.06466 565.030147,4010.64014 C565.030147,4011.35927 565.504969,4011.75749 567.148475,4012.41602 Z M566.456627,3999 C574.488757,3999 581,4005.50867 581,4013.53709 C581,4021.56566 574.488757,4028.07448 566.456627,4028.07448 C558.424188,4028.07448 551.9131,4021.56566 551.9131,4013.53709 C551.9131,4005.50867 558.424188,3999 566.456627,3999 Z M566.456627,4024.70541 C572.627295,4024.70541 577.629277,4019.70502 577.629277,4013.53724 C577.629277,4007.36946 572.627295,4002.36923 566.456627,4002.36923 C560.28565,4002.36923 555.283513,4007.36946 555.283513,4013.53724 C555.283513,4019.70502 560.28565,4024.70541 566.456627,4024.70541 Z M578.044882,4035.11897 C580.294356,4033.87798 582.38199,4036.60122 579.696449,4039.18067 C577.963807,4040.84452 568.927003,4046.19758 565.734706,4046.93932 C563.503215,4047.45778 547.325327,4044.4953 545.455338,4044.0712 C544.263401,4043.80097 542.974732,4044.669 542.055937,4045.45211 C541.216512,4046.16767 541.111409,4045.15089 541.11637,4045.07527 C541.351533,4041.49686 541.78295,4034.64622 542.001836,4031.2962 C542.048961,4030.57538 542.521458,4030.58886 543.275003,4030.46629 C545.474716,4030.1082 550.020634,4029.41372 551.861944,4029.4681 C555.770736,4029.5837 564.921789,4032.93464 566.483756,4033.28901 C568.054868,4033.64524 568.464892,4036.34602 565.576432,4037.11627 C561.809637,4038.12081 555.582543,4035.9089 555.582543,4036.54745 C555.582543,4038.23253 562.682702,4039.65931 566.456782,4039.06771 C570.698709,4038.40267 574.952262,4036.82512 578.044882,4035.11897 Z M537.537457,4030.33567 C538.191791,4030.3679 538.6863,4030.92851 538.636384,4031.58131 L537.60489,4045.05544 C537.554664,4045.7084 536.978306,4046.2219 536.323507,4046.19665 L526.930935,4046.19758 C526.276292,4046.17232 525.873554,4045.63247 526.036013,4044.99811 L527.577052,4031.01311 C527.739667,4030.3789 528.407952,4029.886 529.062285,4029.91823 L537.537457,4030.33567 Z M532.548031,4044.34391 C533.842281,4044.34391 534.891291,4043.29537 534.891291,4042.00169 C534.891291,4040.70817 533.842126,4039.65947 532.548031,4039.65947 C531.253937,4039.65947 530.204771,4040.70801 530.204771,4042.00169 C530.204771,4043.29521 531.253782,4044.34391 532.548031,4044.34391 Z" id="path-1"></path>
        <filter x="-56.4%" y="-33.3%" width="212.7%" height="233.3%" filterUnits="objectBoundingBox" id="filter-2">
            <feOffset dx="0" dy="17" in="SourceAlpha" result="shadowOffsetOuter1"></feOffset>
            <feGaussianBlur stdDeviation="7.5" in="shadowOffsetOuter1" result="shadowBlurOuter1"></feGaussianBlur>
            <feColorMatrix values="0 0 0 0 0.75431212   0 0 0 0 0.652892079   0 0 0 0 0.91479846  0 0 0 0.5 0" type="matrix" in="shadowBlurOuter1"></feColorMatrix>
        </filter>
    </defs>
    <g id="Page-1" stroke="none" stroke-width="1" fill="none" fill-rule="evenodd">
        <g id="StaffCloud.io-Website-Design---V2" transform="translate(-511.000000, -3999.000000)" fill-rule="nonzero">
            <g id="Combined-Shape">
                <use fill="black" fill-opacity="1" filter="url(#filter-2)" xlink:href="#path-1"></use>
                <use fill="#613F95" xlink:href="#path-1"></use>
            </g>
        </g>
    </g>
</svg>