<?xml version="1.0" encoding="UTF-8"?>
<svg width="82px" height="82px" viewBox="0 0 82 82" version="1.1" xmlns="http://www.w3.org/2000/svg" xmlns:xlink="http://www.w3.org/1999/xlink">
    <!-- Generator: Sketch 52.3 (67297) - http://www.bohemiancoding.com/sketch -->
    <title>Group 21</title>
    <desc>Created with Sketch.</desc>
    <defs>
        <circle id="path-1" cx="17" cy="17" r="17"></circle>
        <filter x="-123.5%" y="-97.1%" width="347.1%" height="347.1%" filterUnits="objectBoundingBox" id="filter-2">
            <feOffset dx="0" dy="9" in="SourceAlpha" result="shadowOffsetOuter1"></feOffset>
            <feGaussianBlur stdDeviation="12.5" in="shadowOffsetOuter1" result="shadowBlurOuter1"></feGaussianBlur>
            <feColorMatrix values="0 0 0 0 0.0239823504   0 0 0 0 0.054951187   0 0 0 0 0.466145833  0 0 0 0.15 0" type="matrix" in="shadowBlurOuter1"></feColorMatrix>
        </filter>
    </defs>
    <g id="Page-1" stroke="none" stroke-width="1" fill="none" fill-rule="evenodd">
        <g id="StaffCloud.io-Website-Design---V2" transform="translate(-723.000000, -6162.000000)">
            <g id="Group-21" transform="translate(764.000000, 6194.000000) rotate(-90.000000) translate(-764.000000, -6194.000000) translate(747.000000, 6177.000000)">
                <g id="Oval" transform="translate(17.000000, 17.000000) rotate(-270.000000) translate(-17.000000, -17.000000) ">
                    <use fill="black" fill-opacity="1" filter="url(#filter-2)" xlink:href="#path-1"></use>
                    <use fill="#FFFFFF" fill-rule="evenodd" xlink:href="#path-1"></use>
                </g>
                <path d="M19.921616,18.8203175 L15.1722628,23.6933195 C14.8701466,24.0034614 14.3803169,24.0034614 14.0783474,23.6933195 C13.7763534,23.3834536 13.7763534,22.8808808 14.0783474,22.5710399 L18.2807917,18.2591777 L14.0784696,13.947466 C13.7764756,13.6374747 13.7764756,13.1349521 14.0784696,12.8250861 C14.3804636,12.5150948 14.8702688,12.5150948 15.172385,12.8250861 L19.9217382,17.6981634 C20.0727352,17.8531716 20.1481481,18.056112 20.1481481,18.2591527 C20.1481481,18.4622937 20.0725885,18.6653846 19.921616,18.8203175 Z" id="Path" fill="#6A6EF9" fill-rule="nonzero" transform="translate(17.000000, 18.259259) rotate(-270.000000) translate(-17.000000, -18.259259) "></path>
            </g>
        </g>
    </g>
</svg>