<?xml version="1.0" encoding="UTF-8"?>
<svg width="80px" height="82px" viewBox="0 0 80 82" version="1.1" xmlns="http://www.w3.org/2000/svg" xmlns:xlink="http://www.w3.org/1999/xlink">
    <!-- Generator: Sketch 52.3 (67297) - http://www.bohemiancoding.com/sketch -->
    <title>Shape</title>
    <desc>Created with Sketch.</desc>
    <defs>
        <path d="M575.843545,4166.22404 C575.764478,4165.5212 574.944968,4164.99304 574.236338,4164.99304 C571.945245,4164.99304 569.912191,4163.64781 569.059565,4161.56737 C568.188522,4159.43651 568.75018,4156.95144 570.457662,4155.3852 C570.995134,4154.89388 571.060435,4154.07141 570.609658,4153.50009 C569.437042,4152.01106 568.104246,4150.66601 566.649034,4149.50031 C566.079191,4149.04303 565.243124,4149.10666 564.748999,4149.65379 C563.258812,4151.30412 560.582056,4151.91748 558.513654,4151.05446 C556.361161,4150.14902 555.003807,4147.96793 555.13664,4145.62666 C555.18036,4144.89126 554.642888,4144.25186 553.909701,4144.16647 C552.042223,4143.95048 550.158373,4143.94378 548.285314,4144.15158 C547.560499,4144.23158 547.023027,4144.85592 547.047398,4145.58202 C547.128884,4147.90021 545.755159,4150.04317 543.624061,4150.91605 C541.580402,4151.75079 538.922436,4151.14264 537.435226,4149.50701 C536.943706,4148.96825 536.121219,4148.90202 535.548586,4149.34832 C534.050213,4150.52388 532.687463,4151.87004 531.504057,4153.3468 C531.04249,4153.92091 531.110395,4154.75305 531.653262,4155.24697 C533.393302,4156.8227 533.955146,4159.32935 533.051173,4161.48477 C532.18813,4163.53972 530.054241,4164.86412 527.611339,4164.86412 C526.818619,4164.83863 526.253985,4165.37069 526.16729,4166.0914 C525.947389,4167.96962 525.944785,4169.88337 526.156499,4171.77685 C526.235009,4172.48267 527.079448,4173.00618 527.795891,4173.00618 C529.972941,4172.95055 532.06311,4174.29839 532.939921,4176.43204 C533.813941,4178.5629 533.252097,4181.04648 531.54201,4182.61402 C531.007142,4183.10534 530.939237,4183.92651 531.390014,4184.49783 C532.551653,4185.97737 533.884636,4187.32372 535.345057,4188.49909 C535.917877,4188.96065 536.75134,4188.89554 537.247883,4188.3484 C538.743651,4186.69398 541.420221,4186.08174 543.480437,4186.94644 C545.638325,4187.84908 546.995679,4190.02999 546.862846,4192.37255 C546.819498,4193.10833 547.359575,4193.74885 548.089785,4193.83294 C549.045105,4193.94438 550.006192,4194 550.969884,4194 C551.884646,4194 552.799595,4193.94977 553.714358,4193.84801 C554.439359,4193.76801 554.976459,4193.14368 554.952088,4192.41627 C554.868184,4190.09938 556.244328,4187.95643 558.372635,4187.08503 C560.430061,4186.24471 563.076864,4186.85974 564.56426,4188.4937 C565.058571,4189.03134 565.87529,4189.09627 566.451087,4188.65146 C567.946669,4187.47868 569.306628,4186.13364 570.495615,4184.65279 C570.956996,4184.07999 570.891882,4183.24655 570.346224,4182.75281 C568.606184,4181.17708 568.04155,4178.67005 568.945522,4176.51613 C569.795357,4174.48852 571.849992,4173.1271 574.059971,4173.1271 L574.369171,4173.1351 C575.085987,4173.19333 575.745501,4172.64118 575.832383,4171.9095 C576.052655,4170.0296 576.05526,4168.11752 575.843545,4166.22404 Z M551.039649,4177.3918 C546.441091,4177.3918 542.700554,4173.65135 542.700554,4169.05291 C542.700554,4164.45465 546.441091,4160.71402 551.039649,4160.71402 C555.638021,4160.71402 559.378558,4164.45465 559.378558,4169.05291 C559.378558,4173.65135 555.638021,4177.3918 551.039649,4177.3918 Z" id="path-1"></path>
        <filter x="-62.0%" y="-32.0%" width="224.0%" height="228.0%" filterUnits="objectBoundingBox" id="filter-2">
            <feOffset dx="0" dy="17" in="SourceAlpha" result="shadowOffsetOuter1"></feOffset>
            <feGaussianBlur stdDeviation="7.5" in="shadowOffsetOuter1" result="shadowBlurOuter1"></feGaussianBlur>
            <feColorMatrix values="0 0 0 0 0.661076654   0 0 0 0 0.652892079   0 0 0 0 0.91479846  0 0 0 0.5 0" type="matrix" in="shadowBlurOuter1"></feColorMatrix>
        </filter>
    </defs>
    <g id="Page-1" stroke="none" stroke-width="1" fill="none" fill-rule="evenodd">
        <g id="StaffCloud.io-Website-Design---V2" transform="translate(-511.000000, -4144.000000)" fill-rule="nonzero">
            <g id="Shape">
                <use fill="black" fill-opacity="1" filter="url(#filter-2)" xlink:href="#path-1"></use>
                <use fill="#4253CB" xlink:href="#path-1"></use>
            </g>
        </g>
    </g>
</svg>