<?xml version="1.0" encoding="UTF-8"?>
<svg width="80px" height="82px" viewBox="0 0 80 82" version="1.1" xmlns="http://www.w3.org/2000/svg" xmlns:xlink="http://www.w3.org/1999/xlink">
    <!-- Generator: Sketch 52.3 (67297) - http://www.bohemiancoding.com/sketch -->
    <title>Combined Shape</title>
    <desc>Created with Sketch.</desc>
    <defs>
        <path d="M1020.78906,3590.02734 C1023.2123,3590.02734 1025.18359,3591.99863 1025.18359,3594.42188 C1025.18359,3596.84512 1023.2123,3598.81641 1020.78906,3598.81641 C1018.36582,3598.81641 1016.39453,3596.84512 1016.39453,3594.42188 C1016.39453,3591.99863 1018.36582,3590.02734 1020.78906,3590.02734 Z M1023.71875,3598.81641 C1026.95029,3598.81641 1029.57812,3601.44424 1029.57812,3604.67578 L1029.57812,3610.53516 C1029.57812,3611.34482 1028.92295,3612 1028.11328,3612 L1013.46484,3612 C1012.65518,3612 1012,3611.34482 1012,3610.53516 L1012,3604.67578 C1012,3601.44424 1014.62783,3598.81641 1017.85938,3598.81641 L1020.78906,3598.81641 L1023.71875,3598.81641 Z M1053.21094,3590.02734 C1055.63418,3590.02734 1057.60547,3591.99863 1057.60547,3594.42188 C1057.60547,3596.84512 1055.63418,3598.81641 1053.21094,3598.81641 C1050.7877,3598.81641 1048.81641,3596.84512 1048.81641,3594.42188 C1048.81641,3591.99863 1050.7877,3590.02734 1053.21094,3590.02734 Z M1056.14062,3598.81641 C1059.37217,3598.81641 1062,3601.44424 1062,3604.67578 L1062,3610.53516 C1062,3611.34482 1061.34482,3612 1060.53516,3612 L1045.88672,3612 C1045.07705,3612 1044.42188,3611.34482 1044.42188,3610.53516 L1044.42188,3604.67578 C1044.42188,3601.44424 1047.04971,3598.81641 1050.28125,3598.81641 L1053.21094,3598.81641 L1056.14062,3598.81641 Z M1037,3562 C1041.04502,3562 1044.32422,3565.2792 1044.32422,3569.32422 L1044.32422,3578.11328 C1044.32422,3582.1583 1041.04502,3585.4375 1037,3585.4375 L1031.74717,3585.4375 L1026.31709,3590.86758 C1025.39424,3591.79043 1023.81641,3591.13682 1023.81641,3589.83184 L1023.81641,3585.29014 C1020.47764,3584.60928 1017.95703,3581.65098 1017.95703,3578.11328 L1017.95703,3569.32422 C1017.95703,3565.2792 1021.23623,3562 1025.28125,3562 L1037,3562 Z M1036.5708,3570.35986 C1037.14307,3569.7877 1037.14307,3568.86064 1036.5709,3568.28848 C1035.99873,3567.71631 1035.07168,3567.71631 1034.49951,3568.28848 L1029.67578,3573.11221 L1027.78174,3571.21816 C1027.20957,3570.646 1026.28252,3570.646 1025.71035,3571.21816 C1025.13818,3571.79033 1025.13818,3572.71738 1025.71035,3573.28955 L1028.64004,3576.21924 C1029.21201,3576.79121 1030.13945,3576.79121 1030.71143,3576.21924 L1036.5708,3570.35986 Z M1048.71875,3564.92969 C1052.76377,3564.92969 1056.04297,3568.20889 1056.04297,3572.25391 L1056.04297,3578.11328 C1056.04297,3581.65088 1053.52236,3584.60918 1050.18359,3585.29014 L1050.18359,3589.83184 C1050.18359,3591.13682 1048.60576,3591.79043 1047.68291,3590.86758 L1043.11221,3586.29688 C1045.61094,3584.4249 1047.25391,3581.46816 1047.25391,3578.11328 L1047.25391,3569.32422 C1047.25391,3567.74561 1046.86553,3566.26689 1046.22539,3564.92969 L1048.71875,3564.92969 Z" id="path-1"></path>
        <filter x="-62.0%" y="-32.0%" width="224.0%" height="228.0%" filterUnits="objectBoundingBox" id="filter-2">
            <feOffset dx="0" dy="17" in="SourceAlpha" result="shadowOffsetOuter1"></feOffset>
            <feGaussianBlur stdDeviation="7.5" in="shadowOffsetOuter1" result="shadowBlurOuter1"></feGaussianBlur>
            <feColorMatrix values="0 0 0 0 0.814494498   0 0 0 0 0.652892079   0 0 0 0 0.91479846  0 0 0 0.5 0" type="matrix" in="shadowBlurOuter1"></feColorMatrix>
        </filter>
    </defs>
    <g id="Page-1" stroke="none" stroke-width="1" fill="none" fill-rule="evenodd">
        <g id="StaffCloud.io-Website-Design---V2" transform="translate(-997.000000, -3562.000000)" fill-rule="nonzero">
            <g id="Combined-Shape">
                <use fill="black" fill-opacity="1" filter="url(#filter-2)" xlink:href="#path-1"></use>
                <use fill="#9013FE" xlink:href="#path-1"></use>
            </g>
        </g>
    </g>
</svg>