<?xml version="1.0" encoding="UTF-8"?>
<svg width="78px" height="88px" viewBox="0 0 78 88" version="1.1" xmlns="http://www.w3.org/2000/svg" xmlns:xlink="http://www.w3.org/1999/xlink">
    <!-- Generator: Sketch 52.3 (67297) - http://www.bohemiancoding.com/sketch -->
    <title>Combined Shape</title>
    <desc>Created with Sketch.</desc>
    <defs>
        <path d="M1044.48632,3903.04226 C1044.34782,3905.65961 1028.24603,3905.64825 1028.24603,3903.0082 C1028.24603,3900.76441 1030.84889,3897.73578 1034.36356,3896.85142 C1032.89561,3895.87077 1031.88195,3893.93675 1031.88195,3892.19372 C1031.88195,3889.73486 1033.88987,3887.74145 1036.36662,3887.74145 C1036.65439,3887.74145 1036.93408,3887.77516 1037.20568,3887.82491 C1037.17981,3887.69009 1037.17658,3887.54885 1037.21376,3887.4044 L1041.30882,3872.23075 L1036.64146,3872.23075 C1035.22848,3872.23075 1034.0774,3871.08959 1034.0774,3869.68522 L1034.0774,3865.23777 L1028.18783,3863.2877 C1028.18298,3863.28609 1028.17975,3863.28449 1028.17167,3863.28288 C1028.16682,3863.28128 1028.16197,3863.28128 1028.15227,3863.27807 C1028.13933,3863.27165 1027.64624,3863.0967 1026.91712,3862.89126 L1026.91712,3872.6336 L1028.06173,3886.75438 C1028.13771,3887.69651 1027.42799,3888.52148 1026.479,3888.59692 C1026.43373,3888.60013 1026.38523,3888.60173 1026.34158,3888.60173 C1025.45079,3888.60173 1024.69742,3887.92603 1024.62143,3887.02723 L1023.58676,3874.26268 C1023.37335,3874.35416 1023.13894,3874.40873 1022.8932,3874.40873 C1022.64261,3874.40873 1022.4082,3874.35416 1022.19318,3874.26268 L1021.16012,3887.02723 C1021.13587,3887.32255 1021.01785,3887.57774 1020.86426,3887.81047 C1022.98697,3888.16517 1024.60527,3889.98363 1024.60527,3892.19051 C1024.60527,3893.93354 1023.59322,3895.86756 1022.12528,3896.84821 C1025.63833,3897.73257 1028.24118,3900.7612 1028.24118,3903.00499 C1028.24118,3905.65644 1012,3905.65644 1012,3903.00499 C1012,3900.7612 1014.60286,3897.73257 1018.11591,3896.84821 C1016.64958,3895.86756 1015.63753,3893.93354 1015.63753,3892.19051 C1015.63753,3890.37846 1016.73041,3888.83125 1018.29212,3888.13307 C1017.91382,3887.79121 1017.67617,3887.30168 1017.71982,3886.75598 L1018.86605,3872.6336 L1018.86605,3862.88966 C1018.68013,3862.94102 1018.51361,3862.99077 1018.36488,3863.03732 L1016.24056,3872.51804 C1016.09505,3873.18251 1015.50173,3873.63191 1014.84213,3873.63191 C1014.73543,3873.63191 1014.63357,3873.62228 1014.52849,3873.60302 C1013.75248,3873.43129 1013.26586,3872.66731 1013.43723,3871.89851 L1015.73615,3861.62492 C1015.74908,3861.57356 1015.78303,3861.53664 1015.7992,3861.48689 C1015.82992,3861.39059 1015.8671,3861.30873 1015.91884,3861.22367 C1015.9641,3861.14502 1016.01584,3861.07761 1016.07565,3861.00699 C1016.13709,3860.93958 1016.19691,3860.87859 1016.27451,3860.82402 C1016.35049,3860.76464 1016.42809,3860.7213 1016.51539,3860.67797 C1016.56389,3860.6555 1016.59784,3860.61537 1016.65119,3860.59451 C1016.78053,3860.54957 1019.68894,3859.51274 1022.35485,3859.37952 L1022.69758,3860.06165 L1022.70566,3860.06165 L1021.73889,3867.54576 L1022.88997,3869.54237 L1024.03943,3867.54576 L1023.07104,3860.06165 L1023.0775,3860.06165 L1023.42185,3859.37952 C1025.99238,3859.50632 1028.78277,3860.47413 1029.09479,3860.58327 L1034.07255,3862.23161 L1034.07255,3854.41045 C1034.07255,3853.00608 1035.22363,3851.86492 1036.63661,3851.86492 L1046.57112,3851.86492 L1046.57112,3849.95497 C1046.57112,3849.42853 1047.00277,3849 1047.53466,3849 C1048.06655,3849 1048.4982,3849.42693 1048.4982,3849.95497 L1048.4982,3851.86492 L1058.43433,3851.86492 C1059.84892,3851.86492 1061,3853.00608 1061,3854.41045 L1061,3869.68522 C1061,3871.08959 1059.84892,3872.23075 1058.43918,3872.22754 L1053.77182,3872.22754 L1057.86687,3887.40119 C1058.00267,3887.90998 1057.6955,3888.43321 1057.18463,3888.57124 C1057.1038,3888.59371 1057.01973,3888.60494 1056.93728,3888.60494 C1056.51209,3888.60494 1056.12247,3888.32567 1056.00769,3887.89874 L1051.78007,3872.22914 L1048.50629,3872.22914 L1048.50629,3883.33413 C1048.50629,3883.85896 1048.07301,3884.2875 1047.54274,3884.2875 C1047.01247,3884.2875 1046.5792,3883.85896 1046.5792,3883.33413 L1046.5792,3872.22914 L1043.30219,3872.22914 L1039.07457,3887.89874 C1039.01798,3888.11381 1038.88541,3888.29357 1038.71728,3888.41555 C1039.99607,3889.202 1040.8513,3890.59193 1040.8513,3892.19372 C1040.8513,3893.93675 1039.83926,3895.87077 1038.37293,3896.85142 C1041.84943,3897.72698 1044.43535,3900.70437 1044.48644,3902.94102 C1044.53994,3900.70474 1047.12506,3897.72977 1050.6015,3896.85463 C1049.13679,3895.87398 1048.12313,3893.93996 1048.12313,3892.19693 C1048.12313,3889.73807 1050.12782,3887.74466 1052.60781,3887.74466 C1055.07971,3887.74466 1057.08763,3889.73807 1057.08763,3892.19693 C1057.08763,3893.93996 1056.07559,3895.87398 1054.60926,3896.85463 C1058.12392,3897.73899 1060.72516,3900.76762 1060.72516,3903.01141 C1060.72516,3905.65254 1044.61022,3905.66282 1044.48632,3903.04226 Z M1022.89158,3859.07618 C1020.88366,3859.07618 1019.25405,3856.76177 1019.25405,3854.77157 C1019.25405,3852.77496 1020.88366,3851.16193 1022.89158,3851.16193 C1024.89465,3851.16193 1026.52427,3852.77496 1026.52427,3854.77157 C1026.52427,3856.76177 1024.89465,3859.07618 1022.89158,3859.07618 Z M1036.63823,3870.95798 L1058.43271,3870.95798 C1059.14405,3870.95798 1059.71635,3870.3866 1059.71635,3869.68522 L1059.71635,3854.41045 C1059.71635,3853.70746 1059.14082,3853.13769 1058.43271,3853.13769 L1036.63661,3853.13769 C1035.92689,3853.13769 1035.35296,3853.70746 1035.35296,3854.41045 L1035.35296,3862.65533 L1035.99317,3862.86719 C1036.74654,3863.11596 1037.15233,3863.92328 1036.90336,3864.67281 C1036.70289,3865.26826 1036.14029,3865.64704 1035.53888,3865.64704 C1035.47745,3865.64704 1035.41602,3865.62457 1035.35458,3865.61655 L1035.35458,3869.68522 C1035.35458,3870.3866 1035.93012,3870.95798 1036.63823,3870.95798 Z" id="path-1"></path>
        <filter x="-63.3%" y="-28.6%" width="226.5%" height="214.3%" filterUnits="objectBoundingBox" id="filter-2">
            <feOffset dx="0" dy="17" in="SourceAlpha" result="shadowOffsetOuter1"></feOffset>
            <feGaussianBlur stdDeviation="7.5" in="shadowOffsetOuter1" result="shadowBlurOuter1"></feGaussianBlur>
            <feColorMatrix values="0 0 0 0 0.869740375   0 0 0 0 0.91479846   0 0 0 0 0.652892079  0 0 0 0.5 0" type="matrix" in="shadowBlurOuter1"></feColorMatrix>
        </filter>
    </defs>
    <g id="Page-1" stroke="none" stroke-width="1" fill="none" fill-rule="evenodd">
        <g id="StaffCloud.io-Website-Design---V2" transform="translate(-998.000000, -3849.000000)" fill-rule="nonzero">
            <g id="Combined-Shape">
                <use fill="black" fill-opacity="1" filter="url(#filter-2)" xlink:href="#path-1"></use>
                <use fill="#A7E512" xlink:href="#path-1"></use>
            </g>
        </g>
    </g>
</svg>