<?xml version="1.0" encoding="UTF-8"?>
<svg width="467px" height="299px" viewBox="0 0 467 299" version="1.1" xmlns="http://www.w3.org/2000/svg" xmlns:xlink="http://www.w3.org/1999/xlink">
    <!-- Generator: Sketch 52.3 (67297) - http://www.bohemiancoding.com/sketch -->
    <title>Asset 1</title>
    <desc>Created with Sketch.</desc>
    <g id="Page-1" stroke="none" stroke-width="1" fill="none" fill-rule="evenodd">
        <g id="StaffCloud.io-Website-Design---V2" transform="translate(-973.000000, -1137.000000)">
            <g id="Asset-1" transform="translate(973.000000, 1137.000000)">
                <g id="Group" opacity="0.7" transform="translate(0.000000, 242.000000)" fill-rule="nonzero">
                    <path d="M70.329011,41.42 C70.7191209,36.9708333 69.4395604,32.1179167 65.9987912,29.33125 C62.8779121,26.76625 58.4852747,26.3783333 54.4359341,26.5525 C50.3865934,26.7266667 46.2826374,27.3441667 42.3347253,26.4654167 C38.3868132,25.5866667 34.5325275,22.6020833 34.1034066,18.54875 C33.8303297,15.8808333 35.0396703,13.32375 35.7964835,10.7508333 C36.5532967,8.17791667 36.7093407,5.035 34.8056044,3.17458333 C32.6053846,1.02916667 29.0553846,1.78125 26.0671429,2.38291667 C17.3351155,4.11834947 8.29722597,3.30862368 -3.3512082e-15,0.0475 C1.72688645,8.98805556 3.80747253,17.8441667 6.24175824,26.6158333 C7.31846154,30.5029167 9.15197802,35.0233333 13.0608791,35.7358333 C17.5003297,36.5275 21.3624176,31.7379167 25.8642857,32.0308333 C29.5157143,32.2683333 32.106044,35.7833333 33.3778022,39.2825 C34.6495604,42.7816667 35.0708791,46.6054167 37.0136264,49.75625 C39.8458242,54.36375 45.4321978,56.6279167 50.7845055,56.78625 C54.6856044,56.9129167 62.3473626,56.45375 65.6086813,54.0391667 C68.6593407,51.7829167 70.0013187,45.2120833 70.329011,41.42 Z" id="Path" fill="#C9E1FF"></path>
                    <path d="M6.24175824,26.6158333 C4.03113553,18.6516667 2.1143956,10.6083333 0.491538462,2.48583333 C3.5343956,6.64208333 8.1532967,9.08833333 13.0452747,11.1941667 C16.4782418,12.6508333 20.0672527,13.94125 23.1335165,16.15 C26.4494505,18.525 28.360989,22.23 30.8732967,25.3966667 C36.6625275,32.6958333 44.137033,36.48 51.9392308,41.135 C57.5646154,44.5075 62.3707692,48.5845833 65.8661538,53.8491667 C65.7803297,53.9204167 65.7023077,53.9995833 65.6086813,54.0708333 C62.3395604,56.4854167 54.6856044,56.9445833 50.7845055,56.8179167 C45.4321978,56.6595833 39.8614286,54.3954167 37.0136264,49.7879167 C35.0708791,46.62125 34.6183516,42.8054167 33.3778022,39.3141667 C32.1372527,35.8229167 29.4767033,32.3 25.8642857,32.0625 C21.3624176,31.7695833 17.5003297,36.5670833 13.0608791,35.7675 C9.14417582,35.0233333 7.31065934,30.5029167 6.24175824,26.6158333 Z" id="Path" fill="#A8CFFF"></path>
                </g>
                <g id="Group" opacity="0.7" transform="translate(49.000000, 147.000000)" fill-rule="nonzero">
                    <path d="M69.2646465,136.520323 C75.0819192,131.414839 79.2393939,123.804032 78.1541414,116.185323 C77.1566667,109.183065 72.049596,103.461129 66.6472727,98.8377419 C61.2449495,94.2143548 55.220202,90.0967742 51.230303,84.2009677 C47.240404,78.3051613 45.82,69.9751613 50.1610101,64.363871 C53.0018182,60.6967742 57.6141414,58.9580645 61.6439394,56.6424194 C65.6737374,54.3267742 69.6237374,50.5885484 69.4242424,45.9730645 C69.1688889,40.6462903 63.7186869,37.3348387 59.1622222,34.4975806 C45.8857362,26.2043581 35.2530958,14.3557067 28.4958586,0.324032258 C20.026633,13.5803763 12.1239731,27.1712903 4.78787879,41.0967742 C1.53212121,47.2533871 -1.51616162,55.1012903 2.64929293,60.688871 C7.38131313,67.0114516 18.0662626,65.6520968 23.4925253,71.4214516 C27.8893939,76.1001613 27.0355556,83.6398387 24.4580808,89.5040323 C21.8806061,95.3682258 17.8827273,100.710806 16.6059596,106.985968 C14.7386869,116.15371 19.2073737,125.685 25.8705051,132.27629 C30.730202,137.113065 41.1039394,145.711774 48.2139394,146.636452 C54.7493939,147.474194 64.3171717,140.867097 69.2646465,136.520323 Z" id="Path" fill="#C9E1FF"></path>
                    <path d="M4.78787879,41.0967742 C11.4483502,28.4516129 18.5929293,16.0698925 26.2216162,3.9516129 C25.1443434,12.811129 28.1447475,21.4098387 31.9511111,29.8820968 C34.6163636,35.8174194 37.6885859,41.7369355 38.9733333,48.1859677 C40.369798,55.1645161 38.4067677,62.0798387 37.8481818,69.0504839 C36.5554545,85.1335484 41.6545455,98.8456452 46.0673737,114.027742 C49.2592929,124.997419 50.5440404,135.864355 48.7485859,146.652258 C48.5490909,146.652258 48.3416162,146.652258 48.150101,146.652258 C41.0720202,145.759194 30.6982828,137.128871 25.8066667,132.292097 C19.1435354,125.669194 14.6748485,116.137903 16.5421212,107.001774 C17.8188889,100.726613 21.8247475,95.3919355 24.3942424,89.5198387 C26.9637374,83.6477419 27.8255556,76.0843548 23.4286869,71.4372581 C18.0024242,65.6679032 7.31747475,67.0430645 2.58545455,60.7046774 C-1.54808081,55.0696774 1.50020202,47.2217742 4.78787879,41.0967742 Z" id="Path" fill="#A8CFFF"></path>
                </g>
                <path d="M207,86.9357971 L207,86.7833153 C206.707278,85.325786 206.031626,83.9754542 205.044418,82.8749647 L203.358025,81.4143491 C202.149459,80.6375273 200.764851,80.187192 199.336017,80.1062154 C198.25348,79.9946193 197.161059,80.1745598 196.169082,80.6278638 C195.098542,80.8993581 194.117921,81.4531186 193.326758,82.2329359 C192.864546,82.6222126 192.459338,83.076184 192.123323,83.5811964 C191.797752,82.5345841 191.258202,81.5692844 190.539855,80.7482442 L188.956388,79.3999837 C187.843574,78.6769473 186.563365,78.2619121 185.243156,78.1961796 C184.258223,78.0966338 183.264729,78.2598643 182.361245,78.6696759 C181.718428,78.8298314 181.107732,79.1013347 180.556092,79.4722119 C180.556092,79.0789692 180.500671,78.6696759 180.469002,78.3005093 C180.192067,76.9244437 179.554869,75.649292 178.624262,74.6088435 L177.040794,73.2365068 C175.903218,72.4993638 174.596629,72.0735599 173.24839,72.0006013 C171.194669,71.9762352 169.199349,72.6930863 167.619163,74.0229921 C166.805302,74.7212358 166.194851,75.6313687 165.853596,76.6553104 C165.34632,77.543869 165.073632,78.5499972 165.061863,79.5765416 L165.133119,80.6118131 C164.532548,80.4029113 163.906495,80.2786928 163.272544,80.2426465 C162.365707,80.1561684 161.452191,80.3081948 160.620236,80.6840413 C158.801396,81.2351785 157.322334,82.5842018 156.590311,84.3596564 C156.451318,84.6174582 156.332203,84.8857703 156.234031,85.1621925 C155.435293,84.7955705 154.576066,84.5832764 153.700483,84.5362143 C151.852158,84.5175478 150.057025,85.1629461 148.633387,86.3579712 C148.404829,86.5535531 148.192949,86.7683236 148,87 L207,86.9357971 Z" id="Path" fill="#D3E3F8" fill-rule="nonzero" opacity="0.6"></path>
                <path d="M177,21 C176.840592,20.7869408 176.669995,20.5824659 176.488928,20.3874346 L174.538992,18.6989529 C173.124177,17.795808 171.498321,17.2761457 169.821406,17.1910995 C168.571655,17.0747012 167.312893,17.2801925 166.165276,17.7879581 C165.057623,18.07068 164.031666,18.6086071 163.169608,19.3586387 L163.169608,19.0287958 C162.904857,17.7513155 162.305206,16.5669739 161.431964,15.5968586 L159.922336,14.3167539 C158.84955,13.6311727 157.616701,13.2360419 156.344833,13.1701571 C155.39318,13.077934 154.433889,13.2349213 153.561457,13.6256545 C153.210852,13.7147569 152.870816,13.841133 152.547176,14.0026178 C152.075417,9.86387435 148.537227,6 144.181322,6 C139.377246,6 135.092105,9.43979058 134.832638,14.4109948 C134.790812,15.3531085 134.907759,16.295546 135.178594,17.1989529 L134.675385,17.1361257 C133.752787,17.0497392 132.823536,17.2039814 131.978498,17.5837696 C131.049702,17.8177197 130.200176,18.2948473 129.51749,18.9659686 C128.859652,19.5100551 128.339719,20.2015885 128,20.9842932 L177,21 Z" id="Path" fill="#D3E3F8" fill-rule="nonzero"></path>
                <path d="M121,108 L151,108 C150.667478,106.619784 150.032855,105.345598 149.149325,104.284247 L147.44162,102.717467 C146.224846,101.877275 144.825965,101.39334 143.382844,101.313358 C142.296915,101.197534 141.201749,101.389363 140.205719,101.869864 C140.038634,101.91663 139.874206,101.973804 139.713264,102.041097 C139.490866,98.4452076 136.663225,95.0034275 133.168388,95.0034275 C129.38117,94.88214 126.175692,97.9941004 125.892772,102.066782 C125.849775,103.041005 125.993065,104.014353 126.313741,104.926371 C124.160593,104.855548 122.135595,106.026868 121,108 Z" id="Path" fill="#D3E3F8" fill-rule="nonzero"></path>
                <rect id="Rectangle" fill="#BDD6F5" fill-rule="nonzero" x="218" y="31" width="147" height="264" rx="15.71"></rect>
                <rect id="Rectangle" fill="#FFFFFF" fill-rule="nonzero" x="225" y="50" width="133" height="208"></rect>
                <rect id="Rectangle" fill="#FFE79F" fill-rule="nonzero" x="225" y="51" width="133" height="17"></rect>
                <circle id="Oval" fill="#FFFFFF" fill-rule="nonzero" cx="290.5" cy="275.5" r="11.5"></circle>
                <ellipse id="Oval" fill="#C9E1FF" fill-rule="nonzero" transform="translate(291.239526, 275.514709) rotate(-77.400000) translate(-291.239526, -275.514709) " cx="291.239526" cy="275.514709" rx="7.42359548" ry="7.42122175"></ellipse>
                <path d="M300.211001,43 L280.788999,43 C279.248678,43 278,41.8807119 278,40.5 C278,39.1192881 279.248678,38 280.788999,38 L300.211001,38 C301.751322,38 303,39.1192881 303,40.5 C303,41.8807119 301.751322,43 300.211001,43 Z" id="Path" fill="#FFFFFF" fill-rule="nonzero"></path>
                <g id="Group" transform="translate(233.000000, 98.000000)" fill-rule="nonzero">
                    <path d="M14.1882353,11.1842254 C11.9654118,14.6783099 15.0947059,19.9549296 12.5250588,23.1966197 C11.2402353,24.8135211 8.86764706,25.3577465 7.79564706,27.1402817 C7.02253611,28.5852024 7.12926473,30.3427583 8.07152941,31.6833803 C9.0223286,32.994607 10.4033559,33.9298311 11.9732941,34.3256338 C16.1272941,35.5323944 20.5256471,33.9628169 24.6323529,32.5983099 C28.7390588,31.2338028 33.3896471,30.0822535 37.2441176,32.0225352 C38.0848797,32.5770943 39.0240479,32.9653145 40.0108235,33.1661972 C41.6818824,33.3002817 43.0534118,31.9278873 44.6377647,31.3757746 C46.8605882,30.5870423 49.2725882,31.4783099 51.5505882,32.0856338 C53.8285882,32.6929577 56.6031765,32.8743662 58.2032941,31.1549296 C59.9610588,29.2619718 59.2674118,26.1464789 57.8249412,24.0090141 C56.3824706,21.8715493 54.3094118,20.1521127 53.2531765,17.8016901 C52.1969412,15.4512676 52.2915294,12.7459155 51.7791765,10.2061972 C51.2668235,7.66647887 49.7218824,4.96901408 47.168,4.56676056 C44.488,4.14084507 41.8316471,6.42816901 39.2068235,5.71042254 C37.3387059,5.19774648 36.2194118,3.34422535 34.706,2.12957746 C32.3840457,0.314274497 29.2274399,-0.00771834856 26.5871765,1.30140845 C25.2998522,1.98757554 24.2378789,3.03104716 23.5288235,4.30647887 C22.9297647,5.36338028 22.9770588,7.63492958 22.0942353,8.39211268 C21.2114118,9.14929577 19.0595294,8.62084507 17.9402353,8.86535211 C16.4308194,9.10738076 15.0803026,9.94204954 14.1882353,11.1842254 Z" id="Path" fill="#91BAEE"></path>
                    <path d="M61.372,55.3059155 C56.95,48.2783099 52.0235294,46.1250704 47.2941176,45.9830986 C38.5525882,45.7149296 39.3329412,38.2771831 39.3329412,38.2771831 L33.4842353,38.0957746 L27.6355294,38.2771831 C27.6355294,38.2771831 28.4237647,45.7149296 19.6822353,45.9830986 C15.5282353,46.1092958 11.2717647,47.7577465 7.31482353,52.8371831 C8.25282353,53.6259155 9.15929412,54.4619718 10.0578824,55.3059155 L61.372,55.3059155 Z" id="Path" fill="#FFC0A9"></path>
                    <path d="M27.3517647,40.5960563 C27.1659493,41.3674047 26.8713471,42.1083581 26.4768235,42.7966197 C29.2198824,48.743662 36.8105882,49.5008451 40.2157647,42.3943662 C39.9302441,41.8284396 39.7335079,41.2218969 39.6324706,40.5960563 L27.3517647,40.5960563 Z" id="Path" fill="#FFAF96"></path>
                    <path d="M19.8871765,19.8208451 C20.6754118,11.2157746 26.9812941,6.27830986 33.1768235,6.41239437 C39.3723529,6.54647887 45.5442353,11.6574648 46.1432941,20.2861972 C46.4901176,25.3419718 45.3550588,30.7921127 44.5668235,33.9233803 C44.1260746,35.7420358 43.2403268,37.4224945 41.9892941,38.8135211 C39.1910588,41.8816901 35.5494118,44.3346479 32.6881176,44.2794366 C29.8268235,44.2242254 26.2482353,41.6687324 23.5209412,38.5216901 C22.3098174,37.0879807 21.4681484,35.3792087 21.0695294,33.5447887 C20.3837647,30.3504225 19.4142353,24.8687324 19.8871765,19.8208451 Z" id="Path" fill="#FFC0A9"></path>
                    <path d="M53.9468235,70.3233803 L66.6610588,66.1588732 C64.1781176,57.9797183 60.6941176,52.5374648 56.5952941,48.9014085 C52.4964706,45.2653521 45.828,45.8647887 45.828,45.8647887 C45.828,45.8647887 43.5578824,52.6557746 33.4763529,52.6557746 C23.3948235,52.6557746 21.3454118,45.8253521 21.3454118,45.8253521 C21.3454118,45.8253521 14.4247059,45.2732394 10.3652941,48.9014085 C6.30588235,52.5295775 2.77458824,57.9797183 0.299529412,66.1588732 L13.0137647,70.3233803 C13.0137647,70.3233803 11.1377647,85.0411268 8.442,105.879437 C24.3580485,113.082756 42.6025397,113.082756 58.5185882,105.879437 C55.5469412,82.1780282 53.9468235,70.3233803 53.9468235,70.3233803 Z" id="Path" fill="#4B78FF"></path>
                    <ellipse id="Oval" fill="#193441" cx="25.996" cy="26.8642254" rx="1.02470588" ry="1.02535211"></ellipse>
                    <path d="M38.9545882,26.8642254 C38.9513946,27.2796444 39.1990212,27.6559389 39.5816636,27.817132 C39.964306,27.9783252 40.4063369,27.892558 40.7010373,27.59994 C40.9957378,27.3073221 41.0848617,26.865688 40.9267296,26.4815709 C40.7685976,26.0974539 40.3944636,25.8467729 39.9792941,25.8467606 C39.4164287,25.8467439 38.958918,26.3010216 38.9545882,26.8642254 Z" id="Path" fill="#193441"></path>
                    <path d="M29.6297647,34.743662 C29.3870613,34.7369947 29.1606277,34.8653673 29.0415948,35.0771148 C28.9225619,35.2888623 28.9305081,35.5491567 29.0622353,35.7532394 C29.9335152,37.0484212 31.3871386,37.8302551 32.9473795,37.8428711 C34.5076204,37.855487 35.9736809,37.0972614 36.8657647,35.816338 C37.0228189,35.616966 37.0522131,35.3453249 36.9414469,35.1169355 C36.8306807,34.8885462 36.5992322,34.7435704 36.3455294,34.743662 L29.6297647,34.743662 Z" id="Path" fill="#FFFFFF"></path>
                    <ellipse id="Oval" fill="#FFAF8A" cx="26.1063529" cy="31.1628169" rx="2.15188235" ry="1.67211268"></ellipse>
                    <ellipse id="Oval" fill="#FFAF8A" cx="39.8610588" cy="31.1628169" rx="2.15188235" ry="1.67211268"></ellipse>
                    <path d="M20.6044706,12.8169014 C19.7689412,14.0315493 23.4657647,12.028169 24.4747059,13.0692958 C25.4836471,14.1104225 25.8541176,15.6405634 26.3428235,17.0129577 C26.8315294,18.3853521 27.6276471,19.8523944 29.0149412,20.3414085 C32.2467059,21.4771831 35.2262353,16.6264789 38.5368235,17.5256338 C41.2010588,18.2433803 41.9183529,22.1870423 44.5668235,22.9284507 C46.8684706,23.5673239 49.1149412,21.1301408 49.1622353,18.7402817 C49.2095294,16.3504225 47.7828235,14.1971831 46.3009412,12.3278873 C46.3009412,12.3357746 31.5845882,-3.15492958 20.6044706,12.8169014 Z" id="Path" fill="#91BAEE"></path>
                    <path d="M18.2161176,15.5853521 C16.6894392,17.9667791 16.1257947,20.8403589 16.6396471,23.6225352 C16.7263529,24.056338 16.9155294,24.5611268 17.3490588,24.6242254 C17.5997315,24.6287302 17.8434799,24.5418225 18.0348235,24.3797183 C20.1788235,22.8416901 20.6044706,19.6473239 22.7642353,18.1092958 C24.3407059,16.9892958 26.6581176,16.8157746 27.5645882,15.1278873 C28.8572941,12.7616901 26.2009412,10.7977465 24.0411765,11.1842254 C21.8814118,11.5707042 19.4063529,13.7712676 18.2161176,15.5853521 Z" id="Path" fill="#91BAEE"></path>
                    <path d="M21.3454118,45.8253521 C21.3454118,45.8253521 18.7521176,49.2247887 21.4321176,52.395493 C24.1121176,55.5661972 33.6024706,52.6478873 33.6024706,52.6478873 C28.8537056,51.8534209 24.5243694,49.4436218 21.3454118,45.8253521 Z" id="Path" fill="#FFFFFF"></path>
                    <path d="M45.828,45.8647887 C45.828,45.8647887 48.4528235,49.2247887 45.7728235,52.395493 C43.0928235,55.5661972 33.6024706,52.6478873 33.6024706,52.6478873 C38.3395721,51.8713723 42.6605602,49.4739556 45.828,45.8647887 Z" id="Path" fill="#FFFFFF"></path>
                </g>
                <g id="Group" transform="translate(233.000000, 175.000000)" fill-rule="nonzero">
                    <path d="M52.9457647,63.1755319 C47.5305882,48.792766 53.6472941,45.2895745 47.2547059,45.0691489 C38.5052941,44.8093617 39.2935294,37.3857447 39.2935294,37.3857447 L33.4448235,37.2046809 L27.5961176,37.3857447 C27.5961176,37.3857447 28.3843529,44.8093617 19.6349412,45.0691489 C13.2423529,45.2659574 14.7242353,62.1285106 14.7242353,62.1285106 L52.9457647,63.1755319 Z" id="Path" fill="#B56B1F"></path>
                    <path d="M39.6088235,39.7159574 C39.788052,40.4891978 40.0801991,41.2319002 40.4758824,41.9202128 C37.7407059,47.8559574 30.15,48.6038298 26.7369412,41.5108511 C27.0242702,40.9460697 27.2236235,40.3408055 27.3281176,39.7159574 L39.6088235,39.7159574 Z" id="Path" fill="#885017"></path>
                    <path d="M47.034,18.9880851 C46.2457647,10.3993617 39.9398824,5.46340426 33.7443529,5.56574468 C27.5488235,5.66808511 21.3848235,10.7929787 20.7857647,19.4131915 C20.4310588,24.4514894 21.5345882,29.8912766 22.3228235,33.0165957 C22.7669851,34.8328442 23.6522354,36.5118721 24.9003529,37.9053191 C27.7064706,40.9597872 31.3402353,43.4159574 34.2015294,43.3529787 C37.0628235,43.29 40.6414118,40.7551064 43.3687059,37.6061702 C44.5851113,36.1775958 45.4298353,34.4713657 45.828,32.6387234 C46.5452941,29.4897872 47.5069412,24.0185106 47.034,18.9880851 Z" id="Path" fill="#B56B1F"></path>
                    <path d="M12.998,73.5591489 L53.8916471,73.5591489 C54.1001264,72.1761618 54.1001264,70.7697957 53.8916471,69.3868085 L66.6137647,65.2302128 C64.1308235,57.0744681 60.6074118,51.6346809 56.548,48.0134043 C52.4885882,44.3921277 45.5678824,44.9431915 45.5678824,44.9431915 C45.5678824,44.9431915 44.7796471,54.39 33.4290588,62.3331915 C21.5661176,55.4606383 21.2902353,44.9431915 21.2902353,44.9431915 C21.2902353,44.9431915 14.3774118,44.3921277 10.318,48.0134043 C6.25858824,51.6346809 2.72729412,57.0744681 0.244352941,65.2302128 L12.9664706,69.3868085 C12.7684361,70.7713667 12.7790637,72.1777337 12.998,73.5591489 Z" id="Path" fill="#FFC366"></path>
                    <path d="M39.9398824,26.0180851 C39.9398824,26.5832957 40.3986588,27.0414894 40.9645882,27.0414894 C41.5305177,27.0414894 41.9892941,26.5832957 41.9892941,26.0180851 C41.9892941,25.4528745 41.5305177,24.9946809 40.9645882,24.9946809 C40.3986588,24.9946809 39.9398824,25.4528745 39.9398824,26.0180851 Z" id="Path" fill="#193441"></path>
                    <path d="M28.006,26.0180851 C28.006,26.5832957 27.5472235,27.0414894 26.9812941,27.0414894 C26.4153647,27.0414894 25.9565882,26.5832957 25.9565882,26.0180851 C25.9565882,25.4528745 26.4153647,24.9946809 26.9812941,24.9946809 C27.5472235,24.9946809 28.006,25.4528745 28.006,26.0180851 Z" id="Path" fill="#193441"></path>
                    <path d="M37.3308235,33.8510638 C37.5712855,33.8497871 37.7935381,33.9788153 37.911429,34.1881328 C38.0293198,34.3974503 38.0243144,34.6541488 37.8983529,34.8587234 C37.0152554,36.1360081 35.5651687,36.904351 34.0110546,36.9184471 C32.4569404,36.9325432 30.9931205,36.1906301 30.0869412,34.9295745 C29.9370599,34.7265065 29.9126615,34.457052 30.023635,34.2304243 C30.1346085,34.0037966 30.3625449,33.85759 30.6150588,33.8510638 L37.3308235,33.8510638 Z" id="Path" fill="#FFFFFF"></path>
                    <path d="M38.6944706,30.3085106 C38.6944706,31.2295745 39.664,31.9774468 40.8542353,31.9774468 C41.5533654,32.1583548 42.2913584,31.8854699 42.7039687,31.2934777 C43.1165789,30.7014855 43.1165789,29.9155357 42.7039687,29.3235436 C42.2913584,28.7315514 41.5533654,28.4586665 40.8542353,28.6395745 C39.664,28.6395745 38.6944706,29.3874468 38.6944706,30.3085106 Z" id="Path" fill="#FF822B"></path>
                    <path d="M29.2514118,30.3085106 C29.2514118,31.2295745 28.2818824,31.9774468 27.0916471,31.9774468 C26.3925169,32.1583548 25.6545239,31.8854699 25.2419137,31.2934777 C24.8293034,30.7014855 24.8293034,29.9155357 25.2419137,29.3235436 C25.6545239,28.7315514 26.3925169,28.4586665 27.0916471,28.6395745 C28.2818824,28.6395745 29.2514118,29.3874468 29.2514118,30.3085106 Z" id="Path" fill="#FF822B"></path>
                    <path d="M17.6722353,15.9493617 C17.1309012,15.4490027 16.7752582,14.7802442 16.6632941,14.0521277 C16.6238824,13.5719149 16.5608235,13.0838298 16.5608235,12.5957447 C16.6132911,11.5259964 17.1069421,10.5256991 17.9244706,9.83255319 C18.8440248,9.04835047 20.0731318,8.72913056 21.2587059,8.96659574 C21.0197059,8.41236304 20.8989056,7.81449069 20.904,7.21106383 C20.9679409,6.22717976 21.4081956,5.30551046 22.1336471,4.63680851 C22.8811482,3.99343642 23.8431094,3.65352574 24.8294118,3.68425532 C25.4928352,3.70177064 26.1355872,3.91849249 26.6738824,4.30617021 C26.9244196,2.18350272 28.7432612,0.594888331 30.8830588,0.629787234 C32.0793403,0.572304755 33.2268715,1.10851397 33.9492941,2.06255319 C34.6790023,1.10011064 35.8401352,0.563067993 37.0470588,0.629787234 C39.1882066,0.591202078 41.0091761,2.18167501 41.2562353,4.30617021 C41.7956441,3.9206592 42.4377117,3.70416815 43.1007059,3.68425532 C44.0870083,3.65352574 45.0489695,3.99343642 45.7964706,4.63680851 C46.5252731,5.30303768 46.9662096,6.22613438 47.0261176,7.21106383 C47.0339324,7.81395514 46.9158116,8.41185224 46.6792941,8.96659574 C47.8623412,8.73166742 49.0879652,9.05073707 50.0056471,9.83255319 C50.8231755,10.5256991 51.3168266,11.5259964 51.3692941,12.5957447 C51.3628908,13.0827566 51.3286784,13.5690074 51.2668235,14.0521277 C51.1540422,14.7782459 50.8017267,15.4459641 50.2657647,15.9493617 C50.9133276,16.3490685 51.3161819,17.0472512 51.3377647,17.807234 C51.387608,19.1435954 50.3642883,20.2772351 49.0282353,20.3657447 C48.7992675,20.3619202 48.5716233,20.3301962 48.3503529,20.2712766 C48.3503529,22.5778723 48.24,25.5929787 47.1049412,25.3568085 C46.1196471,25.1521277 45.8122353,20.2870213 45.7255294,18.2717021 C45.287354,18.5682526 44.7728204,18.7322569 44.2436471,18.7440426 C43.4150401,18.7740918 42.6051879,18.4932503 41.9735294,17.9568085 C41.3569751,17.3952564 40.9837551,16.6158786 40.9330588,15.7840426 C40.9330588,15.6974468 40.9330588,15.6187234 40.9330588,15.5321277 C40.4746671,16.0212937 39.8380921,16.305118 39.1674118,16.3193617 C38.4063607,16.3447074 37.6635812,16.0833788 37.0864706,15.587234 L36.9209412,15.4140426 C36.9209412,15.4140426 36.8815294,15.4770213 36.8578824,15.5006383 C36.2285927,16.2005219 35.3469272,16.622391 34.4064706,16.673617 C33.4676261,16.7038488 32.5522073,16.3775297 31.8447059,15.7604255 C31.6598343,15.5915523 31.4957751,15.401274 31.356,15.193617 C30.9273065,16.0079866 30.0858806,16.521874 29.1647059,16.5319149 C28.5878028,16.5424709 28.0204806,16.383713 27.5330588,16.0753191 C27.5050302,16.5004789 27.3839487,16.9143204 27.1783529,17.2876596 C26.8716966,17.902637 26.402969,18.4224814 25.8225882,18.7912766 L25.7674118,18.8385106 C24.9330669,19.3713763 23.9233652,19.5578067 22.9534118,19.3580851 L22.6538824,19.2557447 C22.5277647,21.5229787 22.1809412,25.183617 21.3217647,25.3646809 C20.1551765,25.6087234 20.0369412,22.4204255 20.0763529,20.0980851 C19.7102765,20.2760891 19.3090267,20.3702227 18.9018824,20.373617 C17.5646416,20.2851566 16.5389953,19.1528041 16.5844706,17.8151064 C16.6039222,17.0483845 17.014178,16.3447096 17.6722353,15.9493617 Z" id="Path" fill="#193441"></path>
                </g>
                <path d="M304,114.5 L346,114.5" id="Path" stroke="#BDD6F5"></path>
                <path d="M304,118.5 L346,118.5" id="Path" stroke="#BDD6F5"></path>
                <path d="M304,122.5 L346,122.5" id="Path" stroke="#BDD6F5"></path>
                <path d="M304,126.5 L346,126.5" id="Path" stroke="#BDD6F5"></path>
                <path d="M304,129.5 L346,129.5" id="Path" stroke="#BDD6F5"></path>
                <path d="M302,134.5 L324,134.5" id="Path" stroke="#BDD6F5"></path>
                <path d="M304,136.5 L346,136.5" id="Path" stroke="#BDD6F5"></path>
                <path d="M304,141.5 L346,141.5" id="Path" stroke="#BDD6F5"></path>
                <path d="M304,145.5 L346,145.5" id="Path" stroke="#BDD6F5"></path>
                <path d="M304,148.5 L346,148.5" id="Path" stroke="#BDD6F5"></path>
                <path d="M304,153.5 L346,153.5" id="Path" stroke="#BDD6F5"></path>
                <path d="M304,156.5 L346,156.5" id="Path" stroke="#BDD6F5"></path>
                <path d="M303,161.5 L326,161.5" id="Path" stroke="#BDD6F5"></path>
                <rect id="Rectangle" fill="#FFE79F" fill-rule="nonzero" x="304" y="103" width="43" height="5"></rect>
                <rect id="Rectangle" fill="#FFB6A1" fill-rule="nonzero" x="238" y="81" width="108" height="5"></rect>
                <path d="M304,191.5 L346,191.5" id="Path" stroke="#BDD6F5"></path>
                <path d="M304,196.5 L346,196.5" id="Path" stroke="#BDD6F5"></path>
                <path d="M304,200.5 L346,200.5" id="Path" stroke="#BDD6F5"></path>
                <path d="M304,204.5 L346,204.5" id="Path" stroke="#BDD6F5"></path>
                <path d="M304,208.5 L346,208.5" id="Path" stroke="#BDD6F5"></path>
                <path d="M302,211.5 L324,211.5" id="Path" stroke="#BDD6F5"></path>
                <path d="M304,215.5 L346,215.5" id="Path" stroke="#BDD6F5"></path>
                <path d="M304,219.5 L346,219.5" id="Path" stroke="#BDD6F5"></path>
                <path d="M304,222.5 L346,222.5" id="Path" stroke="#BDD6F5"></path>
                <path d="M304,227.5 L346,227.5" id="Path" stroke="#BDD6F5"></path>
                <path d="M304,230.5 L346,230.5" id="Path" stroke="#BDD6F5"></path>
                <path d="M304,235.5 L346,235.5" id="Path" stroke="#BDD6F5"></path>
                <path d="M303,238.5 L326,238.5" id="Path" stroke="#BDD6F5"></path>
                <rect id="Rectangle" fill="#FFE79F" fill-rule="nonzero" x="304" y="181" width="43" height="5"></rect>
                <path d="M82,293.297861 L75.9363248,294.859594 C74.8333772,295.147129 73.659919,294.989244 72.6750215,294.420796 C71.6901241,293.852347 70.9747861,292.920085 70.6869372,291.829831 L67.0582189,278.211513 C66.9098201,277.651347 67.0490685,277.054912 67.4308364,276.615503 C67.8126044,276.176093 68.3883177,275.949616 68.9713994,276.009469 C69.6971352,276.088321 70.3012813,276.595388 70.4972003,277.290091 L70.852957,278.52386 C72.0639585,282.763575 76.1013515,285.597637 80.5532561,285.333019 L82,293.297861 Z" id="Path" fill="#E89A49" fill-rule="nonzero"></path>
                <path d="M197.007222,217 L196.679075,217.647021 C195.858709,219.244603 194.671131,221.489206 193.186659,224.165155 C191.702186,226.841105 189.952071,229.932427 187.959753,233.063687 C186.951874,234.62133 185.912743,236.202936 184.834548,237.688687 C183.803726,239.104974 182.670251,240.440052 181.4437,241.682642 C180.995006,242.121268 180.514431,242.524481 180.006106,242.888817 C179.893121,242.950576 179.785897,243.022767 179.685772,243.104491 C179.685772,243.104491 179.685772,243.104491 179.740463,243.104491 L179.834219,243.104491 L179.638894,243.104491 C179.685772,243.14443 179.49826,243.176382 179.295121,243.168394 C179.055593,243.155306 178.817669,243.120556 178.584137,243.064551 C177.942091,242.896957 177.318889,242.661372 176.72464,242.361615 C175.299921,241.619117 173.960799,240.716209 172.73219,239.669689 C171.50407,238.660279 170.345031,237.566036 169.263213,236.394646 C168.231895,235.292314 167.372463,234.181995 166.606788,233.199482 C165.841113,232.216969 165.723918,231.002807 165.34108,230.204016 C165.07492,229.551637 164.646695,228.981656 164.098811,228.550518 C163.939007,228.42485 163.766063,228.31769 163.583152,228.231002 C163.518164,228.197633 163.450124,228.170878 163.380014,228.151123 L162.200249,227.959413 L162.090867,227.959413 C160.572774,227.781377 159.199789,228.892208 159.020352,230.443653 L159.020352,230.715242 C158.993216,230.940716 158.993216,231.16874 159.020352,231.394214 C159.105961,232.160488 159.39206,232.888989 159.848532,233.503022 C160.38763,234.301813 161.411134,235.044689 162.012736,236.234888 C162.614338,237.425086 163.348762,238.759067 164.153502,240.228843 C164.958242,241.698618 165.880178,243.2962 167.013065,244.957686 C168.228445,246.819943 169.640693,248.539719 171.224279,250.085924 C172.209416,251.015523 173.300715,251.820135 174.474492,252.482297 C175.153541,252.867203 175.867962,253.182913 176.607445,253.42487 C177.470649,253.721768 178.364762,253.91478 179.271682,254 L179.467008,254 L179.560764,254 L179.857658,254 L180.724903,254 C181.250409,253.955793 181.77244,253.875736 182.287505,253.760363 C183.172482,253.550903 184.033892,253.248415 184.857987,252.857729 C186.177014,252.217797 187.424018,251.433026 188.576981,250.517271 C190.491729,248.993842 192.26261,247.290293 193.866391,245.428972 C195.382115,243.703584 196.757206,241.986183 198.007288,240.292746 C200.507452,236.905872 202.585713,233.670769 204.257698,230.851036 C204.890552,229.80462 205.476528,228.814119 206,227.895509 C202.603631,224.628286 199.586199,220.972413 197.007222,217 Z" id="Path" fill="#E89A49" fill-rule="nonzero"></path>
                <path d="M172.845425,238.939949 L166.438853,237.066499 C165.899329,236.901827 165.482696,236.493185 165.328719,235.977655 L161.040722,220.950018 C160.911951,220.404845 161.093197,219.835677 161.518984,219.448126 C161.944771,219.060576 162.553551,218.910665 163.1254,219.052548 L169.531973,220.925999 C170.069454,221.089122 170.485685,221.494369 170.642107,222.006836 L174.955526,237.034474 C175.091932,237.586129 174.90965,238.16482 174.47618,238.556254 C174.042711,238.947688 173.42258,239.093596 172.845425,238.939949 Z" id="Path" fill="#4B78FF" fill-rule="nonzero"></path>
                <path d="M213.597132,263.794729 L158.800703,234.133313 L158.499711,233.974185 C154.924636,232.040958 150.47728,233.060892 148.091716,236.361101 C146.776856,238.175158 145.596649,240.068778 144.400601,241.930573 C143.204553,243.792368 142.079793,245.741683 140.986715,247.683042 C138.779439,251.560455 136.680414,255.50152 134.689641,259.506235 C132.693587,263.48443 130.784663,267.566057 129.018314,271.703379 C128.582667,272.745666 128.123258,273.764084 127.703453,274.814327 L126.444038,277.9571 C125.651953,280.081456 124.859868,282.189899 124.162834,284.385862 C123.660268,286.040091 124.350015,287.82493 125.832073,288.705308 C127.314132,289.585686 129.203489,289.332897 130.404462,288.093539 C131.988632,286.43861 133.446068,284.712074 134.911425,282.985538 L137.042133,280.367886 C137.755009,279.492683 138.428281,278.593611 139.125316,277.710452 C141.889692,274.161903 144.503572,270.549703 147.046164,266.849982 C149.588757,263.150261 152.012536,259.418715 154.333345,255.615561 C155.03038,254.477798 155.703652,253.324122 156.369003,252.170445 L194.927693,289.50182 C195.979278,290.506777 197.156083,291.370609 198.428708,292.071733 C206.195746,296.281369 215.889515,293.369274 220.080347,285.567386 C224.271179,277.765498 221.372091,268.028234 213.605053,263.818598 L213.597132,263.794729 Z" id="Path" fill="#193441" fill-rule="nonzero"></path>
                <path d="M155.921844,276.531298 C155.151825,276.618897 154.381015,276.373823 153.807879,275.859176 C153.234742,275.344529 152.915284,274.610598 152.931755,273.846353 L149.957404,274.086912 L146.259137,274.35075 C145.812141,274.265512 145.352725,274.265512 144.905728,274.35075 L143.387078,274.668908 C142.1517,274.924987 140.751079,275.258665 139.452751,275.561304 L135.431869,276.523539 L131.434593,277.454734 L127.500266,278.339369 C126.188824,278.629074 124.877381,278.887739 123.565939,279.115365 L121.645988,279.464563 C121.055839,279.557682 120.505033,279.635282 119.922752,279.743921 C119.340472,279.852561 118.514263,279.90688 117.821822,279.98448 L117.688055,279.98448 L117.404783,279.98448 L116.846109,279.98448 L115.736629,280.0776 C114.249453,280.201759 112.793752,280.325918 111.330182,280.481117 C108.41878,280.775996 105.520493,281.112261 102.63532,281.489912 C99.7553925,281.86239 96.8754652,282.265908 93.9798006,282.731505 C92.5477056,282.933264 91.1156106,283.197103 89.6835155,283.429902 C88.2514205,283.6627 86.8193255,283.911019 85.3872305,284.205898 C82.5230405,284.733575 79.6745878,285.292292 76.8182665,285.951888 C75.2447633,286.395671 74.1216599,287.76387 74.009157,289.37403 C73.8675213,291.352819 75.3861715,292.478013 77.3690722,293.409208 C80.2726055,293.471288 83.1761388,293.564408 86.0245915,293.673047 C87.4724238,293.735127 88.9202561,293.579928 90.3602198,293.626487 C91.8001834,293.673047 93.2558844,293.719607 94.6958481,293.735127 L103.351367,293.874806 L111.936069,293.944646 L116.177273,293.991205 L117.223804,293.991205 L118.482789,293.991205 C119.222442,293.991205 119.87554,293.991205 120.69388,293.991205 C121.51222,293.991205 122.440722,293.921366 123.282668,293.867046 L125.643264,293.665287 C127.216995,293.486808 128.751382,293.292809 130.262164,293.03673 C133.299464,292.532333 136.265946,291.896017 139.185217,291.112261 C140.648787,290.747543 142.080882,290.297465 143.520845,289.862907 C144.457215,289.552509 145.369979,289.242111 146.29848,288.908432 L148.934479,289.43611 L152.829463,290.212106 C155.452348,290.682876 158.059495,291.127781 160.650905,291.546818 C165.88356,292.377134 171.147689,293.09881 176.490505,293.688567 C181.833321,294.278324 187.246955,294.712882 192.810093,294.90688 C194.205468,294.95344 195.606088,294.98448 197.011954,295 C198.428312,295 199.852538,295 201.300371,295 L202.307558,295 L203,265 C191.850117,278.05225 171.438829,274.754268 155.921844,276.531298 Z" id="Path" fill="#E89A49" fill-rule="nonzero"></path>
                <path d="M99.3660739,280.331342 C99.3660739,280.331342 98.3306294,288.908011 99.7425991,293.956304 C99.7425991,293.956304 127.832952,294.669734 139.819006,292.831876 C151.80506,290.994018 166.262061,292.289049 184.53138,293.832229 C202.800699,295.375409 221.799535,299.640479 225,271.219601 L195.089775,264 L188.273099,271.142054 C188.273099,271.142054 160.912264,272.134653 144.745211,273.62355 C128.578158,275.112447 99.3660739,280.331342 99.3660739,280.331342 Z" id="Path" fill="#25506B" fill-rule="nonzero"></path>
                <path d="M196.360506,218.176864 C197.888009,215.597937 203.491532,209.990547 209.288003,211.157767 L217.102386,211.015808 C222.858659,212.332874 225.061479,212.813959 228.831999,215.747783 C232.851743,218.902433 232.763309,223.878894 230.150475,233.689856 L224.820294,253.706111 L225.294624,275 C225.294624,275 214.336802,274.865927 208.178554,272.634012 C202.020306,270.402097 193,264.747387 193,264.747387 L194.045133,258.635252 C195.383267,251.208432 195.745315,243.643966 195.122425,236.126823 C194.901467,234.591778 195.052964,233.027246 195.564597,231.560467 C195.564597,231.560467 200.332013,223.752708 196.360506,218.176864 Z" id="Path" fill="#8E44AD" fill-rule="nonzero"></path>
                <path d="M190.000359,185.280969 C190.000359,177.552919 194.474753,173.059867 203.27281,172.075302 C208.542777,171.558791 213.716535,173.72383 216.99746,177.818595 L217.47346,178.404645 C220.21839,181.749039 221.535321,187.461076 220.797522,191.688452 L215.974061,201.549725 L218.163659,210.371735 C218.163659,210.371735 209.103803,217.404338 205.787673,211.887652 L205.327541,205.042584 C205.327541,205.042584 200.567546,207.605578 196.696084,206.105289 C194.65722,205.323888 189.952759,201.049628 190.000359,185.280969 Z" id="_Clipping_Path_2" fill="#E89A49" fill-rule="nonzero"></path>
                <path d="M192.996034,192.197194 C192.932879,193.299944 191.978543,194.097869 190.89088,193.990283 C189.803217,193.882698 188.940103,192.896499 189.003258,191.802714 C189.066412,190.70893 190.020749,189.902039 191.108412,190.009625 C192.196075,190.11721 193.066206,191.103409 192.996034,192.197194 Z" id="Path" fill="#FFAF8A" fill-rule="nonzero"></path>
                <path d="M198.482844,197.673433 C198.692152,197.695365 198.872857,197.827955 198.954607,198.019584 C199.036358,198.211214 199.006235,198.431599 198.875965,198.59494 C197.979911,199.603706 196.643389,200.119062 195.292605,199.976667 C193.941821,199.834272 192.745444,199.051906 192.084988,197.879059 C191.96946,197.690946 191.97188,197.454382 192.091234,197.268616 C192.210587,197.082849 192.42623,196.980011 192.647691,197.003246 L198.482844,197.673433 Z" id="Path" fill="#FFFFFF" fill-rule="nonzero"></path>
                <path d="M205,192.954966 C205,194.053728 204.135967,194.972365 203.035021,194.999384 C201.934076,195.026402 201.021267,194.161803 201.000363,193.054034 C200.979459,191.946266 201.864396,191.027629 202.972309,191.00061 C204.080223,190.973591 205,191.847197 205,192.954966 Z" id="Path" fill="#FFAF8A" fill-rule="nonzero"></path>
                <path d="M201.991262,189.868793 C202.044681,190.270791 201.849835,190.665214 201.498051,190.867192 C201.146267,191.069171 200.707266,191.038674 200.386813,190.789995 C200.066359,190.541316 199.927965,190.123743 200.036498,189.732996 C200.14503,189.342248 200.478978,189.055771 200.881817,189.007839 C201.143175,188.974811 201.406947,189.046987 201.615039,189.208471 C201.823132,189.369956 201.958476,189.607502 201.991262,189.868793 Z" id="Path" fill="#193441" fill-rule="nonzero"></path>
                <path d="M212.963659,228 L211.237917,231.070642 C209.424696,234.188892 207.261554,237.807013 204.756445,241.321986 C203.547835,243.032461 202.219041,244.655173 200.780082,246.177886 C200.206465,246.781246 199.581126,247.333468 198.911191,247.828257 C198.656704,248.01075 198.457886,248.121833 198.394264,248.177374 C198.330642,248.232915 198.394264,248.177374 198.394264,248.224981 C198.394264,248.272588 198.473791,248.224981 198.505602,248.224981 L198.274973,248.224981 C198.227257,248.224981 198.274973,248.224981 198.274973,248.224981 L198.060249,248.224981 C197.87383,248.216324 197.688004,248.197784 197.503558,248.169439 C197.097969,248.105964 196.644664,248.01075 196.159548,247.883798 C195.118987,247.618558 194.094131,247.295383 193.089795,246.915792 C190.97437,246.162017 188.819181,245.241618 186.727614,244.281546 C184.636047,243.321474 182.663771,242.305861 180.778974,241.321986 C178.894178,240.338111 177.144578,239.322498 175.54608,238.354492 L173.263648,236.95009 C172.564553,236.550788 171.908913,236.080129 171.307277,235.545687 C170.39787,234.594545 169.436793,233.693948 168.42839,232.847965 C167.757126,232.321405 167.005245,231.90614 166.201627,231.618121 C165.899625,231.502793 165.584384,231.425497 165.263205,231.388021 L165.10415,231.388021 C164.122206,231.331317 163.177089,231.769194 162.586937,232.554258 C161.996784,233.339323 161.840088,234.367158 162.169594,235.291784 C162.295207,235.606243 162.458069,235.904583 162.65471,236.180445 C163.151959,236.902317 163.767648,237.53537 164.475885,238.052982 C165.588804,238.811492 166.752642,239.492817 167.959179,240.092142 C168.663803,240.51928 169.329129,241.007836 169.947361,241.552086 L172.070739,243.281802 L176.898044,247.185564 C178.615833,248.574098 180.460865,250.018173 182.464952,251.462247 C184.539754,252.994985 186.692508,254.419799 188.914614,255.730996 C190.152129,256.438258 191.429317,257.074062 192.739875,257.63527 C193.439715,257.920911 194.179319,258.190683 194.990497,258.428718 C195.396086,258.547735 195.833486,258.658818 196.286791,258.754031 L197.002537,258.888917 C197.30474,258.936524 197.65466,258.976197 197.925053,259 L198.163635,259 L198.640798,259 C198.982766,259 199.356544,259 199.682606,258.960328 C200.313381,258.894336 200.938169,258.780276 201.551496,258.619145 C202.562359,258.340075 203.538686,257.948843 204.462194,257.452777 C205.921496,256.65389 207.296321,255.710202 208.565801,254.636038 C210.658474,252.836659 212.59276,250.861685 214.347433,248.732787 C216.009553,246.780906 217.464902,244.852828 218.785055,243.004095 C220.105208,241.155362 221.298117,239.378039 222.347876,237.727668 L223,236.712055 C219.367272,234.154886 216.004536,231.235859 212.963659,228 Z" id="Path" fill="#E89A49" fill-rule="nonzero"></path>
                <path d="M191.992193,187.875564 C192.042624,188.277517 191.845553,188.670181 191.493128,188.869953 C191.140703,189.069725 190.702566,189.037127 190.383586,188.787401 C190.064605,188.537676 189.927813,188.120171 190.037173,187.730107 C190.146533,187.340043 190.480433,187.0545 190.882747,187.006994 C191.428381,186.942565 191.923796,187.330418 191.992193,187.875564 Z" id="Path" fill="#193441" fill-rule="nonzero"></path>
                <path d="M224.86865,183.628598 C225.750043,176.112584 222.139327,168.792878 215.731759,165.106138 C209.212962,161.658026 201.337943,162.494853 195.6368,167.241499 C192.536922,169.888707 190.111267,173.687571 186.251919,174.847224 C185.159212,175.175126 183.92701,175.29509 183.066794,176.03087 C181.679599,177.190523 181.702848,179.549818 182.803305,180.997385 C184.011496,182.387084 185.75342,183.154159 187.561617,183.092758 C192.211434,183.164736 195.644549,179.957696 199.68989,182.292997 C204.510201,185.068167 209.377009,185.09216 211.314433,180.989387 C210.151979,188.347186 212.453638,188.986995 214.282566,187.387473 C218.544899,183.700576 219.319868,192.034084 217.622685,199 C222.295751,193.289708 224.419168,186.851634 224.86865,183.628598 Z" id="Path" fill="#C74106" fill-rule="nonzero"></path>
                <path d="M379.603228,103.4222 C380.760504,107.011469 383.313075,110.007836 386.706896,111.760929 C388.719942,112.876895 391.071,113.255577 393.341753,112.829597 C395.639057,112.353248 397.437327,110.597056 397.934505,108.344312 C398.506613,104.84969 395.153427,101.869901 394.75613,98.3518777 C394.414455,95.4422931 396.146669,92.5171075 395.550724,89.6543258 C394.75613,86.1051005 390.266676,84.1939793 386.762517,85.325051 C380.111768,87.4701872 377.767716,97.6108307 379.603228,103.4222 Z" id="Path" fill="#193441" fill-rule="nonzero"></path>
                <path d="M436,217.856487 L436.113522,224.506857 C436.132703,225.719882 436.617077,226.87518 437.459809,227.717938 C438.302541,228.560695 439.434401,229.02168 440.605745,228.999216 L455.201414,228.730514 C455.802006,228.718977 456.359007,228.403367 456.692213,227.885792 C457.025419,227.368217 457.09252,226.714399 456.871807,226.135862 C456.608865,225.438102 455.972703,224.967078 455.250066,224.935101 L453.920238,224.935101 C449.344857,224.932758 445.389104,221.629805 444.416836,217 L436,217.856487 Z" id="Path" fill="#FFC0A9" fill-rule="nonzero"></path>
                <rect id="Rectangle" fill="#BDD6F5" x="427" y="228" width="40" height="67"></rect>
                <path d="M387.838507,106.538706 L388.455175,109.71946 C388.848301,111.794903 389.426427,114.760956 390.197261,118.291594 C390.968096,121.822231 391.869973,125.941308 392.964559,130.267134 C393.51956,132.430047 394.120811,134.640672 394.77602,136.835392 C395.43123,139.030113 396.171231,141.20893 396.980608,143.196901 C397.381442,144.206791 397.81311,145.168969 398.244777,146.027773 C398.594372,146.732219 399.00456,147.402868 399.470405,148.031648 C399.624572,148.238397 399.72478,148.325868 399.63228,148.294061 C399.260673,148.140508 398.85962,148.077905 398.460611,148.111167 L399.848114,148.20659 C400.295198,148.20659 400.74999,148.20659 401.2202,148.20659 C403.108745,148.150927 405.174582,147.928274 407.209586,147.65791 C409.24459,147.387546 411.295011,147.101278 413.237515,146.950192 C415.058016,146.756211 416.890205,146.705702 418.71815,146.799106 C419.509291,146.887875 420.304249,146.935646 421.10003,146.94224 C421.811235,146.902064 422.524038,146.902064 423.235242,146.94224 C424.263396,147.02909 425.239291,147.446242 426.025665,148.135023 C426.31478,148.403302 426.557241,148.72066 426.742541,149.073345 C427.408113,150.612657 426.738777,152.417167 425.247121,153.104952 L425.108371,153.168567 L424.41462,153.438931 C424.149479,153.534279 423.870615,153.582673 423.589827,153.582065 C422.96455,153.599017 422.345706,153.448323 421.793781,153.144711 C421.380743,152.910911 420.950279,152.711481 420.506487,152.54832 C419.94805,152.420016 419.369088,152.420016 418.810651,152.54832 C418.140961,152.634613 417.476862,152.76207 416.821897,152.93001 C416.120437,153.120856 415.372727,153.359412 414.586476,153.637728 C413.044806,154.242072 411.295011,155.013405 409.367924,155.864256 C407.227751,156.855093 405.016587,157.673922 402.754161,158.313437 C402.114368,158.488379 401.45145,158.615609 400.765407,158.734887 C400.395406,158.798502 399.994572,158.846214 399.593738,158.893925 L398.707278,158.9973 C397.142794,159.037407 395.598069,158.63008 394.244144,157.82042 C393.306329,157.269868 392.445393,156.590391 391.684973,155.800641 C390.556706,154.616285 389.558836,153.306872 388.70955,151.896265 C387.938715,150.631915 387.268089,149.391421 386.65913,148.158879 C385.464336,145.693794 384.485375,143.252565 383.57579,140.859047 C382.666205,138.465529 381.903079,136.087915 381.193911,133.821628 C379.775575,129.257245 378.657864,124.97913 377.763696,121.305359 C376.869527,117.631587 376.222026,114.554207 375.774942,112.391294 L375.119732,108.940175 C374.677727,106.603506 375.477716,104.201077 377.218352,102.637861 C378.958989,101.074645 381.375827,100.58813 383.558469,101.361583 C385.741111,102.135036 387.35796,104.050951 387.799965,106.38762 L387.838507,106.538706 Z" id="Path" fill="#FFC0A9" fill-rule="nonzero"></path>
                <path d="M432.389082,176.275693 C432.357427,180.697891 432.447118,185.117466 432.658156,189.534418 C432.871832,193.964485 434.612898,218.318048 434.612898,218.318048 C434.612898,218.318048 441.941201,219.85244 445.692405,218.318048 C447.06943,212.550306 447.694631,181.044113 447.868737,176.614047 C447.955791,174.410816 447.979532,172.199717 447.99536,169.996487 C448.011188,167.793257 447.99536,165.574289 447.805426,163.36319 C447.516353,159.340202 444.2802,156.149453 440.231791,155.895813 L439.891492,155.895813 L380.972253,152.032292 C372.173943,151.478209 364.589748,158.120689 364.032478,166.868687 C363.475208,175.616685 370.15589,183.157512 378.9542,183.711595 C380.402145,183.790616 381.854305,183.684839 383.275208,183.396848 L432.44448,172.325616 C432.428652,173.639686 432.396996,174.961624 432.389082,176.275693 Z" id="Path" fill="#C74106" fill-rule="nonzero"></path>
                <path d="M418.887754,293.365715 C418.632591,292.716375 418.015249,292.278036 417.31399,292.248278 L416.023504,292.248278 C411.996664,292.242089 408.416852,289.700572 407.108132,285.918738 C406.982231,284.098019 406.848461,282.277299 406.675347,280.448766 C406.557315,279.010944 406.399939,277.573123 406.250431,276.135302 C406.100923,274.69748 405.959285,273.462829 405.770433,272.032822 C405.471418,269.633848 405.164534,267.344274 404.826175,265 L392,265 L392.369834,266.062738 L394.809168,274.189554 C395.210478,275.564862 395.659001,276.885469 396.083917,278.252962 C396.508833,279.620456 396.760635,281.02702 397.217027,282.386699 C397.697025,283.863591 398.161285,285.340484 398.625546,286.825191 L398.719971,291.826309 C398.738567,292.954467 399.208866,294.028814 400.026904,294.811851 C400.844941,295.594887 401.943344,296.022125 403.079297,295.999117 L417.243171,295.749061 C417.822086,295.742099 418.361352,295.455716 418.688617,294.981441 C419.015882,294.507165 419.090176,293.904372 418.887754,293.365715 Z" id="Path" fill="#FFC0A9" fill-rule="nonzero"></path>
                <path d="M405,265.593119 C405,265.593119 396.966239,268.968382 391.714598,269 C391.714598,269 383.43076,241.950474 381.97718,229.81692 C380.523601,217.683365 375.365739,204.01632 368.926227,186.736874 C364.50297,174.87998 358.766802,162.975659 364.237262,153.158151 C366.738043,148.692055 386.033135,136.645451 387.963426,147.245514 C389.893717,157.845577 388.487027,162.121963 390.839325,175.045977 C392.503907,184.199498 396.309784,203.644804 399.263832,219.730656 C402.217881,235.816508 405,265.593119 405,265.593119 Z" id="Path" fill="#E25A1E" fill-rule="nonzero"></path>
                <path d="M385.632899,103.18936 C384.134893,100.604584 381.099252,99.2491525 375.392563,100.431215 L367.680607,100.289367 C362.005621,101.605396 359.833909,102.086102 356.124561,105.017616 C352.161583,108.169781 352.248768,113.142322 354.816778,122.945557 C357.384788,132.748792 355.522189,129.076519 360.071688,142.946048 C364.621187,156.815577 358.018865,167.320169 367.577569,190 C380.417619,190 387.852167,177.470142 392.488852,163.206592 C396.03968,152.292219 402,153.694933 402,153.694933 L390.412251,147.855546 C389.089003,140.43502 388.732043,132.875998 389.350173,125.364844 C389.561894,123.830317 389.409899,122.267827 388.906319,120.802085 C388.906319,120.802085 381.725402,108.792334 385.632899,103.18936 Z" id="Path" fill="#4B78FF" fill-rule="nonzero"></path>
                <path d="M401.40167,80.5845303 C403.41297,72.9457477 400.352977,67.3226439 392.229515,64.0271692 C387.348327,62.1250598 381.855203,62.896952 377.657371,66.0748428 L377.046938,66.5307701 C373.564336,69.1063596 370.786081,74.4015157 370.394778,78.7848171 L372.406078,89.7990616 L368,97.9577613 C368,97.9577613 374.785203,107.292274 379.386933,102.756996 L381.625189,96.1260533 C381.625189,96.1260533 385.452138,99.9014515 389.560825,99.4455242 C391.705169,99.1575701 397.292983,96.1740456 401.40167,80.5845303 Z" id="Path" fill="#FFC0A9" fill-rule="nonzero"></path>
                <path d="M397.021658,87.5189361 C396.860304,88.5974718 397.617966,89.6849211 398.712367,89.9434131 C399.806767,90.2019052 400.816983,89.5512183 400.978337,88.4726826 C401.13969,87.3941468 400.382029,86.3156111 399.294644,86.057119 C398.207259,85.798627 397.183012,86.4404003 397.021658,87.5189361 Z" id="Path" fill="#FFAF8A" fill-rule="nonzero"></path>
                <path d="M388.667687,90.0073934 C388.464005,89.9751286 388.257889,90.0499237 388.127939,90.2032567 C387.997988,90.3565897 387.964237,90.5648219 388.039556,90.7485463 C388.638533,91.9218487 389.797673,92.7429884 391.14644,92.9494769 C392.495208,93.1559654 393.864713,92.7219465 394.817174,91.7861603 C394.97893,91.6388581 395.039627,91.4168012 394.97392,91.2127062 C394.908214,91.0086112 394.727404,90.8575754 394.506985,90.8226616 L388.667687,90.0073934 Z" id="Path" fill="#FFFFFF" fill-rule="nonzero"></path>
                <path d="M385.048728,85.2952926 C384.808463,86.3282798 385.479793,87.4750708 386.553921,87.8690066 C387.62805,88.2629424 388.673911,87.7376946 388.942444,86.7047074 C389.210976,85.6717202 388.511379,84.5249292 387.437251,84.1309934 C386.363122,83.7370576 385.324327,84.2623054 385.048728,85.2952926 Z" id="Path" fill="#FFAF8A" fill-rule="nonzero"></path>
                <path d="M387.075004,81.6191641 C386.865753,82.1300513 387.109315,82.7140775 387.619312,82.9243365 C388.129309,83.1345956 388.713049,82.891645 388.923845,82.3813944 C389.13464,81.8711439 388.892845,81.2863821 388.383486,81.0745782 C387.871952,80.8662433 387.288246,81.1091797 387.075004,81.6191641 Z" id="Path" fill="#193441" fill-rule="nonzero"></path>
                <path d="M398.075004,82.6191641 C397.865753,83.1300513 398.109315,83.7140775 398.619312,83.9243365 C399.129309,84.1345956 399.713049,83.891645 399.923845,83.3813944 C400.13464,82.8711439 399.892845,82.2863821 399.383486,82.0745782 C398.871952,81.8662433 398.288246,82.1091797 398.075004,82.6191641 Z" id="Path" fill="#193441" fill-rule="nonzero"></path>
                <path d="M434.289186,156 L434.146816,156 L400.840193,153.62546 C399.748128,153.548064 398.926576,152.613915 399.005205,151.538978 C399.083833,150.464042 400.032868,149.655375 401.124933,149.73277 L433.205594,152.021672 L446.287796,130.012406 C446.633642,129.389972 447.296161,129.002065 448.016907,129.000008 C448.737652,128.997951 449.402446,129.382069 449.751954,130.002518 C450.101461,130.622968 450.080314,131.38146 449.696762,131.982107 L435.997623,155.026828 C435.645119,155.627811 434.994197,155.998594 434.289186,156 Z" id="Path" fill="#193441" fill-rule="nonzero"></path>
                <path d="M369.238709,112.299295 L369.982432,115.797958 C370.454256,118.048235 371.173987,121.268596 372.101641,125.101223 C373.029295,128.933849 374.132883,133.394645 375.508369,138.038326 C376.20411,140.360167 376.939835,142.729716 377.795516,145.01975 C378.570379,147.211771 379.519698,149.338906 380.634456,151.380957 C380.989581,152.019474 381.407467,152.621428 381.88199,153.177998 C381.953964,153.273416 381.88199,153.177998 381.314202,153.066676 C381.1704,153.057617 381.026166,153.057617 380.882364,153.066676 L380.826384,153.177998 C380.826384,153.177998 380.394546,153.289319 380.610465,153.289319 L380.738417,153.185949 L380.986325,153.13824 L381.610092,153.13824 C381.785445,153.158351 381.962542,153.158351 382.137895,153.13824 C382.345817,153.13824 382.593725,153.066676 382.825638,153.042822 C383.297462,152.955355 383.809271,152.859937 384.337074,152.732713 C385.400677,152.470313 386.512262,152.120447 387.655835,151.754678 C389.942982,151.015187 392.262116,150.124618 394.533269,149.329468 C396.804421,148.534317 399.051582,147.826633 401.178788,147.270027 C403.153916,146.735529 405.171052,146.368446 407.208538,146.172719 C409.039854,145.989834 410.71123,145.457083 412.142696,145.536598 C413.26573,145.550411 414.366677,145.848712 415.341502,146.403313 C415.702233,146.618747 416.02841,146.886781 416.309141,147.198463 C417.340647,148.397987 417.201135,150.201329 415.997258,151.229878 C415.784505,151.407803 415.547597,151.555029 415.29352,151.667211 L414.717735,151.921659 C414.427226,152.030637 414.123268,152.100176 413.814072,152.128398 C413.076646,152.22378 412.328543,152.199612 411.598899,152.056835 C411.345857,152.01949 411.094944,151.969062 410.84718,151.905756 L409.999496,151.738775 C409.344673,151.610811 408.67106,151.610811 408.016236,151.738775 C406.395752,152.108109 404.821402,152.654796 403.321988,153.368834 C401.444867,154.256775 399.628314,155.266131 397.884018,156.390407 C395.956737,157.575181 393.88551,158.918986 391.58237,160.294597 C390.348838,161.029439 389.072387,161.690585 387.759797,162.274523 C387.03031,162.604866 386.282745,162.894226 385.520632,163.141237 C385.104788,163.268461 384.720931,163.403637 384.273098,163.507007 C383.799794,163.638295 383.319146,163.741843 382.833635,163.817115 L382.033934,163.936388 L381.498134,164 L381.242229,164 L381.122274,164 L380.626459,164 C380.146498,163.991963 379.667895,163.946768 379.194993,163.864824 C377.685116,163.568478 376.264622,162.928947 375.044542,161.99622 C373.492825,160.779931 372.143456,159.328222 371.046035,157.694454 C369.338036,155.162536 367.868366,152.479482 366.655673,149.679334 C365.498772,147.060637 364.47782,144.513504 363.592817,142.037935 C361.817479,137.076194 360.433996,132.440465 359.338404,128.448807 C358.242813,124.45715 357.467103,121.109566 356.9393,118.763871 C356.667401,117.587047 356.475473,116.656721 356.339524,116.012649 L356.139598,115.010759 C355.653898,112.681303 356.454956,110.271153 358.241019,108.68819 C360.027083,107.105227 362.526808,106.589941 364.798572,107.336434 C367.070336,108.082927 368.769003,109.97779 369.254703,112.307246 L369.238709,112.299295 Z" id="Path" fill="#FFC0A9" fill-rule="nonzero"></path>
                <path d="M382.661824,75.0048469 C379.729104,75.7862848 376.820422,77.6929932 376.099261,80.5764989 C375.193804,84.1632987 377.797995,88.5315363 375.370087,91.3681557 C374.136101,92.8216302 371.89249,93.313936 370.922929,94.9471411 C369.37644,97.564958 372.132877,100.886069 371.331587,103.808646 C370.708801,105.618706 369.022777,106.879713 367.068726,106.996913 C365.133437,107.052633 363.255503,106.35214 361.85233,105.051133 C358.446848,102.089483 357.565429,97.1507959 358.182423,92.7434864 C358.799416,88.3361768 360.650395,84.1945562 361.892394,79.9044623 C363.134393,75.6143685 363.799464,71.0976576 366.171281,67.307684 C368.831563,63.0488477 373.382889,60.2044138 378.070434,58.2430048 C381.345495,56.7492453 384.919777,55.9832389 388.535278,56.0002782 C394.536938,56.2503383 401.8447,61.3531275 399.57705,68.0891219 C397.477671,74.3484391 387.798091,73.5670013 382.661824,75.0048469 Z" id="Path" fill="#193441" fill-rule="nonzero"></path>
                <path d="M396.794496,67.6929931 C397.706274,71.9963703 397.891858,76.3812509 401.216218,80 C402.426544,77.6119516 404.556717,76.1530415 404.911745,73.4797314 C405.533046,68.7932884 403.14467,56.5677848 389,59.4285527" id="Path" fill="#193441" fill-rule="nonzero"></path>
                <path d="M150.899756,196 L139.44898,184.142335 C137.433859,181.794588 137.531837,178.228149 139.672592,176.002832 C141.813347,173.777514 145.257005,173.662416 147.531881,175.740149 L150.868787,179.195629 L154.205693,175.740149 C156.446276,173.41995 160.078979,173.41995 162.319563,175.74015 C164.560146,178.060349 164.560146,181.822136 162.319563,184.142335 L150.899756,196 Z" id="Path" fill="#FFB6A1" fill-rule="nonzero"></path>
                <path d="M161.498811,166 L154.192134,158.517659 C153.195608,157.58519 152.781009,156.171561 153.112134,154.835261 C153.443259,153.49896 154.466848,152.454927 155.778509,152.115631 C157.090169,151.776336 158.478923,152.196353 159.396112,153.209745 L161.539403,155.392438 L163.674577,153.209745 C164.601543,152.24117 165.968504,151.855355 167.252806,152.199815 C168.537107,152.544274 169.54013,153.565736 169.878371,154.873648 C170.216612,156.181561 169.837762,157.573651 168.886673,158.517659 L161.498811,166 Z" id="Path" fill="#FFB6A1" fill-rule="nonzero"></path>
                <path d="M422.168551,31.9988976 L424.695092,37.122652 L430.347827,37.9219896 C431.075428,38.0187019 431.682521,38.5251607 431.907962,39.2235109 C432.133403,39.921861 431.936992,40.687576 431.403217,41.1912806 L427.309582,45.1879689 L428.277023,50.7833325 C428.399816,51.494552 428.107718,52.2137386 427.52373,52.6380418 C426.939742,53.062345 426.165335,53.1180412 425.526612,52.7816767 L420.465535,50.1198823 L415.404458,52.7816767 C414.765735,53.1180412 413.991327,53.062345 413.407339,52.6380418 C412.823352,52.2137386 412.531253,51.494552 412.654046,50.7833325 L413.661464,45.1879689 L409.567829,41.1912806 C409.053743,40.6851995 408.870151,39.9319824 409.093724,39.2461912 C409.317297,38.5604 409.909579,38.0599972 410.623219,37.9539631 L416.275954,37.1546255 L418.802495,32.0308711 C419.125881,31.4035766 419.770025,31.006791 420.475879,31.0000863 C421.181732,30.9933815 421.833302,31.3778594 422.168551,31.9988976 Z" id="Path" fill="#FFC366" fill-rule="nonzero"></path>
                <path d="M435.453588,13.6114287 L436.888834,16.6323106 L440.085518,17.1173536 C440.48904,17.1786258 440.823939,17.474263 440.948721,17.8793607 C441.073503,18.2844584 440.966401,18.7283472 440.672663,19.0234875 L438.364854,21.3721168 L438.911226,24.6908321 C438.978758,25.1107467 438.812956,25.5344082 438.483036,25.7849511 C438.153116,26.035494 437.715801,26.0698421 437.353658,25.8736562 L434.499476,24.2993938 L431.645295,25.8736562 C431.283151,26.0698421 430.845837,26.035494 430.515917,25.7849511 C430.185997,25.5344082 430.020194,25.1107467 430.087727,24.6908321 L430.634099,21.3721168 L428.326289,19.0234875 C428.032195,18.7271817 427.925939,18.2817212 428.052608,17.8761287 C428.179278,17.4705362 428.516659,17.1759428 428.92159,17.1173536 L432.110119,16.6323106 L433.537209,13.6114287 C433.721322,13.2361153 434.091346,13 434.495399,13 C434.899452,13 435.269476,13.2361153 435.453588,13.6114287 Z" id="Path" fill="#FFC366" fill-rule="nonzero"></path>
                <path d="M406.727286,0.46127113 L407.822913,2.7937255 L410.267579,3.1669182 C410.588977,3.20289144 410.860114,3.43250193 410.959914,3.75321875 C411.059715,4.07393558 410.96955,4.42588798 410.72968,4.65191415 L408.955807,6.45567886 L409.373189,8.99805413 C409.426903,9.3198437 409.30022,9.6454474 409.046714,9.83716942 C408.793209,10.0288914 408.457155,10.0532471 408.180669,9.89993648 L405.989414,8.70260991 L403.798159,9.86106224 C403.521673,10.0143728 403.18562,9.9900172 402.932114,9.79829518 C402.678608,9.60657316 402.551926,9.28096946 402.605639,8.95917989 L403.023021,6.41680462 L401.249148,4.65191415 C401.023621,4.4237896 400.942884,4.0812935 401.041273,3.77008027 C401.139661,3.45886704 401.399874,3.23366352 401.71125,3.19024274 L404.155915,2.81705004 L405.251543,0.484595674 C405.388239,0.192323687 405.670832,0.00502628053 405.982546,9.9545602e-05 C406.294261,-0.00482718933 406.582163,0.173453372 406.727286,0.46127113 Z" id="Path" fill="#FFC366" fill-rule="nonzero"></path>
            </g>
        </g>
    </g>
</svg>