<?xml version="1.0" encoding="UTF-8"?>
<svg width="355px" height="351px" viewBox="0 0 355 351" version="1.1" xmlns="http://www.w3.org/2000/svg" xmlns:xlink="http://www.w3.org/1999/xlink">
    <!-- Generator: Sketch 52.3 (67297) - http://www.bohemiancoding.com/sketch -->
    <title>Group 12</title>
    <desc>Created with Sketch.</desc>
    <defs>
        <linearGradient x1="50%" y1="0%" x2="50%" y2="100%" id="linearGradient-1">
            <stop stop-color="#0ACEFE" offset="0%"></stop>
            <stop stop-color="#495AFF" offset="100%"></stop>
        </linearGradient>
        <path d="M268.939108,108.441152 L268.939108,109.960494 C268.939108,111.169547 268.049314,112.175309 266.891509,112.346502 L266.516295,113.726749 C266.312607,114.47572 265.637221,115 264.854631,115 L261.134648,115 C260.352058,115 259.676672,114.47572 259.472985,113.726749 L259.108491,112.346502 C257.939966,112.164609 257.050172,111.169547 257.050172,109.949794 L257.050172,108.430453 C257.050172,107.617284 257.704117,106.964609 258.518868,106.964609 L267.470412,106.964609 C268.285163,106.975309 268.939108,107.627984 268.939108,108.441152 Z M275.832333,87.9621399 C275.832333,91.418107 274.46012,94.5530864 272.230274,96.8534979 C270.536449,98.6082305 269.442967,100.844444 269.078473,103.230453 C268.917667,104.257613 268.027873,105.017284 266.977273,105.017284 L259.012007,105.017284 C257.972127,105.017284 257.071612,104.268313 256.921527,103.241152 C256.546312,100.855144 255.44211,98.5868313 253.748285,96.8427984 C251.561321,94.5744856 250.199828,91.4930041 250.167667,88.1012346 C250.092624,80.9753086 255.774443,75.2082305 262.914237,75.1547325 C270.04331,75.1012346 275.832333,80.8576132 275.832333,87.9621399 Z M264.447256,80.2049383 C264.447256,79.4131687 263.804031,78.7604938 263,78.7604938 C257.897084,78.7604938 253.737564,82.9012346 253.737564,88.0049383 C253.737564,88.7967078 254.380789,89.4493827 255.18482,89.4493827 C255.97813,89.4493827 256.632075,88.8074074 256.632075,88.0049383 C256.632075,84.4954733 259.494425,81.6493827 263,81.6493827 C263.804031,81.6493827 264.447256,81.0074074 264.447256,80.2049383 Z M263,70.9497942 C263.79331,70.9497942 264.447256,70.3078189 264.447256,69.5053498 L264.447256,64.4444444 C264.447256,63.6526749 263.804031,63 263,63 C262.195969,63 261.552744,63.6419753 261.552744,64.4444444 L261.552744,69.5053498 C261.552744,70.3078189 262.20669,70.9497942 263,70.9497942 Z M245.965266,87.9514403 C245.965266,87.1596708 245.322041,86.5069959 244.51801,86.5069959 L239.447256,86.5069959 C238.653945,86.5069959 238,87.1489712 238,87.9514403 C238,88.7432099 238.643225,89.3958848 239.447256,89.3958848 L244.51801,89.3958848 C245.322041,89.3958848 245.965266,88.7539095 245.965266,87.9514403 Z M286.552744,86.5069959 L281.48199,86.5069959 C280.688679,86.5069959 280.034734,87.1489712 280.034734,87.9514403 C280.034734,88.7432099 280.677959,89.3958848 281.48199,89.3958848 L286.552744,89.3958848 C287.346055,89.3958848 288,88.7539095 288,87.9514403 C288,87.1596708 287.356775,86.5069959 286.552744,86.5069959 Z M248.913379,99.9777778 L245.322041,103.56214 C244.753859,104.129218 244.753859,105.038683 245.322041,105.605761 C245.600772,105.883951 245.975986,106.023045 246.34048,106.023045 C246.704974,106.023045 247.080189,105.883951 247.358919,105.605761 L250.950257,102.021399 C251.518439,101.454321 251.518439,100.544856 250.950257,99.9777778 C250.392796,99.4106996 249.47084,99.4106996 248.913379,99.9777778 Z M276.068182,76.3530864 C276.432676,76.3530864 276.80789,76.2139918 277.086621,75.9358025 L280.677959,72.3514403 C281.246141,71.7843621 281.246141,70.8748971 280.677959,70.3078189 C280.109777,69.7407407 279.198542,69.7407407 278.63036,70.3078189 L275.039022,73.8921811 C274.47084,74.4592593 274.47084,75.3687243 275.039022,75.9358025 C275.328473,76.2139918 275.692967,76.3530864 276.068182,76.3530864 Z M248.913379,75.9251029 C249.19211,76.2032922 249.567324,76.3423868 249.931818,76.3423868 C250.296312,76.3423868 250.671527,76.2032922 250.950257,75.9251029 C251.518439,75.3580247 251.518439,74.4485597 250.950257,73.8814815 L247.358919,70.2971193 C246.790738,69.7300412 245.879503,69.7300412 245.311321,70.2971193 C244.743139,70.8641975 244.743139,71.7736626 245.311321,72.3407407 L248.913379,75.9251029 Z M277.086621,99.9777778 C276.518439,99.4106996 275.607204,99.4106996 275.039022,99.9777778 C274.47084,100.544856 274.47084,101.454321 275.039022,102.021399 L278.63036,105.605761 C278.909091,105.883951 279.284305,106.023045 279.648799,106.023045 C280.013293,106.023045 280.388508,105.883951 280.667238,105.605761 C281.23542,105.038683 281.23542,104.129218 280.667238,103.56214 L277.086621,99.9777778 Z" id="path-2"></path>
        <filter x="-37.0%" y="-22.1%" width="174.0%" height="171.2%" filterUnits="objectBoundingBox" id="filter-3">
            <feOffset dx="0" dy="7" in="SourceAlpha" result="shadowOffsetOuter1"></feOffset>
            <feGaussianBlur stdDeviation="5" in="shadowOffsetOuter1" result="shadowBlurOuter1"></feGaussianBlur>
            <feColorMatrix values="0 0 0 0 0   0 0 0 0 0   0 0 0 0 0  0 0 0 0.297011582 0" type="matrix" in="shadowBlurOuter1"></feColorMatrix>
        </filter>
    </defs>
    <g id="Page-1" stroke="none" stroke-width="1" fill="none" fill-rule="evenodd">
        <g id="StaffCloud.io-Website-Design---V2" transform="translate(-483.000000, -1568.000000)">
            <g id="Support" transform="translate(481.000000, 1137.000000)">
                <g id="Group-12" transform="translate(2.000000, 431.000000)">
                    <path d="M173.383846,1.78797021 C170.360735,1.55178185 167.225686,1.44626815 164.097938,1.48198048 L164.089827,0.698744178 C167.24272,0.664655137 170.398047,0.769357192 173.444682,1.00716884 L173.383846,1.78797021 Z M145.58858,3.12068938 L145.462854,2.34719281 C148.580057,1.8415387 151.702938,1.44789144 154.743895,1.17436747 L154.814464,1.95435719 C151.791352,2.22625788 148.687127,2.61828185 145.58858,3.12068938 Z M191.798301,5.11084007 L191.636885,5.06457637 C188.715977,4.21235034 185.675021,3.50378527 182.596752,2.95592568 L182.734645,2.18567568 C185.83887,2.73678185 188.908217,3.45265171 191.855892,4.31137089 L192.019742,4.36006952 L191.798301,5.11084007 Z M127.46289,7.26575445 L127.23496,6.51579555 C129.407188,5.8575524 131.675941,5.24313801 134.171001,4.63765171 C134.873447,4.46720651 135.578326,4.30163116 136.284016,4.14011404 L136.45841,4.90387089 C135.755154,5.06457637 135.054331,5.22934007 134.35513,5.39897363 C131.874669,6.00121336 129.619706,6.61156952 127.46289,7.26575445 Z M208.454209,13.0389771 C205.816389,11.2371277 203.194791,9.72260034 200.441788,8.40936062 L200.777599,7.70241884 C203.567914,9.03270308 206.22358,10.5667099 208.89628,12.3912853 L208.454209,13.0389771 Z M110.459815,14.5835353 L110.052623,13.9139291 C112.593919,12.3693709 115.407757,10.9416894 118.416268,9.67065514 L118.720444,10.3930182 C115.747623,11.6486312 112.967854,13.0584565 110.459815,14.5835353 Z M222.560711,25.0983812 C219.883955,22.4637853 217.789597,20.5028538 215.76743,18.7415866 L216.28088,18.1507099 C218.316025,19.9225284 220.42174,21.8931997 223.109851,24.5399702 L222.560711,25.0983812 Z M95.938822,26.169751 L95.4367276,25.5683229 C96.6972361,24.5139976 97.9561223,23.4020455 99.1736404,22.3274291 C100.268677,21.3599497 101.364524,20.3924702 102.478217,19.4493401 L102.983556,20.0475216 C101.873919,20.9865935 100.782938,21.9508264 99.6911465,22.9142476 C98.4703838,23.9929223 97.2074419,25.1073092 95.938822,26.169751 Z M79.5481562,35.0864702 L79.3234709,34.3356997 C82.7245726,33.3170866 85.4451295,32.2221791 87.8858438,30.8910832 L88.2605896,31.5793572 C85.771207,32.9364257 83.002793,34.0516243 79.5481562,35.0864702 Z M235.961522,38.1114668 C233.925565,36.2917613 231.832018,34.3089154 229.173919,31.6832476 L229.72387,31.1256483 C232.373047,33.742388 234.457672,35.7163058 236.483084,37.5270832 L235.961522,38.1114668 Z M61.5311586,39.8686757 L61.2813281,39.1260216 L61.6552627,39.0010284 C64.5315581,38.0481586 67.5068123,37.3144325 70.3084831,36.6432031 L70.490178,37.404525 C67.7055412,38.0716962 64.748132,38.8021757 61.9018487,39.7444942 L61.5311586,39.8686757 Z M45.2548632,48.5613812 L44.7819697,47.9372271 C47.2891973,46.0363572 49.9448632,44.3302818 52.6759649,42.866888 L53.0458438,43.5575969 C50.3504322,45.0015113 47.7296453,46.6856723 45.2548632,48.5613812 Z M250.98542,49.2423503 C248.178883,47.5484497 245.63272,45.8496791 243.200117,44.0470182 L243.666522,43.4179942 C246.078846,45.2052339 248.60473,46.8902065 251.389367,48.5711209 L250.98542,49.2423503 Z M267.587793,57.8295421 C264.424355,56.3799462 261.66973,55.0529086 259.16818,53.7729462 L259.525081,53.0749325 C262.016086,54.350025 264.760166,55.6721928 267.91387,57.1177305 L267.587793,57.8295421 Z M32.3780472,61.8114668 L31.7413039,61.3545113 C33.5590642,58.8181243 35.5828535,56.3953675 37.7583257,54.1560421 L38.3196332,54.7022784 C36.1717397,56.9140079 34.1722845,59.3051106 32.3780472,61.8114668 Z M284.634669,65.4208469 C281.979004,64.2155558 279.266558,63.0216277 276.641715,61.8674702 L276.112854,61.6353401 L276.428386,60.9186586 L276.957248,61.1507887 C279.582902,62.3057579 282.299403,63.499686 284.959125,64.707412 L284.634669,65.4208469 Z M301.228931,73.8440866 C298.701425,72.3604017 296.024669,70.9132408 293.046171,69.4181928 L293.398205,68.7177442 C296.390493,70.2200969 299.081849,71.676186 301.624766,73.168799 L301.228931,73.8440866 Z M24.0208923,78.2854017 L23.2762676,78.0443435 C23.4182167,77.6052442 23.5658438,77.1685798 23.7183378,76.7327271 C24.5927446,74.2369223 25.6512797,71.7597853 26.8655533,69.3719291 L27.563132,69.7274291 C26.3650811,72.0844428 25.3195242,74.5283024 24.4572845,76.9916414 C24.3064128,77.4218127 24.1620303,77.8527955 24.0208923,78.2854017 Z M316.239851,84.7395935 C313.916752,82.6788298 311.483338,80.7203332 309.006933,78.9209188 L309.466849,78.287025 C311.964343,80.1018606 314.418035,82.0757784 316.759791,84.1535866 L316.239851,84.7395935 Z M21.0091368,96.5238503 L20.2263886,96.5100524 C20.2823571,93.3681791 20.5654443,90.2238709 21.0675387,87.1647853 L21.8397421,87.2922134 C21.3441368,90.3139634 21.0642942,93.4201243 21.0091368,96.5238503 Z M328.919561,98.2972921 C327.006086,95.8420695 324.97743,93.4631414 322.888749,91.2270627 L323.460602,90.6921894 C325.565505,92.9453127 327.609573,95.3420969 329.537648,97.8159873 L328.919561,98.2972921 Z M339.071764,113.862998 C337.590626,111.130193 335.991062,108.440405 334.316873,105.869117 L334.973084,105.441381 C336.658628,108.030525 338.269548,110.738169 339.76042,113.490453 L339.071764,113.862998 Z M22.5000085,115.089391 C21.6961707,112.074946 21.0967397,108.97609 20.716316,105.879669 L21.4933862,105.783895 C21.8697542,108.844604 22.461885,111.907748 23.2559891,114.888104 L22.5000085,115.089391 Z M346.647793,130.845022 C345.600614,127.927162 344.434197,125.022289 343.1818,122.209943 L343.897224,121.890967 C345.157732,124.720357 346.330638,127.643898 347.384306,130.580426 L346.647793,130.845022 Z M29.8018729,132.319778 C29.3987373,131.646114 29.0053354,130.966768 28.6224782,130.280929 C27.492563,128.250196 26.4551174,126.124501 25.5401538,123.963905 L26.2612554,123.657915 C27.1648632,125.79335 28.1901416,127.893073 29.3062676,129.898645 C29.685069,130.577991 30.0744153,131.250032 30.4734952,131.917203 L29.8018729,132.319778 Z M40.1252264,147.881426 C38.6878898,145.619374 37.1353717,143.366251 35.6347663,141.186987 L34.921776,140.15133 L35.5666308,139.707361 L36.2796211,140.743018 C37.7842821,142.927963 39.3408559,145.186768 40.7854927,147.460994 L40.1252264,147.881426 Z M351.648459,148.758813 C351.031994,145.727323 350.300347,142.682847 349.470553,139.711419 L350.224912,139.501203 C351.05795,142.490487 351.796897,145.55282 352.415795,148.602977 L351.648459,148.758813 Z M47.7393789,164.702744 C46.9525751,161.705343 45.9053959,158.773686 44.6254201,155.988124 L45.3367881,155.661032 C46.6354201,158.487176 47.698822,161.462662 48.4961707,164.504703 L47.7393789,164.702744 Z M354.046183,167.200984 C353.868544,164.1281 353.577345,161.011388 353.177454,157.937693 L353.953713,157.836237 C354.355226,160.9286 354.649669,164.064792 354.82812,167.155532 L354.046183,167.200984 Z M50.0924903,183.146539 L49.3129867,183.079984 C49.4460133,181.551659 49.5133378,179.994926 49.5133378,178.451991 C49.5125266,176.913926 49.4460133,175.357193 49.3137978,173.823998 L50.0941126,173.756631 C50.2271392,175.311741 50.2952748,176.892011 50.296086,178.451991 C50.296086,180.018463 50.2271392,181.597922 50.0924903,183.146539 Z M354.278979,185.865546 L353.501909,185.763278 C353.892067,182.78698 354.132163,179.668645 354.215711,176.495117 L354.99927,176.51622 C354.9141,179.717343 354.672381,182.862463 354.278979,185.865546 Z M45.9394637,201.392292 L45.189161,201.167467 L45.3911344,200.496237 C46.2047058,197.78697 47.0474782,194.986799 47.7353232,192.206919 L48.4953596,192.396032 C47.8018366,195.193768 46.9574419,198.003679 46.1406259,200.722686 L45.9394637,201.392292 Z M349.423507,203.940042 L348.707272,203.622689 C349.905323,200.92722 350.925735,197.983388 351.74174,194.874792 L352.499343,195.073645 C351.671982,198.222823 350.63697,201.206426 349.423507,203.940042 Z M338.357151,218.977367 L337.858301,218.373504 C340.177345,216.458837 342.288737,214.19435 344.134076,211.643354 L344.770008,212.101933 C342.883301,214.707309 340.727297,217.021306 338.357151,218.977367 Z M42.1920061,219.513052 L41.4084467,219.501689 C41.4198027,218.754165 41.4652264,217.977422 41.5487736,217.124385 C41.7596695,214.9646 42.1409044,212.696867 42.7127567,210.192946 L43.4760375,210.366638 C42.9114855,212.838905 42.5367397,215.074984 42.3282772,217.200679 C42.2471634,218.031802 42.2025508,218.788254 42.1920061,219.513052 Z M191.125868,221.841659 L191.095856,221.057611 C194.110856,220.948039 197.254016,220.8896 200.437732,220.887977 L200.437732,221.672025 C197.262938,221.672837 194.130323,221.730463 191.125868,221.841659 Z M219.061461,222.214203 C215.78203,222.03483 212.737018,221.904155 209.75203,221.814874 L209.775553,221.031638 C212.766219,221.12173 215.81772,221.253217 219.104452,221.431778 L219.061461,222.214203 Z M172.56703,223.32859 L172.469694,222.551847 C173.92812,222.369227 175.388168,222.199593 176.853084,222.047004 C178.462381,221.878994 180.115481,221.727217 181.766146,221.596542 L181.829415,222.376532 C180.184427,222.508018 178.537817,222.658984 176.933386,222.825371 C175.475771,222.97796 174.019778,223.146782 172.56703,223.32859 Z M237.655178,223.56559 C234.310856,223.275833 231.270711,223.030717 228.361159,222.816443 L228.419561,222.03483 C231.331546,222.249104 234.374936,222.495032 237.722502,222.784789 L237.655178,223.56559 Z M256.230238,225.287898 L254.283507,225.102843 C251.836304,224.869902 249.389912,224.636148 246.942708,224.407265 L247.016522,223.627275 C249.462914,223.85697 251.910117,224.089912 254.358132,224.322854 L256.303241,224.507909 L256.230238,225.287898 Z M154.176098,226.30083 L154.030093,225.531391 C157.359815,224.899933 160.367515,224.365059 163.225154,223.897552 L163.351691,224.670237 C160.49973,225.137744 157.499331,225.670994 154.176098,226.30083 Z M321.436001,226.837326 L321.268907,226.072758 C324.447757,225.382049 327.400299,224.423498 330.047854,223.2247 L330.370686,223.938135 C327.673653,225.159659 324.667575,226.135254 321.436001,226.837326 Z M274.8199,226.949333 C271.71973,226.70097 268.621183,226.432316 265.521013,226.153111 L265.590771,225.372309 C268.687696,225.651515 271.785432,225.920169 274.882357,226.169343 L274.8199,226.949333 Z M293.454173,228.12784 C290.459452,228.001224 287.410384,227.837272 284.130142,227.627056 L284.180432,226.844631 C287.454185,227.054847 290.498386,227.217987 293.48743,227.343792 L293.454173,228.12784 Z M304.157139,228.395683 C303.702902,228.395683 303.247042,228.393248 302.793616,228.389189 L302.798483,227.606765 C303.251909,227.610011 303.704524,227.611635 304.157139,227.611635 C307.070747,227.611635 309.665577,227.5256 312.09088,227.34785 L312.148471,228.130275 C309.703701,228.308837 307.089403,228.395683 304.157139,228.395683 Z M135.893858,229.997056 L135.734875,229.230864 L138.249403,228.708977 C140.45651,228.252022 142.664427,227.795066 144.873156,227.343792 L145.029706,228.112419 C142.821788,228.56207 140.614682,229.019025 138.407575,229.476792 L135.893858,229.997056 Z M52.6929988,232.767196 L52.4756138,232.701453 C49.6650206,231.845169 46.4991489,230.666662 44.3334104,228.416785 L44.8979625,227.872984 C46.9387857,229.994621 49.9894758,231.125241 52.7043547,231.951494 L52.9225508,232.018861 L52.6929988,232.767196 Z M117.570251,233.572347 L117.435602,232.801285 C120.224294,232.311052 123.221449,231.748583 126.595783,231.083847 L126.747466,231.851662 C123.366643,232.518022 120.365432,233.081302 117.570251,233.572347 Z M99.0673814,236.164737 L98.9919455,235.384748 C101.950977,235.096614 105.06088,234.722446 108.236485,234.271984 L108.3468,235.047915 C105.159839,235.500001 102.037769,235.87498 99.0673814,236.164737 Z M71.0506743,236.357909 C67.8912918,236.038933 64.7757107,235.584412 61.7874782,235.00571 L61.9367276,234.236272 C64.9006259,234.810915 67.9934952,235.261378 71.1293547,235.579542 L71.0506743,236.357909 Z M83.4708196,236.962583 C82.4431077,236.962583 81.4153959,236.950409 80.3901174,236.926871 L80.4079625,236.143635 C83.4448632,236.214248 86.5190763,236.178535 89.7084709,236.042991 L89.7417276,236.826227 C87.6124903,236.91632 85.5019092,236.962583 83.4708196,236.962583 Z" id="Fill-1" fill="#E7E5E6"></path>
                    <path d="M326.496322,337.172607 C326.496322,344.276289 253.406942,350.035877 163.248487,350.035877 C73.0884045,350.035877 -0.000162686567,344.276289 -0.000162686567,337.172607 C-0.000162686567,330.068925 73.0884045,324.309337 163.248487,324.309337 C253.406942,324.309337 326.496322,330.068925 326.496322,337.172607" id="Fill-4" fill="#EFEFEF"></path>
                    <polygon id="Fill-7" fill="#F2B49D" points="105 321.125206 102.059815 328 95 327.201584 98.4098756 318"></polygon>
                    <path d="M93.2293432,332.560049 C93.4244002,333.434393 93.6707879,334 93.6707879,334 L118,333.606463 L118,331.65936 C118,328.595863 115.010179,328.724298 115.010179,328.724298 C111.979294,329.361531 102.099303,326.468457 102.099303,326.468457 L94.7503138,326 C92.6820781,328.119996 92.8605512,330.897808 93.2293432,332.560049" id="Fill-9" fill="#221717"></path>
                    <path d="M93,332 C93.1968629,333.214408 93.4455319,334 93.4455319,334 L118,333.453402 L118,332.202401 L93,332 Z" id="Fill-11" fill="#1E1313"></path>
                    <path d="M116.838102,210.223024 C114.8641,225.274523 101.567315,213.843535 101.567315,213.843535 L88.4534525,192.662262 L76,172.546348 L88.3183322,163.396367 L95.9970018,177.161289 L98.723584,182.049714 L98.9919455,183 L100.746105,185.675844 L101.799178,187.563874 L101.696781,187.126032 L116.838102,210.223024 Z" id="Combined-Shape" fill="#F2AE99"></path>
                    <path d="M99,182.967308 C97.3029877,186.662867 91.1350461,189.353149 88.8936645,194 L76,172.274071 L88.1552156,163 L99,182.967308 Z" id="Fill-15" fill="#E52352"></path>
                    <path d="M117.235647,168.516085 C117.235647,168.516085 111.795145,220.50324 113.246001,227.223011 C114.696856,233.941981 139.35975,219.442392 139.35975,219.442392 C139.35975,219.442392 142.623557,168.516085 144.799428,166.393588 C146.976123,164.271892 131.017538,164.271892 117.235647,168.516085" id="Fill-21" fill="#D4F0FF"></path>
                    <polygon id="Fill-23" fill="#212121" points="17 149.410576 67.9408064 148 77 269 22.6832387 267.95888"></polygon>
                    <path d="M26.3791246,273 L85.4724305,273 C87.9731561,273 90,270.91721 90,268.347458 L90,264 L26.3791246,264 C23.9607777,264 22,266.0149 22,268.5 C22,270.9851 23.9607777,273 26.3791246,273" id="Fill-25" fill="#333333"></path>
                    <path d="M31.9951045,268.447149 L26.4899888,150 L18,150.412852 L23.5051158,268.86 C23.616722,271.257778 25.6074289,273.109135 27.9519512,272.994993 C30.2964736,272.881662 32.1067108,270.844927 31.9951045,268.447149" id="Fill-27" fill="#333333"></path>
                    <path d="M45.3011057,276 L69.6988943,276 C70.9699969,276 72,274.991705 72,273.747391 L72,273 L43,273 L43,273.747391 C43,274.991705 44.0308232,276 45.3011057,276" id="Fill-29" fill="#212121"></path>
                    <polygon id="Fill-31" fill="#333333" points="52 278 64 278 64 276 52 276"></polygon>
                    <polygon id="Fill-33" fill="#D6D6D6" points="55 317 60 317 60 278 55 278"></polygon>
                    <polygon id="Fill-34" fill="#212121" points="54 309 61 309 61 290 54 290"></polygon>
                    <polygon id="Fill-35" fill="#212121" points="93.6721138 331 95 329.828852 83.4576049 317 31.1641831 317 19 329.043805 20.2573574 330.288 31.9002763 318.759532 82.660711 318.759532"></polygon>
                    <path d="M88,334 C88,336.760794 90.2385943,339 92.999606,339 C95.7614057,339 98,336.760794 98,334 C98,331.238418 95.7614057,329 92.999606,329 C90.2385943,329 88,331.238418 88,334" id="Fill-36" fill="#212121"></path>
                    <path d="M91,334.000437 C91,335.65763 92.3434402,337 94,337 C95.6574344,337 97,335.65763 97,334.000437 C97,332.343244 95.6574344,331 94,331 C92.3434402,331 91,332.343244 91,334.000437" id="Fill-37" fill="#D6D6D6"></path>
                    <path d="M87,334 C87.2493839,330.641629 89.8391394,328 92.9996003,328 C96.1608606,328 98.7506161,330.641629 99,334 L87,334 Z" id="Fill-38" fill="#333333"></path>
                    <path d="M14,334 C14,336.760794 16.2385943,339 18.999606,339 C21.7614057,339 24,336.760794 24,334 C24,331.238418 21.7614057,329 18.999606,329 C16.2385943,329 14,331.238418 14,334" id="Fill-39" fill="#212121"></path>
                    <path d="M16,334.000437 C16,335.65763 17.3434402,337 19,337 C20.6565598,337 22,335.65763 22,334.000437 C22,332.343244 20.6565598,331 19,331 C17.3434402,331 16,332.343244 16,334.000437" id="Fill-40" fill="#D6D6D6"></path>
                    <path d="M13,334 C13.2486011,330.641629 15.8393285,328 19,328 C22.1606715,328 24.7513989,330.641629 25,334 L13,334 Z" id="Fill-41" fill="#333333"></path>
                    <polygon id="Fill-42" fill="#FFBDA5" points="66 167.420777 81.2762364 169 84 142.579223 68.7237636 141"></polygon>
                    <path d="M78.9150041,233.678657 C78.9150041,233.678657 77.983545,241.595647 89.7874929,241.903111 C101.592261,242.210575 127.686234,236.677038 127.996994,255.119186 C128.307753,273.559713 104.422716,324 104.422716,324 L96.069922,320.892101 L109.311236,271.382317 C109.311236,271.382317 112.706634,258.158129 94.7580078,265.875552 C81.331386,271.65003 41.948542,273.559713 47.5397562,241.595647 C53.1317905,209.63077 78.9150041,233.678657 78.9150041,233.678657" id="Fill-43" fill="#033781"></path>
                    <polygon id="Fill-44" fill="#FFBDA5" points="89 326.125206 86.0598153 333 79 332.200759 82.4098756 323"></polygon>
                    <path d="M88.4183534,330 L80.1025533,326.905905 L80.0648288,326.891303 L93.3077813,277.38335 C93.3077813,277.38335 98.2800393,268.393114 78.9125902,271.209763 C66.5889683,273.003429 25.9333992,279.559114 31.5248316,247.595994 C31.7323166,246.416441 31.9660447,245.312334 32.2243757,244.282051 C38.9860889,217.372998 62.9067255,239.678226 62.9067255,239.678226 C62.9067255,239.678226 61.9734532,247.595994 73.7804131,247.902645 C85.5873729,248.210919 111.686191,242.676594 111.997009,261.119476 C112.307006,279.559114 88.4183534,330 88.4183534,330" id="Fill-45" fill="#033C8E"></path>
                    <path d="M77.2293742,337.560049 C77.4244309,338.434393 77.6700287,339 77.6700287,339 L102,338.606463 L102,336.65936 C102,333.595863 99.0093933,333.723474 99.0093933,333.723474 C95.9793015,334.361531 86.0985328,331.468457 86.0985328,331.468457 L78.7495532,331 C76.6821098,333.119996 76.8605827,335.897808 77.2293742,337.560049" id="Fill-46" fill="#2F1F1F"></path>
                    <path d="M77,337 C77.1968629,338.214408 77.4447349,339 77.4447349,339 L102,338.453402 L102,337.202401 L77,337 Z" id="Fill-47" fill="#1E1313"></path>
                    <path d="M82.522486,226.881924 C82.3625053,228.876439 82.4240364,230.644139 82.7858388,232.134174 L83.6284036,241.072765 C83.6284036,241.072765 46.3217338,253.629089 32.7438879,247.13622 C29.180011,245.429864 23.1713014,167.420192 58.983998,157.940797 C63.862998,156.64852 69.5181093,156.629148 76.0625489,158.247522 C76.0625489,158.247522 82.6537522,158.457386 87.6123323,163.231791 C90.5157762,166.025404 92.8588775,170.381696 92.992605,177.175639 C93.2215004,188.748831 88.0840701,203.218145 84.8951223,215.059317 C83.7096245,219.456775 82.7940429,223.491813 82.522486,226.881924" id="Fill-48" fill="#FF2E56"></path>
                    <path d="M95.5489458,108.770663 C95.5489458,108.770663 100.334722,150.89063 78.7285668,152.933227 C57.1232277,154.975825 60.2569075,109.508359 62.8113338,105.324805 C65.3649442,101.14125 88.9935912,94.3085488 95.5489458,108.770663" id="Fill-49" fill="#FFBDA5"></path>
                    <path d="M56.0257493,119.020478 C56.1905332,125.873219 56.4823214,133.142016 60.2554718,138.838413 C61.0536691,140.045139 62.0520187,141.196607 63.3871705,141.731305 C64.7223224,142.26844 66.4505442,142.015718 67.2849136,140.833371 C67.7157634,140.222288 67.8628632,139.455997 67.9448532,138.709208 C68.2961244,135.579846 67.7937343,132.175823 69.4005787,129.47877 C70.1103554,128.287483 71.1714032,127.360295 72.0427485,126.284399 C74.6190048,123.106281 75.4067525,118.536975 74.0442706,114.6657 C80.7883549,116.730543 88.0798434,116.934508 94.9260133,115.247529 C97.2514765,114.675452 99.7015324,113.758827 101.006139,111.72974 C102.063971,110.087455 102.17088,107.978732 101.819609,106.052846 C101.213526,102.738209 99.3534766,99.814438 96.847153,97.5635081 C96.6839767,97.4172382 96.5159774,97.271781 96.3463706,97.1295743 C95.9299897,96.7825898 95.4975323,96.4526701 95.0522137,96.1406278 C94.2138252,95.5547359 93.3304225,95.0371033 92.4156706,94.5942308 C92.1335284,94.4568996 91.8497785,94.3276946 91.5628133,94.2058031 C83.1379328,90.6181295 72.38357,91.2072718 65.363774,97.4505553 C62.2851277,100.189864 60.2321609,104.517825 61.3189311,108.515867 C59.1703092,108.682452 57.4284224,110.510825 56.6784545,112.555352 C55.9292904,114.599879 55.9726969,116.840245 56.0257493,119.020478" id="Fill-50" fill="#723228"></path>
                    <path d="M64.000112,128.530577 C64.0174637,131.015186 66.0459663,133.016424 68.5305721,132.999898 C71.0160042,132.982547 73.0172398,130.954042 72.999888,128.468607 C72.9833625,125.983172 70.9548599,123.98276 68.4694279,124.000112 C65.9839958,124.016638 63.9827602,126.045142 64.000112,128.530577" id="Fill-51" fill="#FFBDA5"></path>
                    <path d="M68.8145563,170.738373 C76.4149724,173.691363 84.695688,171.28378 87.3130553,165.360658 C87.6502978,164.597088 87.877895,163.809365 88,163.015408 C82.9795722,158.407497 76.305327,158.204917 76.305327,158.204917 C69.68009,156.641936 63.9544433,156.660636 59.0154188,157.90806 C58.7246925,163.009174 62.5656022,168.308194 68.8145563,170.738373" id="Fill-52" fill="#FFBDA5"></path>
                    <polygon id="Fill-53" fill="#333333" points="55 265 63 265 63 241 55 241"></polygon>
                    <path d="M40.1497952,245 L85.8502048,245 C88.1422334,245 90,243.054398 90,240.654002 L90,240.345998 C90,237.945602 88.1422334,236 85.8502048,236 L40.1497952,236 C37.8577666,236 36,237.945602 36,240.345998 L36,240.654002 C36,243.054398 37.8577666,245 40.1497952,245" id="Fill-54" fill="#333333"></path>
                    <polygon id="Fill-55" fill="#212121" points="55 247 63 247 63 244 55 244"></polygon>
                    <path d="M89.0072365,127.412019 C88.9265682,129.344258 89.5295839,130.950336 90.3538386,130.998832 C91.1780932,131.048279 91.9120952,129.521126 91.9927635,127.588888 C92.0734318,125.656649 91.4704161,124.050571 90.6461614,124.001124 C89.8219068,123.952628 89.0879048,125.479781 89.0072365,127.412019" id="Fill-56" fill="#2D2D2D"></path>
                    <path d="M80.0072363,126.411112 C79.926568,128.344302 80.5295838,129.95038 81.3546372,129.998876 C82.1788919,130.047372 82.9120952,128.520219 82.9927635,126.587981 C83.0734318,124.655742 82.4704161,123.049664 81.6461614,123.001168 C80.8219067,122.951721 80.0879047,124.478874 80.0072363,126.411112" id="Fill-57" fill="#2D2D2D"></path>
                    <path d="M85.3607293,138 C86.220399,138 87.0942436,137.925027 87.9305663,137.678242 C88.1665377,137.609517 88.4116811,137.521268 88.6134658,137.342427 C88.9194782,137.071432 89.0562249,136.633311 88.9786795,136.172541 C88.9236473,135.83985 88.7777286,135.54855 88.635979,135.266621 L88.5959556,135.185401 C87.6854228,133.353256 87.171789,131.319622 87.1134215,129.302388 C87.1084186,129.132138 86.9449896,128.982193 86.7748901,129.001717 C86.5931171,129.006402 86.448866,129.148538 86.4538689,129.31957 C86.5147379,131.420366 87.0492173,133.539126 87.9981058,135.445462 L88.038963,135.528245 C88.1665377,135.782839 88.2866079,136.022596 88.3274652,136.2686 C88.3616518,136.469308 88.3341357,136.739522 88.1607009,136.893372 C88.0556394,136.985526 87.8938781,137.041755 87.7329506,137.088613 C86.3304634,137.502525 84.7503722,137.386942 83.3553893,137.285417 C83.1711148,137.283074 83.0151903,137.399438 83.0010153,137.569688 C82.9868404,137.739939 83.1227532,137.888322 83.3045262,137.902379 C83.9599097,137.949237 84.6553166,138 85.3607293,138" id="Fill-58" fill="#E09B89"></path>
                    <path d="M92,140.035301 C92,140.035301 87.2431829,142.191549 82,139 C82,139 86.1899219,149.524303 92,140.035301" id="Fill-59" fill="#FFFFFF"></path>
                    <path d="M85,213.88488 C83.8301938,218.318887 82.9259215,222.387463 82.6587685,225.805751 C72.0876065,227.903928 60.4785956,229.50564 52.9278812,228.852096 C43.5232871,228.039846 40.049489,216.363952 39.2156479,203.847323 C38.6716273,195.741912 39.2375058,187.288161 40.0171068,181.209307 C40.8104702,175.018137 43.3030883,171.113964 46.0070002,168.66175 C52.5417237,162.731835 63.0537883,167.351406 63.2165088,176.19826 C63.3994681,186.130827 57.0987058,199.192754 55.8973269,203.14169 C55.8212288,203.41027 55.7605122,203.634087 55.7297492,203.814768 C54.9841495,208.170642 58.9323466,212.889507 58.9323466,212.889507 C58.9323466,212.889507 70.4320676,211.741125 81.4306744,213.498288 C82.6158621,213.688735 83.8115741,213.812445 85,213.88488" id="Fill-67" fill="#E52352"></path>
                    <path d="M111.853875,214.177191 C111.853875,214.177191 124.985931,213.972419 126.253865,205.636774 C127.522612,197.301128 128.733651,196.796398 128.733651,196.796398 C128.733651,196.796398 130.528266,195.238214 129.844719,194.39833 C129.161173,193.558446 127.872107,194.131167 126.10025,195.328601 C124.329207,196.524436 114.177608,205.471197 114.177608,205.471197 C114.177608,205.471197 112.860907,205.317618 113.802104,203.272301 C114.743301,201.226984 115.656864,199.615208 115.656864,199.615208 C115.656864,199.615208 115.721073,198.603348 114.853839,198.332185 C113.987418,198.061823 113.537139,199.339246 112.729237,200.450292 C111.921336,201.560538 108.671036,207.452522 104,209.049901 L106.397696,217 L111.853875,214.177191 Z" id="Fill-68" fill="#FFBDA5"></path>
                    <path d="M107,217.589214 C101.326213,220.038962 68.5767982,228.190682 53.0017603,226.85268 C43.5481616,226.03881 40.0540334,214.36222 39.2173309,201.847345 C38.6695675,193.742016 39.2384926,185.288351 40.0214769,179.209558 C40.8199255,173.018451 43.3267773,169.114317 46.0452465,166.661314 C52.6143378,160.732273 63.1821833,165.350984 63.3465937,174.199376 C63.5305381,184.131028 57.1950398,197.19201 55.9880069,201.14172 C55.9098713,201.410297 55.8512695,201.634111 55.8203408,201.81479 C55.0699131,206.169808 59.0393665,210.890252 59.0393665,210.890252 C59.0393665,210.890252 70.6009997,209.740254 81.6580069,211.498213 C92.715828,213.252102 104.579423,209.467608 104.579423,209.467608 L107,217.589214 Z" id="Fill-69" fill="#FFBDA5"></path>
                    <path d="M55.7434455,201.291529 C49.9836801,201.254757 43.3174334,201.683762 39.2142022,202 C38.6743245,193.861979 39.2350593,185.374216 40.0067716,179.270905 C40.7937256,173.054826 43.2644885,169.134946 45.9438223,166.672048 C52.4183441,160.719093 62.8340537,165.356433 62.9960972,174.240514 C63.1781957,184.212226 56.9331018,197.325888 55.7434455,201.291529" id="Fill-70" fill="#FF2E56"></path>
                    <polygon id="Fill-71" fill="#EFEFEF" points="114.614334 196 114 204 119 198.811756"></polygon>
                    <path d="M28,273 L86.5841967,273 C89.0222593,273 91,270.985387 91,268.5 C91,266.014613 89.0222593,264 86.5841967,264 L28,264 L28,273 Z" id="Fill-72" fill="#333333"></path>
                    <polygon id="Fill-73" fill="#402367" points="65 231 298 231 298 222 65 222"></polygon>
                    <polygon id="Fill-74" fill="#4D3587" points="66 231 156 231 156 222 66 222"></polygon>
                    <polygon id="Fill-75" fill="#989898" points="158 341 152.455904 341 141.354827 240.279696 83.9206057 240.279696 71.9892029 341 67 341 77.0790757 235.779484 77.5397414 231 148.29139 231 148.712593 235.779484"></polygon>
                    <polygon id="Fill-76" fill="#2D1854" points="209 341 219.543115 231 290.28877 231 300 341 294.450611 341 283.353442 240.283986 225.923584 240.283986 213.993726 341"></polygon>
                    <polygon id="Fill-77" fill="#898989" points="148 236 76 236 76.462213 231 147.576642 231"></polygon>
                    <polygon id="Fill-78" fill="#1E103F" points="290 236 218 236 218.461409 231 289.576637 231"></polygon>
                    <path d="M196.890902,175.249214 L184.076212,217.734682 C183.73572,218.862062 184.578845,220 185.755166,220 L246.66365,220 C247.440298,220 248.123716,219.488293 248.345036,218.742663 L260.926245,176.257195 C261.260252,175.130628 260.417938,174 259.244859,174 L198.569855,174 C197.79645,174 197.114654,174.507646 196.890902,175.249214" id="Fill-79" fill="#E7E5E6"></path>
                    <path d="M259.244859,174 L257.283783,174 L244.981454,215.541575 C244.760944,216.287218 244.076716,216.798933 243.300068,216.798933 L184.359146,216.798933 L184.076212,217.734642 C183.73572,218.862854 184.578845,220 185.755166,220 L246.66365,220 C247.439488,220 248.123716,219.488284 248.345036,218.742641 L260.926245,176.257235 C261.260252,175.130648 260.417938,174 259.244859,174" id="Fill-80" fill="#D1D1D1"></path>
                    <path d="M248.12127,222 L181.87873,222 C180.845992,222 180,221.0994 180,220 C180,218.9006 180.845992,218 181.87873,218 L248.12127,218 C249.154008,218 250,218.9006 250,220 C250,221.0994 249.154008,222 248.12127,222" id="Fill-81" fill="#D8D8D8"></path>
                    <path d="M184.422413,222 L139.578401,222 C138.709833,222 138,221.251928 138,220.338475 L138,219.661525 C138,218.748072 138.709833,218 139.578401,218 L184.422413,218 C185.290167,218 186,218.748072 186,219.661525 L186,220.338475 C186,221.251928 185.290167,222 184.422413,222" id="Fill-82" fill="#E7E5E6"></path>
                    <path d="M230,196.499613 C230,200.090222 227.090222,203 223.500387,203 C219.910552,203 217,200.090222 217,196.499613 C217,192.909778 219.910552,190 223.500387,190 C227.090222,190 230,192.909778 230,196.499613" id="Fill-83" fill="#FCFDFC"></path>
                    <path d="M281.335938,192.08519 C281.259213,194.709264 282.214641,197.367745 281.766406,199.967241 C281.646069,200.667703 281.411048,201.372263 280.93293,201.890032 C280.145489,202.746153 278.891237,202.923112 277.739554,202.982098 C277.643446,202.987014 277.54653,202.991929 277.448806,202.992749 C277.347852,202.997664 277.244475,202.999303 277.141906,202.999303 C275.705937,203.014868 274.203742,202.775646 273.281426,201.699964 C272.320345,200.576766 272.372033,199.070976 272.565865,197.509476 C272.577171,197.40625 272.591709,197.303843 272.604631,197.201437 C272.859843,195.272911 273.240237,193.291134 272.120859,191.856618 C271.703314,191.322464 271.113743,190.935776 270.764846,190.354105 C270.491866,189.89778 270.398181,189.402131 270.398181,188.881904 C270.398181,188.779497 270.401411,188.677091 270.409488,188.570588 C270.478944,187.42445 270.89649,186.186556 270.722041,185.035503 C270.467637,183.343742 268.992094,182.124691 268.362141,180.538614 C268.350027,180.509121 268.33872,180.482085 268.329028,180.452592 C268.285416,180.338716 268.245842,180.226478 268.211922,180.116698 L268.211922,180.115059 C267.291221,177.152634 269.53563,175.416633 271.763079,173.949348 C271.85111,173.892 271.936719,173.83629 272.023136,173.779762 C272.674087,173.355388 273.312116,172.951495 273.859691,172.542687 C274.373344,172.160914 274.990375,171.991329 275.615482,172.000341 C275.720474,172.000341 275.823044,172.006895 275.927228,172.017545 C277.258205,172.157637 278.547993,173.075203 278.856508,174.416323 C279.06407,175.324876 278.883968,176.303067 279.186022,177.183765 C279.409736,177.835073 279.865241,178.350384 280.353858,178.845214 C280.429775,178.923043 280.5065,178.998415 280.582418,179.075425 C280.793209,179.285154 281.003194,179.494064 281.196218,179.711166 C282.504581,181.18009 283.164416,183.221673 282.964931,185.190342 C282.758985,187.234383 281.691296,189.102284 281.412663,191.138132 C281.394088,191.276586 281.378743,191.416679 281.368243,191.555133 C281.351283,191.731272 281.340784,191.909051 281.335938,192.08519" id="Fill-84" fill="#51CD6A"></path>
                    <path d="M275.99057,202.993495 C275.884188,202.998374 275.775253,203 275.66717,203 C275.68334,201.225004 275.681637,199.439438 275.636532,197.651433 C275.633127,197.548169 275.631425,197.444906 275.628021,197.340829 C275.607596,196.609039 275.580362,195.87725 275.541214,195.144648 L275.541214,195.143021 C275.541214,195.103993 275.537809,195.06659 275.536107,195.026748 C275.428023,192.955784 275.245047,190.890512 274.944625,188.843128 C274.931859,188.74149 274.917391,188.639853 274.901221,188.538216 C274.901221,188.534963 274.899519,188.530085 274.899519,188.526832 C274.484204,185.797258 273.875701,183.244939 273.076561,180.879633 C273.042519,180.777996 273.007625,180.676358 272.971881,180.575534 C272.559971,179.386783 272.099551,178.244378 271.588067,177.152386 C271.567642,177.106039 271.544663,177.059693 271.524238,177.013346 L271.524238,177.01172 C271.057009,176.022178 270.54893,175.074917 270,174.168312 C270.091914,174.111395 270.182977,174.055291 270.273188,174 C270.796587,174.867577 271.285092,175.772556 271.735299,176.714125 C271.788065,176.819015 271.837426,176.925531 271.885936,177.032047 C272.941243,179.29165 273.789744,181.758594 274.428035,184.421494 L274.428035,184.42312 C274.455268,184.532888 274.481651,184.641031 274.507183,184.751612 C274.786329,185.955812 275.023773,187.200667 275.219515,188.481299 C275.539511,190.589665 275.735254,192.715107 275.850146,194.844614 C275.856104,194.953569 275.862912,195.064964 275.866316,195.174732 C275.999932,197.785594 276.0144,200.402148 275.99057,202.993495" id="Fill-85" fill="#40B553"></path>
                    <path d="M281,191 C280.980551,191.195475 280.968512,191.391855 280.962955,191.58552 C279.713615,193.021719 278.126239,194.190045 276.369383,194.933032 C276.326782,194.952036 276.286958,194.969231 276.244357,194.986425 C276.22213,194.99457 276.198977,195 276.175824,195 C276.109143,195 276.04524,194.961991 276.015604,194.899548 L276.015604,194.897738 C276.015604,194.895928 276.013752,194.895928 276.013752,194.894118 C275.997082,194.852489 275.99523,194.808145 276.010048,194.768326 C276.026718,194.724887 276.060058,194.686878 276.107291,194.668778 C276.188789,194.636199 276.271214,194.600905 276.351787,194.564706 C278.156801,193.778281 279.77196,192.528507 281,191" id="Fill-86" fill="#40B553"></path>
                    <path d="M280,179.238641 C278.863748,181.463694 277.239805,183.439066 275.258561,184.96603 C275.252634,184.971125 275.245014,184.976221 275.23824,184.979618 C275.214533,184.993206 275.186592,185 275.161192,185 C275.112931,185 275.06467,184.979618 275.034189,184.937155 C274.979154,184.866667 274.991855,184.764756 275.062976,184.711253 C275.09515,184.685775 275.127324,184.661996 275.159498,184.635669 L275.159498,184.63482 C277.085708,183.126539 278.660543,181.185138 279.760388,179 C279.839976,179.07983 279.919565,179.158811 280,179.238641" id="Fill-87" fill="#40B553"></path>
                    <path d="M275,172.017253 C274.482006,173.765527 273.585992,175.425895 272.379716,176.848833 C272.353861,176.880053 272.327114,176.911272 272.300367,176.942491 C272.268271,176.979461 272.216561,177 272.167525,177 C272.131863,177 272.096201,176.990963 272.067671,176.970424 C272.065888,176.968781 272.064105,176.968781 272.063213,176.967138 C272.016852,176.932632 271.995455,176.880053 272.000804,176.829938 L272.000804,176.828294 C272.003479,176.798718 272.015069,176.770785 272.035575,176.74696 C272.097984,176.673842 272.160393,176.600723 272.22191,176.527604 C273.331006,175.183536 274.160154,173.631614 274.655859,172 C274.771762,172 274.884989,172.006572 275,172.017253" id="Fill-88" fill="#40B553"></path>
                    <path d="M273.999536,180.6155 C274.006266,180.7195 273.938963,180.8115 273.850628,180.8195 C273.814452,180.8205 273.777435,180.8245 273.740419,180.8265 C273.067386,180.8765 272.389306,180.9005 271.712067,180.9005 C270.525007,180.9005 269.337946,180.8245 268.160981,180.6755 C267.818576,180.6315 267.470281,180.5795 267.121146,180.5105 C267.076557,180.3715 267.035334,180.2345 267,180.0995 C267.400454,180.1865 267.803432,180.2475 268.196315,180.2975 C269.997518,180.5285 271.825642,180.5795 273.63694,180.4525 C273.700878,180.4485 273.766499,180.4445 273.830437,180.4395 C273.919613,180.4355 273.994488,180.5115 273.999536,180.6155" id="Fill-89" fill="#40B553"></path>
                    <path d="M275.998629,188.31836 C276.010384,188.42136 275.945281,188.51736 275.851242,188.53136 C275.828637,188.53536 275.804223,188.53936 275.782522,188.54036 C274.409922,188.74536 273.031898,188.84636 271.65116,188.84636 C270.766837,188.84636 269.882515,188.80436 269,188.71836 C269,188.59336 269.003617,188.46836 269.011755,188.33936 C271.249689,188.55536 273.503898,188.49736 275.735503,188.16536 C275.758108,188.16336 275.782522,188.15936 275.804223,188.15536 C275.899166,188.14136 275.984162,188.21436 275.998629,188.31836" id="Fill-90" fill="#40B553"></path>
                    <path d="M275.998317,197.4385 C276.011083,197.5415 275.949806,197.6375 275.862997,197.6535 C275.838316,197.6565 275.815337,197.6605 275.791507,197.6645 C275.108101,197.7805 274.416183,197.8345 273.724266,197.8345 C272.811922,197.8345 271.897025,197.7365 271,197.5415 C271.012766,197.4155 271.027234,197.2905 271.041702,197.1655 C272.60341,197.5065 274.215331,197.5505 275.782997,197.2825 C275.794912,197.2815 275.804273,197.2795 275.815337,197.2775 C275.904699,197.2615 275.9847,197.3345 275.998317,197.4385" id="Fill-91" fill="#40B553"></path>
                    <polygon id="Fill-92" fill="#FF2E56" points="285.237683 222 268.762317 222 268 201 286 201"></polygon>
                    <polygon id="Fill-93" fill="#F22A59" points="284.646982 201 283.947173 220.593612 269 220.593612 269.050551 222 285.25043 222 286 201"></polygon>
                    <path d="M286.891743,203 L268.108257,203 C267.49644,203 267,202.490535 267,201.860802 L267,201.139198 C267,200.511136 267.49644,200 268.108257,200 L286.891743,200 C287.504372,200 288,200.511136 288,201.139198 L288,201.860802 C288,202.490535 287.504372,203 286.891743,203" id="Fill-94" fill="#DB2157"></path>
                    <path d="M320,88.5 C320,111.662168 305.938829,131.568351 285.816256,140.292209 C282.99614,141.514526 280.056159,142.517118 277.017659,143.278015 C276.415049,143.42938 275.806692,143.571794 275.195051,143.703628 C272.094976,144.375007 268.90295,144.79411 265.637855,144.940593 C265.274976,144.957683 264.909633,144.970703 264.545932,144.979655 C264.031169,144.992676 263.516405,145 262.999179,145 C254.640635,145 246.701619,143.21698 239.548295,140.012265 C219.764792,131.149248 206,111.41803 206,88.5 C206,57.2959325 231.51979,32 262.999179,32 C294.48021,32 320,57.2959325 320,88.5" id="Fill-95" fill="url(#linearGradient-1)"></path>
                    <path d="M132.705882,99.4995894 C132.705882,92.4444256 138.445269,86.7056891 145.500411,86.7056891 C152.554731,86.7056891 158.294118,92.4444256 158.294118,99.4995894 C158.294118,106.554753 152.554731,112.29349 145.500411,112.29349 C143.059447,112.29349 140.702257,111.609407 138.683452,110.312689 C138.463338,110.176366 138.19723,110.142695 137.953298,110.221533 L133.199496,111.800753 L134.778074,107.045847 C134.860206,106.803585 134.824889,106.534223 134.686907,106.316597 C133.390042,104.297199 132.705882,101.940277 132.705882,99.4995894 M132.121102,113.956475 L138.111813,111.967462 C140.326092,113.298672 142.871364,114 145.500411,114 C153.495143,114 160,107.494237 160,99.4995894 C160,91.5057628 153.495143,85 145.500411,85 C137.505678,85 131,91.5057628 131,99.4995894 C131,102.128338 131.701408,104.674143 133.031947,106.888171 L131.04353,112.879025 C130.831629,113.562286 131.449262,114.168352 132.121102,113.956475" id="Fill-113" fill="#E7E5E6"></path>
                    <path d="M175.221212,147.046668 L176.800566,151.801574 L172.046078,150.221533 C171.802974,150.143517 171.536052,150.177187 171.316766,150.313511 C169.297196,151.609407 166.940074,152.294311 164.5,152.294311 C157.444237,152.294311 151.705834,146.555574 151.705834,139.500411 C151.705834,132.445247 157.444237,126.705689 164.5,126.705689 C171.554942,126.705689 177.293345,132.445247 177.293345,139.500411 C177.293345,141.941098 176.608383,144.298021 175.312376,146.316597 C175.174398,146.535044 175.139082,146.803585 175.221212,147.046668 M164.5,125 C156.504673,125 150,131.505763 150,139.500411 C150,147.494237 156.504673,154 164.5,154 C167.128151,154 169.674172,153.298672 171.887567,151.967462 L177.878108,153.956475 C178.549929,154.168352 179.168366,153.562286 178.956471,152.879025 L176.96729,146.888171 C178.297791,144.674143 179,142.129159 179,139.500411 C179,131.505763 172.494506,125 164.5,125" id="Fill-114" fill="#E7E5E6"></path>
                    <path d="M148.146721,138.333497 L121.705737,138.333497 L121.705737,99.9999108 L125.616533,99.9999108 L123.661135,101.911134 C123.327707,102.236893 123.327707,102.764044 123.661135,103.089802 C123.994563,103.414758 124.534124,103.414758 124.867552,103.089802 L128.279027,99.7559932 C128.612455,99.4302347 128.612455,98.9030837 128.279027,98.5781276 L124.867552,95.2443188 C124.534124,94.9185604 123.994563,94.9185604 123.661135,95.2443188 C123.327707,95.5700773 123.327707,96.0972283 123.661135,96.4229867 L125.616533,98.3334076 L120.852458,98.3334076 C120.38106,98.3334076 120,98.7081101 120,99.1670604 L120,139.16715 C120,139.6261 120.38106,140 120.852458,140 L148.146721,140 C148.618118,140 149,139.6261 149,139.16715 C149,138.708199 148.618118,138.333497 148.146721,138.333497" id="Fill-115" fill="#E7E5E6"></path>
                    <path d="M190.146745,99 L162.853255,99 C162.383513,99 162,99.3747008 162,99.8336491 C162,100.292597 162.383513,100.666496 162.853255,100.666496 L189.294311,100.666496 L189.294311,138.999911 L185.381984,138.999911 L187.338147,137.089498 C187.670744,136.763741 187.670744,136.236593 187.338147,135.910836 C187.00555,135.585079 186.466004,135.585079 186.131765,135.910836 L182.720386,139.24463 C182.386968,139.569584 182.386968,140.096733 182.720386,140.42249 L186.131765,143.756284 C186.466004,144.081239 187.00555,144.081239 187.338147,143.756284 C187.670744,143.430527 187.670744,142.903378 187.338147,142.577621 L185.381984,140.666407 L190.146745,140.666407 C190.616487,140.666407 191,140.292508 191,139.83356 L191,99.8336491 C191,99.3747008 190.616487,99 190.146745,99" id="Fill-116" fill="#E7E5E6"></path>
                    <path d="M112.779995,72.781892 L71.2191984,72.781892 L71.2191984,46.7791955 L91.6504481,61.0675785 C91.7560797,61.1417452 91.8778383,61.1788286 92.0004032,61.1788286 C92.1229681,61.1788286 92.2447267,61.1417452 92.3511646,61.0675785 L112.779995,46.7791955 L112.779995,72.781892 Z M111.455165,46.218108 L92.0004032,59.8252856 L72.5440284,46.218108 L111.455165,46.218108 Z M113.389594,45 L70.6104056,45 C70.273352,45 70,45.2724821 70,45.6094571 L70,73.3913491 C70,73.7275179 70.273352,74 70.6104056,74 L113.389594,74 C113.726648,74 114,73.7275179 114,73.3913491 L114,45.6094571 C114,45.2724821 113.726648,45 113.389594,45 Z" id="Fill-117" fill="#E7E5E6"></path>
                    <path d="M98.5907315,69 L110.409268,69 C110.73589,69 111,68.7763071 111,68.5003309 C111,68.2236929 110.73589,68 110.409268,68 L98.5907315,68 C98.2641101,68 98,68.2236929 98,68.5003309 C98,68.7763071 98.2641101,69 98.5907315,69" id="Fill-118" fill="#E7E5E6"></path>
                    <path d="M98.5907315,67 L110.409268,67 C110.73589,67 111,66.776455 111,66.5 C111,66.2242063 110.73589,66 110.409268,66 L98.5907315,66 C98.2641101,66 98,66.2242063 98,66.5 C98,66.776455 98.2641101,67 98.5907315,67" id="Fill-119" fill="#E7E5E6"></path>
                    <path d="M98.5907315,64 L110.409268,64 C110.73589,64 111,63.776455 111,63.5 C111,63.2242063 110.73589,63 110.409268,63 L98.5907315,63 C98.2641101,63 98,63.2242063 98,63.5 C98,63.776455 98.2641101,64 98.5907315,64" id="Fill-120" fill="#E7E5E6"></path>
                    <path d="M300.247118,173.785425 C299.99772,173.352227 299.441433,173.202429 299.012274,173.455061 L296.687528,174.796761 C295.619489,172.707692 294.962795,170.375709 294.833237,167.904453 L297.523983,167.904453 C298.024399,167.904453 298.429265,167.499595 298.429265,167 C298.429265,166.499595 298.024399,166.094737 297.523983,166.094737 L294.833237,166.094737 C294.962795,163.624291 295.618679,161.292308 296.687528,159.204049 L299.012274,160.545749 C299.439813,160.795142 299.99772,160.644534 300.247118,160.215385 C300.498135,159.782996 300.349954,159.22915 299.916747,158.980567 L297.59362,157.639676 C298.905389,155.626721 300.626883,153.905263 302.639072,152.592713 L303.979181,154.91417 C304.228579,155.347368 304.784867,155.500405 305.214835,155.244534 C305.648043,154.995142 305.796224,154.442105 305.545207,154.009717 L304.204287,151.68664 C306.293401,150.619433 308.625434,149.962753 311.095122,149.833198 L311.095122,152.523887 C311.095122,153.023482 311.499989,153.42834 312.000405,153.42834 C312.50082,153.42834 312.905687,153.023482 312.905687,152.523887 L312.905687,149.833198 C315.376995,149.962753 317.708219,150.619433 319.798142,151.687449 L318.455603,154.012146 C318.205395,154.445344 318.352767,154.998381 318.786784,155.246964 C319.215943,155.498785 319.77223,155.346559 320.021628,154.917409 L321.362548,152.593522 C323.374736,153.905263 325.094611,155.625101 326.40638,157.637247 L324.084063,158.977328 C323.650856,159.226721 323.502674,159.779757 323.753692,160.212146 C324.00309,160.645344 324.560996,160.797571 324.989346,160.54332 L327.312472,159.201619 C328.381321,161.290688 329.038825,163.623482 329.167572,166.094737 L326.476827,166.094737 C325.976411,166.094737 325.571544,166.499595 325.571544,167 C325.571544,167.499595 325.976411,167.904453 326.476827,167.904453 L329.167572,167.904453 C329.038825,170.375709 328.381321,172.707692 327.313282,174.796761 L324.989346,173.455061 C324.559377,173.208097 324.00309,173.354656 323.753692,173.785425 C323.502674,174.218623 323.650856,174.77166 324.084063,175.020243 L326.40719,176.361943 C325.095421,178.374089 323.374736,180.093927 321.361738,181.405668 L320.021628,179.083401 C319.77223,178.648583 319.217563,178.502024 318.786784,178.753036 C318.352767,179.001619 318.205395,179.555466 318.455603,179.987854 L319.798142,182.312551 C317.708219,183.380567 315.376995,184.037247 312.905687,184.165992 L312.905687,181.476113 C312.905687,180.975709 312.50082,180.57166 312.000405,180.57166 C311.499989,180.57166 311.095122,180.975709 311.095122,181.476113 L311.095122,184.165992 C308.624624,184.037247 306.292591,183.380567 304.203478,182.312551 L305.545207,179.987854 C305.796224,179.555466 305.648043,179.001619 305.214835,178.753036 C304.784057,178.506883 304.22696,178.652632 303.979181,179.083401 L302.638262,181.405668 C300.626883,180.093927 298.906199,178.374089 297.59443,176.361943 L299.916747,175.020243 C300.349954,174.77166 300.498135,174.218623 300.247118,173.785425 M312.000405,186 C322.477551,186 331,177.477733 331,167 C331,156.523077 322.477551,148 312.000405,148 C301.523259,148 293,156.523077 293,167 C293,177.477733 301.523259,186 312.000405,186" id="Fill-121" fill="#E7E5E6"></path>
                    <path d="M311.265398,164.999902 C312.729825,164.999902 313.921009,166.177679 313.921009,167.625624 C313.921009,169.072786 312.729825,170.250563 311.265398,170.250563 C309.801762,170.250563 308.610578,169.072786 308.610578,167.625624 C308.610578,166.177679 309.801762,164.999902 311.265398,164.999902 Z M307.576212,165.214471 C307.112886,165.906728 306.840435,166.73446 306.840435,167.625624 C306.840435,170.038344 308.825213,172 311.265398,172 C313.706374,172 315.690361,170.038344 315.690361,167.625624 C315.690361,166.73446 315.418701,165.906728 314.954583,165.214471 L320.741013,159.493952 C321.086329,159.151739 321.086329,158.59809 320.741013,158.25666 C320.394904,157.914447 319.834952,157.914447 319.489636,158.25666 L313.703206,163.977178 C313.003861,163.518284 312.166706,163.249682 311.265398,163.249682 C310.364882,163.249682 309.527727,163.518284 308.827589,163.977178 L306.510958,161.686622 C306.165642,161.344409 305.60569,161.344409 305.259581,161.686622 C304.913473,162.028052 304.913473,162.581701 305.259581,162.923914 L307.576212,165.214471 Z" id="Fill-122" fill="#E7E5E6"></path>
                    <path d="M183.832826,52.3095306 C180.151592,54.0973713 177.865573,57.4478513 177.865573,61.0551258 L177.865573,64.4444894 C177.865573,66.2809348 176.360422,67.7779578 174.508488,67.7779578 C172.657362,67.7779578 171.151403,66.2809348 171.151403,64.4444894 L171.151403,61.0551258 C171.151403,54.8831463 174.882755,49.236097 180.886384,46.3198185 C185.885231,43.8976872 189.010319,38.9238122 189.047504,33.3334683 C189.047504,25.3695978 182.521679,18.8889789 174.499596,18.8889789 C166.467004,18.6710681 159.747175,25.8151403 159.958963,33.45498 C160.009081,35.2817044 158.413395,36.6669367 156.603495,36.6669367 C154.752369,36.6669367 153.237518,35.1391308 153.237518,33.1989955 C153.237518,21.7501721 162.822145,12.2228523 174.499596,12.2228523 C186.223931,12.2228523 195.760057,21.6934667 195.761674,33.329418 C195.739848,41.4804164 191.169427,48.7500506 183.832826,52.3095306 M174.499596,10 C161.540908,10 151,20.5277654 151,33.3334683 C151,36.4449755 153.56975,38.8889789 156.603495,38.8889789 C159.689782,38.8889789 162.198906,36.4166228 162.198906,33.3334683 C162.198906,26.6114464 167.757133,21.1110211 174.499596,21.1110211 C181.960683,21.1110211 186.805136,27.2222447 186.805136,33.329418 C186.805136,38.0602698 184.134341,42.2702418 179.903428,44.3229778 C173.125398,47.6135121 168.913076,54.0285147 168.913076,61.0551258 L168.913076,64.4444894 C168.913076,67.5090121 171.4222,70 174.508488,70 C177.594775,70 180.103899,67.5090121 180.103899,64.4444894 L180.103899,61.0551258 C180.103899,58.303293 181.908949,55.7207663 184.81659,54.3055612 C192.925167,50.3734457 197.975749,42.3399085 198,33.3383288 L198,33.3334683 C198,20.4686298 187.458284,10 174.499596,10" id="Fill-123" fill="#E7E5E6"></path>
                    <path d="M174.499603,81.8001604 C172.67991,81.8001604 171.199523,80.3172937 171.199523,78.5 C171.199523,76.6827063 172.67991,75.1998396 174.499603,75.1998396 C176.319295,75.1998396 177.799682,76.6827063 177.799682,78.5 C177.799682,80.3172937 176.319295,81.8001604 174.499603,81.8001604 M174.499603,73 C171.466517,73 169,75.4669 169,78.5 C169,81.5331 171.466517,84 174.499603,84 C177.533483,84 180,81.5331 180,78.5 C180,75.4669 177.533483,73 174.499603,73" id="Fill-124" fill="#E7E5E6"></path>
                    <path d="M187.671532,180.286526 L185.71204,180.286526 C185.436955,180.286526 185.199703,180.471751 185.13507,180.73737 C184.9325,181.548417 184.611698,182.306656 184.1837,182.995533 C184.037881,183.230414 184.072562,183.536231 184.268038,183.731702 L185.671842,185.137832 C184.956146,186.10967 184.105667,186.961703 183.133015,187.678955 L181.726847,186.271249 C181.531371,186.074202 181.223968,186.041886 180.989082,186.186913 C180.298609,186.619629 179.56242,186.931752 178.734799,187.138257 C178.469172,187.204465 178.283942,187.442499 178.283942,187.716 L178.283942,189.67544 C177.177294,189.856723 175.819207,189.856723 174.712559,189.67544 L174.712559,187.716 C174.712559,187.442499 174.526542,187.204465 174.261703,187.138257 C173.434082,186.931752 172.696316,186.619629 172.005844,186.186913 C171.771745,186.041886 171.464343,186.074202 171.268867,186.271249 L169.862699,187.678955 C168.890835,186.961703 168.040355,186.10967 167.323872,185.137832 L168.728463,183.731702 C168.923152,183.536231 168.958621,183.230414 168.812014,182.995533 C168.384015,182.306656 168.063214,181.548417 167.861432,180.73737 C167.79601,180.471751 167.558759,180.286526 167.284461,180.286526 L165.324181,180.286526 C165.145257,179.149957 165.15314,177.655549 165.324181,176.714451 L167.284461,176.714451 C167.558759,176.714451 167.79601,176.528438 167.861432,176.263607 C168.063214,175.453348 168.384015,174.693533 168.812014,174.005444 C168.958621,173.770563 168.923152,173.464746 168.728463,173.269275 L167.323872,171.862357 C168.040355,170.892095 168.890835,170.039274 169.862699,169.322022 L171.268867,170.729728 C171.464343,170.928352 171.771745,170.95988 172.005844,170.813276 C172.696316,170.381348 173.434082,170.070014 174.261703,169.86272 C174.526542,169.796512 174.712559,169.55769 174.712559,169.284977 L174.712559,167.325538 C175.819207,167.144254 177.177294,167.144254 178.283942,167.325538 L178.283942,169.284977 C178.283942,169.55769 178.469172,169.796512 178.734799,169.86272 C179.56242,170.070014 180.298609,170.381348 180.989082,170.813276 C181.223968,170.95988 181.531371,170.928352 181.726847,170.729728 L183.133015,169.322022 C184.105667,170.039274 184.956146,170.892095 185.671842,171.862357 L184.268038,173.269275 C184.072562,173.464746 184.037881,173.770563 184.1837,174.005444 C184.611698,174.693533 184.9325,175.453348 185.13507,176.263607 C185.199703,176.528438 185.436955,176.714451 185.71204,176.714451 L187.671532,176.714451 C187.853609,177.769837 187.840209,179.320994 187.671532,180.286526 M188.164164,175.524285 L186.165262,175.524285 C185.979244,174.915803 185.734898,174.333331 185.43459,173.785539 L186.869134,172.349458 C187.070916,172.147681 187.101656,171.830829 186.941649,171.59516 C185.990279,170.193759 184.800081,169.003593 183.402583,168.053037 C183.165331,167.896187 182.850047,167.924562 182.647477,168.12555 L181.210569,169.563208 C180.665915,169.262908 180.085004,169.017781 179.474141,168.832556 L179.474141,166.832919 C179.474141,166.5539 179.278664,166.311138 179.006732,166.251235 C177.481544,165.916255 175.51417,165.916255 173.98977,166.251235 C173.717049,166.311138 173.522361,166.5539 173.522361,166.832919 L173.522361,168.832556 C172.91071,169.017781 172.329798,169.262908 171.785933,169.563208 L170.348237,168.12555 C170.148819,167.922197 169.830382,167.894611 169.593131,168.053037 C168.196421,169.003593 167.005435,170.193759 166.054853,171.59516 C165.894058,171.830829 165.924798,172.147681 166.12658,172.349458 L167.561123,173.785539 C167.260815,174.333331 167.017258,174.915803 166.83124,175.524285 L164.83155,175.524285 C164.552523,175.524285 164.316848,175.721332 164.250638,175.994046 C163.939295,177.281948 163.894367,179.504642 164.250638,181.006931 C164.315272,181.280433 164.552523,181.47748 164.83155,181.47748 L166.83124,181.47748 C167.017258,182.085175 167.260815,182.667647 167.561123,183.215438 L166.12658,184.65152 C165.924798,184.853296 165.894058,185.16936 166.054853,185.405817 C167.005435,186.80643 168.196421,187.997384 169.593131,188.947152 C169.830382,189.108731 170.148819,189.077204 170.348237,188.874639 L171.785933,187.437769 C172.329798,187.73807 172.91071,187.983985 173.522361,188.168421 L173.522361,190.168058 C173.522361,190.447865 173.718626,190.68511 173.98977,190.748954 C175.347069,191.069747 177.515437,191.097333 179.006732,190.748954 C179.277876,190.685898 179.474141,190.447865 179.474141,190.168058 L179.474141,188.168421 C180.085004,187.983985 180.665915,187.73807 181.210569,187.437769 L182.647477,188.874639 C182.847683,189.077204 183.165331,189.107155 183.402583,188.947152 C184.800081,187.997384 185.990279,186.80643 186.941649,185.405817 C187.101656,185.16936 187.070916,184.853296 186.869134,184.65152 L185.43459,183.215438 C185.734898,182.667647 185.979244,182.085175 186.165262,181.47748 L188.164164,181.47748 C188.443191,181.47748 188.687536,181.282009 188.745075,181.006931 C189.056419,179.529076 189.112381,177.756438 188.745075,175.994046 C188.688324,175.718968 188.443191,175.524285 188.164164,175.524285" id="Fill-125" fill="#E7E5E6"></path>
                    <path d="M175.5,183.818537 C172.568505,183.818537 170.181676,181.43214 170.181676,178.499609 C170.181676,175.567078 172.568505,173.181463 175.5,173.181463 C178.431495,173.181463 180.818324,175.567078 180.818324,178.499609 C180.818324,181.43214 178.431495,183.818537 175.5,183.818537 M175.5,172 C171.915061,172 169,174.915317 169,178.499609 C169,182.084683 171.915061,185 175.5,185 C179.084156,185 182,182.084683 182,178.499609 C182,174.915317 179.084156,172 175.5,172" id="Fill-126" fill="#E7E5E6"></path>
                    <g id="XMLID_49_" fill-rule="nonzero">
                        <use fill="black" fill-opacity="1" filter="url(#filter-3)" xlink:href="#path-2"></use>
                        <use fill="#FFFFFF" xlink:href="#path-2"></use>
                    </g>
                </g>
            </g>
        </g>
    </g>
</svg>