<?xml version="1.0" encoding="UTF-8"?>
<svg width="418px" height="305px" viewBox="0 0 418 305" version="1.1" xmlns="http://www.w3.org/2000/svg" xmlns:xlink="http://www.w3.org/1999/xlink">
    <!-- Generator: Sketch 52.3 (67297) - http://www.bohemiancoding.com/sketch -->
    <title>Group 90</title>
    <desc>Created with Sketch.</desc>
    <defs>
        <path d="M50.560232,20.076557 C-35.8053194,82.0755443 0.00648852796,209.450127 82.772529,240.25438 C165.536947,271.060253 272.018557,253.657114 301.984202,196.431392 C353.185176,98.6458734 256.809448,118.250937 219.279802,95.5981772 C175.759623,69.3290127 150.113716,0.714531646 100.215314,0.714531646 C85.968129,0.714531646 69.7435649,6.30764557 50.560232,20.076557" id="path-1"></path>
        <polygon id="path-3" points="0.332131783 0.0973404255 56.9614109 0.0973404255 56.9614109 46.7212952 0.332131783 46.7212952"></polygon>
        <polygon id="path-5" points="0 305 417.423225 305 417.423225 0.0973404255 0 0.0973404255"></polygon>
    </defs>
    <g id="Page-1" stroke="none" stroke-width="1" fill="none" fill-rule="evenodd">
        <g id="StaffCloud.io-Website-Design---V2" transform="translate(-982.000000, -2026.000000)">
            <g id="Group-90" transform="translate(982.000000, 2026.000000)">
                <path d="M284.601104,121.03665 C228.637427,87.2128369 202.22226,-16.702641 115.82735,45.3947766 C29.4340631,107.490571 65.2573718,235.072332 148.049992,265.926297 C230.839367,296.781884 337.356796,279.35066 367.330441,222.030965 C418.54948,124.089264 322.142802,143.724343 284.601104,121.03665" id="Fill-1" fill="#EAECFC"></path>
                <g id="Group-5" transform="translate(65.000000, 25.000000)">
                    <mask id="mask-2" fill="white">
                        <use xlink:href="#path-1"></use>
                    </mask>
                    <g id="Clip-4"></g>
                    <path d="M-7.66295152,215.629934 C-7.66295152,215.629934 40.0455724,167.845428 119.729562,190.519251 C199.41193,213.193073 246.328853,193.754896 236.433848,73.6034025 C236.433848,73.6034025 348.432329,89.2129215 334.074839,168.700922 C316.648275,265.165934 91.7137205,301.979706 -7.66295152,215.629934" id="Fill-3" fill="#E0E1F4" mask="url(#mask-2)"></path>
                </g>
                <g id="Group-89">
                    <path d="M161.511798,45.2671915 L161.511798,91.9257021 C161.511798,95.9491064 158.250426,99.2002766 154.232441,99.2002766 L54.8748132,99.2002766 C50.8535884,99.2002766 47.5938364,95.9491064 47.5938364,91.9257021 L47.5938364,45.2671915 C47.5938364,41.2437872 50.8535884,37.992617 54.8748132,37.992617 L154.232441,37.992617 C158.250426,37.992617 161.511798,41.2437872 161.511798,45.2671915" id="Fill-6" fill="#C7CCEA"></path>
                    <path d="M161.511798,45.2671915 L161.511798,49.3051968 L47.5938364,49.3051968 L47.5938364,45.2671915 C47.5938364,41.2437872 50.8535884,37.992617 54.8748132,37.992617 L154.232441,37.992617 C158.250426,37.992617 161.511798,41.2437872 161.511798,45.2671915" id="Fill-8" fill="#82B9FC"></path>
                    <path d="M55.541831,44.1867128 C55.541831,45.0319521 54.8581256,45.7149574 54.015645,45.7149574 C53.1715442,45.7149574 52.4894589,45.0319521 52.4894589,44.1867128 C52.4894589,43.3414734 53.1715442,42.6584681 54.015645,42.6584681 C54.8581256,42.6584681 55.541831,43.3414734 55.541831,44.1867128" id="Fill-10" fill="#FFFFFF"></path>
                    <path d="M61.6491674,44.1867128 C61.6491674,45.0319521 60.9670822,45.7149574 60.1246016,45.7149574 C59.2805008,45.7149574 58.5984155,45.0319521 58.5984155,44.1867128 C58.5984155,43.3414734 59.2805008,42.6584681 60.1246016,42.6584681 C60.9670822,42.6584681 61.6491674,43.3414734 61.6491674,44.1867128" id="Fill-12" fill="#FFFFFF"></path>
                    <path d="M67.7594202,44.1867128 C67.7594202,45.0319521 67.0757147,45.7149574 66.2332341,45.7149574 C65.3891333,45.7149574 64.7054279,45.0319521 64.7054279,44.1867128 C64.7054279,43.3414734 65.3891333,42.6584681 66.2332341,42.6584681 C67.0757147,42.6584681 67.7594202,43.3414734 67.7594202,44.1867128" id="Fill-14" fill="#FFFFFF"></path>
                    <path d="M85.951493,77.3116596 L63.0797643,77.3116596 C62.3328729,77.3116596 61.7269349,76.7049043 61.7269349,75.9586277 L61.7269349,57.421766 C61.7269349,56.673867 62.3328729,56.0671117 63.0781442,56.0671117 L85.951493,56.0671117 C86.6983845,56.0671117 87.3027023,56.673867 87.3027023,57.421766 L87.3027023,75.9586277 C87.3027023,76.7049043 86.6983845,77.3116596 85.951493,77.3116596" id="Fill-16" fill="#FFFFFF"></path>
                    <path d="M145.759516,87.250117 L61.7317953,87.250117 C60.8439504,87.250117 60.1246016,86.5297979 60.1246016,85.6407553 C60.1246016,84.7517128 60.8439504,84.0313936 61.7317953,84.0313936 L145.759516,84.0313936 C146.647361,84.0313936 147.36671,84.7517128 147.36671,85.6407553 C147.36671,86.5297979 146.647361,87.250117 145.759516,87.250117" id="Fill-18" fill="#FFFFFF"></path>
                    <path d="M145.759516,75.0935957 L94.781338,75.0935957 C93.893493,75.0935957 93.1741442,74.3732766 93.1741442,73.484234 C93.1741442,72.5951915 93.893493,71.8748723 94.781338,71.8748723 L145.759516,71.8748723 C146.647361,71.8748723 147.36671,72.5951915 147.36671,73.484234 C147.36671,74.3732766 146.647361,75.0935957 145.759516,75.0935957" id="Fill-20" fill="#FFFFFF"></path>
                    <path d="M126.354109,63.6723191 L94.7821481,63.6723191 C93.8943031,63.6723191 93.1749543,62.952 93.1749543,62.0629574 C93.1749543,61.1739149 93.8943031,60.4535957 94.7821481,60.4535957 L126.354109,60.4535957 C127.243574,60.4535957 127.962923,61.1739149 127.962923,62.0629574 C127.962923,62.952 127.243574,63.6723191 126.354109,63.6723191" id="Fill-22" fill="#FFFFFF"></path>
                    <path d="M0.728745736,134.70033 C0.728745736,134.70033 2.58544341,132.563707 3.72279225,131.583814 C5.77066822,129.818707 8.11989302,126.698947 15.6341721,128.997803 C16.2190481,129.177883 16.782862,129.414745 17.346676,129.653229 C18.0093194,129.933894 20.0604357,129.940383 22.1617767,128.269372 C25.5009163,125.615223 26.8083814,123.611633 31.3820791,123.549984 C36.7059085,123.476979 37.5435287,130.122085 41.6797845,131.82392 C44.3125364,132.906021 51.2581411,133.981633 52.6968388,134.461846 L0.728745736,134.70033 Z" id="Stroke-24" stroke="#E8EAFA" stroke-width="0.899" stroke-linecap="round" stroke-linejoin="round"></path>
                    <path d="M283.243281,39.2578803 C283.243281,39.2578803 286.89187,35.0543963 289.129304,33.1286782 C293.157009,29.658492 297.776071,23.5276676 312.548645,28.047508 C313.697335,28.3995559 314.808761,28.8635452 315.915327,29.3340239 C317.217932,29.8856197 321.252118,29.8985984 325.383513,26.6149814 C331.948381,21.3942899 334.516327,17.4568697 343.511428,17.3335718 C353.977629,17.1908059 355.623707,30.2555133 363.756885,33.6007793 C368.934901,35.7276676 382.591188,37.8431995 385.415118,38.7857793 L283.243281,39.2578803 Z" id="Fill-26" fill="#E8EAFA"></path>
                    <path d="M202.493457,78.2954468 L201.738465,76.1296223 L200.983473,78.2954468 C200.346752,80.1205798 198.835147,81.6601809 196.788891,82.5719362 C198.835147,83.4804468 200.346752,85.0216702 200.983473,86.8468032 L201.738465,89.0126277 L202.493457,86.8468032 C203.130178,85.0216702 204.641783,83.4804468 206.688039,82.5719362 C204.641783,81.6601809 203.130178,80.1205798 202.493457,78.2954468" id="Fill-28" fill="#FFFFFF"></path>
                    <path d="M134.280718,202.07191 L133.525726,199.906085 L132.770733,202.07191 C132.134012,203.897043 130.622408,205.438266 128.576152,206.348399 C130.622408,207.258532 132.134012,208.798133 132.770733,210.624888 L133.525726,212.78909 L134.280718,210.624888 C134.917439,208.798133 136.427423,207.258532 138.475299,206.348399 C136.427423,205.438266 134.917439,203.897043 134.280718,202.07191" id="Fill-30" fill="#FFFFFF"></path>
                    <path d="M338.78414,189.031375 L338.285132,187.602093 L337.787744,189.031375 C337.368124,190.235152 336.370109,191.252359 335.020519,191.852625 C336.370109,192.452891 337.368124,193.468476 337.787744,194.675497 L338.285132,196.101535 L338.78414,194.675497 C339.20376,193.468476 340.200155,192.452891 341.551364,191.852625 C340.200155,191.252359 339.20376,190.235152 338.78414,189.031375" id="Fill-32" fill="#FFFFFF"></path>
                    <path d="M101.311211,117.177755 L100.812203,115.748473 L100.314816,117.177755 C99.8951953,118.381532 98.8988,119.398739 97.5475907,119.999005 C98.8988,120.599271 99.8951953,121.616479 100.314816,122.821878 L100.812203,124.249537 L101.311211,122.821878 C101.730831,121.616479 102.727226,120.599271 104.078436,119.999005 C102.727226,119.398739 101.730831,118.381532 101.311211,117.177755" id="Fill-34" fill="#FFFFFF"></path>
                    <g id="Group-38" transform="translate(210.620155, 0.000000)">
                        <mask id="mask-4" fill="white">
                            <use xlink:href="#path-3"></use>
                        </mask>
                        <g id="Clip-37"></g>
                        <path d="M52.2905039,0.0968537234 L5.00303876,0.0968537234 C2.42375194,0.0968537234 0.332131783,2.18318351 0.332131783,4.76594947 L0.332131783,30.3470133 C0.332131783,32.9297793 2.42375194,35.016109 5.00303876,35.016109 L7.54830233,35.016109 L7.54830233,46.7212952 L19.2377209,35.016109 L52.2905039,35.016109 C54.8697907,35.016109 56.9614109,32.9297793 56.9614109,30.3470133 L56.9614109,4.76594947 C56.9614109,2.18318351 54.8697907,0.0968537234 52.2905039,0.0968537234" id="Fill-36" fill="#82B9FC" mask="url(#mask-4)"></path>
                    </g>
                    <path d="M222.259673,25.1560106 L233.41606,25.1560106 C234.276363,25.1560106 234.97465,25.8552394 234.97465,26.7167021 C234.97465,27.5781649 234.276363,28.2773936 233.41606,28.2773936 L222.259673,28.2773936 C221.399371,28.2773936 220.701084,27.5781649 220.701084,26.7167021 C220.701084,25.8552394 221.399371,25.1560106 222.259673,25.1560106" id="Fill-39" fill="#FFFFFF"></path>
                    <path d="M222.259673,17.342008 L242.8162,17.342008 C243.678122,17.342008 244.374789,18.0412367 244.374789,18.9010771 C244.374789,19.7625399 243.678122,20.4617686 242.8162,20.4617686 L222.259673,20.4617686 C221.399371,20.4617686 220.701084,19.7625399 220.701084,18.9010771 C220.701084,18.0412367 221.399371,17.342008 222.259673,17.342008" id="Fill-41" fill="#FFFFFF"></path>
                    <path d="M222.259673,9.74685904 L257.600115,9.74685904 C258.462037,9.74685904 259.158704,10.4444654 259.158704,11.3059282 C259.158704,12.167391 258.462037,12.8666197 257.600115,12.8666197 L222.259673,12.8666197 C221.399371,12.8666197 220.701084,12.167391 220.701084,11.3059282 C220.701084,10.4444654 221.399371,9.74685904 222.259673,9.74685904" id="Fill-43" fill="#FFFFFF"></path>
                    <path d="M233.595898,219.608598 L288.353898,219.608598 C299.341789,219.608598 308.566952,211.326551 309.767487,200.388731 L317.664122,118.085779 L262.935285,118.085779 L261.818998,165.806923 L233.595898,219.608598 Z" id="Fill-45" fill="#C5CAE8"></path>
                    <path d="M233.595898,218.721503 C247.663704,218.156928 261.72989,217.90871 275.797696,217.681582 L286.348146,217.598843 C287.200347,217.579375 288.16596,217.611822 288.925812,217.548551 C289.724549,217.522593 290.516805,217.459322 291.29934,217.311689 C292.87413,217.079694 294.406797,216.615705 295.863316,215.987859 C301.739619,213.525146 306.170743,208.02379 307.39882,201.79238 C307.679107,200.320918 307.82006,198.476316 307.993417,196.740412 L308.507006,191.484029 L309.537425,180.971263 C310.196828,173.96113 310.966402,166.962354 311.706812,159.957088 C313.169812,145.951423 314.71706,131.952247 316.413363,117.966051 C316.495991,117.276556 317.122991,116.783364 317.811557,116.867726 C318.47906,116.948843 318.958626,117.54262 318.913262,118.206157 C317.918487,132.262114 316.774657,146.305093 315.5482,160.341582 C314.943882,167.359827 314.367107,174.381316 313.681781,181.391449 L312.691867,191.912327 L312.19934,197.171955 C312.021122,198.938684 311.923913,200.612939 311.565859,202.606795 C310.11258,210.213949 304.714223,217.009934 297.480231,219.849029 C295.69644,220.582327 293.826781,221.112832 291.916619,221.36754 C290.963967,221.526529 290.004836,221.591423 289.044084,221.607646 C288.047688,221.661184 287.252192,221.610891 286.348146,221.61738 L275.797696,221.534641 C261.72989,221.307513 247.663704,221.057673 233.595898,220.494721 C233.106611,220.475253 232.727495,220.061556 232.746936,219.571609 C232.764758,219.10762 233.140634,218.740971 233.595898,218.721503" id="Fill-47" fill="#393F5C"></path>
                    <path d="M264.907338,221.162801 L264.907338,279.288013" id="Stroke-49" stroke="#393F5C" stroke-width="2.496"></path>
                    <mask id="mask-6" fill="white">
                        <use xlink:href="#path-5"></use>
                    </mask>
                    <g id="Clip-52"></g>
                    <polygon id="Fill-51" fill="#393F5C" mask="url(#mask-6)" points="98.7322481 169.456702 275.244899 169.456702 275.244899 166.706835 98.7322481 166.706835"></polygon>
                    <polygon id="Fill-53" fill="#F1BD9A" mask="url(#mask-6)" points="254.428499 290.259739 256.303019 296.985963 247.181546 299.753676 244.330073 291.448915"></polygon>
                    <polygon id="Fill-54" fill="#F1BD9A" mask="url(#mask-6)" points="199.362346 285.379902 199.362346 290.779051 207.438819 290.779051 208.339625 285.379902"></polygon>
                    <path d="M261.387065,129.182101 L249.190538,159.328431 L248.919972,159.998457 C248.192522,161.791144 246.454096,162.876489 244.634662,162.868378 L209.905019,162.618537 C208.498724,162.608803 207.367856,161.460186 207.379197,160.053617 C207.388918,158.778457 208.331848,157.730426 209.555065,157.551968 L243.921794,152.52758 L239.365918,156.065904 L247.576864,124.595745 C248.594321,120.695638 252.578282,118.357846 256.473135,119.376676 C260.367988,120.395505 262.702631,124.38484 261.685174,128.284947 C261.607406,128.580213 261.495616,128.904681 261.387065,129.182101" id="Fill-55" fill="#E7AE88" mask="url(#mask-6)"></path>
                    <path d="M213.677874,156.950404 L201.818339,156.705431 C198.885858,156.705431 196.507471,159.354713 196.507471,162.625351 L213.828548,162.625351 L213.677874,156.950404 Z" id="Fill-56" fill="#E7AE88" mask="url(#mask-6)"></path>
                    <path d="M242.184016,132.849888 L261.175473,137.493027 L264.291031,120.546059 C265.127031,115.992149 261.961248,111.6605 257.303302,110.987229 C253.384147,110.422654 249.601085,112.646883 248.256357,116.310128 L242.184016,132.849888 Z" id="Fill-57" fill="#826EF6" mask="url(#mask-6)"></path>
                    <path d="M261.818998,165.806761 L203.31034,195.537771 C197.87958,198.297372 194.598766,204.017745 194.9552,210.104766 L199.362022,285.379739 L208.339301,285.379739 L220.45158,204.838649 L266.003859,172.812027 L261.818998,165.806761 Z" id="Fill-58" fill="#2B3047" mask="url(#mask-6)"></path>
                    <path d="M251.493588,62.9972633 C251.493588,62.9972633 267.753464,57.4618378 276.296542,72.8805612 C276.790689,73.7760931 277.335061,74.6375559 277.996084,75.4195239 C279.732891,77.4717846 283.347457,81.2502154 287.336278,82.4750824 C303.160333,87.3372367 313.172891,117.296997 281.677077,119.962503 C242.261945,123.299657 231.069914,115.51729 236.708053,99.7838324 C240.729278,88.5621037 237.139015,80.5964122 237.139015,80.5964122 L251.493588,62.9972633 Z" id="Fill-59" fill="#21283A" mask="url(#mask-6)"></path>
                    <path d="M264.473784,103.207295 L256.06194,106.956524 C251.0508,109.188864 247.836412,114.179184 247.901219,119.669184 C248.032451,130.730301 250.537211,158.194902 259.869304,168.702801 L288.314366,168.702801 C292.719567,149.246072 290.180784,119.341471 290.180784,119.341471 C290.465932,112.010114 285.082157,105.687854 277.80604,104.81179 L264.473784,103.207295 Z" id="Fill-60" fill="#6138FA" mask="url(#mask-6)"></path>
                    <path d="M265.256967,112.277476 C262.293704,112.621412 259.604247,110.515614 259.22513,107.551598 L256.911549,89.4495239 L267.730944,88.1873431 L270.028324,106.16612 C270.415541,109.178806 268.267216,111.925428 265.256967,112.277476" id="Fill-61" fill="#ECB38C" mask="url(#mask-6)"></path>
                    <path d="M256.32246,102.95859 L255.889879,103.015372 C248.678569,103.95633 242.071577,98.8670479 241.130267,91.6443883 L239.07591,75.8703723 L265.623771,72.4050532 L267.678127,88.1790691 C268.617817,95.4001064 263.533771,102.017633 256.32246,102.95859" id="Fill-62" fill="#F1BD9A" mask="url(#mask-6)"></path>
                    <path d="M268.538429,82.1201144 L266.275073,86.8216569 C266.275073,86.8216569 263.258344,89.4401144 262.404522,82.8631463 C261.680313,77.2920293 257.641267,78.2605665 257.641267,78.2605665 C257.641267,78.2605665 243.808383,88.7392633 235.683305,81.5490505 C229.270732,75.8741037 239.634864,65.4878803 251.492778,62.9975878 L267.049507,69.8016835 L268.538429,82.1201144 Z" id="Fill-63" fill="#21283A" mask="url(#mask-6)"></path>
                    <path d="M264.706439,87.0124441 C264.998067,89.423242 267.185276,91.1413005 269.592826,90.8492793 C272.000377,90.5588803 273.716121,88.3670984 273.424493,85.9579229 C273.132865,83.5455027 270.945656,81.8290665 268.538105,82.1194654 C266.130555,82.4114867 264.414811,84.6032686 264.706439,87.0124441" id="Fill-64" fill="#F1BD9A" mask="url(#mask-6)"></path>
                    <path d="M268.280501,88.5397154 C268.332346,88.9745027 268.726043,89.2843697 269.160245,89.2324548 C269.594447,89.1805399 269.902276,88.7830665 269.850431,88.3499016 C269.798586,87.9151144 269.403268,87.6068697 268.970687,87.6587846 C268.536485,87.7106995 268.227036,88.1049282 268.280501,88.5397154" id="Fill-65" fill="#FFFFFF" mask="url(#mask-6)"></path>
                    <path d="M245.845242,95.322234 L253.296335,93.7339628 C253.296335,93.7339628 253.654389,96.9753989 249.574839,97.5610638 C246.353971,98.0218085 245.845242,95.322234 245.845242,95.322234" id="Fill-66" fill="#FFFFFF" mask="url(#mask-6)"></path>
                    <path d="M288.314204,168.702963 L259.869142,168.702963 L214.363847,196.235702 C208.999514,199.482005 206.87225,206.211473 209.398072,211.957803 L244.330235,291.449239 L254.428661,290.260064 L235.654305,213.552564 C251.410312,212.88416 280.668692,210.500941 288.314204,201.969053 C301.252762,187.528601 288.314204,168.702963 288.314204,168.702963" id="Fill-67" fill="#393F5C" mask="url(#mask-6)"></path>
                    <path d="M191.305801,118.822322 L207.536514,162.498971 L154.787506,162.498971 L139.771909,121.356418 C139.323126,120.126684 140.235274,118.822322 141.542739,118.822322 L191.305801,118.822322 Z" id="Fill-68" fill="#82B9FC" mask="url(#mask-6)"></path>
                    <path d="M191.305801,118.822322 L193.830002,118.822322 C195.187692,118.822322 196.399568,119.667561 196.869413,120.944343 L212.171778,162.498971 L207.536514,162.498971 L191.305801,118.822322 Z" id="Fill-69" fill="#9CCAFC" mask="url(#mask-6)"></path>
                    <path d="M158.741333,166.706673 L207.535542,166.706673 L207.535542,162.498322 L154.932348,162.498322 L154.932348,162.894173 C154.932348,164.999971 156.638371,166.706673 158.741333,166.706673" id="Fill-70" fill="#70A9EA" mask="url(#mask-6)"></path>
                    <path d="M207.535866,166.706673 L240.088021,166.706673 C241.248052,166.706673 242.189362,165.765715 242.189362,164.602497 C242.189362,163.440902 241.248052,162.498322 240.088021,162.498322 L207.535866,162.498322 L207.535866,166.706673 Z" id="Fill-71" fill="#7AB8EE" mask="url(#mask-6)"></path>
                    <path d="M178.091492,140.532157 C179.089508,143.54971 177.885733,146.662981 175.403655,147.48713 C172.919957,148.311279 170.097647,146.531572 169.099632,143.514019 C168.101616,140.496465 169.305391,137.383194 171.789089,136.559045 C174.272787,135.736519 177.093477,137.514604 178.091492,140.532157" id="Fill-72" fill="#EAF2F5" mask="url(#mask-6)"></path>
                    <path d="M283.645079,128.358277 L271.42587,159.08216 L271.156924,159.760298 C270.432715,161.582186 268.671606,162.687 266.82625,162.680511 L232.090126,162.453383 C230.67249,162.443649 229.531901,161.283676 229.540002,159.86575 C229.548102,158.579234 230.499133,157.521468 231.730451,157.338144 L266.092319,152.245617 L261.492699,155.842346 L269.680963,123.804367 C270.688699,119.86208 274.696963,117.485351 278.63394,118.492824 C282.570916,119.50192 284.946064,123.517213 283.938327,127.457878 C283.86218,127.753144 283.752009,128.079234 283.645079,128.358277" id="Fill-73" fill="#F1BD9A" mask="url(#mask-6)"></path>
                    <path d="M235.858444,156.701699 L223.998909,156.451859 C221.066429,156.451859 218.689661,159.151434 218.689661,162.482098 L236.010739,162.482098 L235.858444,156.701699 Z" id="Fill-74" fill="#F1BD9A" mask="url(#mask-6)"></path>
                    <path d="M264.366206,132.154391 L283.356043,136.883513 L286.471602,119.620189 C287.307602,114.981918 284.143439,110.569152 279.485493,109.884524 C275.566338,109.308593 271.783276,111.57338 270.438547,115.306386 L264.366206,132.154391 Z" id="Fill-75" fill="#826EF6" mask="url(#mask-6)"></path>
                    <path d="M241.260041,293.301628 L236.830537,297.680324 L226.873064,300.107346 C225.847506,300.358809 225.017987,301.109952 224.668033,302.107691 L224.162545,303.549952 C223.911421,304.268649 224.452553,305.016548 225.210785,305.000324 L257.259072,304.219979 C258.302452,304.198888 259.112529,303.301734 259.026661,302.258569 L256.499219,293.168596 L251.658196,294.328569 C250.038041,294.868809 248.265591,294.683862 246.78963,293.822399 L245.069026,292.81817 C243.836088,292.101096 242.275878,292.297399 241.260041,293.301628" id="Fill-76" fill="#202E3B" mask="url(#mask-6)"></path>
                    <path d="M195.261247,286.995915 L190.831743,291.376234 L180.874271,293.801633 C179.848712,294.053096 179.019193,294.804239 178.66924,295.801979 L178.163751,297.244239 C177.912627,297.962936 178.453759,298.710835 179.211991,298.694612 L208.220867,298.081367 C209.264247,298.058654 210.072705,297.163122 209.988457,296.12158 L209.235084,286.832059 L205.659402,288.022856 C204.039247,288.563096 202.266798,288.379771 200.792457,287.518309 L199.070232,286.51408 C197.837294,285.795383 196.277084,285.993309 195.261247,286.995915" id="Fill-77" fill="#202E3B" mask="url(#mask-6)"></path>
                    <path d="M330.998322,98.9153936 L412.422454,98.9153936 C415.184819,98.9153936 417.423873,96.6749415 417.423873,93.9088511 L417.423873,70.785633 C417.423873,68.0211649 415.184819,65.7790904 412.422454,65.7790904 L330.998322,65.7790904 C328.237578,65.7790904 325.998524,68.0211649 325.998524,70.785633 L325.998524,93.9088511 C325.998524,96.6749415 328.237578,98.9153936 330.998322,98.9153936" id="Fill-78" fill="#4545D1" mask="url(#mask-6)"></path>
                    <path d="M389.047019,91.855617 L405.893391,91.855617 C406.766655,91.855617 407.471422,91.1482766 407.471422,90.2754574 L407.471422,74.4187021 C407.471422,73.545883 406.766655,72.8369202 405.893391,72.8369202 L389.047019,72.8369202 C388.175376,72.8369202 387.468988,73.545883 387.468988,74.4187021 L387.468988,90.2754574 C387.468988,91.1482766 388.175376,91.855617 389.047019,91.855617" id="Fill-79" fill="#FFFFFF" mask="url(#mask-6)"></path>
                    <path d="M337.311257,76.8189548 L380.810799,76.8189548 C381.560931,76.8189548 382.171729,76.2089548 382.171729,75.4561888 C382.171729,74.7034229 381.560931,74.0934229 380.810799,74.0934229 L337.311257,74.0934229 C336.559505,74.0934229 335.950326,74.7034229 335.950326,75.4561888 C335.950326,76.2089548 336.559505,76.8189548 337.311257,76.8189548" id="Fill-80" fill="#FFFFFF" mask="url(#mask-6)"></path>
                    <path d="M365.625896,83.7106569 L380.809989,83.7106569 C381.561741,83.7106569 382.17254,83.1006569 382.17254,82.347891 L382.17254,82.3462686 C382.17254,81.5935027 381.561741,80.9835027 380.809989,80.9835027 L365.625896,80.9835027 C364.874144,80.9835027 364.264966,81.5935027 364.264966,82.3462686 L364.264966,82.347891 C364.264966,83.1006569 364.874144,83.7106569 365.625896,83.7106569" id="Fill-81" fill="#FFFFFF" mask="url(#mask-6)"></path>
                    <path d="M337.311257,83.7106569 L355.461853,83.7106569 C356.213605,83.7106569 356.822784,83.1006569 356.822784,82.347891 L356.822784,82.3462686 C356.822784,81.5935027 356.213605,80.9835027 355.461853,80.9835027 L337.311257,80.9835027 C336.559505,80.9835027 335.950326,81.5935027 335.950326,82.3462686 L335.950326,82.347891 C335.950326,83.1006569 336.559505,83.7106569 337.311257,83.7106569" id="Fill-82" fill="#FFFFFF" mask="url(#mask-6)"></path>
                    <path d="M348.201291,90.6008989 L380.810151,90.6008989 C381.561903,90.6008989 382.172702,89.9908989 382.172702,89.238133 C382.172702,88.4837447 381.561903,87.8737447 380.810151,87.8737447 L348.201291,87.8737447 C347.449539,87.8737447 346.84036,88.4837447 346.84036,89.238133 C346.84036,89.9908989 347.449539,90.6008989 348.201291,90.6008989" id="Fill-83" fill="#FFFFFF" mask="url(#mask-6)"></path>
                    <path d="M128.290681,153.471295 C128.290681,153.471295 141.712045,153.518343 138.922138,139.686269 C138.922138,139.686269 124.842991,141.079859 128.290681,153.471295" id="Fill-84" fill="#82B9FC" mask="url(#mask-6)"></path>
                    <path d="M126.608798,152.728263 C126.608798,152.728263 113.020557,152.776934 115.844488,138.772891 C115.844488,138.772891 130.098612,140.185949 126.608798,152.728263" id="Fill-85" fill="#82B9FC" mask="url(#mask-6)"></path>
                    <path d="M127.232233,152.775798 C127.232233,152.775798 117.337947,142.793537 129.007923,133.99234 C129.007923,133.99234 138.38376,145.603431 127.232233,152.775798" id="Fill-86" fill="#70A9EA" mask="url(#mask-6)"></path>
                    <polygon id="Fill-87" fill="#6138FA" mask="url(#mask-6)" points="138.089054 151.604955 116.377357 151.604955 119.833147 166.700832 134.354597 166.700832"></polygon>
                    <path d="M181.233621,169.457027 L181.233621,275.923117" id="Stroke-88" stroke="#393F5C" stroke-width="2" mask="url(#mask-6)"></path>
                </g>
            </g>
        </g>
    </g>
</svg>