<?xml version="1.0" encoding="UTF-8"?>
<svg width="386px" height="369px" viewBox="0 0 386 369" version="1.1" xmlns="http://www.w3.org/2000/svg" xmlns:xlink="http://www.w3.org/1999/xlink">
    <!-- Generator: Sketch 52.3 (67297) - http://www.bohemiancoding.com/sketch -->
    <title>Group 146</title>
    <desc>Created with Sketch.</desc>
    <defs>
        <polygon id="path-1" points="0.146117931 0.660971983 372.963117 0.660971983 372.963117 27.1048851 0.146117931 27.1048851"></polygon>
    </defs>
    <g id="Page-1" stroke="none" stroke-width="1" fill="none" fill-rule="evenodd">
        <g id="StaffCloud.io-Website-Design---V2" transform="translate(-481.000000, -2459.000000)">
            <g id="Support" transform="translate(481.000000, 1137.000000)">
                <g id="Group-146" transform="translate(0.000000, 1322.000000)">
                    <polygon id="Fill-1" fill="#7D5DE3" points="81.5609025 146 86 124 65 131.099716 81.5609025 146 86 124 65 131.099716"></polygon>
                    <g id="Group-14" transform="translate(13.000000, 125.000000)">
                        <g id="Group-10" transform="translate(3.868966, 0.000000)" fill="#FF5BE9">
                            <path d="M165.208181,0.475626197 C163.37687,1.03837524 162.03047,2.40394516 161.380484,4.05992457 C159.914146,3.0531717 158.035119,2.67757543 156.202519,3.24032447 C153.013201,4.21868175 151.22187,7.59904813 152.199429,10.7896803 C152.612119,12.138471 153.507139,13.1671659 154.529836,13.9828939 C157.830063,16.6172306 161.986622,18.2293259 166.152208,19.6349078 C169.24867,15.9034686 171.603581,11.832573 172.612091,8.43155532 C172.984801,7.17698635 173.165353,5.82948635 172.752663,4.48198635 C171.773815,1.29006346 168.397498,-0.502731082 165.208181,0.475626197" id="Fill-2"></path>
                            <path d="M11.5262931,46.5938137 C10.0444793,46.991352 8.92763793,48.0445704 8.36147931,49.3520584 C7.21755517,48.502772 5.72413448,48.1491178 4.24232069,48.5466561 C1.6643,49.2384761 0.13347931,51.8908827 0.824734483,54.4723003 C1.11619655,55.5616585 1.8022931,56.4096542 2.59672069,57.0924392 C5.16055517,59.2943884 8.44014828,60.7025517 11.7326379,61.946795 C14.3158172,59.0504444 16.3160724,55.8623937 17.2214103,53.1699751 C17.5541414,52.17742 17.7372724,51.104841 17.4458103,50.014192 C16.7558448,47.4340651 14.1056034,45.9019938 11.5262931,46.5938137" id="Fill-4"></path>
                            <path d="M321.992592,112.1231 C320.46564,111.969506 319.049599,112.558069 318.056564,113.57902 C317.28793,112.381242 316.01633,111.520339 314.490668,111.366745 C311.833978,111.098277 309.463592,113.035631 309.195343,115.694491 C309.081854,116.817408 309.423612,117.853847 309.925288,118.772832 C311.542516,121.741462 314.110219,124.222205 316.748854,126.553225 C320.190943,124.761721 323.189392,122.490073 324.988461,120.293287 C325.651343,119.482722 326.203316,118.545667 326.316806,117.42146 C326.585054,114.76389 324.649281,112.391568 321.992592,112.1231" id="Fill-6"></path>
                            <path d="M311.74641,28.7085908 C310.808831,28.419472 309.845459,28.6104969 309.09359,29.1254897 C308.762148,28.2762033 308.073472,27.5753484 307.135893,27.2849389 C305.50319,26.7815625 303.771183,27.6979658 303.268217,29.3320031 C303.055424,30.0225323 303.137962,30.715643 303.336569,31.3558345 C303.977528,33.4222593 305.274921,35.3028221 306.636797,37.098198 C309.021369,36.4089595 311.189279,35.3634854 312.596293,34.2134638 C313.114734,33.7888206 313.577721,33.2699557 313.790514,32.5794265 C314.294769,30.9453891 313.379114,29.2132579 311.74641,28.7085908" id="Fill-8"></path>
                        </g>
                        <g id="Group-13" transform="translate(0.000000, 216.839080)">
                            <mask id="mask-2" fill="white">
                                <use xlink:href="#path-1"></use>
                            </mask>
                            <g id="Clip-12"></g>
                            <path d="M372.963504,13.8829931 C372.963504,21.1845328 289.506049,27.1050141 186.554166,27.1050141 C83.6048628,27.1050141 0.146117931,21.1845328 0.146117931,13.8829931 C0.146117931,6.5801626 83.6048628,0.660971983 186.554166,0.660971983 C289.506049,0.660971983 372.963504,6.5801626 372.963504,13.8829931" id="Fill-11" fill="#7D5DE3" opacity="0.08" mask="url(#mask-2)"></path>
                        </g>
                    </g>
                    <polygon id="Fill-15" fill="#F7C3BB" points="168 350 174 350 174 318 168 318"></polygon>
                    <g id="Group-140">
                        <path d="M125.317179,191.326751 C125.317179,191.326751 78.203799,205.592537 75.617349,206.87161 C73.030899,208.150683 69.688509,209.471016 69.573699,208.426612 C69.457599,207.383497 71.764119,206.804562 71.764119,206.804562 C71.764119,206.804562 65.428929,208.418875 65.021289,206.836797 C64.613649,205.254718 71.224899,202.327808 71.224899,202.327808 C71.224899,202.327808 108.015699,175.379604 128.903379,178.441899 L125.317179,191.326751 Z" id="Fill-16" fill="#F7C3BB"></path>
                        <path d="M85.739721,203.502956 C100.315431,198.898552 124.417791,193.454757 124.417791,193.454757 L128.903121,178.442415 C115.278141,176.445154 94.890981,187.215409 82.357341,194.946578 L85.739721,203.502956 Z" id="Fill-18" fill="#2627A1"></path>
                        <path d="M156.582006,195.869909 C156.582006,195.869909 149.723076,177.323356 125.825826,178.205297 L124.417146,193.453596 L156.582006,195.869909 Z" id="Fill-20" fill="#2627A1"></path>
                        <path d="M179.185386,216.395544 C179.185386,216.395544 177.425826,265.568925 176.850486,268.395263 C176.273856,271.2216 175.852026,274.788047 176.891766,274.63332 C177.930216,274.477305 177.899256,272.100963 177.899256,272.100963 C177.899256,272.100963 177.957306,278.63558 179.591736,278.625265 C181.226166,278.61495 182.369106,271.478189 182.369106,271.478189 C182.369106,271.478189 199.030746,229.03928 190.732176,209.636573 L179.185386,216.395544 Z" id="Fill-22" fill="#F7C3BB"></path>
                        <path d="M177.521802,257.752269 C178.250652,242.491076 177.357972,217.808326 177.357972,217.808326 L190.731402,209.636186 C196.145532,222.294106 190.937802,244.747504 186.661452,258.834066 L177.521802,257.752269 Z" id="Fill-24" fill="#2627A1"></path>
                        <path d="M166.801257,187.343961 C166.801257,187.343961 186.494397,189.231625 191.745987,212.550203 L177.357327,217.808326 L166.801257,187.343961 Z" id="Fill-26" fill="#2627A1"></path>
                        <path d="M141.334464,231.08051 L173.098134,231.08051 L175.796814,200.208699 C175.796814,192.694147 169.808634,186.60179 162.423384,186.60179 L150.659874,186.60179 C143.273334,186.60179 134.714184,188.305071 134.714184,195.819623 L141.334464,231.08051 Z" id="Fill-28" fill="#2627A1"></path>
                        <polygon id="Fill-30" fill="#F7C3BB" points="156.723132 349.859812 150.264102 350.547056 146.877852 318.807487 153.336882 318.118954"></polygon>
                        <path d="M157.293699,347.025351 C157.293699,347.025351 152.866419,349.356564 150.877239,348.12262 C148.888059,346.888676 148.570719,348.747973 149.085429,350.673029 C149.601429,352.596796 146.840829,352.892066 146.840829,352.892066 C146.840829,352.892066 141.150639,353.807531 141.532479,357.383003 C141.914319,360.959765 158.525649,358.56795 160.140729,356.434014 C160.906989,355.420555 158.637879,353.971283 158.363109,352.367285 C158.088339,350.763286 159.093249,347.247126 157.293699,347.025351" id="Fill-32" fill="#1F4FAD"></path>
                        <path d="M146.28342,352.651337 C146.93745,353.351474 147.59019,354.050323 148.24422,354.75046 C148.60284,355.134698 149.19624,354.542869 148.82085,354.174104 C148.13844,353.502333 147.45732,352.831851 146.77491,352.16008 C146.45499,351.84547 145.97898,352.325122 146.28342,352.651337" id="Fill-34" fill="#2627A1"></path>
                        <path d="M147.398883,352.350394 C147.926493,352.764287 148.452813,353.18076 148.980423,353.595942 C149.444823,353.963418 149.956953,353.312277 149.480943,352.94738 C148.948173,352.538644 148.414113,352.132487 147.881343,351.725041 C147.526593,351.45298 147.044133,352.069307 147.398883,352.350394" id="Fill-36" fill="#2627A1"></path>
                        <path d="M167.326545,347.413199 C167.326545,347.413199 171.975705,349.263471 173.822985,347.823224 C175.670265,346.385557 176.183685,348.202304 175.875375,350.1712 C175.567065,352.138805 178.341855,352.138805 178.341855,352.138805 C178.341855,352.138805 184.097835,352.446969 184.097835,356.041782 C184.097835,359.637884 167.326545,359.021557 165.494745,357.069424 C164.623995,356.143644 166.727985,354.462282 166.829895,352.837653 C166.933095,351.214314 165.561825,347.823224 167.326545,347.413199" id="Fill-38" fill="#1F4FAD"></path>
                        <path d="M178.355142,351.377035 C177.750132,352.114565 177.145122,352.853384 176.538822,353.592203 C176.167302,354.043489 176.822622,354.560533 177.179952,354.086039 C177.754002,353.32401 178.328052,352.560693 178.900812,351.797375 C179.136882,351.485344 178.605402,351.072739 178.355142,351.377035" id="Fill-40" fill="#2627A1"></path>
                        <path d="M177.138801,351.127796 C176.651181,351.589397 176.164851,352.052287 175.677231,352.513888 C175.290231,352.880074 175.879761,353.470614 176.261601,353.097981 C176.741481,352.629933 177.221361,352.160596 177.702531,351.691259 C178.068891,351.33152 177.510321,350.775793 177.138801,351.127796" id="Fill-42" fill="#2627A1"></path>
                        <path d="M150.021711,163.892061 C150.021711,163.892061 142.258491,163.440775 141.253581,158.926629 C139.844901,152.608629 142.298481,147.344059 148.343421,150.813801 C153.204141,153.604036 155.390691,151.187724 158.356401,152.041298 C160.844811,152.758198 172.194231,157.42836 170.414031,167.134871 C168.633831,176.840093 160.455231,175.423056 159.688971,171.360195 C158.922711,167.296045 150.021711,163.892061 150.021711,163.892061" id="Fill-44" fill="#2627A1"></path>
                        <path d="M194.012775,198.459386 L195.909075,198.761103 C198.483915,197.115844 201.636675,196.496938 204.386955,197.684464 C207.068865,198.841045 209.185755,201.923971 209.185755,205.271222 L239.974185,205.271222 C240.098025,203.944442 240.457935,202.647318 241.056495,201.513946 C242.710275,198.384602 245.887545,196.650375 247.374915,193.408855 C248.707485,190.503864 248.377245,186.759482 246.846015,183.995035 C245.314785,181.229298 242.720595,179.415129 239.979345,178.71886 C237.689595,178.137346 235.174095,178.226314 233.219745,176.704836 C230.710695,174.750124 229.998615,170.874225 229.352325,167.414797 C228.966615,165.34533 228.525435,163.270705 227.738535,161.36499 C225.606165,156.207439 220.822845,152.732539 215.950515,152.800877 C211.079475,152.871793 206.368395,156.482079 204.343095,161.698942 C202.980855,165.209944 202.800255,169.174812 202.014645,172.921773 C201.230325,176.670023 199.544295,180.558816 196.486995,181.952644 C194.933835,182.660518 193.100745,182.688885 191.832675,183.958932 C190.076985,185.718946 190.244685,188.910181 190.563315,191.598554 C190.894845,194.406841 191.666265,197.815982 194.012775,198.459386" id="Fill-46" fill="#654897"></path>
                        <path d="M147.201771,168.537081 C146.997951,171.016573 143.407881,180.570936 150.856341,181.103454 C150.856341,181.103454 150.679611,186.244243 149.438631,186.244243 C149.438631,186.244243 146.840571,194.667813 153.907191,195.294455 C160.973811,195.921098 165.223071,186.598824 165.223071,186.598824 C165.223071,186.598824 161.322111,186.244243 162.208341,176.317246 C162.208341,176.317246 165.184371,171.560695 165.046341,167.098124 C164.908311,162.636842 159.948261,158.629425 155.468091,158.944036 C150.989211,159.258646 147.842901,160.716944 147.201771,168.537081" id="Fill-48" fill="#F7C3BB"></path>
                        <path d="M156.502671,172.813851 C156.581361,171.935778 157.356651,171.287216 158.233851,171.365868 C159.112341,171.444521 159.761211,172.218154 159.682521,173.096227 C159.605121,173.9743 158.829831,174.622862 157.952631,174.544209 C157.074141,174.466846 156.425271,173.691924 156.502671,172.813851" id="Fill-50" fill="#FEF0E7"></path>
                        <path d="M146.555481,171.904704 C146.785101,171.831208 146.737371,171.872469 146.990211,171.91115 C147.860961,172.046536 148.458231,172.861429 148.324071,173.731766 C148.189911,174.603392 147.373341,175.200379 146.502591,175.064993 C146.274261,175.030179 146.341341,175.089491 146.159451,174.972157" id="Fill-52" fill="#FEF0E7"></path>
                        <path d="M162.383136,171.809676 C163.077156,170.338484 164.701266,169.646083 166.009326,170.2637 C167.317386,170.880027 167.814036,172.572993 167.120016,174.044185 C166.425996,175.515376 164.801886,176.207777 163.493826,175.590161 C162.185766,174.973833 161.689116,173.280867 162.383136,171.809676" id="Fill-54" fill="#F7C3BB"></path>
                        <polygon id="Fill-56" fill="#F7C3BB" points="223.557 350.171071 230.05344 350.171071 230.05344 306.433749 223.557 306.433749"></polygon>
                        <polygon id="Fill-58" fill="#F7C3BB" points="197.2152 350.171071 203.71164 350.171071 203.71164 306.433749 197.2152 306.433749"></polygon>
                        <polygon id="Fill-59" fill="#F9FBFC" points="223.557 350.171071 230.05344 350.171071 230.05344 338.668442 223.557 338.668442"></polygon>
                        <polygon id="Fill-60" fill="#F9FBFC" points="197.2152 350.171071 203.71164 350.171071 203.71164 338.668442 197.2152 338.668442"></polygon>
                        <path d="M197.71959,213.339566 C197.71959,213.339566 193.68318,262.37885 193.92312,265.252896 C194.16306,268.126941 194.16306,271.719175 193.14912,271.443246 C192.13518,271.166028 192.44478,268.810316 192.44478,268.810316 C192.44478,268.810316 191.61918,275.293358 189.99765,275.090924 C188.37483,274.887201 188.08071,267.66663 188.08071,267.66663 C188.08071,267.66663 176.52489,223.564411 187.04871,205.270577 L197.71959,213.339566 Z" id="Fill-61" fill="#F7C3BB"></path>
                        <path d="M235.670745,191.551492 L246.216495,202.19023 L256.500375,174.721113 L263.508945,176.974963 C263.508945,176.974963 260.787045,199.576641 259.004265,204.714851 C257.222775,209.854351 254.351235,222.441354 248.642985,220.291945 C242.934735,218.143825 230.052795,207.043485 230.052795,207.043485 L235.670745,191.551492 Z" id="Fill-62" fill="#F7C3BB"></path>
                        <path d="M223.556742,186.60179 C223.556742,186.60179 236.994672,185.859102 245.126832,197.628634 L233.930922,214.956716 L223.556742,186.60179 Z" id="Fill-63" fill="#67D1E3"></path>
                        <path d="M209.742261,186.60179 C209.742261,186.60179 193.657251,184.378885 185.697951,206.918673 L199.368081,214.956716 L209.742261,186.60179 Z" id="Fill-64" fill="#67D1E3"></path>
                        <path d="M230.905614,230.364771 L226.889844,228.715644 L205.533894,228.715644 L200.649954,230.364771 C200.649954,230.364771 192.531984,233.303285 192.531984,248.497431 C192.531984,256.505818 191.560614,285.830364 190.642134,311.780582 L236.728674,311.780582 C237.844524,285.830364 239.023584,256.505818 239.023584,248.497431 C239.023584,233.303285 230.905614,230.364771 230.905614,230.364771" id="Fill-65" fill="#FFAF0A"></path>
                        <path d="M216.013338,249.115047 L216.021078,249.076366 L216.013338,249.115047 Z" id="Fill-66" fill="#89E5FF"></path>
                        <path d="M231.678453,231.08051 L199.914783,231.08051 L197.216103,200.208699 C197.216103,192.694147 203.202993,186.60179 210.589533,186.60179 L222.353043,186.60179 C229.739583,186.60179 235.727763,192.694147 235.727763,200.208699 L231.678453,231.08051 Z" id="Fill-67" fill="#67D1E3"></path>
                        <path d="M256.479477,176.114812 L256.718127,173.132459 C256.718127,173.132459 254.100717,169.263006 254.350977,168.246968 C254.599947,167.230931 257.884287,169.479623 257.884287,169.479623 C257.884287,169.479623 258.288057,158.824123 259.992147,159.804057 C260.433327,160.058067 259.738017,166.876349 259.738017,166.876349 C259.738017,166.876349 262.845627,159.158074 264.114987,159.468816 C265.385637,159.780848 262.072917,167.785368 262.072917,167.785368 C262.072917,167.785368 266.624037,160.21924 267.769557,161.039291 C268.916367,161.858052 263.970507,169.933488 263.970507,169.933488 C263.970507,169.933488 268.258467,163.985542 269.277567,164.773358 C270.295377,165.562463 265.278567,171.736052 265.278567,171.736052 L263.304867,177.578268 L256.479477,176.114812 Z" id="Fill-68" fill="#F7C3BB"></path>
                        <path d="M222.68883,347.413199 C222.68883,347.413199 227.33799,349.263471 229.18527,347.823224 C231.03126,346.385557 231.54597,348.202304 231.23766,350.1712 C230.92935,352.138805 233.70414,352.138805 233.70414,352.138805 C233.70414,352.138805 239.46012,352.446969 239.46012,356.041782 C239.46012,359.637884 222.68883,359.021557 220.85703,357.069424 C219.98628,356.143644 222.09027,354.462282 222.19218,352.837653 C222.29538,351.214314 220.92411,347.823224 222.68883,347.413199" id="Fill-69" fill="#67D1E3"></path>
                        <path d="M233.717427,351.377035 C233.111127,352.114565 232.506117,352.853384 231.901107,353.592203 C231.529587,354.043489 232.184907,354.560533 232.542237,354.086039 C233.116287,353.32401 233.690337,352.560693 234.263097,351.797375 C234.497877,351.485344 233.967687,351.072739 233.717427,351.377035" id="Fill-70" fill="#2627A1"></path>
                        <path d="M232.501086,351.127796 C232.013466,351.589397 231.525846,352.052287 231.039516,352.513888 C230.652516,352.880074 231.242046,353.470614 231.622596,353.097981 C232.103766,352.629933 232.583646,352.160596 233.064816,351.691259 C233.431176,351.33152 232.872606,350.777083 232.501086,351.127796" id="Fill-71" fill="#2627A1"></path>
                        <path d="M204.336516,347.413199 C204.336516,347.413199 199.687356,349.263471 197.840076,347.823224 C195.992796,346.385557 195.479376,348.202304 195.787686,350.1712 C196.095996,352.138805 193.321206,352.138805 193.321206,352.138805 C193.321206,352.138805 187.565226,352.446969 187.565226,356.041782 C187.565226,359.637884 204.336516,359.021557 206.168316,357.069424 C207.039066,356.143644 204.935076,354.462282 204.831876,352.837653 C204.729966,351.214314 206.101236,347.823224 204.336516,347.413199" id="Fill-72" fill="#67D1E3"></path>
                        <path d="M192.761862,351.797633 C193.335912,352.560951 193.909962,353.324268 194.482722,354.085007 C194.834892,354.553055 195.501822,354.051483 195.125142,353.592461 C194.518842,352.852352 193.913832,352.114823 193.307532,351.377293 C193.059852,351.074287 192.523212,351.481733 192.761862,351.797633" id="Fill-73" fill="#2627A1"></path>
                        <path d="M193.961175,351.690614 C194.441055,352.159951 194.922225,352.630578 195.402105,353.098626 C195.782655,353.471259 196.373475,352.880719 195.986475,352.514533 C195.498855,352.051643 195.011235,351.590042 194.524905,351.127152 C194.152095,350.776438 193.593525,351.332164 193.961175,351.690614" id="Fill-74" fill="#2627A1"></path>
                        <polygon id="Fill-75" fill="#1F4FAD" points="197.700111 232.465054 234.341271 232.984678 232.296621 226.36754 199.467411 225.957514"></polygon>
                        <path d="M205.943985,168.537081 C205.741455,171.016573 202.151385,180.570936 209.599845,181.103454 C209.599845,181.103454 209.421825,186.244243 208.180845,186.244243 C208.180845,186.244243 205.582785,194.667813 212.649405,195.294455 C219.716025,195.921098 223.966575,186.598824 223.966575,186.598824 C223.966575,186.598824 220.064325,186.244243 220.950555,176.317246 C220.950555,176.317246 223.926585,171.560695 223.788555,167.098124 C223.650525,162.636842 218.690475,158.629425 214.211595,158.944036 C209.732715,159.258646 206.585115,160.716944 205.943985,168.537081" id="Fill-76" fill="#F7C3BB"></path>
                        <path d="M215.24553,172.813851 C215.32422,171.935778 216.09822,171.287216 216.97671,171.365868 C217.85391,171.444521 218.50278,172.218154 218.42538,173.096227 C218.34798,173.9743 217.57269,174.622862 216.6942,174.544209 C215.81571,174.466846 215.16684,173.691924 215.24553,172.813851" id="Fill-77" fill="#FEF0E7"></path>
                        <path d="M205.29834,171.904704 C205.52667,171.831208 205.47894,171.872469 205.73307,171.91115 C206.60382,172.046536 207.20109,172.861429 207.06693,173.731766 C206.93148,174.603392 206.1162,175.200379 205.24416,175.064993 C205.01712,175.030179 205.0842,175.089491 204.90231,174.972157" id="Fill-78" fill="#FEF0E7"></path>
                        <path d="M221.126124,171.809676 C221.820144,170.338484 223.442964,169.646083 224.752314,170.2637 C226.060374,170.880027 226.557024,172.572993 225.863004,174.044185 C225.168984,175.515376 223.544874,176.207777 222.236814,175.590161 C220.928754,174.973833 220.430814,173.280867 221.126124,171.809676" id="Fill-79" fill="#F7C3BB"></path>
                        <path d="M224.053134,167.365414 C224.253084,168.569702 223.862214,169.945479 222.826344,170.591462 C221.791764,171.237445 220.139274,170.778423 219.851604,169.593476 C219.682614,168.899785 219.976734,168.145494 219.753564,167.469854 C219.494274,166.687196 218.610624,166.266856 217.787604,166.238489 C216.963294,166.211412 216.164784,166.483473 215.359824,166.656251 C214.905744,166.754244 214.398774,166.812267 214.004034,166.564704 C213.350004,166.154679 213.339684,165.123169 212.699844,164.689934 C212.096124,164.281198 211.260204,164.621597 210.711954,165.101249 C210.163704,165.582191 209.710914,166.210122 209.033664,166.479605 C207.791394,166.976019 206.333694,165.922589 206.020224,164.622886 C205.704174,163.321894 206.253714,161.955143 207.026424,160.863031 C209.532894,157.318505 214.645164,155.898889 218.620944,157.64472 C222.596724,159.389261 225.010314,164.113578 224.094414,168.355664" id="Fill-80" fill="#654897"></path>
                        <path d="M140.910436,227.845823 C140.910436,227.845823 140.866581,308.502184 148.899411,344.490286 L157.092201,344.490286 C157.092201,344.490286 153.202851,267.426159 155.575161,248.031188 L158.377041,249.136193 L166.569831,345.783542 L175.193481,344.231119 C175.193481,344.231119 177.098811,255.539293 173.218491,228.643954 C173.218491,228.643954 153.716271,231.503816 140.910436,227.845823" id="Fill-81" fill="#4B7EFF"></path>
                        <path d="M148.187589,163.648367 C148.187589,163.648367 149.296989,160.96644 151.849899,161.91414 C154.402809,162.86184 153.818439,166.215538 158.632719,165.70494 C163.445709,165.194343 161.390739,169.731698 164.752479,170.014074 C168.112929,170.29774 169.352619,166.287744 167.967159,162.788345 C166.581699,159.290236 148.172109,150.947898 148.187589,163.648367" id="Fill-82" fill="#2627A1"></path>
                        <polygon id="Fill-83" fill="#F7C3BB" points="97.1241 350.171071 103.62054 350.171071 103.62054 318.249698 97.1241 318.249698"></polygon>
                        <polygon id="Fill-84" fill="#F7C3BB" points="123.4659 350.171071 129.96234 350.171071 129.96234 318.249698 123.4659 318.249698"></polygon>
                        <polygon id="Fill-85" fill="#F9FBFC" points="97.1241 350.171071 103.62054 350.171071 103.62054 338.668442 97.1241 338.668442"></polygon>
                        <polygon id="Fill-86" fill="#F9FBFC" points="123.4659 350.171071 129.96234 350.171071 129.96234 338.668442 123.4659 338.668442"></polygon>
                        <path d="M129.45795,213.339566 C129.45795,213.339566 133.49436,262.37885 133.25442,265.252896 C133.01448,268.126941 133.01448,271.719175 134.02842,271.443246 C135.04236,271.166028 134.73276,268.810316 134.73276,268.810316 C134.73276,268.810316 135.55836,275.293358 137.17989,275.090924 C138.80271,274.887201 139.09812,267.66663 139.09812,267.66663 C139.09812,267.66663 150.65394,223.564411 140.12883,205.270577 L129.45795,213.339566 Z" id="Fill-87" fill="#F7C3BB"></path>
                        <path d="M91.507569,191.551492 L80.961819,202.19023 L70.676649,174.721113 L63.668079,176.974963 C63.668079,176.974963 66.391269,199.576641 68.172759,204.714851 C69.955539,209.854351 72.827079,222.441354 78.535329,220.291945 C84.242289,218.143825 97.124229,207.043485 97.124229,207.043485 L91.507569,191.551492 Z" id="Fill-88" fill="#F7C3BB"></path>
                        <path d="M103.620798,186.60179 C103.620798,186.60179 90.182868,185.859102 82.051998,197.628634 L93.246618,214.956716 L103.620798,186.60179 Z" id="Fill-89" fill="#B772FF"></path>
                        <path d="M117.435408,186.60179 C117.435408,186.60179 133.521708,184.378885 141.479718,206.918673 L127.809588,214.956716 L117.435408,186.60179 Z" id="Fill-90" fill="#B772FF"></path>
                        <path d="M110.068863,326.123215 L111.156333,249.07585 L114.626433,222.823915 L96.272313,230.364255 C96.272313,230.364255 88.153053,233.304059 88.153053,248.498204 C88.153053,258.037095 89.827473,297.822444 91.072323,326.123215 L110.068863,326.123215 Z" id="Fill-91" fill="#89E5FF"></path>
                        <path d="M117.962631,326.123215 L137.049471,326.123215 C136.023921,297.822444 134.644911,258.037095 134.644911,248.498204 C134.644911,233.304059 126.526941,230.364255 126.526941,230.364255 L106.014651,223.433796 L112.258251,254.566063 L117.962631,326.123215 Z" id="Fill-92" fill="#89E5FF"></path>
                        <path d="M95.499732,231.08051 L127.263402,231.08051 L129.962082,200.208699 C129.962082,192.694147 123.973902,186.60179 116.588652,186.60179 L104.825142,186.60179 C97.437312,186.60179 91.450422,192.694147 91.450422,200.208699 L95.499732,231.08051 Z" id="Fill-93" fill="#7D5DE3"></path>
                        <path d="M70.698708,176.114812 L70.460058,173.132459 C70.460058,173.132459 73.076178,169.263006 72.827208,168.246968 C72.578238,167.230931 69.293898,169.479623 69.293898,169.479623 C69.293898,169.479623 68.890128,158.824123 67.184748,159.804057 C66.744858,160.058067 67.440168,166.876349 67.440168,166.876349 C67.440168,166.876349 64.332558,159.158074 63.063198,159.468816 C61.792548,159.780848 65.105268,167.785368 65.105268,167.785368 C65.105268,167.785368 60.552858,160.21924 59.408628,161.039291 C58.261818,161.858052 63.207678,169.933488 63.207678,169.933488 C63.207678,169.933488 58.919718,163.985542 57.900618,164.773358 C56.882808,165.562463 61.899618,171.736052 61.899618,171.736052 L63.872028,177.578268 L70.698708,176.114812 Z" id="Fill-94" fill="#F7C3BB"></path>
                        <path d="M104.489355,347.413199 C104.489355,347.413199 99.840195,349.263471 97.992915,347.823224 C96.145635,346.385557 95.632215,348.202304 95.940525,350.1712 C96.248835,352.138805 93.472755,352.138805 93.472755,352.138805 C93.472755,352.138805 87.718065,352.446969 87.718065,356.041782 C87.718065,359.637884 104.489355,359.021557 106.321155,357.069424 C107.191905,356.143644 105.087915,354.462282 104.984715,352.837653 C104.882805,351.214314 106.254075,347.823224 104.489355,347.413199" id="Fill-95" fill="#E3A443"></path>
                        <path d="M92.914701,351.797633 C93.488751,352.560951 94.062801,353.324268 94.635561,354.085007 C94.987731,354.553055 95.654661,354.051483 95.276691,353.592461 C94.671681,352.852352 94.066671,352.114823 93.460371,351.377293 C93.212691,351.074287 92.676051,351.481733 92.914701,351.797633" id="Fill-96" fill="#EA6114"></path>
                        <path d="M94.114014,351.690614 C94.593894,352.159951 95.075064,352.630578 95.554944,353.098626 C95.935494,353.471259 96.525024,352.880719 96.139314,352.514533 L94.676454,351.127152 C94.304934,350.776438 93.746364,351.332164 94.114014,351.690614" id="Fill-97" fill="#EA6114"></path>
                        <path d="M122.841669,347.413199 C122.841669,347.413199 127.490829,349.263471 129.338109,347.823224 C131.184099,346.385557 131.698809,348.202304 131.390499,350.1712 C131.082189,352.138805 133.856979,352.138805 133.856979,352.138805 C133.856979,352.138805 139.612959,352.446969 139.612959,356.041782 C139.612959,359.637884 122.841669,359.021557 121.009869,357.069424 C120.139119,356.143644 122.243109,354.462282 122.345019,352.837653 C122.448219,351.214314 121.076949,347.823224 122.841669,347.413199" id="Fill-98" fill="#E3A443"></path>
                        <path d="M133.870266,351.377035 C133.263966,352.114565 132.658956,352.853384 132.053946,353.592203 C131.682426,354.043489 132.337746,354.560533 132.693786,354.086039 C133.269126,353.32401 133.843176,352.560693 134.415936,351.797375 C134.650716,351.485344 134.120526,351.072739 133.870266,351.377035" id="Fill-99" fill="#EA6114"></path>
                        <path d="M132.654054,351.127796 L131.191194,352.513888 C130.805484,352.880074 131.395014,353.470614 131.775564,353.097981 C132.256734,352.629933 132.736614,352.160596 133.217784,351.691259 C133.584144,351.33152 133.025574,350.777083 132.654054,351.127796" id="Fill-100" fill="#EA6114"></path>
                        <polygon id="Fill-101" fill="#4B7EFF" points="111.424395 328.249932 90.166485 328.249932 89.289285 320.458161 111.424395 320.458161"></polygon>
                        <polygon id="Fill-102" fill="#4B7EFF" points="116.37348 328.250189 138.50859 328.250189 138.50859 320.458419 116.37348 320.458419"></polygon>
                        <polygon id="Fill-103" fill="#67D1E3" points="114.649395 255.084139 105.971565 244.988233 108.426435 242.666046 116.341875 254.652194"></polygon>
                        <polygon id="Fill-104" fill="#B772FF" points="129.477429 232.465054 92.836269 232.984678 94.880919 226.36754 127.710129 225.957514"></polygon>
                        <path d="M103.813524,180.236082 C102.495144,180.976191 100.911024,179.962732 99.746154,178.996981 C98.630304,178.073779 97.404804,176.888832 97.585404,175.453743 C97.715694,174.415786 98.555484,173.62926 99.021174,172.693164 C99.937074,170.850629 99.319164,168.605805 98.333604,166.799373 C97.349334,164.991651 96.006444,163.355418 95.374344,161.396838 C94.436514,158.48669 95.321454,155.069812 97.553154,152.979715 C99.786144,150.889617 103.254954,150.232029 106.099404,151.358954 C107.149464,151.775427 108.100194,152.404648 109.023834,153.055789 C110.567964,154.144032 112.292694,155.366371 114.159324,155.072391 C115.611864,154.844169 116.745774,153.744322 118.017714,153.002924 C119.538624,152.117114 121.393644,151.732877 123.097734,152.171269 C124.803114,152.612239 126.303384,153.944177 126.730374,155.651326 C127.207674,157.557041 126.358854,159.585248 126.718764,161.516751 C126.903234,162.50958 127.415364,163.439228 128.155824,164.127761 C128.940144,164.857555 129.946344,165.302394 130.770654,165.987058 C133.328724,168.109391 133.353234,172.587434 130.819674,174.738133 C130.016004,175.420219 129.012384,175.892135 128.394474,176.74442 C127.460514,178.033808 127.660464,179.792533 127.303134,181.343667 C126.707154,183.936625 124.302594,186.004803 121.649064,186.207237 C118.995534,186.41225 116.304594,184.734756 115.317744,182.264289 C114.570834,180.392098 114.698544,178.127934 113.396934,176.588405 C112.210134,175.182972 110.045514,174.839995 108.344004,175.537554 C106.641204,176.235112 105.402804,177.814612 104.801664,179.551418" id="Fill-105" fill="#654897"></path>
                        <path d="M101.366394,168.537081 C101.163864,171.016573 97.573794,180.570936 105.022254,181.103454 C105.022254,181.103454 104.844234,186.244243 103.603254,186.244243 C103.603254,186.244243 101.005194,194.667813 108.071814,195.294455 C115.138434,195.921098 119.388984,186.598824 119.388984,186.598824 C119.388984,186.598824 115.486734,186.244243 116.372964,176.317246 C116.372964,176.317246 119.348994,171.560695 119.210964,167.098124 C119.072934,162.636842 114.112884,158.629425 109.634004,158.944036 C105.155124,159.258646 102.007524,160.716944 101.366394,168.537081" id="Fill-106" fill="#F7C3BB"></path>
                        <path d="M110.667939,172.813851 C110.746629,171.935778 111.520629,171.287216 112.399119,171.365868 C113.276319,171.444521 113.925189,172.218154 113.847789,173.096227 C113.770389,173.9743 112.995099,174.622862 112.116609,174.544209 C111.238119,174.466846 110.589249,173.691924 110.667939,172.813851" id="Fill-107" fill="#FEF0E7"></path>
                        <path d="M100.720878,171.904704 C100.949208,171.831208 100.901478,171.872469 101.155608,171.91115 C102.026358,172.046536 102.623628,172.861429 102.489468,173.731766 C102.354018,174.603392 101.538738,175.200379 100.666698,175.064993 C100.439658,175.030179 100.506738,175.089491 100.324848,174.972157" id="Fill-108" fill="#FEF0E7"></path>
                        <path d="M116.548533,171.809676 C117.242553,170.338484 118.865373,169.646083 120.174723,170.2637 C121.482783,170.880027 121.979433,172.572993 121.285413,174.044185 C120.591393,175.515376 118.967283,176.207777 117.659223,175.590161 C116.351163,174.973833 115.853223,173.280867 116.548533,171.809676" id="Fill-109" fill="#F7C3BB"></path>
                        <path d="M119.475543,167.365414 C119.675493,168.569702 119.284623,169.945479 118.248753,170.591462 C117.214173,171.237445 115.561683,170.778423 115.274013,169.593476 C115.105023,168.899785 115.399143,168.145494 115.175973,167.469854 C114.916683,166.687196 114.033033,166.266856 113.210013,166.238489 C112.385703,166.211412 111.587193,166.483473 110.782233,166.656251 C110.328153,166.754244 109.821183,166.812267 109.426443,166.564704 C108.772413,166.154679 108.762093,165.123169 108.122253,164.689934 C107.518533,164.281198 106.682613,164.621597 106.135653,165.101249 C105.586113,165.582191 105.133323,166.210122 104.456073,166.479605 C103.213803,166.976019 101.757393,165.922589 101.442633,164.622886 C101.126583,163.321894 101.676123,161.955143 102.448833,160.863031 C104.955303,157.318505 110.067573,155.898889 114.043353,157.64472 C118.019133,159.389261 120.432723,164.113578 119.516823,168.355664" id="Fill-110" fill="#654897"></path>
                        <polygon id="Fill-111" fill="#F7C3BB" points="266.93841 350.171071 273.43485 350.171071 273.43485 318.249698 266.93841 318.249698"></polygon>
                        <polygon id="Fill-112" fill="#F7C3BB" points="290.58024 350.171071 297.07668 350.171071 297.07668 318.249698 290.58024 318.249698"></polygon>
                        <path d="M297.922017,213.339566 C297.922017,213.339566 301.958427,262.37885 301.718487,265.252896 C301.478547,268.126941 301.478547,271.719175 302.492487,271.443246 C303.506427,271.166028 303.196827,268.810316 303.196827,268.810316 C303.196827,268.810316 304.022427,275.293358 305.643957,275.090924 C307.266777,274.887201 307.562187,267.66663 307.562187,267.66663 C307.562187,267.66663 319.118007,223.564411 308.592897,205.270577 L297.922017,213.339566 Z" id="Fill-113" fill="#F7C3BB"></path>
                        <path d="M310.338267,254.605003 C312.927297,240.113574 315.458277,217.203732 308.592897,205.270448 L297.226707,213.915793 C297.226707,213.915793 300.063417,239.36315 301.134117,254.605003 L310.338267,254.605003 Z" id="Fill-114" fill="#F9BE06"></path>
                        <path d="M285.899475,186.60179 C285.899475,186.60179 301.935465,185.382029 309.894765,207.921816 L296.273655,214.956716 L285.899475,186.60179 Z" id="Fill-115" fill="#F9BE06"></path>
                        <path d="M262.0893,213.339566 C262.0893,213.339566 258.05289,262.37885 258.29283,265.252896 C258.53148,268.126941 258.53148,271.719175 257.51883,271.443246 C256.50489,271.166028 256.81449,268.810316 256.81449,268.810316 C256.81449,268.810316 255.98889,275.293358 254.36607,275.090924 C252.74454,274.887201 252.44913,267.66663 252.44913,267.66663 C252.44913,267.66663 240.89331,223.564411 251.41842,205.270577 L262.0893,213.339566 Z" id="Fill-116" fill="#F7C3BB"></path>
                        <path d="M258.876813,254.605003 C259.947513,239.36315 262.088913,213.339437 262.088913,213.339437 L251.418033,205.270448 C244.552653,217.203732 247.083633,240.113574 249.672663,254.605003 L258.876813,254.605003 Z" id="Fill-117" fill="#F9BE06"></path>
                        <path d="M274.111197,186.60179 C274.111197,186.60179 258.026187,185.50581 250.066887,208.045598 L263.737017,214.956716 L274.111197,186.60179 Z" id="Fill-118" fill="#F9BE06"></path>
                        <path d="M263.963799,231.08051 L295.727469,231.08051 L298.426149,200.208699 C298.426149,192.694147 292.437969,186.60179 285.052719,186.60179 L273.289209,186.60179 C265.901379,186.60179 259.914489,192.694147 259.914489,200.208699 L263.963799,231.08051 Z" id="Fill-119" fill="#F9BE06"></path>
                        <path d="M270.704178,186.87875 C269.603808,187.103104 268.547298,187.44866 267.560448,187.927023 L267.560448,231.080252 L270.704178,231.080252 L270.704178,186.87875 Z" id="Fill-120" fill="#434040"></path>
                        <path d="M289.60887,186.87875 C290.70924,187.103104 291.76575,187.44866 292.75389,187.927023 L292.75389,231.080252 L289.60887,231.080252 L289.60887,186.87875 Z" id="Fill-121" fill="#434040"></path>
                        <path d="M274.302633,347.413199 C274.302633,347.413199 269.653473,349.263471 267.806193,347.823224 C265.960203,346.385557 265.445493,348.202304 265.755093,350.1712 C266.062113,352.138805 263.287323,352.138805 263.287323,352.138805 C263.287323,352.138805 257.531343,352.446969 257.531343,356.041782 C257.531343,359.637884 274.302633,359.021557 276.134433,357.069424 C277.005183,356.143644 274.901193,354.462282 274.799283,352.837653 C274.696083,351.214314 276.068643,347.823224 274.302633,347.413199" id="Fill-122" fill="#F9FBFC"></path>
                        <path d="M262.727979,351.797633 C263.302029,352.560951 263.876079,353.324268 264.450129,354.085007 C264.801009,354.553055 265.467939,354.051483 265.091259,353.592461 C264.484959,352.852352 263.879949,352.114823 263.273649,351.377293 C263.027259,351.074287 262.490619,351.481733 262.727979,351.797633" id="Fill-123" fill="#280948"></path>
                        <path d="M263.927808,351.690614 C264.407688,352.159951 264.888858,352.630578 265.368738,353.098626 C265.749288,353.471259 266.338818,352.880719 265.953108,352.514533 L264.490248,351.127152 C264.118728,350.776438 263.560158,351.332164 263.927808,351.690614" id="Fill-124" fill="#280948"></path>
                        <path d="M289.95588,347.413199 C289.95588,347.413199 294.60504,349.263471 296.45232,347.823224 C298.29831,346.385557 298.81302,348.202304 298.50471,350.1712 C298.1964,352.138805 300.97119,352.138805 300.97119,352.138805 C300.97119,352.138805 306.72717,352.446969 306.72717,356.041782 C306.72717,359.637884 289.95588,359.021557 288.12408,357.069424 C287.25333,356.143644 289.35732,354.462282 289.45923,352.837653 C289.56243,351.214314 288.19116,347.823224 289.95588,347.413199" id="Fill-125" fill="#F9FBFC"></path>
                        <path d="M300.984477,351.377035 C300.379467,352.114565 299.773167,352.853384 299.168157,353.592203 C298.796637,354.043489 299.451957,354.560533 299.809287,354.086039 C300.383337,353.32401 300.957387,352.560693 301.530147,351.797375 C301.764927,351.485344 301.234737,351.072739 300.984477,351.377035" id="Fill-126" fill="#280948"></path>
                        <path d="M299.768136,351.127796 C299.280516,351.589397 298.792896,352.052287 298.306566,352.513888 C297.919566,352.880074 298.509096,353.470614 298.889646,353.097981 C299.370816,352.629933 299.850696,352.160596 300.331866,351.691259 C300.698226,351.33152 300.139656,350.777083 299.768136,351.127796" id="Fill-127" fill="#280948"></path>
                        <path d="M269.830461,168.537081 C269.627931,171.016573 266.037861,180.570936 273.486321,181.103454 C273.486321,181.103454 273.308301,186.244243 272.067321,186.244243 C272.067321,186.244243 269.469261,194.667813 276.535881,195.294455 C283.602501,195.921098 287.853051,186.598824 287.853051,186.598824 C287.853051,186.598824 283.950801,186.244243 284.837031,176.317246 C284.837031,176.317246 287.813061,171.560695 287.675031,167.098124 C287.537001,162.636842 282.576951,158.629425 278.098071,158.944036 C273.619191,159.258646 270.471591,160.716944 269.830461,168.537081" id="Fill-128" fill="#F7C3BB"></path>
                        <path d="M279.132006,172.813851 C279.210696,171.935778 279.984696,171.287216 280.863186,171.365868 C281.740386,171.444521 282.389256,172.218154 282.311856,173.096227 C282.234456,173.9743 281.459166,174.622862 280.580676,174.544209 C279.702186,174.466846 279.053316,173.691924 279.132006,172.813851" id="Fill-129" fill="#FEF0E7"></path>
                        <path d="M269.184816,171.904704 C269.413146,171.831208 269.365416,171.872469 269.619546,171.91115 C270.490296,172.046536 271.087566,172.861429 270.953406,173.731766 C270.817956,174.603392 270.002676,175.200379 269.130636,175.064993 C268.903596,175.030179 268.970676,175.089491 268.788786,174.972157" id="Fill-130" fill="#FEF0E7"></path>
                        <path d="M285.0126,171.809676 C285.70662,170.338484 287.32944,169.646083 288.63879,170.2637 C289.94685,170.880027 290.4435,172.572993 289.74948,174.044185 C289.05546,175.515376 287.43135,176.207777 286.12329,175.590161 C284.81523,174.973833 284.31729,173.280867 285.0126,171.809676" id="Fill-131" fill="#F7C3BB"></path>
                        <path d="M263.53926,227.845823 C263.53926,227.845823 261.8184,309.319656 266.13087,344.490286 L274.32237,344.490286 C274.32237,344.490286 275.83167,267.426159 278.20398,248.031188 L281.00715,249.136193 L289.19994,345.783542 L297.82359,344.231119 C297.82359,344.231119 299.72892,255.539293 295.84731,228.643954 C295.84731,228.643954 276.34509,231.503816 263.53926,227.845823" id="Fill-132" fill="#434040"></path>
                        <path d="M271.519845,161.015437 C271.654005,160.855553 273.579975,153.284268 282.069465,155.325369 C290.558955,157.36647 288.972255,165.497349 288.057645,169.047033 L271.519845,161.015437 Z" id="Fill-133" fill="#4B7EFF"></path>
                        <path d="M270.30789,163.132096 L270.54396,160.662918 C270.62523,159.805476 271.48824,159.252328 272.30094,159.533415 L289.12899,165.361447 C290.05908,165.682505 290.32869,166.867452 289.62951,167.558564 L288.15117,169.023309 C287.80287,169.367575 287.29203,169.493935 286.82247,169.348234 L271.23798,164.527214 C270.63555,164.340252 270.24855,163.758738 270.30789,163.132096" id="Fill-134" fill="#2627A1"></path>
                        <polygon id="Fill-135" fill="#4B7EFF" points="231.165807 137.847976 242.284317 118.598706 220.047297 118.598706 231.165807 137.847976 242.284317 118.598706 220.047297 118.598706"></polygon>
                        <polygon id="Fill-136" fill="#CA93FF" points="293.454231 137.847976 310.573821 123.662132 289.722261 115.93612 293.454231 137.847976 310.573821 123.662132 289.722261 115.93612"></polygon>
                        <path d="M121.20894,55.3825552 C130.85685,88.1381617 112.11057,122.509371 79.3394095,132.152702 C46.5682495,141.794744 12.1807195,123.057361 2.53409951,90.3030437 C-7.11381049,57.5461478 11.6324695,23.1749384 44.4036295,13.5328968 C77.1747895,3.88956578 111.56103,22.6269486 121.20894,55.3825552" id="Fill-137" fill="#7D5DE3"></path>
                        <path d="M290.711,61.8261429 C290.711,95.9717094 263.01728,123.652286 228.8555,123.652286 C194.69372,123.652286 167,95.9717094 167,61.8261429 C167,27.6805763 194.69372,0 228.8555,0 C263.01728,0 290.711,27.6805763 290.711,61.8261429" id="Fill-138" fill="#4B7EFF"></path>
                        <path d="M348.536287,101.378552 C340.360267,123.423215 315.852847,134.669255 293.797717,126.497115 C271.742587,118.324975 260.491207,93.8291868 268.667227,71.7845243 C276.843247,49.7398619 301.350667,38.4938219 323.405797,46.6659615 C345.460927,54.8381011 356.712307,79.3338896 348.536287,101.378552" id="Fill-139" fill="#CA93FF"></path>
                    </g>
                    <text id="Hi!" font-family="LucidaGrande, Lucida Grande" font-size="22.5092" font-weight="normal" letter-spacing="0.265092" fill="#FAFCFB">
                        <tspan x="46" y="81">H</tspan>
                        <tspan x="62.8062766" y="81" letter-spacing="0.04">i!</tspan>
                    </text>
                    <text id="SALUT!" font-family="LucidaGrande, Lucida Grande" font-size="13.5679" font-weight="normal" letter-spacing="0.06" fill="#FAFCFB">
                        <tspan x="205" y="67">SA</tspan>
                        <tspan x="221.788377" y="67" letter-spacing="-0.4284444">L</tspan>
                        <tspan x="228.594379" y="67">UT!</tspan>
                    </text>
                    <text id="Hallo" font-family="LucidaGrande, Lucida Grande" font-size="16.113" font-weight="normal" letter-spacing="0.04" fill="#FAFCFB">
                        <tspan x="288" y="93">Hallo</tspan>
                    </text>
                    <g id="Group-145" transform="translate(100.000000, 27.000000)" fill="#FFAF0A">
                        <polygon id="Fill-141" points="51.3691368 108.594682 61.9312158 88.9668 39.7122947 89.5996235 51.3691368 108.594682 61.9312158 88.9668 39.7122947 89.5996235"></polygon>
                        <path d="M97.194782,47.3951762 C97.9568609,74.3257644 76.8223872,96.7787056 49.9884399,97.5435291 C23.1544925,98.3096467 0.782124079,77.0990585 0.0200451317,50.1684703 C-0.743323289,23.237882 20.3911504,0.784940859 47.2263872,0.0201173301 C74.0603346,-0.746000317 96.4314136,20.4645879 97.194782,47.3951762" id="Fill-143"></path>
                    </g>
                    <text id="HOLA!" font-family="LucidaGrande, Lucida Grande" font-size="12.4834" font-weight="normal" letter-spacing="0.06" fill="#FAFCFB">
                        <tspan x="129" y="80">HOLA!</tspan>
                    </text>
                </g>
            </g>
        </g>
    </g>
</svg>